M48
; DRILL file {KiCad 7.0.2} date Thu Nov  9 20:15:28 2023
; FORMAT={-:-/ absolute / metric / decimal}
; #@! TF.CreationDate,2023-11-09T20:15:28+01:00
; #@! TF.GenerationSoftware,Kicad,Pcbnew,7.0.2
; #@! TF.FileFunction,Plated,1,2,PTH
FMAT,2
METRIC
; #@! TA.AperFunction,Plated,PTH,ViaDrill
T1C0.400
; #@! TA.AperFunction,Plated,PTH,ViaDrill
T2C0.600
; #@! TA.AperFunction,Plated,PTH,ComponentDrill
T3C0.800
; #@! TA.AperFunction,Plated,PTH,ComponentDrill
T4C1.000
; #@! TA.AperFunction,Plated,PTH,ComponentDrill
T5C1.100
; #@! TA.AperFunction,Plated,PTH,ComponentDrill
T6C1.600
; #@! TA.AperFunction,Plated,PTH,ComponentDrill
T7C1.850
%
G90
G05
T1
X95.91Y-81.432
X99.91Y-79.432
X107.91Y-79.432
X107.91Y-81.432
X109.91Y-79.432
X109.91Y-81.432
X111.91Y-79.432
X111.91Y-81.432
X116.77Y-89.043
X119.91Y-77.432
X119.91Y-83.432
X121.91Y-71.432
X121.91Y-73.432
X121.91Y-75.432
X121.91Y-77.432
X123.91Y-71.432
X123.91Y-73.432
X123.91Y-75.432
X123.91Y-77.432
X123.91Y-83.432
X134.423Y-88.408
X137.598Y-80.28
X137.674Y-89.436
X138.792Y-89.399
X140.011Y-89.424
X141.154Y-89.424
X142.891Y-90.018
X144.053Y-90.037
X145.345Y-90.059
X146.234Y-90.694
X147.546Y-90.948
X148.647Y-79.191
X148.647Y-89.297
X149.663Y-79.191
X150.044Y-89.297
X151.325Y-89.297
X152.202Y-80.087
X152.206Y-79.088
X154.108Y-82.566
X154.108Y-85.106
X156.644Y-93.738
X157.664Y-93.742
X157.664Y-105.426
T2
X102.108Y-84.582
X105.791Y-84.582
X129.47Y-89.932
X133.026Y-100.6
X134.448Y-77.486
T3
X135.708Y-92.97
X135.708Y-100.59
X138.248Y-92.97
X138.248Y-100.59
X140.788Y-92.97
X140.788Y-100.59
X143.328Y-92.97
X143.328Y-100.59
X145.868Y-92.97
X145.868Y-100.59
X148.408Y-92.97
X148.408Y-100.59
X150.948Y-92.97
X150.948Y-100.59
X153.488Y-92.97
X153.488Y-100.59
T4
X119.564Y-104.614
X119.564Y-112.014
X128.136Y-70.374
X128.136Y-72.914
X130.676Y-70.374
X130.676Y-72.914
X133.216Y-70.374
X133.216Y-72.914
X135.756Y-70.374
X135.756Y-72.914
X138.296Y-70.374
X138.296Y-72.914
X150.488Y-70.374
X150.488Y-72.914
X153.028Y-70.374
X153.028Y-72.914
X155.568Y-70.374
X155.568Y-72.914
X157.918Y-80.031
X157.918Y-82.571
X157.918Y-85.111
X157.918Y-87.651
X157.918Y-90.191
X158.108Y-70.374
X158.108Y-72.914
X160.648Y-70.374
X160.648Y-72.914
X169.475Y-104.614
X169.475Y-112.014
T5
X164.268Y-80.332
X164.268Y-86.832
X168.768Y-80.332
X168.768Y-86.832
X173.321Y-80.332
X173.321Y-86.832
X177.821Y-80.332
X177.821Y-86.832
T6
X133.026Y-106.398
X133.026Y-113.598
T7
X140.391Y-116.147
X142.296Y-106.617
X146.996Y-106.617
X151.696Y-106.617
X153.601Y-116.147
T0
M30
