%TF.GenerationSoftware,KiCad,Pcbnew,7.0.2*%
%TF.CreationDate,2023-11-09T20:15:28+01:00*%
%TF.ProjectId,Motherboard,4d6f7468-6572-4626-9f61-72642e6b6963,rev?*%
%TF.SameCoordinates,Original*%
%TF.FileFunction,Profile,NP*%
%FSLAX46Y46*%
G04 Gerber Fmt 4.6, Leading zero omitted, Abs format (unit mm)*
G04 Created by KiCad (PCBNEW 7.0.2) date 2023-11-09 20:15:28*
%MOMM*%
%LPD*%
G01*
G04 APERTURE LIST*
%TA.AperFunction,Profile*%
%ADD10C,0.100000*%
%TD*%
G04 APERTURE END LIST*
D10*
X105510400Y-96634000D02*
G75*
G03*
X105510400Y-96634000I-1600000J0D01*
G01*
X186601600Y-96634000D02*
G75*
G03*
X186601600Y-96634000I-1600000J0D01*
G01*
X190494000Y-78413600D02*
X173462801Y-78387199D01*
X123494800Y-63398400D02*
G75*
G03*
X119494800Y-67398400I0J-4000000D01*
G01*
X152344000Y-58690000D02*
G75*
G03*
X152344000Y-58690000I-1600000J0D01*
G01*
X98532800Y-78400400D02*
X115513200Y-78387200D01*
X169594000Y-97460000D02*
G75*
G03*
X169594000Y-97460000I-1600000J0D01*
G01*
X132010000Y-59401200D02*
X131994000Y-45482000D01*
X156966000Y-59401200D02*
X156994000Y-45482000D01*
X98532800Y-78400400D02*
G75*
G03*
X94519600Y-82413600I0J-4013200D01*
G01*
X128010000Y-63401200D02*
G75*
G03*
X132010000Y-59401200I0J4000000D01*
G01*
X194494000Y-82413600D02*
X194531600Y-114430800D01*
X169471973Y-67395227D02*
G75*
G03*
X165471973Y-63395227I-3999973J27D01*
G01*
X128010000Y-63401200D02*
X123494800Y-63398400D01*
X169462801Y-74387199D02*
X169471973Y-67395227D01*
X119513200Y-74387200D02*
X119494800Y-67398400D01*
X131994000Y-45482000D02*
X156994000Y-45482000D01*
X156966000Y-59401200D02*
G75*
G03*
X160966000Y-63401200I4000000J0D01*
G01*
X124594000Y-115824000D02*
G75*
G03*
X124594000Y-115824000I-1600000J0D01*
G01*
X98468800Y-118417600D02*
X190531600Y-118430800D01*
X194494000Y-82413600D02*
G75*
G03*
X190494000Y-78413600I-4000000J0D01*
G01*
X165471973Y-63395227D02*
X160966000Y-63401200D01*
X115513200Y-78387200D02*
G75*
G03*
X119513200Y-74387200I0J4000000D01*
G01*
X94519600Y-82413600D02*
X94468800Y-114417600D01*
X139844000Y-58690000D02*
G75*
G03*
X139844000Y-58690000I-1600000J0D01*
G01*
X94468800Y-114417600D02*
G75*
G03*
X98468800Y-118417600I4000000J0D01*
G01*
X169462801Y-74387199D02*
G75*
G03*
X173462801Y-78387199I3999999J-1D01*
G01*
X122594000Y-97460000D02*
G75*
G03*
X122594000Y-97460000I-1600000J0D01*
G01*
X190531600Y-118430800D02*
G75*
G03*
X194531600Y-114430800I0J4000000D01*
G01*
X146094000Y-48380000D02*
G75*
G03*
X146094000Y-48380000I-1600000J0D01*
G01*
X167594000Y-115824000D02*
G75*
G03*
X167594000Y-115824000I-1600000J0D01*
G01*
M02*
