%TF.GenerationSoftware,KiCad,Pcbnew,7.0.2*%
%TF.CreationDate,2023-11-09T20:28:49+01:00*%
%TF.ProjectId,Sensors,53656e73-6f72-4732-9e6b-696361645f70,rev?*%
%TF.SameCoordinates,Original*%
%TF.FileFunction,Legend,Top*%
%TF.FilePolarity,Positive*%
%FSLAX46Y46*%
G04 Gerber Fmt 4.6, Leading zero omitted, Abs format (unit mm)*
G04 Created by KiCad (PCBNEW 7.0.2) date 2023-11-09 20:28:49*
%MOMM*%
%LPD*%
G01*
G04 APERTURE LIST*
%ADD10C,0.120000*%
%ADD11C,0.350000*%
G04 APERTURE END LIST*
D10*
%TO.C,J2*%
X149355000Y-87833000D02*
X149355000Y-96953000D01*
X141115000Y-87833000D02*
X141115000Y-89143000D01*
X128775000Y-87833000D02*
X149355000Y-87833000D01*
X148055000Y-89143000D02*
X148055000Y-95643000D01*
X141115000Y-89143000D02*
X148055000Y-89143000D01*
X137015000Y-89143000D02*
X137015000Y-87833000D01*
X137015000Y-89143000D02*
X137015000Y-89143000D01*
X130075000Y-89143000D02*
X137015000Y-89143000D01*
X148055000Y-95643000D02*
X130075000Y-95643000D01*
X130075000Y-95643000D02*
X130075000Y-89143000D01*
X149355000Y-96953000D02*
X128775000Y-96953000D01*
X128775000Y-96953000D02*
X128775000Y-87833000D01*
%TO.C,J4*%
X151310000Y-96950000D02*
X151310000Y-87830000D01*
X171890000Y-96950000D02*
X151310000Y-96950000D01*
X152610000Y-95640000D02*
X152610000Y-89140000D01*
X170590000Y-95640000D02*
X152610000Y-95640000D01*
X152610000Y-89140000D02*
X159550000Y-89140000D01*
X159550000Y-89140000D02*
X159550000Y-89140000D01*
X159550000Y-89140000D02*
X159550000Y-87830000D01*
X163650000Y-89140000D02*
X170590000Y-89140000D01*
X170590000Y-89140000D02*
X170590000Y-95640000D01*
X151310000Y-87830000D02*
X171890000Y-87830000D01*
X163650000Y-87830000D02*
X163650000Y-89140000D01*
X171890000Y-87830000D02*
X171890000Y-96950000D01*
%TO.C,R6*%
X179924064Y-77745000D02*
X178469936Y-77745000D01*
X179924064Y-75925000D02*
X178469936Y-75925000D01*
%TO.C,R4*%
X163483936Y-77576000D02*
X164938064Y-77576000D01*
X163483936Y-79396000D02*
X164938064Y-79396000D01*
%TO.C,D6*%
X162499000Y-87296000D02*
X165669000Y-87296000D01*
X165669000Y-87296000D02*
X165669000Y-83236000D01*
X162499000Y-83236000D02*
X162499000Y-87296000D01*
%TO.C,D5*%
X155931500Y-87296000D02*
X159101500Y-87296000D01*
X159101500Y-87296000D02*
X159101500Y-83236000D01*
X155931500Y-83236000D02*
X155931500Y-87296000D01*
%TO.C,R11*%
X144433936Y-77576000D02*
X145888064Y-77576000D01*
X144433936Y-79396000D02*
X145888064Y-79396000D01*
%TO.C,R8*%
X178469936Y-78465000D02*
X179924064Y-78465000D01*
X178469936Y-80285000D02*
X179924064Y-80285000D01*
%TO.C,D4*%
X148783000Y-87296000D02*
X151953000Y-87296000D01*
X151953000Y-87296000D02*
X151953000Y-83236000D01*
X148783000Y-83236000D02*
X148783000Y-87296000D01*
%TO.C,R16*%
X140610000Y-84108936D02*
X140610000Y-85563064D01*
X138790000Y-84108936D02*
X138790000Y-85563064D01*
%TO.C,R7*%
X129447936Y-78465000D02*
X130902064Y-78465000D01*
X129447936Y-80285000D02*
X130902064Y-80285000D01*
%TO.C,D1*%
X128463000Y-87296000D02*
X131633000Y-87296000D01*
X131633000Y-87296000D02*
X131633000Y-83236000D01*
X128463000Y-83236000D02*
X128463000Y-87296000D01*
%TO.C,D7*%
X169103000Y-87296000D02*
X172273000Y-87296000D01*
X172273000Y-87296000D02*
X172273000Y-83236000D01*
X169103000Y-83236000D02*
X169103000Y-87296000D01*
%TO.C,R17*%
X147214000Y-84108936D02*
X147214000Y-85563064D01*
X145394000Y-84108936D02*
X145394000Y-85563064D01*
%TO.C,R18*%
X154326000Y-84108936D02*
X154326000Y-85563064D01*
X152506000Y-84108936D02*
X152506000Y-85563064D01*
%TO.C,D3*%
X141671000Y-87296000D02*
X144841000Y-87296000D01*
X144841000Y-87296000D02*
X144841000Y-83236000D01*
X141671000Y-83236000D02*
X141671000Y-87296000D01*
%TO.C,R14*%
X153958936Y-77576000D02*
X155413064Y-77576000D01*
X153958936Y-79396000D02*
X155413064Y-79396000D01*
%TO.C,R15*%
X134006000Y-84108936D02*
X134006000Y-85563064D01*
X132186000Y-84108936D02*
X132186000Y-85563064D01*
%TO.C,R2*%
X164938064Y-76856000D02*
X163483936Y-76856000D01*
X164938064Y-75036000D02*
X163483936Y-75036000D01*
%TO.C,D2*%
X135067000Y-87296000D02*
X138237000Y-87296000D01*
X138237000Y-87296000D02*
X138237000Y-83236000D01*
X135067000Y-83236000D02*
X135067000Y-87296000D01*
%TO.C,R3*%
X115096936Y-81894000D02*
X116551064Y-81894000D01*
X115096936Y-83714000D02*
X116551064Y-83714000D01*
%TO.C,R20*%
X168042000Y-84108936D02*
X168042000Y-85563064D01*
X166222000Y-84108936D02*
X166222000Y-85563064D01*
%TO.C,R19*%
X161438000Y-84108936D02*
X161438000Y-85563064D01*
X159618000Y-84108936D02*
X159618000Y-85563064D01*
%TO.C,R10*%
X184184936Y-80243000D02*
X185639064Y-80243000D01*
X184184936Y-82063000D02*
X185639064Y-82063000D01*
%TO.C,R13*%
X155413064Y-76856000D02*
X153958936Y-76856000D01*
X155413064Y-75036000D02*
X153958936Y-75036000D01*
%TO.C,R1*%
X116551064Y-81174000D02*
X115096936Y-81174000D01*
X116551064Y-79354000D02*
X115096936Y-79354000D01*
%TO.C,R9*%
X145888064Y-76856000D02*
X144433936Y-76856000D01*
X145888064Y-75036000D02*
X144433936Y-75036000D01*
%TO.C,R21*%
X174646000Y-84108936D02*
X174646000Y-85563064D01*
X172826000Y-84108936D02*
X172826000Y-85563064D01*
%TO.C,R12*%
X185639064Y-84857000D02*
X184184936Y-84857000D01*
X185639064Y-83037000D02*
X184184936Y-83037000D01*
%TO.C,R5*%
X130902064Y-77745000D02*
X129447936Y-77745000D01*
X130902064Y-75925000D02*
X129447936Y-75925000D01*
%TD*%
D11*
X170815000Y-89281000D03*
X157480000Y-77089000D03*
X141224000Y-89535000D03*
X146304000Y-89916000D03*
X144145000Y-91123000D03*
X144145000Y-93663000D03*
X141605000Y-91123000D03*
X141605000Y-93663000D03*
X139065000Y-91123000D03*
X139065000Y-93663000D03*
X136525000Y-91123000D03*
X136525000Y-93663000D03*
X133985000Y-91123000D03*
X133985000Y-93663000D03*
X156520000Y-93660000D03*
X156520000Y-91120000D03*
X159060000Y-93660000D03*
X159060000Y-91120000D03*
X161600000Y-93660000D03*
X161600000Y-91120000D03*
X164140000Y-93660000D03*
X164140000Y-91120000D03*
X166680000Y-93660000D03*
X166680000Y-91120000D03*
X151268000Y-79851000D03*
X151268000Y-75851000D03*
X149468000Y-79851000D03*
X149468000Y-75851000D03*
X126757000Y-80740000D03*
X126757000Y-76740000D03*
X124957000Y-80740000D03*
X124957000Y-76740000D03*
X190130000Y-84169000D03*
X190130000Y-80169000D03*
X188330000Y-84169000D03*
X188330000Y-80169000D03*
X175779000Y-80740000D03*
X175779000Y-76740000D03*
X173979000Y-80740000D03*
X173979000Y-76740000D03*
X112406000Y-84169000D03*
X112406000Y-80169000D03*
X110606000Y-84169000D03*
X110606000Y-80169000D03*
X160793000Y-79851000D03*
X160793000Y-75851000D03*
X158993000Y-79851000D03*
X158993000Y-75851000D03*
X141743000Y-79851000D03*
X141743000Y-75851000D03*
X139943000Y-79851000D03*
X139943000Y-75851000D03*
M02*
