%TF.GenerationSoftware,KiCad,Pcbnew,7.0.2*%
%TF.CreationDate,2023-11-09T20:28:49+01:00*%
%TF.ProjectId,Sensors,53656e73-6f72-4732-9e6b-696361645f70,rev?*%
%TF.SameCoordinates,Original*%
%TF.FileFunction,Soldermask,Top*%
%TF.FilePolarity,Negative*%
%FSLAX46Y46*%
G04 Gerber Fmt 4.6, Leading zero omitted, Abs format (unit mm)*
G04 Created by KiCad (PCBNEW 7.0.2) date 2023-11-09 20:28:49*
%MOMM*%
%LPD*%
G01*
G04 APERTURE LIST*
G04 Aperture macros list*
%AMRoundRect*
0 Rectangle with rounded corners*
0 $1 Rounding radius*
0 $2 $3 $4 $5 $6 $7 $8 $9 X,Y pos of 4 corners*
0 Add a 4 corners polygon primitive as box body*
4,1,4,$2,$3,$4,$5,$6,$7,$8,$9,$2,$3,0*
0 Add four circle primitives for the rounded corners*
1,1,$1+$1,$2,$3*
1,1,$1+$1,$4,$5*
1,1,$1+$1,$6,$7*
1,1,$1+$1,$8,$9*
0 Add four rect primitives between the rounded corners*
20,1,$1+$1,$2,$3,$4,$5,0*
20,1,$1+$1,$4,$5,$6,$7,0*
20,1,$1+$1,$6,$7,$8,$9,0*
20,1,$1+$1,$8,$9,$2,$3,0*%
G04 Aperture macros list end*
%ADD10RoundRect,0.250000X-0.600000X0.600000X-0.600000X-0.600000X0.600000X-0.600000X0.600000X0.600000X0*%
%ADD11C,1.700000*%
%ADD12RoundRect,0.250000X0.312500X0.625000X-0.312500X0.625000X-0.312500X-0.625000X0.312500X-0.625000X0*%
%ADD13RoundRect,0.250000X-0.312500X-0.625000X0.312500X-0.625000X0.312500X0.625000X-0.312500X0.625000X0*%
%ADD14RoundRect,0.250001X1.074999X-0.462499X1.074999X0.462499X-1.074999X0.462499X-1.074999X-0.462499X0*%
%ADD15RoundRect,0.250000X-0.625000X0.312500X-0.625000X-0.312500X0.625000X-0.312500X0.625000X0.312500X0*%
%ADD16RoundRect,0.249700X0.300300X0.500300X-0.300300X0.500300X-0.300300X-0.500300X0.300300X-0.500300X0*%
%ADD17O,1.100000X1.500000*%
G04 APERTURE END LIST*
D10*
%TO.C,J2*%
X144145000Y-91123000D03*
D11*
X144145000Y-93663000D03*
X141605000Y-91123000D03*
X141605000Y-93663000D03*
X139065000Y-91123000D03*
X139065000Y-93663000D03*
X136525000Y-91123000D03*
X136525000Y-93663000D03*
X133985000Y-91123000D03*
X133985000Y-93663000D03*
%TD*%
%TO.C,J4*%
X156520000Y-93660000D03*
X156520000Y-91120000D03*
X159060000Y-93660000D03*
X159060000Y-91120000D03*
X161600000Y-93660000D03*
X161600000Y-91120000D03*
X164140000Y-93660000D03*
X164140000Y-91120000D03*
X166680000Y-93660000D03*
D10*
X166680000Y-91120000D03*
%TD*%
D12*
%TO.C,R6*%
X180659500Y-76835000D03*
X177734500Y-76835000D03*
%TD*%
D13*
%TO.C,R4*%
X162748500Y-78486000D03*
X165673500Y-78486000D03*
%TD*%
D14*
%TO.C,D6*%
X164084000Y-86323500D03*
X164084000Y-83348500D03*
%TD*%
%TO.C,D5*%
X157516500Y-86323500D03*
X157516500Y-83348500D03*
%TD*%
D13*
%TO.C,R11*%
X143698500Y-78486000D03*
X146623500Y-78486000D03*
%TD*%
%TO.C,R8*%
X177734500Y-79375000D03*
X180659500Y-79375000D03*
%TD*%
D14*
%TO.C,D4*%
X150368000Y-86323500D03*
X150368000Y-83348500D03*
%TD*%
D15*
%TO.C,R16*%
X139700000Y-83373500D03*
X139700000Y-86298500D03*
%TD*%
D13*
%TO.C,R7*%
X128712500Y-79375000D03*
X131637500Y-79375000D03*
%TD*%
D14*
%TO.C,D1*%
X130048000Y-86323500D03*
X130048000Y-83348500D03*
%TD*%
%TO.C,D7*%
X170688000Y-86323500D03*
X170688000Y-83348500D03*
%TD*%
D15*
%TO.C,R17*%
X146304000Y-83373500D03*
X146304000Y-86298500D03*
%TD*%
%TO.C,R18*%
X153416000Y-83373500D03*
X153416000Y-86298500D03*
%TD*%
D14*
%TO.C,D3*%
X143256000Y-86323500D03*
X143256000Y-83348500D03*
%TD*%
D13*
%TO.C,R14*%
X153223500Y-78486000D03*
X156148500Y-78486000D03*
%TD*%
D15*
%TO.C,R15*%
X133096000Y-83373500D03*
X133096000Y-86298500D03*
%TD*%
D12*
%TO.C,R2*%
X165673500Y-75946000D03*
X162748500Y-75946000D03*
%TD*%
D14*
%TO.C,D2*%
X136652000Y-86323500D03*
X136652000Y-83348500D03*
%TD*%
D13*
%TO.C,R3*%
X114361500Y-82804000D03*
X117286500Y-82804000D03*
%TD*%
D15*
%TO.C,R20*%
X167132000Y-83373500D03*
X167132000Y-86298500D03*
%TD*%
%TO.C,R19*%
X160528000Y-83373500D03*
X160528000Y-86298500D03*
%TD*%
D13*
%TO.C,R10*%
X183449500Y-81153000D03*
X186374500Y-81153000D03*
%TD*%
D12*
%TO.C,R13*%
X156148500Y-75946000D03*
X153223500Y-75946000D03*
%TD*%
%TO.C,R1*%
X117286500Y-80264000D03*
X114361500Y-80264000D03*
%TD*%
%TO.C,R9*%
X146623500Y-75946000D03*
X143698500Y-75946000D03*
%TD*%
D15*
%TO.C,R21*%
X173736000Y-83373500D03*
X173736000Y-86298500D03*
%TD*%
D12*
%TO.C,R12*%
X186374500Y-83947000D03*
X183449500Y-83947000D03*
%TD*%
%TO.C,R5*%
X131637500Y-76835000D03*
X128712500Y-76835000D03*
%TD*%
D16*
%TO.C,U4*%
X151268000Y-79851000D03*
D17*
X151268000Y-75851000D03*
X149468000Y-79851000D03*
X149468000Y-75851000D03*
%TD*%
D16*
%TO.C,U2*%
X126757000Y-80740000D03*
D17*
X126757000Y-76740000D03*
X124957000Y-80740000D03*
X124957000Y-76740000D03*
%TD*%
D16*
%TO.C,U7*%
X190130000Y-84169000D03*
D17*
X190130000Y-80169000D03*
X188330000Y-84169000D03*
X188330000Y-80169000D03*
%TD*%
D16*
%TO.C,U6*%
X175779000Y-80740000D03*
D17*
X175779000Y-76740000D03*
X173979000Y-80740000D03*
X173979000Y-76740000D03*
%TD*%
D16*
%TO.C,U1*%
X112406000Y-84169000D03*
D17*
X112406000Y-80169000D03*
X110606000Y-84169000D03*
X110606000Y-80169000D03*
%TD*%
D16*
%TO.C,U5*%
X160793000Y-79851000D03*
D17*
X160793000Y-75851000D03*
X158993000Y-79851000D03*
X158993000Y-75851000D03*
%TD*%
D16*
%TO.C,U3*%
X141743000Y-79851000D03*
D17*
X141743000Y-75851000D03*
X139943000Y-79851000D03*
X139943000Y-75851000D03*
%TD*%
M02*
