%TF.GenerationSoftware,KiCad,Pcbnew,7.0.2*%
%TF.CreationDate,2023-11-09T20:28:49+01:00*%
%TF.ProjectId,Sensors,53656e73-6f72-4732-9e6b-696361645f70,rev?*%
%TF.SameCoordinates,Original*%
%TF.FileFunction,Copper,L2,Bot*%
%TF.FilePolarity,Positive*%
%FSLAX46Y46*%
G04 Gerber Fmt 4.6, Leading zero omitted, Abs format (unit mm)*
G04 Created by KiCad (PCBNEW 7.0.2) date 2023-11-09 20:28:49*
%MOMM*%
%LPD*%
G01*
G04 APERTURE LIST*
G04 Aperture macros list*
%AMRoundRect*
0 Rectangle with rounded corners*
0 $1 Rounding radius*
0 $2 $3 $4 $5 $6 $7 $8 $9 X,Y pos of 4 corners*
0 Add a 4 corners polygon primitive as box body*
4,1,4,$2,$3,$4,$5,$6,$7,$8,$9,$2,$3,0*
0 Add four circle primitives for the rounded corners*
1,1,$1+$1,$2,$3*
1,1,$1+$1,$4,$5*
1,1,$1+$1,$6,$7*
1,1,$1+$1,$8,$9*
0 Add four rect primitives between the rounded corners*
20,1,$1+$1,$2,$3,$4,$5,0*
20,1,$1+$1,$4,$5,$6,$7,0*
20,1,$1+$1,$6,$7,$8,$9,0*
20,1,$1+$1,$8,$9,$2,$3,0*%
G04 Aperture macros list end*
%TA.AperFunction,ComponentPad*%
%ADD10RoundRect,0.250000X-0.600000X0.600000X-0.600000X-0.600000X0.600000X-0.600000X0.600000X0.600000X0*%
%TD*%
%TA.AperFunction,ComponentPad*%
%ADD11C,1.700000*%
%TD*%
%TA.AperFunction,ComponentPad*%
%ADD12RoundRect,0.249700X0.300300X0.500300X-0.300300X0.500300X-0.300300X-0.500300X0.300300X-0.500300X0*%
%TD*%
%TA.AperFunction,ComponentPad*%
%ADD13O,1.100000X1.500000*%
%TD*%
%TA.AperFunction,ViaPad*%
%ADD14C,0.800000*%
%TD*%
%TA.AperFunction,Conductor*%
%ADD15C,0.500000*%
%TD*%
%ADD16C,0.350000*%
G04 APERTURE END LIST*
D10*
%TO.P,J2,1,Pin_1*%
%TO.N,+3V3*%
X144145000Y-91123000D03*
D11*
%TO.P,J2,2,Pin_2*%
%TO.N,A4_C*%
X144145000Y-93663000D03*
%TO.P,J2,3,Pin_3*%
%TO.N,A0_C*%
X141605000Y-91123000D03*
%TO.P,J2,4,Pin_4*%
%TO.N,A5_C*%
X141605000Y-93663000D03*
%TO.P,J2,5,Pin_5*%
%TO.N,A1_C*%
X139065000Y-91123000D03*
%TO.P,J2,6,Pin_6*%
%TO.N,A6_C*%
X139065000Y-93663000D03*
%TO.P,J2,7,Pin_7*%
%TO.N,A2_C*%
X136525000Y-91123000D03*
%TO.P,J2,8,Pin_8*%
%TO.N,GND*%
X136525000Y-93663000D03*
%TO.P,J2,9,Pin_9*%
%TO.N,A3_C*%
X133985000Y-91123000D03*
%TO.P,J2,10,Pin_10*%
%TO.N,GND*%
X133985000Y-93663000D03*
%TD*%
%TO.P,J4,10,Pin_10*%
%TO.N,GND1*%
X156520000Y-93660000D03*
%TO.P,J4,9,Pin_9*%
%TO.N,LD4_C*%
X156520000Y-91120000D03*
%TO.P,J4,8,Pin_8*%
%TO.N,GND1*%
X159060000Y-93660000D03*
%TO.P,J4,7,Pin_7*%
%TO.N,LD3_C*%
X159060000Y-91120000D03*
%TO.P,J4,6,Pin_6*%
%TO.N,GND1*%
X161600000Y-93660000D03*
%TO.P,J4,5,Pin_5*%
%TO.N,LD2_C*%
X161600000Y-91120000D03*
%TO.P,J4,4,Pin_4*%
%TO.N,LD6_C*%
X164140000Y-93660000D03*
%TO.P,J4,3,Pin_3*%
%TO.N,LD1_C*%
X164140000Y-91120000D03*
%TO.P,J4,2,Pin_2*%
%TO.N,LD5_C*%
X166680000Y-93660000D03*
D10*
%TO.P,J4,1,Pin_1*%
%TO.N,LD0_C*%
X166680000Y-91120000D03*
%TD*%
D12*
%TO.P,U4,1,K*%
%TO.N,GND*%
X151268000Y-79851000D03*
D13*
%TO.P,U4,2,A*%
%TO.N,Net-(U4-A)*%
X151268000Y-75851000D03*
%TO.P,U4,3,C*%
%TO.N,A3_C*%
X149468000Y-79851000D03*
%TO.P,U4,4,E*%
%TO.N,GND*%
X149468000Y-75851000D03*
%TD*%
D12*
%TO.P,U2,1,K*%
%TO.N,GND*%
X126757000Y-80740000D03*
D13*
%TO.P,U2,2,A*%
%TO.N,Net-(U2-A)*%
X126757000Y-76740000D03*
%TO.P,U2,3,C*%
%TO.N,A1_C*%
X124957000Y-80740000D03*
%TO.P,U2,4,E*%
%TO.N,GND*%
X124957000Y-76740000D03*
%TD*%
D12*
%TO.P,U7,1,K*%
%TO.N,GND*%
X190130000Y-84169000D03*
D13*
%TO.P,U7,2,A*%
%TO.N,Net-(U7-A)*%
X190130000Y-80169000D03*
%TO.P,U7,3,C*%
%TO.N,A6_C*%
X188330000Y-84169000D03*
%TO.P,U7,4,E*%
%TO.N,GND*%
X188330000Y-80169000D03*
%TD*%
D12*
%TO.P,U6,1,K*%
%TO.N,GND*%
X175779000Y-80740000D03*
D13*
%TO.P,U6,2,A*%
%TO.N,Net-(U6-A)*%
X175779000Y-76740000D03*
%TO.P,U6,3,C*%
%TO.N,A5_C*%
X173979000Y-80740000D03*
%TO.P,U6,4,E*%
%TO.N,GND*%
X173979000Y-76740000D03*
%TD*%
D12*
%TO.P,U1,1,K*%
%TO.N,GND*%
X112406000Y-84169000D03*
D13*
%TO.P,U1,2,A*%
%TO.N,Net-(U1-A)*%
X112406000Y-80169000D03*
%TO.P,U1,3,C*%
%TO.N,A0_C*%
X110606000Y-84169000D03*
%TO.P,U1,4,E*%
%TO.N,GND*%
X110606000Y-80169000D03*
%TD*%
D12*
%TO.P,U5,1,K*%
%TO.N,GND*%
X160793000Y-79851000D03*
D13*
%TO.P,U5,2,A*%
%TO.N,Net-(U5-A)*%
X160793000Y-75851000D03*
%TO.P,U5,3,C*%
%TO.N,A4_C*%
X158993000Y-79851000D03*
%TO.P,U5,4,E*%
%TO.N,GND*%
X158993000Y-75851000D03*
%TD*%
D12*
%TO.P,U3,1,K*%
%TO.N,GND*%
X141743000Y-79851000D03*
D13*
%TO.P,U3,2,A*%
%TO.N,Net-(U3-A)*%
X141743000Y-75851000D03*
%TO.P,U3,3,C*%
%TO.N,A2_C*%
X139943000Y-79851000D03*
%TO.P,U3,4,E*%
%TO.N,GND*%
X139943000Y-75851000D03*
%TD*%
D14*
%TO.N,GND1*%
X170815000Y-89281000D03*
%TO.N,+3V3*%
X157480000Y-77089000D03*
%TO.N,A2_C*%
X141224000Y-89535000D03*
%TO.N,A3_C*%
X146304000Y-89916000D03*
%TD*%
D15*
%TO.N,GND1*%
X161600000Y-93660000D02*
X164206000Y-96266000D01*
X164206000Y-96266000D02*
X169926000Y-96266000D01*
X170815000Y-95377000D02*
X170815000Y-89916000D01*
X169926000Y-96266000D02*
X170815000Y-95377000D01*
X170815000Y-89916000D02*
X170815000Y-89281000D01*
%TO.N,+3V3*%
X144145000Y-91123000D02*
X146367000Y-91123000D01*
X146367000Y-91123000D02*
X156337000Y-81153000D01*
X156337000Y-81153000D02*
X157480000Y-80010000D01*
X157480000Y-80010000D02*
X157480000Y-77089000D01*
%TO.N,A0_C*%
X110606000Y-82942000D02*
X110606000Y-84169000D01*
X141415000Y-91123000D02*
X129159000Y-78867000D01*
X129159000Y-78867000D02*
X117856000Y-78867000D01*
X141605000Y-91123000D02*
X141415000Y-91123000D01*
X114681000Y-82042000D02*
X111506000Y-82042000D01*
X111506000Y-82042000D02*
X110606000Y-82942000D01*
X117856000Y-78867000D02*
X114681000Y-82042000D01*
%TO.N,A1_C*%
X139065000Y-91059000D02*
X131699000Y-83693000D01*
X124957000Y-80761000D02*
X124957000Y-80740000D01*
X127889000Y-83693000D02*
X124957000Y-80761000D01*
X131699000Y-83693000D02*
X127889000Y-83693000D01*
X139065000Y-91123000D02*
X139065000Y-91059000D01*
%TO.N,A2_C*%
X138430000Y-86741000D02*
X138430000Y-80518000D01*
X141224000Y-89535000D02*
X138430000Y-86741000D01*
X138430000Y-80518000D02*
X139097000Y-79851000D01*
X139097000Y-79851000D02*
X139943000Y-79851000D01*
%TO.N,A3_C*%
X148082000Y-88138000D02*
X148082000Y-80645000D01*
X148876000Y-79851000D02*
X149468000Y-79851000D01*
X146304000Y-89916000D02*
X148082000Y-88138000D01*
X148082000Y-80645000D02*
X148876000Y-79851000D01*
%TO.N,A4_C*%
X145351000Y-93663000D02*
X158993000Y-80021000D01*
X144145000Y-93663000D02*
X145351000Y-93663000D01*
X158993000Y-80021000D02*
X158993000Y-79851000D01*
%TO.N,A5_C*%
X141605000Y-94488000D02*
X142429000Y-95312000D01*
X172804000Y-81915000D02*
X173979000Y-80740000D01*
X145480000Y-95312000D02*
X158877000Y-81915000D01*
X141605000Y-93663000D02*
X141605000Y-94488000D01*
X142429000Y-95312000D02*
X145480000Y-95312000D01*
X158877000Y-81915000D02*
X172804000Y-81915000D01*
%TO.N,A6_C*%
X146812000Y-96012000D02*
X159766000Y-83058000D01*
X174244000Y-82296000D02*
X186457000Y-82296000D01*
X159766000Y-83058000D02*
X173482000Y-83058000D01*
X139065000Y-93663000D02*
X139065000Y-94996000D01*
X139065000Y-94996000D02*
X140081000Y-96012000D01*
X173482000Y-83058000D02*
X174244000Y-82296000D01*
X186457000Y-82296000D02*
X188330000Y-84169000D01*
X140081000Y-96012000D02*
X146812000Y-96012000D01*
%TO.N,GND*%
X136525000Y-93663000D02*
X133985000Y-93663000D01*
%TD*%
%TA.AperFunction,Conductor*%
%TO.N,GND*%
G36*
X135339855Y-91789545D02*
G01*
X135356571Y-91808837D01*
X135486505Y-91994401D01*
X135653599Y-92161495D01*
X135839596Y-92291732D01*
X135883219Y-92346307D01*
X135890412Y-92415806D01*
X135858890Y-92478160D01*
X135839594Y-92494881D01*
X135763626Y-92548073D01*
X136392466Y-93176913D01*
X136382685Y-93178320D01*
X136251900Y-93238048D01*
X136143239Y-93332202D01*
X136065507Y-93453156D01*
X136041923Y-93533476D01*
X135410072Y-92901625D01*
X135410072Y-92901626D01*
X135356574Y-92978030D01*
X135301998Y-93021655D01*
X135232499Y-93028849D01*
X135170144Y-92997326D01*
X135153424Y-92978030D01*
X135099925Y-92901626D01*
X135099925Y-92901625D01*
X134468076Y-93533475D01*
X134444493Y-93453156D01*
X134366761Y-93332202D01*
X134258100Y-93238048D01*
X134127315Y-93178320D01*
X134117533Y-93176913D01*
X134746373Y-92548073D01*
X134746373Y-92548072D01*
X134670405Y-92494880D01*
X134626780Y-92440304D01*
X134619586Y-92370805D01*
X134651108Y-92308451D01*
X134670399Y-92291734D01*
X134856401Y-92161495D01*
X135023495Y-91994401D01*
X135153426Y-91808839D01*
X135208002Y-91765216D01*
X135277500Y-91758022D01*
X135339855Y-91789545D01*
G37*
%TD.AperFunction*%
%TA.AperFunction,Conductor*%
G36*
X137879855Y-91789545D02*
G01*
X137896571Y-91808837D01*
X138026505Y-91994401D01*
X138193599Y-92161495D01*
X138379160Y-92291426D01*
X138422783Y-92346002D01*
X138429976Y-92415501D01*
X138398454Y-92477855D01*
X138379158Y-92494575D01*
X138197884Y-92621505D01*
X138193595Y-92624508D01*
X138026508Y-92791595D01*
X138026505Y-92791598D01*
X138026505Y-92791599D01*
X137949465Y-92901625D01*
X137896270Y-92977595D01*
X137841693Y-93021219D01*
X137772194Y-93028412D01*
X137709840Y-92996890D01*
X137693120Y-92977595D01*
X137639925Y-92901626D01*
X137639925Y-92901625D01*
X137008076Y-93533475D01*
X136984493Y-93453156D01*
X136906761Y-93332202D01*
X136798100Y-93238048D01*
X136667315Y-93178320D01*
X136657533Y-93176913D01*
X137286373Y-92548073D01*
X137286373Y-92548072D01*
X137210405Y-92494880D01*
X137166780Y-92440304D01*
X137159586Y-92370805D01*
X137191108Y-92308451D01*
X137210399Y-92291734D01*
X137396401Y-92161495D01*
X137563495Y-91994401D01*
X137693426Y-91808839D01*
X137748002Y-91765216D01*
X137817500Y-91758022D01*
X137879855Y-91789545D01*
G37*
%TD.AperFunction*%
%TA.AperFunction,Conductor*%
G36*
X128863809Y-79637185D02*
G01*
X128884451Y-79653819D01*
X131983679Y-82753047D01*
X132017164Y-82814370D01*
X132012180Y-82884062D01*
X131970308Y-82939995D01*
X131904844Y-82964412D01*
X131870926Y-82962167D01*
X131863198Y-82960571D01*
X131859692Y-82959794D01*
X131785490Y-82942208D01*
X131766121Y-82940229D01*
X131689869Y-82942448D01*
X131686263Y-82942500D01*
X128251230Y-82942500D01*
X128184191Y-82922815D01*
X128163549Y-82906181D01*
X127366860Y-82109492D01*
X127333375Y-82048169D01*
X127338359Y-81978477D01*
X127380231Y-81922544D01*
X127389445Y-81916272D01*
X127525457Y-81832379D01*
X127649378Y-81708458D01*
X127741385Y-81559292D01*
X127796510Y-81392935D01*
X127806680Y-81293388D01*
X127807000Y-81287110D01*
X127807000Y-80990000D01*
X127002581Y-80990000D01*
X127054060Y-80934079D01*
X127100982Y-80827108D01*
X127110628Y-80710698D01*
X127081953Y-80597462D01*
X127018064Y-80499673D01*
X127005636Y-80490000D01*
X127807000Y-80490000D01*
X127807000Y-80192889D01*
X127806680Y-80186611D01*
X127796510Y-80087064D01*
X127741385Y-79920707D01*
X127671001Y-79806597D01*
X127652561Y-79739204D01*
X127673484Y-79672541D01*
X127727125Y-79627771D01*
X127776540Y-79617500D01*
X128796770Y-79617500D01*
X128863809Y-79637185D01*
G37*
%TD.AperFunction*%
%TA.AperFunction,Conductor*%
G36*
X176159613Y-73630140D02*
G01*
X192961073Y-79087124D01*
X192991614Y-79101928D01*
X193264729Y-79284265D01*
X193323943Y-79323922D01*
X193332554Y-79330244D01*
X193534135Y-79492149D01*
X193549621Y-79504699D01*
X193657477Y-79592110D01*
X193665249Y-79598967D01*
X193839273Y-79765927D01*
X193965708Y-79889022D01*
X193972585Y-79896280D01*
X194126449Y-80072382D01*
X194246159Y-80212268D01*
X194252132Y-80219824D01*
X194387584Y-80405561D01*
X194496582Y-80559246D01*
X194501656Y-80567000D01*
X194619023Y-80761873D01*
X194714987Y-80927188D01*
X194719176Y-80935041D01*
X194818271Y-81138067D01*
X194899628Y-81313140D01*
X194902955Y-81320998D01*
X194982945Y-81529660D01*
X194983893Y-81532218D01*
X195049043Y-81714039D01*
X195051548Y-81721829D01*
X195112626Y-81935795D01*
X195113438Y-81938778D01*
X195162030Y-82126628D01*
X195163748Y-82134257D01*
X195205653Y-82352090D01*
X195206259Y-82355492D01*
X195237699Y-82547641D01*
X195238681Y-82555032D01*
X195261229Y-82775226D01*
X195261556Y-82778987D01*
X195272281Y-82929286D01*
X195275449Y-82973675D01*
X195275751Y-82980761D01*
X195278852Y-83201693D01*
X195278840Y-83205876D01*
X195274988Y-83401386D01*
X195274673Y-83408108D01*
X195258365Y-83628158D01*
X195257946Y-83632685D01*
X195236328Y-83827273D01*
X195235463Y-83833579D01*
X195199904Y-84051184D01*
X195199016Y-84056014D01*
X195159783Y-84247991D01*
X195158439Y-84253840D01*
X195103923Y-84467348D01*
X195102510Y-84472430D01*
X195045981Y-84660126D01*
X195044233Y-84665485D01*
X194971173Y-84873345D01*
X194969183Y-84878620D01*
X194895843Y-85060408D01*
X194893766Y-85065257D01*
X194802698Y-85265935D01*
X194800086Y-85271339D01*
X194710573Y-85445647D01*
X194708244Y-85449969D01*
X194599841Y-85641953D01*
X194596570Y-85647414D01*
X194491695Y-85812719D01*
X194489189Y-85816513D01*
X194364209Y-85998403D01*
X194360250Y-86003843D01*
X194240951Y-86158739D01*
X194238343Y-86162010D01*
X194097674Y-86332436D01*
X194093005Y-86337774D01*
X193960407Y-86480899D01*
X193957768Y-86483661D01*
X193802377Y-86641354D01*
X193796986Y-86646505D01*
X193652298Y-86776672D01*
X193649697Y-86778947D01*
X193480654Y-86922706D01*
X193474540Y-86927582D01*
X193319134Y-87043692D01*
X193316634Y-87045512D01*
X193135087Y-87174227D01*
X193128259Y-87178737D01*
X192963712Y-87279787D01*
X192961372Y-87281189D01*
X192768393Y-87393930D01*
X192760869Y-87397984D01*
X192587891Y-87483640D01*
X192383540Y-87580024D01*
X192375361Y-87583528D01*
X192197089Y-87652437D01*
X191983577Y-87731030D01*
X191974769Y-87733902D01*
X191793647Y-87785574D01*
X191571702Y-87845735D01*
X191562316Y-87847891D01*
X191381442Y-87882108D01*
X191151218Y-87923214D01*
X191141315Y-87924573D01*
X190965645Y-87941494D01*
X190725441Y-87962851D01*
X190715091Y-87963336D01*
X190556432Y-87964142D01*
X190297796Y-87964316D01*
X190287079Y-87963859D01*
X190217790Y-87957895D01*
X189885259Y-87928780D01*
X189859005Y-87923582D01*
X180511927Y-84995330D01*
X180505923Y-84993279D01*
X180338481Y-84931252D01*
X180338469Y-84931248D01*
X180335707Y-84930225D01*
X180332849Y-84929466D01*
X180332846Y-84929465D01*
X180131122Y-84875891D01*
X180125729Y-84874327D01*
X180051134Y-84850852D01*
X180033931Y-84850079D01*
X179982787Y-84836496D01*
X179982781Y-84836494D01*
X179979928Y-84835737D01*
X179977003Y-84835251D01*
X179977000Y-84835251D01*
X179748037Y-84797259D01*
X179743109Y-84796339D01*
X179675954Y-84782385D01*
X179662559Y-84783076D01*
X179619686Y-84775962D01*
X179619682Y-84775961D01*
X179616780Y-84775480D01*
X179613862Y-84775277D01*
X179613849Y-84775276D01*
X179355284Y-84757336D01*
X179350876Y-84756951D01*
X179295842Y-84751153D01*
X179286410Y-84752557D01*
X179252492Y-84750203D01*
X179252469Y-84750202D01*
X179249551Y-84750000D01*
X179246606Y-84750076D01*
X179246596Y-84750076D01*
X178955060Y-84757624D01*
X178951226Y-84757664D01*
X178914413Y-84757478D01*
X178909045Y-84758815D01*
X178884515Y-84759450D01*
X178884504Y-84759450D01*
X178881561Y-84759527D01*
X178878655Y-84759880D01*
X178878634Y-84759882D01*
X178548684Y-84800016D01*
X178545464Y-84800365D01*
X178535387Y-84801324D01*
X178534056Y-84801795D01*
X178519068Y-84803618D01*
X178519045Y-84803621D01*
X178516142Y-84803975D01*
X178513279Y-84804603D01*
X178513266Y-84804606D01*
X178159493Y-84882306D01*
X178159485Y-84882308D01*
X178156599Y-84882942D01*
X178153788Y-84883846D01*
X178153783Y-84883848D01*
X177808985Y-84994813D01*
X177808981Y-84994814D01*
X177806186Y-84995714D01*
X177803509Y-84996866D01*
X177803486Y-84996875D01*
X177470775Y-85140105D01*
X177470768Y-85140108D01*
X177468072Y-85141269D01*
X177465501Y-85142678D01*
X177465491Y-85142684D01*
X177147897Y-85316877D01*
X177147880Y-85316886D01*
X177145319Y-85318292D01*
X177142895Y-85319938D01*
X177142882Y-85319947D01*
X176843289Y-85523518D01*
X176843270Y-85523531D01*
X176840845Y-85525180D01*
X176838579Y-85527057D01*
X176838568Y-85527066D01*
X176608382Y-85717818D01*
X176557406Y-85760061D01*
X176555339Y-85762134D01*
X176555326Y-85762147D01*
X176299656Y-86018712D01*
X176299649Y-86018719D01*
X176297566Y-86020810D01*
X176295693Y-86023085D01*
X176295686Y-86023094D01*
X176181385Y-86162010D01*
X176063676Y-86305068D01*
X176062030Y-86307507D01*
X176062026Y-86307514D01*
X175859502Y-86607818D01*
X175859493Y-86607831D01*
X175857854Y-86610263D01*
X175856452Y-86612840D01*
X175856445Y-86612852D01*
X175683371Y-86931038D01*
X175683366Y-86931046D01*
X175681960Y-86933633D01*
X175680808Y-86936332D01*
X175680803Y-86936345D01*
X175674881Y-86950234D01*
X175674173Y-86951093D01*
X175670343Y-86960772D01*
X175669110Y-86963771D01*
X175538738Y-87269549D01*
X175538732Y-87269564D01*
X175537586Y-87272253D01*
X175536703Y-87275029D01*
X175536697Y-87275046D01*
X175529258Y-87298444D01*
X175526806Y-87302078D01*
X175516408Y-87338659D01*
X175515303Y-87342329D01*
X175426936Y-87620237D01*
X175426930Y-87620256D01*
X175426040Y-87623058D01*
X175425417Y-87625938D01*
X175425418Y-87625938D01*
X175418238Y-87659182D01*
X175414628Y-87665814D01*
X175404515Y-87722347D01*
X175403660Y-87726679D01*
X175348329Y-87982875D01*
X175347984Y-87985791D01*
X175347982Y-87985807D01*
X175342886Y-88028963D01*
X175338721Y-88038727D01*
X175333214Y-88110010D01*
X175332726Y-88115000D01*
X175305503Y-88345518D01*
X175305501Y-88345536D01*
X175305158Y-88348447D01*
X175305092Y-88351387D01*
X175305092Y-88351390D01*
X175303907Y-88404312D01*
X175299786Y-88417264D01*
X175301655Y-88499191D01*
X175301656Y-88504793D01*
X175298924Y-88626819D01*
X175296917Y-88716467D01*
X175297130Y-88719397D01*
X175297131Y-88719411D01*
X175309980Y-88895632D01*
X175310308Y-88904403D01*
X175320694Y-94133210D01*
X175320562Y-94139183D01*
X175312712Y-94308961D01*
X175303034Y-94505967D01*
X175301994Y-94517013D01*
X175276537Y-94699509D01*
X175249252Y-94883442D01*
X175247301Y-94893633D01*
X175204517Y-95075544D01*
X175159805Y-95254045D01*
X175157095Y-95263313D01*
X175097687Y-95440564D01*
X175096866Y-95442933D01*
X175035511Y-95614407D01*
X175032194Y-95622719D01*
X174956486Y-95794180D01*
X174955147Y-95797109D01*
X174877491Y-95961302D01*
X174873725Y-95968625D01*
X174782371Y-96132635D01*
X174780400Y-96136045D01*
X174687199Y-96291542D01*
X174683140Y-96297870D01*
X174576942Y-96452899D01*
X174574241Y-96456689D01*
X174466335Y-96602184D01*
X174462135Y-96607534D01*
X174342051Y-96752147D01*
X174338535Y-96756199D01*
X174328485Y-96767288D01*
X174216917Y-96890383D01*
X174212720Y-96894790D01*
X174079790Y-97027720D01*
X174075383Y-97031917D01*
X173941204Y-97153531D01*
X173937147Y-97157051D01*
X173792534Y-97277135D01*
X173787184Y-97281335D01*
X173641689Y-97389241D01*
X173637899Y-97391942D01*
X173482870Y-97498140D01*
X173476542Y-97502199D01*
X173321045Y-97595400D01*
X173317635Y-97597371D01*
X173153625Y-97688725D01*
X173146302Y-97692491D01*
X172982109Y-97770147D01*
X172979180Y-97771486D01*
X172807719Y-97847194D01*
X172799407Y-97850511D01*
X172627933Y-97911866D01*
X172625564Y-97912687D01*
X172448317Y-97972094D01*
X172439041Y-97974806D01*
X172260546Y-98019517D01*
X172078631Y-98062302D01*
X172068445Y-98064252D01*
X171884510Y-98091537D01*
X171702011Y-98116994D01*
X171690968Y-98118034D01*
X171494137Y-98127704D01*
X171324094Y-98135565D01*
X171318291Y-98135697D01*
X166806500Y-98132900D01*
X166806000Y-98132900D01*
X166621046Y-98132900D01*
X166618187Y-98133164D01*
X166618185Y-98133165D01*
X166403550Y-98153054D01*
X166398193Y-98153434D01*
X166322178Y-98157168D01*
X166306926Y-98162007D01*
X166255574Y-98166766D01*
X166255572Y-98166766D01*
X166252715Y-98167031D01*
X166249904Y-98167556D01*
X166249893Y-98167558D01*
X166007718Y-98212829D01*
X166003128Y-98213598D01*
X165941297Y-98222769D01*
X165930867Y-98227194D01*
X165891927Y-98234473D01*
X165891896Y-98234480D01*
X165889105Y-98235002D01*
X165707834Y-98286578D01*
X165613198Y-98313504D01*
X165609396Y-98314520D01*
X165568398Y-98324790D01*
X165562676Y-98327878D01*
X165533318Y-98336232D01*
X165530661Y-98337261D01*
X165530650Y-98337265D01*
X165219954Y-98457629D01*
X165216937Y-98458752D01*
X165206914Y-98462338D01*
X165205694Y-98463153D01*
X165191052Y-98468825D01*
X165191034Y-98468832D01*
X165188388Y-98469858D01*
X165185843Y-98471125D01*
X165185830Y-98471131D01*
X165049532Y-98539000D01*
X164994260Y-98552000D01*
X135661740Y-98552000D01*
X135606468Y-98539000D01*
X135470169Y-98471131D01*
X135470164Y-98471129D01*
X135467612Y-98469858D01*
X135464961Y-98468831D01*
X135464952Y-98468827D01*
X135450307Y-98463154D01*
X135449385Y-98462445D01*
X135439063Y-98458752D01*
X135436046Y-98457629D01*
X135125349Y-98337265D01*
X135125345Y-98337263D01*
X135122682Y-98336232D01*
X135093323Y-98327878D01*
X135088974Y-98325134D01*
X135046606Y-98314522D01*
X135042802Y-98313504D01*
X134769647Y-98235785D01*
X134769646Y-98235784D01*
X134766895Y-98235002D01*
X134764103Y-98234480D01*
X134764073Y-98234473D01*
X134725132Y-98227194D01*
X134717143Y-98223131D01*
X134652872Y-98213598D01*
X134648282Y-98212829D01*
X134406106Y-98167558D01*
X134406098Y-98167557D01*
X134403285Y-98167031D01*
X134398848Y-98166619D01*
X134349074Y-98162007D01*
X134337321Y-98157339D01*
X134257805Y-98153433D01*
X134252449Y-98153053D01*
X134037814Y-98133165D01*
X134037813Y-98133164D01*
X134034954Y-98132900D01*
X133850000Y-98132900D01*
X133849500Y-98132900D01*
X129346969Y-98138868D01*
X129341082Y-98138736D01*
X129171212Y-98130888D01*
X128974245Y-98121217D01*
X128963197Y-98120177D01*
X128780750Y-98094731D01*
X128596785Y-98067448D01*
X128586592Y-98065497D01*
X128404642Y-98022707D01*
X128226169Y-97978005D01*
X128216902Y-97975296D01*
X128039645Y-97915890D01*
X128037276Y-97915069D01*
X127865791Y-97853714D01*
X127857478Y-97850397D01*
X127685990Y-97774680D01*
X127683060Y-97773340D01*
X127518921Y-97695711D01*
X127511598Y-97691946D01*
X127347572Y-97600587D01*
X127344162Y-97598616D01*
X127188635Y-97505398D01*
X127182307Y-97501340D01*
X127027278Y-97395144D01*
X127023524Y-97392467D01*
X126878018Y-97284553D01*
X126872668Y-97280353D01*
X126728033Y-97160251D01*
X126723976Y-97156731D01*
X126589803Y-97035124D01*
X126585395Y-97030927D01*
X126452471Y-96898003D01*
X126448274Y-96893595D01*
X126326667Y-96759422D01*
X126323147Y-96755365D01*
X126203045Y-96610730D01*
X126198845Y-96605380D01*
X126118938Y-96497637D01*
X126090916Y-96459853D01*
X126088269Y-96456142D01*
X125982047Y-96301074D01*
X125978000Y-96294763D01*
X125884782Y-96139236D01*
X125882811Y-96135826D01*
X125856250Y-96088139D01*
X125791452Y-95971800D01*
X125787687Y-95964477D01*
X125734715Y-95852472D01*
X125710052Y-95800325D01*
X125708718Y-95797408D01*
X125706425Y-95792214D01*
X125632994Y-95625904D01*
X125629684Y-95617607D01*
X125629078Y-95615914D01*
X125568318Y-95446092D01*
X125567539Y-95443845D01*
X125508098Y-95266484D01*
X125505391Y-95257224D01*
X125501253Y-95240704D01*
X125460690Y-95078750D01*
X125459936Y-95075544D01*
X125417892Y-94896767D01*
X125415955Y-94886638D01*
X125388668Y-94702649D01*
X125383568Y-94666083D01*
X125363215Y-94520154D01*
X125362184Y-94509185D01*
X125352518Y-94312352D01*
X125344663Y-94142320D01*
X125344532Y-94136427D01*
X125354914Y-88908851D01*
X125355240Y-88900132D01*
X125368400Y-88719645D01*
X125363659Y-88508000D01*
X125363661Y-88502393D01*
X125365462Y-88424232D01*
X125361406Y-88407444D01*
X125361336Y-88404312D01*
X125360156Y-88351622D01*
X125332579Y-88118121D01*
X125332095Y-88113161D01*
X125326813Y-88044799D01*
X125322423Y-88032125D01*
X125316982Y-87986046D01*
X125261643Y-87729827D01*
X125260788Y-87725493D01*
X125251042Y-87671015D01*
X125247068Y-87662343D01*
X125239268Y-87626227D01*
X125149984Y-87345443D01*
X125148890Y-87341808D01*
X125138825Y-87306398D01*
X125136049Y-87301615D01*
X125128613Y-87278230D01*
X125128604Y-87278208D01*
X125127718Y-87275419D01*
X124996169Y-86966885D01*
X124994938Y-86963889D01*
X124991234Y-86954530D01*
X124990416Y-86953389D01*
X124984504Y-86939524D01*
X124984497Y-86939511D01*
X124983341Y-86936798D01*
X124843217Y-86679193D01*
X124808851Y-86616014D01*
X124808848Y-86616009D01*
X124807443Y-86613426D01*
X124601616Y-86308230D01*
X124367721Y-86023972D01*
X124107877Y-85763223D01*
X123968123Y-85647414D01*
X123826710Y-85530230D01*
X123826701Y-85530223D01*
X123824432Y-85528343D01*
X123821996Y-85526688D01*
X123821991Y-85526684D01*
X123522400Y-85323118D01*
X123522399Y-85323117D01*
X123519954Y-85321456D01*
X123197195Y-85144436D01*
X123168655Y-85132150D01*
X122861794Y-85000052D01*
X122861782Y-85000047D01*
X122859077Y-84998883D01*
X122856259Y-84997976D01*
X122856256Y-84997975D01*
X122511465Y-84887017D01*
X122511464Y-84887016D01*
X122508659Y-84886114D01*
X122505797Y-84885485D01*
X122505788Y-84885483D01*
X122151983Y-84807781D01*
X122151972Y-84807779D01*
X122149112Y-84807151D01*
X122146205Y-84806797D01*
X122146179Y-84806793D01*
X122131197Y-84804971D01*
X122130175Y-84804530D01*
X122119819Y-84803545D01*
X122116600Y-84803196D01*
X121786607Y-84763061D01*
X121786588Y-84763059D01*
X121783689Y-84762707D01*
X121780764Y-84762631D01*
X121780733Y-84762629D01*
X121756199Y-84761994D01*
X121752029Y-84760651D01*
X121714011Y-84760843D01*
X121710180Y-84760804D01*
X121418649Y-84753261D01*
X121418640Y-84753261D01*
X121415696Y-84753185D01*
X121378829Y-84755743D01*
X121371459Y-84754123D01*
X121314362Y-84760139D01*
X121309955Y-84760523D01*
X121051423Y-84778464D01*
X121051409Y-84778465D01*
X121048464Y-84778670D01*
X121045561Y-84779151D01*
X121045533Y-84779155D01*
X121002677Y-84786267D01*
X120992144Y-84784984D01*
X120922159Y-84799527D01*
X120917231Y-84800447D01*
X120688222Y-84838450D01*
X120688213Y-84838451D01*
X120685314Y-84838933D01*
X120682467Y-84839689D01*
X120682463Y-84839690D01*
X120631310Y-84853276D01*
X120617720Y-84852922D01*
X120539537Y-84877519D01*
X120534156Y-84879079D01*
X120344450Y-84929465D01*
X120329533Y-84933427D01*
X120326776Y-84934448D01*
X120326758Y-84934454D01*
X120159954Y-84996246D01*
X120153880Y-84998319D01*
X110796920Y-87923613D01*
X110770736Y-87928789D01*
X110398934Y-87961343D01*
X110369671Y-87963867D01*
X110358935Y-87964325D01*
X110084420Y-87964140D01*
X109941715Y-87963415D01*
X109931363Y-87962930D01*
X109681201Y-87940685D01*
X109515523Y-87924728D01*
X109505617Y-87923368D01*
X109268121Y-87880962D01*
X109094522Y-87848121D01*
X109085135Y-87845964D01*
X108857537Y-87784271D01*
X108682062Y-87734210D01*
X108673264Y-87731340D01*
X108455080Y-87651025D01*
X108281497Y-87583929D01*
X108273321Y-87580426D01*
X108064982Y-87482160D01*
X107958958Y-87429659D01*
X107895965Y-87398466D01*
X107888467Y-87394425D01*
X107692047Y-87279674D01*
X107689707Y-87278272D01*
X107528586Y-87179326D01*
X107521757Y-87174815D01*
X107337237Y-87043991D01*
X107334737Y-87042172D01*
X107182275Y-86928260D01*
X107176162Y-86923384D01*
X107004546Y-86777436D01*
X107001945Y-86775161D01*
X106895270Y-86679193D01*
X106859811Y-86647292D01*
X106854426Y-86642147D01*
X106825559Y-86612852D01*
X106696749Y-86482131D01*
X106694158Y-86479420D01*
X106563745Y-86338654D01*
X106559094Y-86333336D01*
X106416442Y-86160505D01*
X106413834Y-86157235D01*
X106296483Y-86004868D01*
X106292541Y-85999453D01*
X106165782Y-85814972D01*
X106163342Y-85811277D01*
X106060103Y-85648550D01*
X106056836Y-85643095D01*
X105946975Y-85448528D01*
X105944645Y-85444205D01*
X105898006Y-85353385D01*
X105856517Y-85272592D01*
X105853918Y-85267214D01*
X105761610Y-85063800D01*
X105759566Y-85059028D01*
X105712439Y-84942217D01*
X105687359Y-84880050D01*
X105685369Y-84874776D01*
X105611324Y-84664115D01*
X105609576Y-84658755D01*
X105584331Y-84574932D01*
X105553916Y-84473940D01*
X105552530Y-84468962D01*
X105540184Y-84420608D01*
X109555500Y-84420608D01*
X109555797Y-84423626D01*
X109555798Y-84423641D01*
X109570699Y-84574932D01*
X109596542Y-84660126D01*
X109630740Y-84772863D01*
X109630769Y-84772956D01*
X109664732Y-84836496D01*
X109728315Y-84955450D01*
X109764919Y-85000052D01*
X109859589Y-85115410D01*
X109893535Y-85143268D01*
X110019550Y-85246685D01*
X110202046Y-85344232D01*
X110400066Y-85404300D01*
X110606000Y-85424583D01*
X110811934Y-85404300D01*
X111009954Y-85344232D01*
X111192450Y-85246685D01*
X111341971Y-85123976D01*
X111406278Y-85096665D01*
X111475145Y-85108456D01*
X111508315Y-85132150D01*
X111637544Y-85261379D01*
X111786707Y-85353385D01*
X111953064Y-85408510D01*
X112052611Y-85418680D01*
X112058889Y-85419000D01*
X112156000Y-85419000D01*
X112156000Y-84417938D01*
X112237115Y-84481072D01*
X112347595Y-84519000D01*
X112435005Y-84519000D01*
X112521216Y-84504614D01*
X112623947Y-84449019D01*
X112651581Y-84419000D01*
X112656000Y-84419000D01*
X112656000Y-85419000D01*
X112753111Y-85419000D01*
X112759388Y-85418680D01*
X112858935Y-85408510D01*
X113025292Y-85353385D01*
X113174458Y-85261378D01*
X113298378Y-85137458D01*
X113390385Y-84988292D01*
X113445510Y-84821935D01*
X113455680Y-84722388D01*
X113456000Y-84716110D01*
X113456000Y-84419000D01*
X112656000Y-84419000D01*
X112651581Y-84419000D01*
X112703060Y-84363079D01*
X112749982Y-84256108D01*
X112759628Y-84139698D01*
X112730953Y-84026462D01*
X112667064Y-83928673D01*
X112654636Y-83919000D01*
X113456000Y-83919000D01*
X113456000Y-83621889D01*
X113455680Y-83615611D01*
X113445510Y-83516064D01*
X113390385Y-83349707D01*
X113298378Y-83200541D01*
X113174458Y-83076621D01*
X113085966Y-83022039D01*
X113039242Y-82970091D01*
X113028019Y-82901128D01*
X113055863Y-82837046D01*
X113113932Y-82798190D01*
X113151063Y-82792500D01*
X114617294Y-82792500D01*
X114635264Y-82793809D01*
X114639320Y-82794402D01*
X114659023Y-82797289D01*
X114708368Y-82792972D01*
X114719176Y-82792500D01*
X114721100Y-82792500D01*
X114724709Y-82792500D01*
X114755550Y-82788894D01*
X114759031Y-82788539D01*
X114833797Y-82781999D01*
X114833797Y-82781998D01*
X114835052Y-82781889D01*
X114854062Y-82777674D01*
X114855250Y-82777241D01*
X114855255Y-82777241D01*
X114925820Y-82751557D01*
X114929095Y-82750419D01*
X115000334Y-82726814D01*
X115000336Y-82726812D01*
X115001536Y-82726415D01*
X115019063Y-82717929D01*
X115020112Y-82717238D01*
X115020117Y-82717237D01*
X115082806Y-82676005D01*
X115085798Y-82674099D01*
X115149656Y-82634712D01*
X115149656Y-82634711D01*
X115150729Y-82634050D01*
X115165824Y-82621753D01*
X115166692Y-82620832D01*
X115166696Y-82620830D01*
X115218184Y-82566254D01*
X115220630Y-82563736D01*
X118130548Y-79653819D01*
X118191872Y-79620334D01*
X118218230Y-79617500D01*
X124092927Y-79617500D01*
X124159966Y-79637185D01*
X124205721Y-79689989D01*
X124215665Y-79759147D01*
X124188781Y-79820164D01*
X124079314Y-79953551D01*
X123981769Y-80136043D01*
X123921699Y-80334067D01*
X123906798Y-80485358D01*
X123906797Y-80485374D01*
X123906500Y-80488392D01*
X123906500Y-80991608D01*
X123906797Y-80994626D01*
X123906798Y-80994641D01*
X123921699Y-81145932D01*
X123926472Y-81161666D01*
X123974804Y-81320998D01*
X123981769Y-81343956D01*
X124015506Y-81407073D01*
X124079315Y-81526450D01*
X124094949Y-81545500D01*
X124210589Y-81686410D01*
X124278513Y-81742153D01*
X124370550Y-81817685D01*
X124553046Y-81915232D01*
X124751066Y-81975300D01*
X124957000Y-81995583D01*
X125056320Y-81985800D01*
X125124964Y-81998818D01*
X125156154Y-82021522D01*
X127313267Y-84178634D01*
X127325048Y-84192266D01*
X127339390Y-84211530D01*
X127377339Y-84243373D01*
X127385314Y-84250681D01*
X127389223Y-84254590D01*
X127392055Y-84256829D01*
X127392065Y-84256838D01*
X127413542Y-84273819D01*
X127416298Y-84276063D01*
X127473786Y-84324302D01*
X127473788Y-84324303D01*
X127474757Y-84325116D01*
X127491177Y-84335576D01*
X127492321Y-84336109D01*
X127492323Y-84336111D01*
X127560357Y-84367835D01*
X127563456Y-84369335D01*
X127630567Y-84403040D01*
X127631704Y-84403611D01*
X127650084Y-84409998D01*
X127651321Y-84410253D01*
X127651327Y-84410256D01*
X127724862Y-84425439D01*
X127728209Y-84426181D01*
X127801279Y-84443500D01*
X127801281Y-84443500D01*
X127802505Y-84443790D01*
X127821876Y-84445769D01*
X127823140Y-84445732D01*
X127823144Y-84445733D01*
X127898110Y-84443552D01*
X127901716Y-84443500D01*
X131336770Y-84443500D01*
X131403809Y-84463185D01*
X131424451Y-84479819D01*
X134051134Y-87106502D01*
X136508898Y-89564265D01*
X136542383Y-89625588D01*
X136537399Y-89695280D01*
X136495527Y-89751213D01*
X136432025Y-89775474D01*
X136289592Y-89787936D01*
X136061336Y-89849097D01*
X135847170Y-89948965D01*
X135653598Y-90084505D01*
X135486505Y-90251598D01*
X135356575Y-90437159D01*
X135301998Y-90480784D01*
X135232500Y-90487978D01*
X135170145Y-90456455D01*
X135153425Y-90437159D01*
X135104441Y-90367203D01*
X135023495Y-90251599D01*
X134856401Y-90084505D01*
X134662830Y-89948965D01*
X134448663Y-89849097D01*
X134370968Y-89828279D01*
X134220407Y-89787936D01*
X133985000Y-89767340D01*
X133749592Y-89787936D01*
X133521336Y-89849097D01*
X133307170Y-89948965D01*
X133113598Y-90084505D01*
X132946505Y-90251598D01*
X132810965Y-90445170D01*
X132711097Y-90659336D01*
X132649936Y-90887592D01*
X132629340Y-91123000D01*
X132649936Y-91358407D01*
X132694709Y-91525501D01*
X132711097Y-91586663D01*
X132810965Y-91800830D01*
X132946505Y-91994401D01*
X133113599Y-92161495D01*
X133299596Y-92291732D01*
X133343219Y-92346307D01*
X133350412Y-92415806D01*
X133318890Y-92478160D01*
X133299594Y-92494881D01*
X133223626Y-92548073D01*
X133852466Y-93176913D01*
X133842685Y-93178320D01*
X133711900Y-93238048D01*
X133603239Y-93332202D01*
X133525507Y-93453156D01*
X133501923Y-93533475D01*
X132870073Y-92901625D01*
X132870072Y-92901625D01*
X132811399Y-92985422D01*
X132711569Y-93199507D01*
X132650430Y-93427681D01*
X132629842Y-93663000D01*
X132650430Y-93898318D01*
X132711569Y-94126492D01*
X132811400Y-94340580D01*
X132870073Y-94424373D01*
X133501923Y-93792523D01*
X133525507Y-93872844D01*
X133603239Y-93993798D01*
X133711900Y-94087952D01*
X133842685Y-94147680D01*
X133852466Y-94149086D01*
X133223625Y-94777925D01*
X133307420Y-94836599D01*
X133521507Y-94936430D01*
X133749681Y-94997569D01*
X133985000Y-95018157D01*
X134220318Y-94997569D01*
X134448492Y-94936430D01*
X134662576Y-94836600D01*
X134746373Y-94777925D01*
X134117533Y-94149086D01*
X134127315Y-94147680D01*
X134258100Y-94087952D01*
X134366761Y-93993798D01*
X134444493Y-93872844D01*
X134468076Y-93792524D01*
X135099925Y-94424373D01*
X135153424Y-94347969D01*
X135208001Y-94304344D01*
X135277499Y-94297150D01*
X135339854Y-94328673D01*
X135356574Y-94347969D01*
X135410072Y-94424373D01*
X135410073Y-94424373D01*
X136041923Y-93792523D01*
X136065507Y-93872844D01*
X136143239Y-93993798D01*
X136251900Y-94087952D01*
X136382685Y-94147680D01*
X136392466Y-94149086D01*
X135763625Y-94777925D01*
X135847420Y-94836599D01*
X136061507Y-94936430D01*
X136289681Y-94997569D01*
X136524999Y-95018157D01*
X136760318Y-94997569D01*
X136988492Y-94936430D01*
X137202576Y-94836600D01*
X137286373Y-94777925D01*
X136657533Y-94149086D01*
X136667315Y-94147680D01*
X136798100Y-94087952D01*
X136906761Y-93993798D01*
X136984493Y-93872844D01*
X137008076Y-93792524D01*
X137639925Y-94424373D01*
X137693119Y-94348405D01*
X137747696Y-94304780D01*
X137817194Y-94297586D01*
X137879549Y-94329109D01*
X137896265Y-94348400D01*
X138026505Y-94534401D01*
X138026507Y-94534403D01*
X138026508Y-94534404D01*
X138193596Y-94701493D01*
X138193599Y-94701495D01*
X138261623Y-94749125D01*
X138305248Y-94803700D01*
X138314500Y-94850700D01*
X138314500Y-94932294D01*
X138313191Y-94950264D01*
X138309711Y-94974023D01*
X138314028Y-95023368D01*
X138314500Y-95034175D01*
X138314500Y-95039709D01*
X138314916Y-95043272D01*
X138314917Y-95043282D01*
X138318098Y-95070496D01*
X138318464Y-95074082D01*
X138325109Y-95150041D01*
X138329329Y-95169071D01*
X138329758Y-95170251D01*
X138329759Y-95170255D01*
X138355413Y-95240742D01*
X138356582Y-95244107D01*
X138380580Y-95316524D01*
X138389075Y-95334072D01*
X138430979Y-95397784D01*
X138432889Y-95400782D01*
X138472288Y-95464656D01*
X138472952Y-95465732D01*
X138485253Y-95480830D01*
X138486168Y-95481693D01*
X138486170Y-95481696D01*
X138522000Y-95515500D01*
X138540708Y-95533150D01*
X138543295Y-95535663D01*
X139505269Y-96497637D01*
X139517051Y-96511270D01*
X139531390Y-96530531D01*
X139569338Y-96562373D01*
X139577313Y-96569681D01*
X139581223Y-96573591D01*
X139605556Y-96592830D01*
X139608335Y-96595095D01*
X139666752Y-96644113D01*
X139683179Y-96654578D01*
X139752320Y-96686819D01*
X139755567Y-96688391D01*
X139823699Y-96722609D01*
X139842087Y-96729000D01*
X139843323Y-96729255D01*
X139843327Y-96729257D01*
X139916895Y-96744447D01*
X139920242Y-96745189D01*
X139993279Y-96762500D01*
X139993281Y-96762500D01*
X139994509Y-96762791D01*
X140013878Y-96764770D01*
X140015140Y-96764733D01*
X140015144Y-96764734D01*
X140087533Y-96762627D01*
X140090131Y-96762552D01*
X140093737Y-96762500D01*
X146748294Y-96762500D01*
X146766264Y-96763809D01*
X146770320Y-96764402D01*
X146790023Y-96767289D01*
X146839368Y-96762972D01*
X146850176Y-96762500D01*
X146852100Y-96762500D01*
X146855709Y-96762500D01*
X146886550Y-96758894D01*
X146890031Y-96758539D01*
X146964797Y-96751999D01*
X146964797Y-96751998D01*
X146966052Y-96751889D01*
X146985062Y-96747674D01*
X146986250Y-96747241D01*
X146986255Y-96747241D01*
X147056820Y-96721557D01*
X147060095Y-96720419D01*
X147131334Y-96696814D01*
X147131336Y-96696812D01*
X147132536Y-96696415D01*
X147150063Y-96687929D01*
X147151112Y-96687238D01*
X147151117Y-96687237D01*
X147213806Y-96646005D01*
X147216798Y-96644099D01*
X147280656Y-96604712D01*
X147280656Y-96604711D01*
X147281729Y-96604050D01*
X147296824Y-96591753D01*
X147297692Y-96590832D01*
X147297696Y-96590830D01*
X147349185Y-96536253D01*
X147351631Y-96533735D01*
X150225366Y-93660000D01*
X155164340Y-93660000D01*
X155184936Y-93895407D01*
X155211300Y-93993798D01*
X155246097Y-94123663D01*
X155345965Y-94337830D01*
X155481505Y-94531401D01*
X155648599Y-94698495D01*
X155842170Y-94834035D01*
X156056337Y-94933903D01*
X156284592Y-94995063D01*
X156520000Y-95015659D01*
X156755408Y-94995063D01*
X156983663Y-94933903D01*
X157197830Y-94834035D01*
X157391401Y-94698495D01*
X157558495Y-94531401D01*
X157688426Y-94345839D01*
X157743002Y-94302216D01*
X157812500Y-94295022D01*
X157874855Y-94326545D01*
X157891571Y-94345837D01*
X158021505Y-94531401D01*
X158188599Y-94698495D01*
X158382170Y-94834035D01*
X158596337Y-94933903D01*
X158794396Y-94986972D01*
X158824592Y-94995063D01*
X159059999Y-95015659D01*
X159059999Y-95015658D01*
X159060000Y-95015659D01*
X159295408Y-94995063D01*
X159523663Y-94933903D01*
X159737830Y-94834035D01*
X159931401Y-94698495D01*
X160098495Y-94531401D01*
X160228426Y-94345839D01*
X160283002Y-94302216D01*
X160352500Y-94295022D01*
X160414855Y-94326545D01*
X160431571Y-94345837D01*
X160561505Y-94531401D01*
X160728599Y-94698495D01*
X160922170Y-94834035D01*
X161136337Y-94933903D01*
X161334396Y-94986972D01*
X161364592Y-94995063D01*
X161599999Y-95015659D01*
X161599999Y-95015658D01*
X161600000Y-95015659D01*
X161813013Y-94997022D01*
X161881512Y-95010788D01*
X161911501Y-95032869D01*
X163630267Y-96751634D01*
X163642048Y-96765266D01*
X163643554Y-96767289D01*
X163656390Y-96784530D01*
X163694339Y-96816373D01*
X163702314Y-96823681D01*
X163706224Y-96827591D01*
X163728026Y-96844830D01*
X163730541Y-96846818D01*
X163733304Y-96849069D01*
X163790786Y-96897302D01*
X163790788Y-96897303D01*
X163791750Y-96898110D01*
X163808180Y-96908578D01*
X163809322Y-96909110D01*
X163809323Y-96909111D01*
X163877350Y-96940832D01*
X163880527Y-96942371D01*
X163946667Y-96975588D01*
X163948702Y-96976610D01*
X163967085Y-96982999D01*
X163968322Y-96983254D01*
X163968328Y-96983257D01*
X164041852Y-96998437D01*
X164045286Y-96999199D01*
X164073510Y-97005889D01*
X164119506Y-97016791D01*
X164138879Y-97018770D01*
X164140141Y-97018733D01*
X164140145Y-97018734D01*
X164212534Y-97016627D01*
X164215132Y-97016552D01*
X164218738Y-97016500D01*
X169862294Y-97016500D01*
X169880264Y-97017809D01*
X169884320Y-97018402D01*
X169904023Y-97021289D01*
X169953368Y-97016972D01*
X169964176Y-97016500D01*
X169966100Y-97016500D01*
X169969709Y-97016500D01*
X170000550Y-97012894D01*
X170004031Y-97012539D01*
X170078797Y-97005999D01*
X170078797Y-97005998D01*
X170080052Y-97005889D01*
X170099062Y-97001674D01*
X170100250Y-97001241D01*
X170100255Y-97001241D01*
X170170820Y-96975557D01*
X170174095Y-96974419D01*
X170245334Y-96950814D01*
X170245336Y-96950812D01*
X170246536Y-96950415D01*
X170264063Y-96941929D01*
X170265112Y-96941238D01*
X170265117Y-96941237D01*
X170327806Y-96900005D01*
X170330798Y-96898099D01*
X170394656Y-96858712D01*
X170394656Y-96858711D01*
X170395729Y-96858050D01*
X170410824Y-96845753D01*
X170411692Y-96844832D01*
X170411696Y-96844830D01*
X170463184Y-96790254D01*
X170465630Y-96787736D01*
X171300642Y-95952724D01*
X171314260Y-95940954D01*
X171333530Y-95926610D01*
X171365366Y-95888667D01*
X171372680Y-95880688D01*
X171373264Y-95880103D01*
X171376591Y-95876777D01*
X171395833Y-95852439D01*
X171398090Y-95849670D01*
X171412853Y-95832075D01*
X171446302Y-95792214D01*
X171446303Y-95792211D01*
X171447115Y-95791244D01*
X171457573Y-95774827D01*
X171458106Y-95773682D01*
X171458111Y-95773677D01*
X171489833Y-95705646D01*
X171491362Y-95702488D01*
X171525040Y-95635433D01*
X171525040Y-95635432D01*
X171525612Y-95634294D01*
X171532000Y-95615914D01*
X171532255Y-95614675D01*
X171532257Y-95614673D01*
X171547447Y-95541103D01*
X171548186Y-95537770D01*
X171565500Y-95464721D01*
X171565500Y-95464716D01*
X171565791Y-95463489D01*
X171567770Y-95444121D01*
X171567733Y-95442859D01*
X171567734Y-95442856D01*
X171565552Y-95367868D01*
X171565500Y-95364262D01*
X171565500Y-89815321D01*
X171582113Y-89753321D01*
X171587028Y-89744809D01*
X171642179Y-89649284D01*
X171700674Y-89469256D01*
X171720460Y-89281000D01*
X171700674Y-89092744D01*
X171642179Y-88912716D01*
X171642179Y-88912715D01*
X171547533Y-88748783D01*
X171420870Y-88608110D01*
X171267730Y-88496848D01*
X171094802Y-88419855D01*
X170909648Y-88380500D01*
X170909646Y-88380500D01*
X170720354Y-88380500D01*
X170720352Y-88380500D01*
X170535197Y-88419855D01*
X170362269Y-88496848D01*
X170209129Y-88608110D01*
X170082466Y-88748783D01*
X169987820Y-88912715D01*
X169929326Y-89092742D01*
X169909540Y-89281000D01*
X169929326Y-89469257D01*
X169987820Y-89649284D01*
X170047887Y-89753321D01*
X170064500Y-89815321D01*
X170064500Y-95014770D01*
X170044815Y-95081809D01*
X170028181Y-95102451D01*
X169651451Y-95479181D01*
X169590128Y-95512666D01*
X169563770Y-95515500D01*
X164568229Y-95515500D01*
X164501190Y-95495815D01*
X164480548Y-95479181D01*
X164214952Y-95213585D01*
X164181467Y-95152262D01*
X164186451Y-95082570D01*
X164228323Y-95026637D01*
X164291826Y-95002376D01*
X164358922Y-94996505D01*
X164375408Y-94995063D01*
X164603663Y-94933903D01*
X164817830Y-94834035D01*
X165011401Y-94698495D01*
X165178495Y-94531401D01*
X165308426Y-94345839D01*
X165363002Y-94302216D01*
X165432500Y-94295022D01*
X165494855Y-94326545D01*
X165511571Y-94345837D01*
X165641505Y-94531401D01*
X165808599Y-94698495D01*
X166002170Y-94834035D01*
X166216337Y-94933903D01*
X166444592Y-94995063D01*
X166680000Y-95015659D01*
X166915408Y-94995063D01*
X167143663Y-94933903D01*
X167357830Y-94834035D01*
X167551401Y-94698495D01*
X167718495Y-94531401D01*
X167854035Y-94337830D01*
X167953903Y-94123663D01*
X168015063Y-93895408D01*
X168035659Y-93660000D01*
X168015063Y-93424592D01*
X167953903Y-93196337D01*
X167854035Y-92982171D01*
X167718495Y-92788599D01*
X167551401Y-92621505D01*
X167543730Y-92613834D01*
X167546438Y-92611125D01*
X167515345Y-92572193D01*
X167508182Y-92502691D01*
X167539731Y-92440350D01*
X167591111Y-92407538D01*
X167599334Y-92404814D01*
X167748656Y-92312712D01*
X167872712Y-92188656D01*
X167964814Y-92039334D01*
X168019999Y-91872797D01*
X168030500Y-91770009D01*
X168030499Y-90469992D01*
X168019999Y-90367203D01*
X167964814Y-90200666D01*
X167891315Y-90081505D01*
X167872711Y-90051342D01*
X167748657Y-89927288D01*
X167599334Y-89835186D01*
X167432797Y-89780000D01*
X167333141Y-89769819D01*
X167333122Y-89769818D01*
X167330009Y-89769500D01*
X167326860Y-89769500D01*
X166033140Y-89769500D01*
X166033120Y-89769500D01*
X166029992Y-89769501D01*
X166026860Y-89769820D01*
X166026858Y-89769821D01*
X165927203Y-89780000D01*
X165760665Y-89835186D01*
X165611342Y-89927288D01*
X165487288Y-90051342D01*
X165395185Y-90200666D01*
X165392460Y-90208892D01*
X165352686Y-90266336D01*
X165288170Y-90293157D01*
X165219394Y-90280841D01*
X165188347Y-90254088D01*
X165186166Y-90256270D01*
X165011404Y-90081508D01*
X165011404Y-90081507D01*
X165011401Y-90081505D01*
X164817830Y-89945965D01*
X164603663Y-89846097D01*
X164537165Y-89828279D01*
X164375407Y-89784936D01*
X164139999Y-89764340D01*
X163904592Y-89784936D01*
X163676336Y-89846097D01*
X163462170Y-89945965D01*
X163268598Y-90081505D01*
X163101505Y-90248598D01*
X162971575Y-90434159D01*
X162916998Y-90477784D01*
X162847500Y-90484978D01*
X162785145Y-90453455D01*
X162768425Y-90434159D01*
X162671795Y-90296157D01*
X162638495Y-90248599D01*
X162471401Y-90081505D01*
X162277830Y-89945965D01*
X162063663Y-89846097D01*
X161997165Y-89828279D01*
X161835407Y-89784936D01*
X161600000Y-89764340D01*
X161364592Y-89784936D01*
X161136336Y-89846097D01*
X160922170Y-89945965D01*
X160728598Y-90081505D01*
X160561505Y-90248598D01*
X160431575Y-90434159D01*
X160376998Y-90477784D01*
X160307500Y-90484978D01*
X160245145Y-90453455D01*
X160228425Y-90434159D01*
X160131795Y-90296157D01*
X160098495Y-90248599D01*
X159931401Y-90081505D01*
X159737830Y-89945965D01*
X159523663Y-89846097D01*
X159457165Y-89828279D01*
X159295407Y-89784936D01*
X159060000Y-89764340D01*
X158824592Y-89784936D01*
X158596336Y-89846097D01*
X158382170Y-89945965D01*
X158188598Y-90081505D01*
X158021505Y-90248598D01*
X157891575Y-90434159D01*
X157836998Y-90477784D01*
X157767500Y-90484978D01*
X157705145Y-90453455D01*
X157688425Y-90434159D01*
X157591795Y-90296157D01*
X157558495Y-90248599D01*
X157391401Y-90081505D01*
X157197830Y-89945965D01*
X156983663Y-89846097D01*
X156917165Y-89828279D01*
X156755407Y-89784936D01*
X156520000Y-89764340D01*
X156284592Y-89784936D01*
X156056336Y-89846097D01*
X155842170Y-89945965D01*
X155648598Y-90081505D01*
X155481505Y-90248598D01*
X155345965Y-90442170D01*
X155246097Y-90656336D01*
X155184936Y-90884592D01*
X155164340Y-91119999D01*
X155184936Y-91355407D01*
X155229709Y-91522502D01*
X155246097Y-91583663D01*
X155345965Y-91797830D01*
X155481505Y-91991401D01*
X155648599Y-92158495D01*
X155834160Y-92288426D01*
X155877783Y-92343002D01*
X155884976Y-92412501D01*
X155853454Y-92474855D01*
X155834160Y-92491574D01*
X155659555Y-92613834D01*
X155648595Y-92621508D01*
X155481505Y-92788598D01*
X155345965Y-92982170D01*
X155246097Y-93196336D01*
X155184936Y-93424592D01*
X155164340Y-93660000D01*
X150225366Y-93660000D01*
X160040548Y-83844819D01*
X160101871Y-83811334D01*
X160128229Y-83808500D01*
X173418294Y-83808500D01*
X173436264Y-83809809D01*
X173440320Y-83810402D01*
X173460023Y-83813289D01*
X173509368Y-83808972D01*
X173520176Y-83808500D01*
X173522100Y-83808500D01*
X173525709Y-83808500D01*
X173556550Y-83804894D01*
X173560031Y-83804539D01*
X173634797Y-83797999D01*
X173634797Y-83797998D01*
X173636052Y-83797889D01*
X173655062Y-83793674D01*
X173656250Y-83793241D01*
X173656255Y-83793241D01*
X173726820Y-83767557D01*
X173730095Y-83766419D01*
X173801334Y-83742814D01*
X173801336Y-83742812D01*
X173802536Y-83742415D01*
X173820063Y-83733929D01*
X173821112Y-83733238D01*
X173821117Y-83733237D01*
X173883806Y-83692005D01*
X173886798Y-83690099D01*
X173950656Y-83650712D01*
X173950656Y-83650711D01*
X173951729Y-83650050D01*
X173966824Y-83637753D01*
X173967692Y-83636832D01*
X173967696Y-83636830D01*
X174019184Y-83582254D01*
X174021629Y-83579737D01*
X174518548Y-83082819D01*
X174579872Y-83049334D01*
X174606230Y-83046500D01*
X186094770Y-83046500D01*
X186161809Y-83066185D01*
X186182451Y-83082819D01*
X187243181Y-84143549D01*
X187276666Y-84204872D01*
X187279500Y-84231230D01*
X187279500Y-84420608D01*
X187279797Y-84423626D01*
X187279798Y-84423641D01*
X187294699Y-84574932D01*
X187320542Y-84660126D01*
X187354740Y-84772863D01*
X187354769Y-84772956D01*
X187388732Y-84836496D01*
X187452315Y-84955450D01*
X187488919Y-85000052D01*
X187583589Y-85115410D01*
X187617535Y-85143268D01*
X187743550Y-85246685D01*
X187926046Y-85344232D01*
X188124066Y-85404300D01*
X188330000Y-85424583D01*
X188535934Y-85404300D01*
X188733954Y-85344232D01*
X188916450Y-85246685D01*
X189065971Y-85123976D01*
X189130278Y-85096665D01*
X189199145Y-85108456D01*
X189232315Y-85132150D01*
X189361544Y-85261379D01*
X189510707Y-85353385D01*
X189677064Y-85408510D01*
X189776611Y-85418680D01*
X189782889Y-85419000D01*
X189880000Y-85419000D01*
X189880000Y-84417938D01*
X189961115Y-84481072D01*
X190071595Y-84519000D01*
X190159005Y-84519000D01*
X190245216Y-84504614D01*
X190347947Y-84449019D01*
X190375581Y-84419000D01*
X190380000Y-84419000D01*
X190380000Y-85419000D01*
X190477111Y-85419000D01*
X190483388Y-85418680D01*
X190582935Y-85408510D01*
X190749292Y-85353385D01*
X190898458Y-85261378D01*
X191022378Y-85137458D01*
X191114385Y-84988292D01*
X191169510Y-84821935D01*
X191179680Y-84722388D01*
X191180000Y-84716110D01*
X191180000Y-84419000D01*
X190380000Y-84419000D01*
X190375581Y-84419000D01*
X190427060Y-84363079D01*
X190473982Y-84256108D01*
X190483628Y-84139698D01*
X190454953Y-84026462D01*
X190391064Y-83928673D01*
X190298885Y-83856928D01*
X190188405Y-83819000D01*
X190100995Y-83819000D01*
X190014784Y-83833386D01*
X189912053Y-83888981D01*
X189880000Y-83923799D01*
X189880000Y-82919000D01*
X190380000Y-82919000D01*
X190380000Y-83919000D01*
X191180000Y-83919000D01*
X191180000Y-83621889D01*
X191179680Y-83615611D01*
X191169510Y-83516064D01*
X191114385Y-83349707D01*
X191022378Y-83200541D01*
X190898458Y-83076621D01*
X190749292Y-82984614D01*
X190582935Y-82929489D01*
X190483388Y-82919319D01*
X190477111Y-82919000D01*
X190380000Y-82919000D01*
X189880000Y-82919000D01*
X189782889Y-82919000D01*
X189776611Y-82919319D01*
X189677064Y-82929489D01*
X189510707Y-82984614D01*
X189361541Y-83076621D01*
X189232314Y-83205849D01*
X189170991Y-83239334D01*
X189101299Y-83234350D01*
X189065969Y-83214022D01*
X188916450Y-83091315D01*
X188916449Y-83091314D01*
X188733956Y-82993769D01*
X188733955Y-82993768D01*
X188733954Y-82993768D01*
X188623317Y-82960207D01*
X188535932Y-82933699D01*
X188329998Y-82913416D01*
X188211561Y-82925081D01*
X188142915Y-82912062D01*
X188111727Y-82889359D01*
X187032728Y-81810360D01*
X187020946Y-81796727D01*
X187006609Y-81777469D01*
X186968666Y-81745631D01*
X186960691Y-81738323D01*
X186959329Y-81736961D01*
X186956777Y-81734409D01*
X186932444Y-81715169D01*
X186929647Y-81712890D01*
X186871251Y-81663890D01*
X186854821Y-81653422D01*
X186785691Y-81621186D01*
X186782447Y-81619615D01*
X186714306Y-81585394D01*
X186695903Y-81578997D01*
X186621211Y-81563574D01*
X186617692Y-81562794D01*
X186543490Y-81545208D01*
X186524121Y-81543229D01*
X186447869Y-81545448D01*
X186444263Y-81545500D01*
X176939675Y-81545500D01*
X176872636Y-81525815D01*
X176826881Y-81473011D01*
X176817312Y-81406462D01*
X176817130Y-81406444D01*
X176817204Y-81405713D01*
X176816937Y-81403853D01*
X176817745Y-81400423D01*
X176828680Y-81293388D01*
X176829000Y-81287110D01*
X176829000Y-80990000D01*
X176024581Y-80990000D01*
X176076060Y-80934079D01*
X176122982Y-80827108D01*
X176132628Y-80710698D01*
X176103953Y-80597462D01*
X176040064Y-80499673D01*
X175947885Y-80427928D01*
X175837405Y-80390000D01*
X175749995Y-80390000D01*
X175663784Y-80404386D01*
X175561053Y-80459981D01*
X175529000Y-80494799D01*
X175529000Y-79490000D01*
X176029000Y-79490000D01*
X176029000Y-80490000D01*
X176829000Y-80490000D01*
X176829000Y-80419000D01*
X187280072Y-80419000D01*
X187280298Y-80423622D01*
X187295191Y-80574834D01*
X187355233Y-80772764D01*
X187452731Y-80955171D01*
X187583945Y-81115054D01*
X187743828Y-81246268D01*
X187926235Y-81343766D01*
X188080000Y-81390410D01*
X188080000Y-80419000D01*
X187280072Y-80419000D01*
X176829000Y-80419000D01*
X176829000Y-80198302D01*
X187976372Y-80198302D01*
X188005047Y-80311538D01*
X188068936Y-80409327D01*
X188161115Y-80481072D01*
X188271595Y-80519000D01*
X188359005Y-80519000D01*
X188445216Y-80504614D01*
X188547947Y-80449019D01*
X188580000Y-80414200D01*
X188580000Y-81390410D01*
X188733764Y-81343766D01*
X188916171Y-81246268D01*
X189076053Y-81115055D01*
X189133822Y-81044664D01*
X189191568Y-81005329D01*
X189261413Y-81003458D01*
X189321181Y-81039645D01*
X189325530Y-81044664D01*
X189383589Y-81115410D01*
X189463569Y-81181047D01*
X189543550Y-81246685D01*
X189726046Y-81344232D01*
X189924066Y-81404300D01*
X190130000Y-81424583D01*
X190335934Y-81404300D01*
X190533954Y-81344232D01*
X190716450Y-81246685D01*
X190876410Y-81115410D01*
X191007685Y-80955450D01*
X191105232Y-80772954D01*
X191165300Y-80574934D01*
X191180500Y-80420608D01*
X191180500Y-79917392D01*
X191165300Y-79763066D01*
X191105232Y-79565046D01*
X191007685Y-79382550D01*
X190912117Y-79266099D01*
X190876410Y-79222589D01*
X190745711Y-79115329D01*
X190716450Y-79091315D01*
X190533954Y-78993768D01*
X190434944Y-78963733D01*
X190335932Y-78933699D01*
X190152497Y-78915632D01*
X190130000Y-78913417D01*
X190129999Y-78913417D01*
X189924067Y-78933699D01*
X189726043Y-78993769D01*
X189543551Y-79091314D01*
X189383588Y-79222590D01*
X189325529Y-79293336D01*
X189267783Y-79332670D01*
X189197939Y-79334541D01*
X189138170Y-79298353D01*
X189133823Y-79293336D01*
X189076054Y-79222945D01*
X188916170Y-79091731D01*
X188733762Y-78994231D01*
X188580000Y-78947587D01*
X188580000Y-79920061D01*
X188498885Y-79856928D01*
X188388405Y-79819000D01*
X188300995Y-79819000D01*
X188214784Y-79833386D01*
X188112053Y-79888981D01*
X188032940Y-79974921D01*
X187986018Y-80081892D01*
X187976372Y-80198302D01*
X176829000Y-80198302D01*
X176829000Y-80192889D01*
X176828680Y-80186611D01*
X176818510Y-80087064D01*
X176763385Y-79920707D01*
X176762332Y-79919000D01*
X187280072Y-79919000D01*
X188080000Y-79919000D01*
X188080000Y-78947587D01*
X187926237Y-78994231D01*
X187743829Y-79091731D01*
X187583945Y-79222945D01*
X187452731Y-79382828D01*
X187355233Y-79565235D01*
X187295191Y-79763165D01*
X187280298Y-79914377D01*
X187280072Y-79919000D01*
X176762332Y-79919000D01*
X176671378Y-79771541D01*
X176547458Y-79647621D01*
X176398292Y-79555614D01*
X176231935Y-79500489D01*
X176132388Y-79490319D01*
X176126111Y-79490000D01*
X176029000Y-79490000D01*
X175529000Y-79490000D01*
X175431889Y-79490000D01*
X175425611Y-79490319D01*
X175326064Y-79500489D01*
X175159707Y-79555614D01*
X175010541Y-79647621D01*
X174881314Y-79776849D01*
X174819991Y-79810334D01*
X174750299Y-79805350D01*
X174714969Y-79785022D01*
X174599171Y-79689989D01*
X174565449Y-79662314D01*
X174382956Y-79564769D01*
X174382955Y-79564768D01*
X174382954Y-79564768D01*
X174283944Y-79534733D01*
X174184932Y-79504699D01*
X174001497Y-79486632D01*
X173979000Y-79484417D01*
X173978999Y-79484417D01*
X173773067Y-79504699D01*
X173575043Y-79564769D01*
X173392551Y-79662314D01*
X173232589Y-79793589D01*
X173101314Y-79953551D01*
X173003769Y-80136043D01*
X172943699Y-80334067D01*
X172928798Y-80485358D01*
X172928797Y-80485374D01*
X172928500Y-80488392D01*
X172928500Y-80491440D01*
X172928500Y-80491441D01*
X172928500Y-80677770D01*
X172908815Y-80744809D01*
X172892181Y-80765451D01*
X172529451Y-81128181D01*
X172468128Y-81161666D01*
X172441770Y-81164500D01*
X161639699Y-81164500D01*
X161572660Y-81144815D01*
X161526905Y-81092011D01*
X161516961Y-81022853D01*
X161545986Y-80959297D01*
X161552018Y-80952819D01*
X161685378Y-80819458D01*
X161777385Y-80670292D01*
X161832510Y-80503935D01*
X161842680Y-80404388D01*
X161843000Y-80398110D01*
X161843000Y-80101000D01*
X161038581Y-80101000D01*
X161090060Y-80045079D01*
X161136982Y-79938108D01*
X161146628Y-79821698D01*
X161117953Y-79708462D01*
X161054064Y-79610673D01*
X160961885Y-79538928D01*
X160851405Y-79501000D01*
X160763995Y-79501000D01*
X160677784Y-79515386D01*
X160575053Y-79570981D01*
X160543000Y-79605799D01*
X160543000Y-78601000D01*
X161043000Y-78601000D01*
X161043000Y-79601000D01*
X161843000Y-79601000D01*
X161843000Y-79303889D01*
X161842680Y-79297611D01*
X161832510Y-79198064D01*
X161777385Y-79031707D01*
X161685378Y-78882541D01*
X161561458Y-78758621D01*
X161412292Y-78666614D01*
X161245935Y-78611489D01*
X161146388Y-78601319D01*
X161140111Y-78601000D01*
X161043000Y-78601000D01*
X160543000Y-78601000D01*
X160445889Y-78601000D01*
X160439611Y-78601319D01*
X160340064Y-78611489D01*
X160173707Y-78666614D01*
X160024541Y-78758621D01*
X159895314Y-78887849D01*
X159833991Y-78921334D01*
X159764299Y-78916350D01*
X159728969Y-78896022D01*
X159579450Y-78773315D01*
X159579449Y-78773314D01*
X159396956Y-78675769D01*
X159396955Y-78675768D01*
X159396954Y-78675768D01*
X159297944Y-78645733D01*
X159198932Y-78615699D01*
X158993000Y-78595417D01*
X158787067Y-78615699D01*
X158589043Y-78675769D01*
X158412953Y-78769892D01*
X158344550Y-78784134D01*
X158279307Y-78759134D01*
X158237936Y-78702829D01*
X158230500Y-78660534D01*
X158230500Y-77623321D01*
X158247113Y-77561321D01*
X158307179Y-77457284D01*
X158307179Y-77457283D01*
X158365674Y-77277256D01*
X158383330Y-77109260D01*
X158409913Y-77044649D01*
X158467210Y-77004664D01*
X158537029Y-77002004D01*
X158565104Y-77012867D01*
X158589238Y-77025767D01*
X158743000Y-77072410D01*
X158743000Y-76101000D01*
X157943072Y-76101000D01*
X157943299Y-76105627D01*
X157943412Y-76106774D01*
X157943367Y-76107010D01*
X157943448Y-76108659D01*
X157943337Y-76107165D01*
X157930392Y-76175420D01*
X157882326Y-76226130D01*
X157814475Y-76242802D01*
X157769575Y-76232206D01*
X157759803Y-76227855D01*
X157574648Y-76188500D01*
X157574646Y-76188500D01*
X157385354Y-76188500D01*
X157385352Y-76188500D01*
X157200197Y-76227855D01*
X157027269Y-76304848D01*
X156874129Y-76416110D01*
X156747466Y-76556783D01*
X156652820Y-76720715D01*
X156594326Y-76900742D01*
X156574540Y-77089000D01*
X156594326Y-77277257D01*
X156652820Y-77457284D01*
X156712887Y-77561321D01*
X156729500Y-77623321D01*
X156729500Y-79647769D01*
X156709815Y-79714808D01*
X156693181Y-79735450D01*
X155850902Y-80577729D01*
X149044181Y-87384451D01*
X148982858Y-87417936D01*
X148913166Y-87412952D01*
X148857233Y-87371080D01*
X148832816Y-87305616D01*
X148832500Y-87296770D01*
X148832500Y-81109348D01*
X148852185Y-81042309D01*
X148904989Y-80996554D01*
X148974147Y-80986610D01*
X149014949Y-80999989D01*
X149064046Y-81026232D01*
X149262066Y-81086300D01*
X149468000Y-81106583D01*
X149673934Y-81086300D01*
X149871954Y-81026232D01*
X150054450Y-80928685D01*
X150203971Y-80805976D01*
X150268278Y-80778665D01*
X150337145Y-80790456D01*
X150370315Y-80814150D01*
X150499544Y-80943379D01*
X150648707Y-81035385D01*
X150815064Y-81090510D01*
X150914611Y-81100680D01*
X150920889Y-81101000D01*
X151018000Y-81101000D01*
X151018000Y-80099938D01*
X151099115Y-80163072D01*
X151209595Y-80201000D01*
X151297005Y-80201000D01*
X151383216Y-80186614D01*
X151485947Y-80131019D01*
X151513581Y-80101000D01*
X151518000Y-80101000D01*
X151518000Y-81101000D01*
X151615111Y-81101000D01*
X151621388Y-81100680D01*
X151720935Y-81090510D01*
X151887292Y-81035385D01*
X152036458Y-80943378D01*
X152160378Y-80819458D01*
X152252385Y-80670292D01*
X152307510Y-80503935D01*
X152317680Y-80404388D01*
X152318000Y-80398110D01*
X152318000Y-80101000D01*
X151518000Y-80101000D01*
X151513581Y-80101000D01*
X151565060Y-80045079D01*
X151611982Y-79938108D01*
X151621628Y-79821698D01*
X151592953Y-79708462D01*
X151529064Y-79610673D01*
X151436885Y-79538928D01*
X151326405Y-79501000D01*
X151238995Y-79501000D01*
X151152784Y-79515386D01*
X151050053Y-79570981D01*
X151018000Y-79605799D01*
X151018000Y-78601000D01*
X151518000Y-78601000D01*
X151518000Y-79601000D01*
X152318000Y-79601000D01*
X152318000Y-79303889D01*
X152317680Y-79297611D01*
X152307510Y-79198064D01*
X152252385Y-79031707D01*
X152160378Y-78882541D01*
X152036458Y-78758621D01*
X151887292Y-78666614D01*
X151720935Y-78611489D01*
X151621388Y-78601319D01*
X151615111Y-78601000D01*
X151518000Y-78601000D01*
X151018000Y-78601000D01*
X150920889Y-78601000D01*
X150914611Y-78601319D01*
X150815064Y-78611489D01*
X150648707Y-78666614D01*
X150499541Y-78758621D01*
X150370314Y-78887849D01*
X150308991Y-78921334D01*
X150239299Y-78916350D01*
X150203969Y-78896022D01*
X150054450Y-78773315D01*
X150054449Y-78773314D01*
X149871956Y-78675769D01*
X149871955Y-78675768D01*
X149871954Y-78675768D01*
X149772944Y-78645733D01*
X149673932Y-78615699D01*
X149490497Y-78597632D01*
X149468000Y-78595417D01*
X149467999Y-78595417D01*
X149262067Y-78615699D01*
X149064043Y-78675769D01*
X148881551Y-78773314D01*
X148721589Y-78904589D01*
X148590313Y-79064551D01*
X148542475Y-79154048D01*
X148501257Y-79199193D01*
X148474230Y-79216969D01*
X148471189Y-79218907D01*
X148406280Y-79258944D01*
X148391165Y-79271256D01*
X148338832Y-79326725D01*
X148336320Y-79329311D01*
X147596359Y-80069271D01*
X147582728Y-80081051D01*
X147563470Y-80095388D01*
X147531635Y-80133328D01*
X147524338Y-80141292D01*
X147522972Y-80142657D01*
X147522950Y-80142681D01*
X147520409Y-80145223D01*
X147518173Y-80148050D01*
X147518171Y-80148053D01*
X147501176Y-80169546D01*
X147498902Y-80172337D01*
X147449894Y-80230744D01*
X147439418Y-80247187D01*
X147407192Y-80316294D01*
X147405622Y-80319536D01*
X147371393Y-80387692D01*
X147364996Y-80406098D01*
X147349573Y-80480788D01*
X147348793Y-80484305D01*
X147331208Y-80558506D01*
X147329229Y-80577879D01*
X147331448Y-80654129D01*
X147331500Y-80657735D01*
X147331500Y-87775769D01*
X147311815Y-87842808D01*
X147295181Y-87863450D01*
X146151228Y-89007402D01*
X146089905Y-89040887D01*
X146089330Y-89041011D01*
X146024197Y-89054856D01*
X145851267Y-89131849D01*
X145698129Y-89243110D01*
X145571466Y-89383783D01*
X145476820Y-89547715D01*
X145418326Y-89727742D01*
X145406482Y-89840430D01*
X145379897Y-89905045D01*
X145322599Y-89945029D01*
X145252780Y-89947689D01*
X145218065Y-89933007D01*
X145064334Y-89838186D01*
X144897797Y-89783000D01*
X144798141Y-89772819D01*
X144798122Y-89772818D01*
X144795009Y-89772500D01*
X144791860Y-89772500D01*
X143498140Y-89772500D01*
X143498120Y-89772500D01*
X143494992Y-89772501D01*
X143491860Y-89772820D01*
X143491858Y-89772821D01*
X143392203Y-89783000D01*
X143225665Y-89838186D01*
X143076342Y-89930288D01*
X142952288Y-90054342D01*
X142860185Y-90203666D01*
X142857460Y-90211892D01*
X142817686Y-90269336D01*
X142753170Y-90296157D01*
X142684394Y-90283841D01*
X142653347Y-90257088D01*
X142651166Y-90259270D01*
X142476404Y-90084508D01*
X142476401Y-90084505D01*
X142282830Y-89948965D01*
X142168195Y-89895509D01*
X142115757Y-89849337D01*
X142096605Y-89782144D01*
X142102669Y-89744814D01*
X142109674Y-89723256D01*
X142129460Y-89535000D01*
X142109674Y-89346744D01*
X142051179Y-89166716D01*
X142051179Y-89166715D01*
X141956533Y-89002783D01*
X141829870Y-88862110D01*
X141676730Y-88750848D01*
X141503803Y-88673855D01*
X141438669Y-88660011D01*
X141377187Y-88626819D01*
X141376769Y-88626402D01*
X139216819Y-86466451D01*
X139183334Y-86405128D01*
X139180500Y-86378770D01*
X139180500Y-81041465D01*
X139200185Y-80974426D01*
X139252989Y-80928671D01*
X139322147Y-80918727D01*
X139362948Y-80932105D01*
X139539046Y-81026232D01*
X139737066Y-81086300D01*
X139943000Y-81106583D01*
X140148934Y-81086300D01*
X140346954Y-81026232D01*
X140529450Y-80928685D01*
X140678971Y-80805976D01*
X140743278Y-80778665D01*
X140812145Y-80790456D01*
X140845315Y-80814150D01*
X140974544Y-80943379D01*
X141123707Y-81035385D01*
X141290064Y-81090510D01*
X141389611Y-81100680D01*
X141395889Y-81101000D01*
X141493000Y-81101000D01*
X141493000Y-80099938D01*
X141574115Y-80163072D01*
X141684595Y-80201000D01*
X141772005Y-80201000D01*
X141858216Y-80186614D01*
X141960947Y-80131019D01*
X141988581Y-80101000D01*
X141993000Y-80101000D01*
X141993000Y-81101000D01*
X142090111Y-81101000D01*
X142096388Y-81100680D01*
X142195935Y-81090510D01*
X142362292Y-81035385D01*
X142511458Y-80943378D01*
X142635378Y-80819458D01*
X142727385Y-80670292D01*
X142782510Y-80503935D01*
X142792680Y-80404388D01*
X142793000Y-80398110D01*
X142793000Y-80101000D01*
X141993000Y-80101000D01*
X141988581Y-80101000D01*
X142040060Y-80045079D01*
X142086982Y-79938108D01*
X142096628Y-79821698D01*
X142067953Y-79708462D01*
X142004064Y-79610673D01*
X141911885Y-79538928D01*
X141801405Y-79501000D01*
X141713995Y-79501000D01*
X141627784Y-79515386D01*
X141525053Y-79570981D01*
X141493000Y-79605799D01*
X141493000Y-78601000D01*
X141993000Y-78601000D01*
X141993000Y-79601000D01*
X142793000Y-79601000D01*
X142793000Y-79303889D01*
X142792680Y-79297611D01*
X142782510Y-79198064D01*
X142727385Y-79031707D01*
X142635378Y-78882541D01*
X142511458Y-78758621D01*
X142362292Y-78666614D01*
X142195935Y-78611489D01*
X142096388Y-78601319D01*
X142090111Y-78601000D01*
X141993000Y-78601000D01*
X141493000Y-78601000D01*
X141395889Y-78601000D01*
X141389611Y-78601319D01*
X141290064Y-78611489D01*
X141123707Y-78666614D01*
X140974541Y-78758621D01*
X140845314Y-78887849D01*
X140783991Y-78921334D01*
X140714299Y-78916350D01*
X140678969Y-78896022D01*
X140529450Y-78773315D01*
X140529449Y-78773314D01*
X140346956Y-78675769D01*
X140346955Y-78675768D01*
X140346954Y-78675768D01*
X140247944Y-78645733D01*
X140148932Y-78615699D01*
X139943000Y-78595417D01*
X139737067Y-78615699D01*
X139539043Y-78675769D01*
X139356551Y-78773314D01*
X139196588Y-78904590D01*
X139066700Y-79062861D01*
X139008955Y-79102195D01*
X138981658Y-79107724D01*
X138942951Y-79111111D01*
X138923922Y-79115329D01*
X138852270Y-79141407D01*
X138848869Y-79142589D01*
X138776480Y-79166578D01*
X138758927Y-79175076D01*
X138695236Y-79216965D01*
X138692198Y-79218901D01*
X138627277Y-79258947D01*
X138612166Y-79271256D01*
X138559815Y-79326742D01*
X138557304Y-79329326D01*
X137944358Y-79942272D01*
X137930727Y-79954053D01*
X137911468Y-79968391D01*
X137879635Y-80006328D01*
X137872338Y-80014292D01*
X137870972Y-80015657D01*
X137870950Y-80015681D01*
X137868409Y-80018223D01*
X137866173Y-80021050D01*
X137866171Y-80021053D01*
X137849176Y-80042546D01*
X137846902Y-80045337D01*
X137797894Y-80103744D01*
X137787418Y-80120187D01*
X137755192Y-80189294D01*
X137753622Y-80192536D01*
X137719393Y-80260692D01*
X137712996Y-80279098D01*
X137697573Y-80353788D01*
X137696793Y-80357305D01*
X137679208Y-80431506D01*
X137677229Y-80450879D01*
X137679448Y-80527129D01*
X137679500Y-80530735D01*
X137679500Y-86026770D01*
X137659815Y-86093809D01*
X137607011Y-86139564D01*
X137537853Y-86149508D01*
X137474297Y-86120483D01*
X137467819Y-86114451D01*
X129734728Y-78381360D01*
X129722946Y-78367727D01*
X129708609Y-78348469D01*
X129670666Y-78316631D01*
X129662691Y-78309323D01*
X129661329Y-78307961D01*
X129658777Y-78305409D01*
X129634444Y-78286169D01*
X129631647Y-78283890D01*
X129573251Y-78234890D01*
X129556821Y-78224422D01*
X129487691Y-78192186D01*
X129484447Y-78190615D01*
X129416306Y-78156394D01*
X129397903Y-78149997D01*
X129323211Y-78134574D01*
X129319692Y-78133794D01*
X129245490Y-78116208D01*
X129226121Y-78114229D01*
X129149869Y-78116448D01*
X129146263Y-78116500D01*
X127279442Y-78116500D01*
X127212403Y-78096815D01*
X127166648Y-78044011D01*
X127156704Y-77974853D01*
X127185729Y-77911297D01*
X127220987Y-77883143D01*
X127343450Y-77817685D01*
X127503410Y-77686410D01*
X127634685Y-77526450D01*
X127732232Y-77343954D01*
X127792300Y-77145934D01*
X127807500Y-76991608D01*
X127807500Y-76488392D01*
X127792300Y-76334066D01*
X127732232Y-76136046D01*
X127713499Y-76101000D01*
X138893072Y-76101000D01*
X138893298Y-76105622D01*
X138908191Y-76256834D01*
X138968233Y-76454764D01*
X139065731Y-76637171D01*
X139196945Y-76797054D01*
X139356828Y-76928268D01*
X139539235Y-77025766D01*
X139693000Y-77072410D01*
X139693000Y-76101000D01*
X138893072Y-76101000D01*
X127713499Y-76101000D01*
X127634685Y-75953550D01*
X127574573Y-75880302D01*
X139589372Y-75880302D01*
X139618047Y-75993538D01*
X139681936Y-76091327D01*
X139774115Y-76163072D01*
X139884595Y-76201000D01*
X139972005Y-76201000D01*
X140058216Y-76186614D01*
X140160947Y-76131019D01*
X140193000Y-76096200D01*
X140193000Y-77072410D01*
X140346764Y-77025766D01*
X140529171Y-76928268D01*
X140689053Y-76797055D01*
X140746822Y-76726664D01*
X140804568Y-76687329D01*
X140874413Y-76685458D01*
X140934181Y-76721645D01*
X140938530Y-76726664D01*
X140996589Y-76797410D01*
X141032777Y-76827108D01*
X141156550Y-76928685D01*
X141339046Y-77026232D01*
X141537066Y-77086300D01*
X141743000Y-77106583D01*
X141948934Y-77086300D01*
X142146954Y-77026232D01*
X142329450Y-76928685D01*
X142489410Y-76797410D01*
X142620685Y-76637450D01*
X142718232Y-76454954D01*
X142778300Y-76256934D01*
X142793500Y-76102608D01*
X142793500Y-76101000D01*
X148418072Y-76101000D01*
X148418298Y-76105622D01*
X148433191Y-76256834D01*
X148493233Y-76454764D01*
X148590731Y-76637171D01*
X148721945Y-76797054D01*
X148881828Y-76928268D01*
X149064235Y-77025766D01*
X149218000Y-77072410D01*
X149218000Y-76101000D01*
X148418072Y-76101000D01*
X142793500Y-76101000D01*
X142793500Y-75880302D01*
X149114372Y-75880302D01*
X149143047Y-75993538D01*
X149206936Y-76091327D01*
X149299115Y-76163072D01*
X149409595Y-76201000D01*
X149497005Y-76201000D01*
X149583216Y-76186614D01*
X149685947Y-76131019D01*
X149718000Y-76096200D01*
X149718000Y-77072410D01*
X149871764Y-77025766D01*
X150054171Y-76928268D01*
X150214053Y-76797055D01*
X150271822Y-76726664D01*
X150329568Y-76687329D01*
X150399413Y-76685458D01*
X150459181Y-76721645D01*
X150463530Y-76726664D01*
X150521589Y-76797410D01*
X150557777Y-76827108D01*
X150681550Y-76928685D01*
X150864046Y-77026232D01*
X151062066Y-77086300D01*
X151268000Y-77106583D01*
X151473934Y-77086300D01*
X151671954Y-77026232D01*
X151854450Y-76928685D01*
X152014410Y-76797410D01*
X152145685Y-76637450D01*
X152243232Y-76454954D01*
X152303300Y-76256934D01*
X152318500Y-76102608D01*
X152318500Y-75880302D01*
X158639372Y-75880302D01*
X158668047Y-75993538D01*
X158731936Y-76091327D01*
X158824115Y-76163072D01*
X158934595Y-76201000D01*
X159022005Y-76201000D01*
X159108216Y-76186614D01*
X159210947Y-76131019D01*
X159243000Y-76096200D01*
X159243000Y-77072410D01*
X159396764Y-77025766D01*
X159579171Y-76928268D01*
X159739053Y-76797055D01*
X159796822Y-76726664D01*
X159854568Y-76687329D01*
X159924413Y-76685458D01*
X159984181Y-76721645D01*
X159988530Y-76726664D01*
X160046589Y-76797410D01*
X160082777Y-76827108D01*
X160206550Y-76928685D01*
X160389046Y-77026232D01*
X160587066Y-77086300D01*
X160793000Y-77106583D01*
X160998934Y-77086300D01*
X161196954Y-77026232D01*
X161264739Y-76990000D01*
X172929072Y-76990000D01*
X172929298Y-76994622D01*
X172944191Y-77145834D01*
X173004233Y-77343764D01*
X173101731Y-77526171D01*
X173232945Y-77686054D01*
X173392828Y-77817268D01*
X173575235Y-77914766D01*
X173729000Y-77961410D01*
X173729000Y-76990000D01*
X172929072Y-76990000D01*
X161264739Y-76990000D01*
X161379450Y-76928685D01*
X161539410Y-76797410D01*
X161562478Y-76769302D01*
X173625372Y-76769302D01*
X173654047Y-76882538D01*
X173717936Y-76980327D01*
X173810115Y-77052072D01*
X173920595Y-77090000D01*
X174008005Y-77090000D01*
X174094216Y-77075614D01*
X174196947Y-77020019D01*
X174229000Y-76985200D01*
X174229000Y-77961410D01*
X174382764Y-77914766D01*
X174565171Y-77817268D01*
X174725053Y-77686055D01*
X174782822Y-77615664D01*
X174840568Y-77576329D01*
X174910413Y-77574458D01*
X174970181Y-77610645D01*
X174974530Y-77615664D01*
X175032589Y-77686410D01*
X175112570Y-77752047D01*
X175192550Y-77817685D01*
X175375046Y-77915232D01*
X175573066Y-77975300D01*
X175779000Y-77995583D01*
X175984934Y-77975300D01*
X176182954Y-77915232D01*
X176365450Y-77817685D01*
X176525410Y-77686410D01*
X176656685Y-77526450D01*
X176754232Y-77343954D01*
X176814300Y-77145934D01*
X176829500Y-76991608D01*
X176829500Y-76488392D01*
X176814300Y-76334066D01*
X176754232Y-76136046D01*
X176656685Y-75953550D01*
X176548478Y-75821698D01*
X176525410Y-75793589D01*
X176421681Y-75708462D01*
X176365450Y-75662315D01*
X176182954Y-75564768D01*
X176083944Y-75534733D01*
X175984932Y-75504699D01*
X175779000Y-75484417D01*
X175573067Y-75504699D01*
X175375043Y-75564769D01*
X175192551Y-75662314D01*
X175032588Y-75793590D01*
X174974529Y-75864336D01*
X174916783Y-75903670D01*
X174846939Y-75905541D01*
X174787170Y-75869353D01*
X174782823Y-75864336D01*
X174725054Y-75793945D01*
X174565170Y-75662731D01*
X174382762Y-75565231D01*
X174229000Y-75518587D01*
X174229000Y-76491061D01*
X174147885Y-76427928D01*
X174037405Y-76390000D01*
X173949995Y-76390000D01*
X173863784Y-76404386D01*
X173761053Y-76459981D01*
X173681940Y-76545921D01*
X173635018Y-76652892D01*
X173625372Y-76769302D01*
X161562478Y-76769302D01*
X161670685Y-76637450D01*
X161749499Y-76490000D01*
X172929072Y-76490000D01*
X173729000Y-76490000D01*
X173729000Y-75518587D01*
X173575237Y-75565231D01*
X173392829Y-75662731D01*
X173232945Y-75793945D01*
X173101731Y-75953828D01*
X173004233Y-76136235D01*
X172944191Y-76334165D01*
X172929298Y-76485377D01*
X172929072Y-76490000D01*
X161749499Y-76490000D01*
X161768232Y-76454954D01*
X161828300Y-76256934D01*
X161843500Y-76102608D01*
X161843500Y-75599392D01*
X161828300Y-75445066D01*
X161768232Y-75247046D01*
X161670685Y-75064550D01*
X161597469Y-74975336D01*
X161539410Y-74904589D01*
X161441952Y-74824609D01*
X161379450Y-74773315D01*
X161196954Y-74675768D01*
X161097944Y-74645733D01*
X160998932Y-74615699D01*
X160793000Y-74595417D01*
X160587067Y-74615699D01*
X160389043Y-74675769D01*
X160206551Y-74773314D01*
X160046588Y-74904590D01*
X159988529Y-74975336D01*
X159930783Y-75014670D01*
X159860939Y-75016541D01*
X159801170Y-74980353D01*
X159796823Y-74975336D01*
X159739054Y-74904945D01*
X159579170Y-74773731D01*
X159396762Y-74676231D01*
X159243000Y-74629587D01*
X159243000Y-75602061D01*
X159161885Y-75538928D01*
X159051405Y-75501000D01*
X158963995Y-75501000D01*
X158877784Y-75515386D01*
X158775053Y-75570981D01*
X158695940Y-75656921D01*
X158649018Y-75763892D01*
X158639372Y-75880302D01*
X152318500Y-75880302D01*
X152318500Y-75601000D01*
X157943072Y-75601000D01*
X158743000Y-75601000D01*
X158743000Y-74629587D01*
X158589237Y-74676231D01*
X158406829Y-74773731D01*
X158246945Y-74904945D01*
X158115731Y-75064828D01*
X158018233Y-75247235D01*
X157958191Y-75445165D01*
X157943298Y-75596377D01*
X157943072Y-75601000D01*
X152318500Y-75601000D01*
X152318500Y-75599392D01*
X152303300Y-75445066D01*
X152243232Y-75247046D01*
X152145685Y-75064550D01*
X152072469Y-74975336D01*
X152014410Y-74904589D01*
X151916952Y-74824609D01*
X151854450Y-74773315D01*
X151671954Y-74675768D01*
X151572944Y-74645733D01*
X151473932Y-74615699D01*
X151290497Y-74597632D01*
X151268000Y-74595417D01*
X151267999Y-74595417D01*
X151062067Y-74615699D01*
X150864043Y-74675769D01*
X150681551Y-74773314D01*
X150521588Y-74904590D01*
X150463529Y-74975336D01*
X150405783Y-75014670D01*
X150335939Y-75016541D01*
X150276170Y-74980353D01*
X150271823Y-74975336D01*
X150214054Y-74904945D01*
X150054170Y-74773731D01*
X149871762Y-74676231D01*
X149718000Y-74629587D01*
X149718000Y-75602061D01*
X149636885Y-75538928D01*
X149526405Y-75501000D01*
X149438995Y-75501000D01*
X149352784Y-75515386D01*
X149250053Y-75570981D01*
X149170940Y-75656921D01*
X149124018Y-75763892D01*
X149114372Y-75880302D01*
X142793500Y-75880302D01*
X142793500Y-75601000D01*
X148418072Y-75601000D01*
X149218000Y-75601000D01*
X149218000Y-74629587D01*
X149064237Y-74676231D01*
X148881829Y-74773731D01*
X148721945Y-74904945D01*
X148590731Y-75064828D01*
X148493233Y-75247235D01*
X148433191Y-75445165D01*
X148418298Y-75596377D01*
X148418072Y-75601000D01*
X142793500Y-75601000D01*
X142793500Y-75599392D01*
X142778300Y-75445066D01*
X142718232Y-75247046D01*
X142620685Y-75064550D01*
X142547469Y-74975336D01*
X142489410Y-74904589D01*
X142391952Y-74824609D01*
X142329450Y-74773315D01*
X142146954Y-74675768D01*
X142047944Y-74645733D01*
X141948932Y-74615699D01*
X141743000Y-74595417D01*
X141537067Y-74615699D01*
X141339043Y-74675769D01*
X141156551Y-74773314D01*
X140996588Y-74904590D01*
X140938529Y-74975336D01*
X140880783Y-75014670D01*
X140810939Y-75016541D01*
X140751170Y-74980353D01*
X140746823Y-74975336D01*
X140689054Y-74904945D01*
X140529170Y-74773731D01*
X140346762Y-74676231D01*
X140193000Y-74629587D01*
X140193000Y-75602061D01*
X140111885Y-75538928D01*
X140001405Y-75501000D01*
X139913995Y-75501000D01*
X139827784Y-75515386D01*
X139725053Y-75570981D01*
X139645940Y-75656921D01*
X139599018Y-75763892D01*
X139589372Y-75880302D01*
X127574573Y-75880302D01*
X127526478Y-75821698D01*
X127503410Y-75793589D01*
X127399681Y-75708462D01*
X127343450Y-75662315D01*
X127228739Y-75601000D01*
X138893072Y-75601000D01*
X139693000Y-75601000D01*
X139693000Y-74629587D01*
X139539237Y-74676231D01*
X139356829Y-74773731D01*
X139196945Y-74904945D01*
X139065731Y-75064828D01*
X138968233Y-75247235D01*
X138908191Y-75445165D01*
X138893298Y-75596377D01*
X138893072Y-75601000D01*
X127228739Y-75601000D01*
X127160954Y-75564768D01*
X127061944Y-75534733D01*
X126962932Y-75504699D01*
X126757000Y-75484417D01*
X126551067Y-75504699D01*
X126353043Y-75564769D01*
X126170551Y-75662314D01*
X126010588Y-75793590D01*
X125952529Y-75864336D01*
X125894783Y-75903670D01*
X125824939Y-75905541D01*
X125765170Y-75869353D01*
X125760823Y-75864336D01*
X125703054Y-75793945D01*
X125543170Y-75662731D01*
X125360762Y-75565231D01*
X125207000Y-75518587D01*
X125207000Y-76491061D01*
X125125885Y-76427928D01*
X125015405Y-76390000D01*
X124927995Y-76390000D01*
X124841784Y-76404386D01*
X124739053Y-76459981D01*
X124659940Y-76545921D01*
X124613018Y-76652892D01*
X124603372Y-76769302D01*
X124632047Y-76882538D01*
X124695936Y-76980327D01*
X124708364Y-76990000D01*
X123907072Y-76990000D01*
X123907298Y-76994622D01*
X123922191Y-77145834D01*
X123982233Y-77343764D01*
X124079731Y-77526171D01*
X124210945Y-77686054D01*
X124370828Y-77817268D01*
X124494070Y-77883142D01*
X124543914Y-77932104D01*
X124559375Y-78000242D01*
X124535544Y-78065921D01*
X124479986Y-78108290D01*
X124435617Y-78116500D01*
X117919706Y-78116500D01*
X117901736Y-78115191D01*
X117887853Y-78113157D01*
X117877977Y-78111711D01*
X117877976Y-78111711D01*
X117828631Y-78116028D01*
X117817824Y-78116500D01*
X117812291Y-78116500D01*
X117808730Y-78116916D01*
X117808715Y-78116917D01*
X117781501Y-78120098D01*
X117777916Y-78120464D01*
X117701961Y-78127109D01*
X117682921Y-78131330D01*
X117611232Y-78157421D01*
X117607831Y-78158603D01*
X117535479Y-78182579D01*
X117517925Y-78191077D01*
X117454228Y-78232970D01*
X117451190Y-78234905D01*
X117386281Y-78274943D01*
X117371164Y-78287256D01*
X117318848Y-78342708D01*
X117316336Y-78345294D01*
X114406451Y-81255181D01*
X114345128Y-81288666D01*
X114318770Y-81291500D01*
X113270073Y-81291500D01*
X113203034Y-81271815D01*
X113157279Y-81219011D01*
X113147335Y-81149853D01*
X113174219Y-81088836D01*
X113212402Y-81042309D01*
X113283685Y-80955450D01*
X113381232Y-80772954D01*
X113441300Y-80574934D01*
X113456500Y-80420608D01*
X113456500Y-79917392D01*
X113441300Y-79763066D01*
X113381232Y-79565046D01*
X113283685Y-79382550D01*
X113188117Y-79266099D01*
X113152410Y-79222589D01*
X113021711Y-79115329D01*
X112992450Y-79091315D01*
X112809954Y-78993768D01*
X112710944Y-78963733D01*
X112611932Y-78933699D01*
X112406000Y-78913417D01*
X112200067Y-78933699D01*
X112002043Y-78993769D01*
X111819551Y-79091314D01*
X111659588Y-79222590D01*
X111601529Y-79293336D01*
X111543783Y-79332670D01*
X111473939Y-79334541D01*
X111414170Y-79298353D01*
X111409823Y-79293336D01*
X111352054Y-79222945D01*
X111192170Y-79091731D01*
X111009762Y-78994231D01*
X110856000Y-78947587D01*
X110856000Y-79920061D01*
X110774885Y-79856928D01*
X110664405Y-79819000D01*
X110576995Y-79819000D01*
X110490784Y-79833386D01*
X110388053Y-79888981D01*
X110308940Y-79974921D01*
X110262018Y-80081892D01*
X110252372Y-80198302D01*
X110281047Y-80311538D01*
X110344936Y-80409327D01*
X110437115Y-80481072D01*
X110547595Y-80519000D01*
X110635005Y-80519000D01*
X110721216Y-80504614D01*
X110823947Y-80449019D01*
X110856000Y-80414200D01*
X110856000Y-81390411D01*
X110878465Y-81407073D01*
X110920585Y-81462819D01*
X110925880Y-81532488D01*
X110892669Y-81593960D01*
X110892279Y-81594351D01*
X110120358Y-82366272D01*
X110106727Y-82378053D01*
X110087468Y-82392391D01*
X110055635Y-82430328D01*
X110048338Y-82438292D01*
X110046972Y-82439657D01*
X110046950Y-82439681D01*
X110044409Y-82442223D01*
X110042173Y-82445050D01*
X110042171Y-82445053D01*
X110025176Y-82466546D01*
X110022902Y-82469337D01*
X109973894Y-82527744D01*
X109963418Y-82544187D01*
X109931192Y-82613294D01*
X109929622Y-82616536D01*
X109895393Y-82684692D01*
X109888996Y-82703098D01*
X109873573Y-82777788D01*
X109872793Y-82781305D01*
X109855208Y-82855506D01*
X109853229Y-82874879D01*
X109855448Y-82951129D01*
X109855500Y-82954735D01*
X109855500Y-83183205D01*
X109835815Y-83250244D01*
X109827354Y-83261869D01*
X109728314Y-83382551D01*
X109630769Y-83565043D01*
X109570699Y-83763067D01*
X109555798Y-83914358D01*
X109555797Y-83914374D01*
X109555500Y-83917392D01*
X109555500Y-84420608D01*
X105540184Y-84420608D01*
X105497254Y-84252473D01*
X105495926Y-84246689D01*
X105457293Y-84057643D01*
X105456427Y-84052931D01*
X105420369Y-83832278D01*
X105419517Y-83826065D01*
X105398234Y-83634498D01*
X105397824Y-83630066D01*
X105381281Y-83406837D01*
X105380971Y-83400231D01*
X105377181Y-83207879D01*
X105377170Y-83203723D01*
X105380316Y-82979589D01*
X105380616Y-82972580D01*
X105394279Y-82781123D01*
X105394590Y-82777535D01*
X105417489Y-82553915D01*
X105418460Y-82546605D01*
X105449350Y-82357817D01*
X105449925Y-82354590D01*
X105492516Y-82133194D01*
X105494215Y-82125655D01*
X105541873Y-81941418D01*
X105542667Y-81938497D01*
X105604805Y-81720818D01*
X105607273Y-81713141D01*
X105671093Y-81535034D01*
X105671951Y-81532719D01*
X105753448Y-81320124D01*
X105756770Y-81312283D01*
X105765551Y-81293388D01*
X105836203Y-81141344D01*
X105937295Y-80934228D01*
X105941455Y-80926429D01*
X106034888Y-80765476D01*
X106154888Y-80566230D01*
X106159908Y-80558561D01*
X106258890Y-80419000D01*
X109556072Y-80419000D01*
X109556298Y-80423622D01*
X109571191Y-80574834D01*
X109631233Y-80772764D01*
X109728731Y-80955171D01*
X109859945Y-81115054D01*
X110019828Y-81246268D01*
X110202235Y-81343766D01*
X110356000Y-81390410D01*
X110356000Y-80419000D01*
X109556072Y-80419000D01*
X106258890Y-80419000D01*
X106265472Y-80409720D01*
X106281536Y-80387692D01*
X106404434Y-80219167D01*
X106410383Y-80211642D01*
X106525300Y-80077358D01*
X106663661Y-79919000D01*
X109556072Y-79919000D01*
X110356000Y-79919000D01*
X110355999Y-78947587D01*
X110202237Y-78994231D01*
X110019829Y-79091731D01*
X109859945Y-79222945D01*
X109728731Y-79382828D01*
X109631233Y-79565235D01*
X109571191Y-79763165D01*
X109556298Y-79914377D01*
X109556072Y-79919000D01*
X106663661Y-79919000D01*
X106684034Y-79895683D01*
X106690867Y-79888472D01*
X106805519Y-79776849D01*
X106810163Y-79772328D01*
X106870116Y-79714808D01*
X106991402Y-79598445D01*
X106999114Y-79591642D01*
X107109756Y-79501971D01*
X107324108Y-79329809D01*
X107332699Y-79323502D01*
X107351588Y-79310850D01*
X107664656Y-79101839D01*
X107695189Y-79087039D01*
X115691188Y-76490000D01*
X123907072Y-76490000D01*
X124706999Y-76490000D01*
X124707000Y-75518587D01*
X124553237Y-75565231D01*
X124370829Y-75662731D01*
X124210945Y-75793945D01*
X124079731Y-75953828D01*
X123982233Y-76136235D01*
X123922191Y-76334165D01*
X123907298Y-76485377D01*
X123907072Y-76490000D01*
X115691188Y-76490000D01*
X124496384Y-73630140D01*
X124534690Y-73624075D01*
X176121308Y-73624075D01*
X176159613Y-73630140D01*
G37*
%TD.AperFunction*%
%TD*%
D16*
X170815000Y-89281000D03*
X157480000Y-77089000D03*
X141224000Y-89535000D03*
X146304000Y-89916000D03*
X144145000Y-91123000D03*
X144145000Y-93663000D03*
X141605000Y-91123000D03*
X141605000Y-93663000D03*
X139065000Y-91123000D03*
X139065000Y-93663000D03*
X136525000Y-91123000D03*
X136525000Y-93663000D03*
X133985000Y-91123000D03*
X133985000Y-93663000D03*
X156520000Y-93660000D03*
X156520000Y-91120000D03*
X159060000Y-93660000D03*
X159060000Y-91120000D03*
X161600000Y-93660000D03*
X161600000Y-91120000D03*
X164140000Y-93660000D03*
X164140000Y-91120000D03*
X166680000Y-93660000D03*
X166680000Y-91120000D03*
X151268000Y-79851000D03*
X151268000Y-75851000D03*
X149468000Y-79851000D03*
X149468000Y-75851000D03*
X126757000Y-80740000D03*
X126757000Y-76740000D03*
X124957000Y-80740000D03*
X124957000Y-76740000D03*
X190130000Y-84169000D03*
X190130000Y-80169000D03*
X188330000Y-84169000D03*
X188330000Y-80169000D03*
X175779000Y-80740000D03*
X175779000Y-76740000D03*
X173979000Y-80740000D03*
X173979000Y-76740000D03*
X112406000Y-84169000D03*
X112406000Y-80169000D03*
X110606000Y-84169000D03*
X110606000Y-80169000D03*
X160793000Y-79851000D03*
X160793000Y-75851000D03*
X158993000Y-79851000D03*
X158993000Y-75851000D03*
X141743000Y-79851000D03*
X141743000Y-75851000D03*
X139943000Y-79851000D03*
X139943000Y-75851000D03*
M02*
