M48
METRIC,TZ
T1C0.400
T2C0.600
T3C0.800
T4C1.000
T5C1.100
T6C1.600
T7C1.850
%
G90
G05
T1
X95910Y-81432
X99910Y-79432
X107910Y-79432
X107910Y-81432
X109910Y-79432
X109910Y-81432
X111910Y-79432
X111910Y-81432
X116770Y-89043
X119910Y-77432
X119910Y-83432
X121910Y-71432
X121910Y-73432
X121910Y-75432
X121910Y-77432
X123910Y-71432
X123910Y-73432
X123910Y-75432
X123910Y-77432
X123910Y-83432
X134423Y-88408
X137598Y-80280
X137674Y-89437
X138792Y-89399
X140011Y-89424
X141154Y-89424
X142891Y-90018
X144053Y-90037
X145345Y-90059
X146234Y-90694
X147546Y-90948
X148647Y-79191
X148647Y-89297
X149663Y-79191
X150044Y-89297
X151325Y-89297
X152202Y-80087
X152206Y-79088
X154108Y-82566
X154108Y-85106
X156644Y-93738
X157664Y-93742
X157664Y-105426
T2
X102108Y-84582
X105791Y-84582
X129470Y-89932
X133026Y-100600
X134448Y-77486
T3
X135708Y-92970
X135708Y-100590
X138248Y-92970
X138248Y-100590
X140788Y-92970
X140788Y-100590
X143328Y-92970
X143328Y-100590
X145868Y-92970
X145868Y-100590
X148408Y-92970
X148408Y-100590
X150948Y-92970
X150948Y-100590
X153488Y-92970
X153488Y-100590
T4
X119564Y-104614
X119564Y-112014
X128136Y-70374
X128136Y-72914
X130676Y-70374
X130676Y-72914
X133216Y-70374
X133216Y-72914
X135756Y-70374
X135756Y-72914
X138296Y-70374
X138296Y-72914
X150488Y-70374
X150488Y-72914
X153028Y-70374
X153028Y-72914
X155568Y-70374
X155568Y-72914
X157918Y-80031
X157918Y-82571
X157918Y-85111
X157918Y-87651
X157918Y-90191
X158108Y-70374
X158108Y-72914
X160648Y-70374
X160648Y-72914
X169475Y-104614
X169475Y-112014
T5
X164268Y-80332
X164268Y-86832
X168768Y-80332
X168768Y-86832
X173321Y-80332
X173321Y-86832
X177821Y-80332
X177821Y-86832
T6
X133026Y-106398
X133026Y-113598
T7
X140391Y-116148
X142296Y-106618
X146996Y-106618
X151696Y-106618
X153601Y-116148
T0
M30
