%TF.GenerationSoftware,KiCad,Pcbnew,7.0.2*%
%TF.CreationDate,2023-11-09T20:15:29+01:00*%
%TF.ProjectId,Motherboard,4d6f7468-6572-4626-9f61-72642e6b6963,rev?*%
%TF.SameCoordinates,Original*%
%TF.FileFunction,Soldermask,Top*%
%TF.FilePolarity,Negative*%
%FSLAX46Y46*%
G04 Gerber Fmt 4.6, Leading zero omitted, Abs format (unit mm)*
G04 Created by KiCad (PCBNEW 7.0.2) date 2023-11-09 20:15:29*
%MOMM*%
%LPD*%
G01*
G04 APERTURE LIST*
G04 Aperture macros list*
%AMRoundRect*
0 Rectangle with rounded corners*
0 $1 Rounding radius*
0 $2 $3 $4 $5 $6 $7 $8 $9 X,Y pos of 4 corners*
0 Add a 4 corners polygon primitive as box body*
4,1,4,$2,$3,$4,$5,$6,$7,$8,$9,$2,$3,0*
0 Add four circle primitives for the rounded corners*
1,1,$1+$1,$2,$3*
1,1,$1+$1,$4,$5*
1,1,$1+$1,$6,$7*
1,1,$1+$1,$8,$9*
0 Add four rect primitives between the rounded corners*
20,1,$1+$1,$2,$3,$4,$5,0*
20,1,$1+$1,$4,$5,$6,$7,0*
20,1,$1+$1,$6,$7,$8,$9,0*
20,1,$1+$1,$8,$9,$2,$3,0*%
G04 Aperture macros list end*
%ADD10RoundRect,0.250001X1.074999X-0.462499X1.074999X0.462499X-1.074999X0.462499X-1.074999X-0.462499X0*%
%ADD11RoundRect,0.250000X0.325000X0.650000X-0.325000X0.650000X-0.325000X-0.650000X0.325000X-0.650000X0*%
%ADD12RoundRect,0.250000X0.650000X-0.325000X0.650000X0.325000X-0.650000X0.325000X-0.650000X-0.325000X0*%
%ADD13C,3.500000*%
%ADD14RoundRect,0.250000X-0.650000X0.325000X-0.650000X-0.325000X0.650000X-0.325000X0.650000X0.325000X0*%
%ADD15C,2.000000*%
%ADD16O,1.600000X1.600000*%
%ADD17R,1.600000X1.600000*%
%ADD18R,1.500000X2.000000*%
%ADD19R,3.800000X2.000000*%
%ADD20RoundRect,0.250000X0.625000X-0.312500X0.625000X0.312500X-0.625000X0.312500X-0.625000X-0.312500X0*%
%ADD21C,1.700000*%
%ADD22RoundRect,0.250000X-0.600000X0.600000X-0.600000X-0.600000X0.600000X-0.600000X0.600000X0.600000X0*%
%ADD23O,1.700000X1.700000*%
%ADD24R,1.700000X1.700000*%
%ADD25C,6.000000*%
%ADD26RoundRect,1.500000X-1.500000X1.500000X-1.500000X-1.500000X1.500000X-1.500000X1.500000X1.500000X0*%
%ADD27RoundRect,0.125000X-0.125000X-0.625000X0.125000X-0.625000X0.125000X0.625000X-0.125000X0.625000X0*%
%ADD28RoundRect,0.125000X-0.625000X-0.125000X0.625000X-0.125000X0.625000X0.125000X-0.625000X0.125000X0*%
G04 APERTURE END LIST*
D10*
%TO.C,D2*%
X98228000Y-87047500D03*
X98228000Y-90022500D03*
%TD*%
D11*
%TO.C,C19*%
X165079000Y-89678000D03*
X168029000Y-89678000D03*
%TD*%
D12*
%TO.C,C2*%
X137578682Y-83631000D03*
X137578682Y-86581000D03*
%TD*%
%TO.C,C4*%
X126930000Y-84139000D03*
X126930000Y-87089000D03*
%TD*%
D13*
%TO.C,SW2*%
X142296000Y-106617500D03*
X146996000Y-106617500D03*
X151696000Y-106617500D03*
X153601000Y-116147500D03*
X140391000Y-116147500D03*
%TD*%
D14*
%TO.C,C17*%
X122104000Y-109949000D03*
X122104000Y-106999000D03*
%TD*%
D15*
%TO.C,SW1*%
X168768000Y-80332000D03*
X168768000Y-86832000D03*
X164268000Y-80332000D03*
X164268000Y-86832000D03*
%TD*%
D14*
%TO.C,C15*%
X164268000Y-106901000D03*
X164268000Y-103951000D03*
%TD*%
D16*
%TO.C,U4*%
X135708000Y-92970000D03*
X138248000Y-92970000D03*
X140788000Y-92970000D03*
X143328000Y-92970000D03*
X145868000Y-92970000D03*
X148408000Y-92970000D03*
X150948000Y-92970000D03*
X153488000Y-92970000D03*
X153488000Y-100590000D03*
X150948000Y-100590000D03*
X148408000Y-100590000D03*
X145868000Y-100590000D03*
X143328000Y-100590000D03*
X140788000Y-100590000D03*
X138248000Y-100590000D03*
D17*
X135708000Y-100590000D03*
%TD*%
D12*
%TO.C,C6*%
X111436000Y-84647000D03*
X111436000Y-87597000D03*
%TD*%
%TO.C,C1*%
X135058000Y-83631000D03*
X135058000Y-86581000D03*
%TD*%
D14*
%TO.C,C13*%
X164268000Y-111838000D03*
X164268000Y-108888000D03*
%TD*%
%TO.C,C16*%
X124644000Y-111838000D03*
X124644000Y-108888000D03*
%TD*%
D10*
%TO.C,D3*%
X157664000Y-112574500D03*
X157664000Y-115549500D03*
%TD*%
D18*
%TO.C,U2*%
X124150000Y-86986000D03*
D19*
X121850000Y-80686000D03*
D18*
X121850000Y-86986000D03*
X119550000Y-86986000D03*
%TD*%
D15*
%TO.C,SW3*%
X177821000Y-80332000D03*
X177821000Y-86832000D03*
X173321000Y-80332000D03*
X173321000Y-86832000D03*
%TD*%
D12*
%TO.C,C12*%
X156648000Y-97790000D03*
X156648000Y-100740000D03*
%TD*%
D20*
%TO.C,R3*%
X157664000Y-107011500D03*
X157664000Y-109936500D03*
%TD*%
D12*
%TO.C,C11*%
X159442000Y-97790000D03*
X159442000Y-100740000D03*
%TD*%
D18*
%TO.C,U3*%
X106116000Y-87240000D03*
D19*
X103816000Y-80940000D03*
D18*
X103816000Y-87240000D03*
X101516000Y-87240000D03*
%TD*%
D20*
%TO.C,R2*%
X98228000Y-81992500D03*
X98228000Y-84917500D03*
%TD*%
D21*
%TO.C,J5*%
X150487802Y-72914000D03*
X150487802Y-70374000D03*
X153027802Y-72914000D03*
X153027802Y-70374000D03*
X155567802Y-72914000D03*
X155567802Y-70374000D03*
X158107802Y-72914000D03*
X158107802Y-70374000D03*
X160647802Y-72914000D03*
D22*
X160647802Y-70374000D03*
%TD*%
D23*
%TO.C,J3*%
X119564000Y-112014000D03*
X119564000Y-104614000D03*
%TD*%
%TO.C,J6*%
X157918000Y-90191000D03*
X157918000Y-87651000D03*
X157918000Y-85111000D03*
X157918000Y-82571000D03*
D24*
X157918000Y-80031000D03*
%TD*%
D10*
%TO.C,D1*%
X116262000Y-84380500D03*
X116262000Y-87355500D03*
%TD*%
D12*
%TO.C,C21*%
X162179000Y-97790000D03*
X162179000Y-100740000D03*
%TD*%
D21*
%TO.C,J4*%
X128135802Y-72914000D03*
X128135802Y-70374000D03*
X130675802Y-72914000D03*
X130675802Y-70374000D03*
X133215802Y-72914000D03*
X133215802Y-70374000D03*
X135755802Y-72914000D03*
X135755802Y-70374000D03*
X138295802Y-72914000D03*
D22*
X138295802Y-70374000D03*
%TD*%
D20*
%TO.C,R1*%
X116262000Y-79579500D03*
X116262000Y-82504500D03*
%TD*%
D11*
%TO.C,C20*%
X173969000Y-89678000D03*
X176919000Y-89678000D03*
%TD*%
D12*
%TO.C,C7*%
X108896000Y-84647000D03*
X108896000Y-87597000D03*
%TD*%
D14*
%TO.C,C18*%
X124644000Y-106901000D03*
X124644000Y-103951000D03*
%TD*%
D11*
%TO.C,C5*%
X129646000Y-82058000D03*
X132596000Y-82058000D03*
%TD*%
D14*
%TO.C,C14*%
X166935000Y-109695000D03*
X166935000Y-106745000D03*
%TD*%
D12*
%TO.C,C3*%
X129470000Y-84139000D03*
X129470000Y-87089000D03*
%TD*%
D25*
%TO.C,J1*%
X133026000Y-113598000D03*
D26*
X133026000Y-106398000D03*
%TD*%
D11*
%TO.C,C22*%
X159434000Y-95631000D03*
X162384000Y-95631000D03*
%TD*%
%TO.C,C8*%
X100817000Y-89932000D03*
X103767000Y-89932000D03*
%TD*%
D23*
%TO.C,J2*%
X169475000Y-104614000D03*
X169475000Y-112014000D03*
%TD*%
D27*
%TO.C,U1*%
X141910000Y-79915000D03*
X142710000Y-79915000D03*
X143510000Y-79915000D03*
X144310000Y-79915000D03*
X145110000Y-79915000D03*
X145910000Y-79915000D03*
X146710000Y-79915000D03*
X147510000Y-79915000D03*
D28*
X148885000Y-81290000D03*
X148885000Y-82090000D03*
X148885000Y-82890000D03*
X148885000Y-83690000D03*
X148885000Y-84490000D03*
X148885000Y-85290000D03*
X148885000Y-86090000D03*
X148885000Y-86890000D03*
D27*
X147510000Y-88265000D03*
X146710000Y-88265000D03*
X145910000Y-88265000D03*
X145110000Y-88265000D03*
X144310000Y-88265000D03*
X143510000Y-88265000D03*
X142710000Y-88265000D03*
X141910000Y-88265000D03*
D28*
X140535000Y-86890000D03*
X140535000Y-86090000D03*
X140535000Y-85290000D03*
X140535000Y-84490000D03*
X140535000Y-83690000D03*
X140535000Y-82890000D03*
X140535000Y-82090000D03*
X140535000Y-81290000D03*
%TD*%
D12*
%TO.C,C9*%
X132772000Y-92775000D03*
X132772000Y-95725000D03*
%TD*%
%TO.C,C10*%
X129978000Y-92775000D03*
X129978000Y-95725000D03*
%TD*%
M02*
