%TF.GenerationSoftware,KiCad,Pcbnew,7.0.2*%
%TF.CreationDate,2023-11-09T20:28:48+01:00*%
%TF.ProjectId,Sensors,53656e73-6f72-4732-9e6b-696361645f70,rev?*%
%TF.SameCoordinates,Original*%
%TF.FileFunction,Copper,L1,Top*%
%TF.FilePolarity,Positive*%
%FSLAX46Y46*%
G04 Gerber Fmt 4.6, Leading zero omitted, Abs format (unit mm)*
G04 Created by KiCad (PCBNEW 7.0.2) date 2023-11-09 20:28:48*
%MOMM*%
%LPD*%
G01*
G04 APERTURE LIST*
G04 Aperture macros list*
%AMRoundRect*
0 Rectangle with rounded corners*
0 $1 Rounding radius*
0 $2 $3 $4 $5 $6 $7 $8 $9 X,Y pos of 4 corners*
0 Add a 4 corners polygon primitive as box body*
4,1,4,$2,$3,$4,$5,$6,$7,$8,$9,$2,$3,0*
0 Add four circle primitives for the rounded corners*
1,1,$1+$1,$2,$3*
1,1,$1+$1,$4,$5*
1,1,$1+$1,$6,$7*
1,1,$1+$1,$8,$9*
0 Add four rect primitives between the rounded corners*
20,1,$1+$1,$2,$3,$4,$5,0*
20,1,$1+$1,$4,$5,$6,$7,0*
20,1,$1+$1,$6,$7,$8,$9,0*
20,1,$1+$1,$8,$9,$2,$3,0*%
G04 Aperture macros list end*
%TA.AperFunction,ComponentPad*%
%ADD10RoundRect,0.250000X-0.600000X0.600000X-0.600000X-0.600000X0.600000X-0.600000X0.600000X0.600000X0*%
%TD*%
%TA.AperFunction,ComponentPad*%
%ADD11C,1.700000*%
%TD*%
%TA.AperFunction,SMDPad,CuDef*%
%ADD12RoundRect,0.250000X0.312500X0.625000X-0.312500X0.625000X-0.312500X-0.625000X0.312500X-0.625000X0*%
%TD*%
%TA.AperFunction,SMDPad,CuDef*%
%ADD13RoundRect,0.250000X-0.312500X-0.625000X0.312500X-0.625000X0.312500X0.625000X-0.312500X0.625000X0*%
%TD*%
%TA.AperFunction,SMDPad,CuDef*%
%ADD14RoundRect,0.250001X1.074999X-0.462499X1.074999X0.462499X-1.074999X0.462499X-1.074999X-0.462499X0*%
%TD*%
%TA.AperFunction,SMDPad,CuDef*%
%ADD15RoundRect,0.250000X-0.625000X0.312500X-0.625000X-0.312500X0.625000X-0.312500X0.625000X0.312500X0*%
%TD*%
%TA.AperFunction,ComponentPad*%
%ADD16RoundRect,0.249700X0.300300X0.500300X-0.300300X0.500300X-0.300300X-0.500300X0.300300X-0.500300X0*%
%TD*%
%TA.AperFunction,ComponentPad*%
%ADD17O,1.100000X1.500000*%
%TD*%
%TA.AperFunction,ViaPad*%
%ADD18C,0.800000*%
%TD*%
%TA.AperFunction,Conductor*%
%ADD19C,0.500000*%
%TD*%
%ADD20C,0.350000*%
G04 APERTURE END LIST*
D10*
%TO.P,J2,1,Pin_1*%
%TO.N,+3V3*%
X144145000Y-91123000D03*
D11*
%TO.P,J2,2,Pin_2*%
%TO.N,A4_C*%
X144145000Y-93663000D03*
%TO.P,J2,3,Pin_3*%
%TO.N,A0_C*%
X141605000Y-91123000D03*
%TO.P,J2,4,Pin_4*%
%TO.N,A5_C*%
X141605000Y-93663000D03*
%TO.P,J2,5,Pin_5*%
%TO.N,A1_C*%
X139065000Y-91123000D03*
%TO.P,J2,6,Pin_6*%
%TO.N,A6_C*%
X139065000Y-93663000D03*
%TO.P,J2,7,Pin_7*%
%TO.N,A2_C*%
X136525000Y-91123000D03*
%TO.P,J2,8,Pin_8*%
%TO.N,GND*%
X136525000Y-93663000D03*
%TO.P,J2,9,Pin_9*%
%TO.N,A3_C*%
X133985000Y-91123000D03*
%TO.P,J2,10,Pin_10*%
%TO.N,GND*%
X133985000Y-93663000D03*
%TD*%
%TO.P,J4,10,Pin_10*%
%TO.N,GND1*%
X156520000Y-93660000D03*
%TO.P,J4,9,Pin_9*%
%TO.N,LD4_C*%
X156520000Y-91120000D03*
%TO.P,J4,8,Pin_8*%
%TO.N,GND1*%
X159060000Y-93660000D03*
%TO.P,J4,7,Pin_7*%
%TO.N,LD3_C*%
X159060000Y-91120000D03*
%TO.P,J4,6,Pin_6*%
%TO.N,GND1*%
X161600000Y-93660000D03*
%TO.P,J4,5,Pin_5*%
%TO.N,LD2_C*%
X161600000Y-91120000D03*
%TO.P,J4,4,Pin_4*%
%TO.N,LD6_C*%
X164140000Y-93660000D03*
%TO.P,J4,3,Pin_3*%
%TO.N,LD1_C*%
X164140000Y-91120000D03*
%TO.P,J4,2,Pin_2*%
%TO.N,LD5_C*%
X166680000Y-93660000D03*
D10*
%TO.P,J4,1,Pin_1*%
%TO.N,LD0_C*%
X166680000Y-91120000D03*
%TD*%
D12*
%TO.P,R6,1*%
%TO.N,+3V3*%
X180659500Y-76835000D03*
%TO.P,R6,2*%
%TO.N,Net-(U6-A)*%
X177734500Y-76835000D03*
%TD*%
D13*
%TO.P,R4,1*%
%TO.N,+3V3*%
X162748500Y-78486000D03*
%TO.P,R4,2*%
%TO.N,A4_C*%
X165673500Y-78486000D03*
%TD*%
D14*
%TO.P,D6,1,K*%
%TO.N,GND1*%
X164084000Y-86323500D03*
%TO.P,D6,2,A*%
%TO.N,Net-(D6-A)*%
X164084000Y-83348500D03*
%TD*%
%TO.P,D5,1,K*%
%TO.N,GND1*%
X157516500Y-86323500D03*
%TO.P,D5,2,A*%
%TO.N,Net-(D5-A)*%
X157516500Y-83348500D03*
%TD*%
D13*
%TO.P,R11,1*%
%TO.N,+3V3*%
X143698500Y-78486000D03*
%TO.P,R11,2*%
%TO.N,A2_C*%
X146623500Y-78486000D03*
%TD*%
%TO.P,R8,1*%
%TO.N,+3V3*%
X177734500Y-79375000D03*
%TO.P,R8,2*%
%TO.N,A5_C*%
X180659500Y-79375000D03*
%TD*%
D14*
%TO.P,D4,1,K*%
%TO.N,GND1*%
X150368000Y-86323500D03*
%TO.P,D4,2,A*%
%TO.N,Net-(D4-A)*%
X150368000Y-83348500D03*
%TD*%
D15*
%TO.P,R16,1*%
%TO.N,Net-(D2-A)*%
X139700000Y-83373500D03*
%TO.P,R16,2*%
%TO.N,LD3_C*%
X139700000Y-86298500D03*
%TD*%
D13*
%TO.P,R7,1*%
%TO.N,+3V3*%
X128712500Y-79375000D03*
%TO.P,R7,2*%
%TO.N,A1_C*%
X131637500Y-79375000D03*
%TD*%
D14*
%TO.P,D1,1,K*%
%TO.N,GND1*%
X130048000Y-86323500D03*
%TO.P,D1,2,A*%
%TO.N,Net-(D1-A)*%
X130048000Y-83348500D03*
%TD*%
%TO.P,D7,1,K*%
%TO.N,GND1*%
X170688000Y-86323500D03*
%TO.P,D7,2,A*%
%TO.N,Net-(D7-A)*%
X170688000Y-83348500D03*
%TD*%
D15*
%TO.P,R17,1*%
%TO.N,Net-(D3-A)*%
X146304000Y-83373500D03*
%TO.P,R17,2*%
%TO.N,LD2_C*%
X146304000Y-86298500D03*
%TD*%
%TO.P,R18,1*%
%TO.N,Net-(D4-A)*%
X153416000Y-83373500D03*
%TO.P,R18,2*%
%TO.N,LD1_C*%
X153416000Y-86298500D03*
%TD*%
D14*
%TO.P,D3,1,K*%
%TO.N,GND1*%
X143256000Y-86323500D03*
%TO.P,D3,2,A*%
%TO.N,Net-(D3-A)*%
X143256000Y-83348500D03*
%TD*%
D13*
%TO.P,R14,1*%
%TO.N,+3V3*%
X153223500Y-78486000D03*
%TO.P,R14,2*%
%TO.N,A3_C*%
X156148500Y-78486000D03*
%TD*%
D15*
%TO.P,R15,1*%
%TO.N,Net-(D1-A)*%
X133096000Y-83373500D03*
%TO.P,R15,2*%
%TO.N,LD4_C*%
X133096000Y-86298500D03*
%TD*%
D12*
%TO.P,R2,1*%
%TO.N,+3V3*%
X165673500Y-75946000D03*
%TO.P,R2,2*%
%TO.N,Net-(U5-A)*%
X162748500Y-75946000D03*
%TD*%
D14*
%TO.P,D2,1,K*%
%TO.N,GND1*%
X136652000Y-86323500D03*
%TO.P,D2,2,A*%
%TO.N,Net-(D2-A)*%
X136652000Y-83348500D03*
%TD*%
D13*
%TO.P,R3,1*%
%TO.N,+3V3*%
X114361500Y-82804000D03*
%TO.P,R3,2*%
%TO.N,A0_C*%
X117286500Y-82804000D03*
%TD*%
D15*
%TO.P,R20,1*%
%TO.N,Net-(D6-A)*%
X167132000Y-83373500D03*
%TO.P,R20,2*%
%TO.N,LD5_C*%
X167132000Y-86298500D03*
%TD*%
%TO.P,R19,1*%
%TO.N,Net-(D5-A)*%
X160528000Y-83373500D03*
%TO.P,R19,2*%
%TO.N,LD0_C*%
X160528000Y-86298500D03*
%TD*%
D13*
%TO.P,R10,1*%
%TO.N,+3V3*%
X183449500Y-81153000D03*
%TO.P,R10,2*%
%TO.N,Net-(U7-A)*%
X186374500Y-81153000D03*
%TD*%
D12*
%TO.P,R13,1*%
%TO.N,+3V3*%
X156148500Y-75946000D03*
%TO.P,R13,2*%
%TO.N,Net-(U4-A)*%
X153223500Y-75946000D03*
%TD*%
%TO.P,R1,1*%
%TO.N,+3V3*%
X117286500Y-80264000D03*
%TO.P,R1,2*%
%TO.N,Net-(U1-A)*%
X114361500Y-80264000D03*
%TD*%
%TO.P,R9,1*%
%TO.N,+3V3*%
X146623500Y-75946000D03*
%TO.P,R9,2*%
%TO.N,Net-(U3-A)*%
X143698500Y-75946000D03*
%TD*%
D15*
%TO.P,R21,1*%
%TO.N,Net-(D7-A)*%
X173736000Y-83373500D03*
%TO.P,R21,2*%
%TO.N,LD6_C*%
X173736000Y-86298500D03*
%TD*%
D12*
%TO.P,R12,1*%
%TO.N,+3V3*%
X186374500Y-83947000D03*
%TO.P,R12,2*%
%TO.N,A6_C*%
X183449500Y-83947000D03*
%TD*%
%TO.P,R5,1*%
%TO.N,+3V3*%
X131637500Y-76835000D03*
%TO.P,R5,2*%
%TO.N,Net-(U2-A)*%
X128712500Y-76835000D03*
%TD*%
D16*
%TO.P,U4,1,K*%
%TO.N,GND*%
X151268000Y-79851000D03*
D17*
%TO.P,U4,2,A*%
%TO.N,Net-(U4-A)*%
X151268000Y-75851000D03*
%TO.P,U4,3,C*%
%TO.N,A3_C*%
X149468000Y-79851000D03*
%TO.P,U4,4,E*%
%TO.N,GND*%
X149468000Y-75851000D03*
%TD*%
D16*
%TO.P,U2,1,K*%
%TO.N,GND*%
X126757000Y-80740000D03*
D17*
%TO.P,U2,2,A*%
%TO.N,Net-(U2-A)*%
X126757000Y-76740000D03*
%TO.P,U2,3,C*%
%TO.N,A1_C*%
X124957000Y-80740000D03*
%TO.P,U2,4,E*%
%TO.N,GND*%
X124957000Y-76740000D03*
%TD*%
D16*
%TO.P,U7,1,K*%
%TO.N,GND*%
X190130000Y-84169000D03*
D17*
%TO.P,U7,2,A*%
%TO.N,Net-(U7-A)*%
X190130000Y-80169000D03*
%TO.P,U7,3,C*%
%TO.N,A6_C*%
X188330000Y-84169000D03*
%TO.P,U7,4,E*%
%TO.N,GND*%
X188330000Y-80169000D03*
%TD*%
D16*
%TO.P,U6,1,K*%
%TO.N,GND*%
X175779000Y-80740000D03*
D17*
%TO.P,U6,2,A*%
%TO.N,Net-(U6-A)*%
X175779000Y-76740000D03*
%TO.P,U6,3,C*%
%TO.N,A5_C*%
X173979000Y-80740000D03*
%TO.P,U6,4,E*%
%TO.N,GND*%
X173979000Y-76740000D03*
%TD*%
D16*
%TO.P,U1,1,K*%
%TO.N,GND*%
X112406000Y-84169000D03*
D17*
%TO.P,U1,2,A*%
%TO.N,Net-(U1-A)*%
X112406000Y-80169000D03*
%TO.P,U1,3,C*%
%TO.N,A0_C*%
X110606000Y-84169000D03*
%TO.P,U1,4,E*%
%TO.N,GND*%
X110606000Y-80169000D03*
%TD*%
D16*
%TO.P,U5,1,K*%
%TO.N,GND*%
X160793000Y-79851000D03*
D17*
%TO.P,U5,2,A*%
%TO.N,Net-(U5-A)*%
X160793000Y-75851000D03*
%TO.P,U5,3,C*%
%TO.N,A4_C*%
X158993000Y-79851000D03*
%TO.P,U5,4,E*%
%TO.N,GND*%
X158993000Y-75851000D03*
%TD*%
D16*
%TO.P,U3,1,K*%
%TO.N,GND*%
X141743000Y-79851000D03*
D17*
%TO.P,U3,2,A*%
%TO.N,Net-(U3-A)*%
X141743000Y-75851000D03*
%TO.P,U3,3,C*%
%TO.N,A2_C*%
X139943000Y-79851000D03*
%TO.P,U3,4,E*%
%TO.N,GND*%
X139943000Y-75851000D03*
%TD*%
D18*
%TO.N,GND1*%
X170815000Y-89281000D03*
%TO.N,+3V3*%
X157480000Y-77089000D03*
%TO.N,A2_C*%
X141224000Y-89535000D03*
%TO.N,A3_C*%
X146304000Y-89916000D03*
%TD*%
D19*
%TO.N,GND1*%
X165444500Y-84963000D02*
X169327500Y-84963000D01*
X143256000Y-86323500D02*
X143292500Y-86323500D01*
X164084000Y-86323500D02*
X165444500Y-84963000D01*
X144653000Y-84963000D02*
X148971000Y-84963000D01*
X135291500Y-84963000D02*
X136652000Y-86323500D01*
X159060000Y-93660000D02*
X156520000Y-93660000D01*
X138012500Y-84963000D02*
X141605000Y-84963000D01*
X136652000Y-86323500D02*
X138012500Y-84963000D01*
X157516500Y-86323500D02*
X158877000Y-84963000D01*
X156156000Y-84963000D02*
X157516500Y-86323500D01*
X158877000Y-84963000D02*
X162723500Y-84963000D01*
X169327500Y-84963000D02*
X170688000Y-86323500D01*
X141605000Y-84963000D02*
X142965500Y-86323500D01*
X148971000Y-84963000D02*
X150331500Y-86323500D01*
X170815000Y-89281000D02*
X170815000Y-86450500D01*
X130429000Y-84963000D02*
X135291500Y-84963000D01*
X162723500Y-84963000D02*
X164084000Y-86323500D01*
X150785500Y-86323500D02*
X152146000Y-84963000D01*
X130048000Y-86323500D02*
X130048000Y-85344000D01*
X152146000Y-84963000D02*
X156156000Y-84963000D01*
X130048000Y-85344000D02*
X130429000Y-84963000D01*
X150368000Y-86323500D02*
X150785500Y-86323500D01*
X170815000Y-86450500D02*
X170688000Y-86323500D01*
X143292500Y-86323500D02*
X144653000Y-84963000D01*
X142965500Y-86323500D02*
X143256000Y-86323500D01*
X161600000Y-93660000D02*
X159060000Y-93660000D01*
X150331500Y-86323500D02*
X150368000Y-86323500D01*
%TO.N,Net-(D1-A)*%
X133096000Y-83373500D02*
X130073000Y-83373500D01*
X130073000Y-83373500D02*
X130048000Y-83348500D01*
%TO.N,Net-(D2-A)*%
X139700000Y-83373500D02*
X136677000Y-83373500D01*
X136677000Y-83373500D02*
X136652000Y-83348500D01*
%TO.N,Net-(D3-A)*%
X146304000Y-83373500D02*
X143281000Y-83373500D01*
X143281000Y-83373500D02*
X143256000Y-83348500D01*
%TO.N,Net-(D4-A)*%
X150393000Y-83373500D02*
X150368000Y-83348500D01*
X153416000Y-83373500D02*
X150393000Y-83373500D01*
%TO.N,Net-(D5-A)*%
X157541500Y-83373500D02*
X157516500Y-83348500D01*
X160528000Y-83373500D02*
X157541500Y-83373500D01*
%TO.N,Net-(D6-A)*%
X164109000Y-83373500D02*
X164084000Y-83348500D01*
X167132000Y-83373500D02*
X164109000Y-83373500D01*
%TO.N,Net-(D7-A)*%
X173736000Y-83373500D02*
X170713000Y-83373500D01*
X170713000Y-83373500D02*
X170688000Y-83348500D01*
%TO.N,+3V3*%
X165673500Y-75122500D02*
X165673500Y-75946000D01*
X156148500Y-75372500D02*
X157099000Y-74422000D01*
X184404000Y-81153000D02*
X183449500Y-81153000D01*
X145796000Y-74422000D02*
X146623500Y-75249500D01*
X185039000Y-81788000D02*
X184404000Y-81153000D01*
X178054000Y-75438000D02*
X179959000Y-75438000D01*
X183449500Y-81153000D02*
X183449500Y-77658500D01*
X157099000Y-74422000D02*
X164973000Y-74422000D01*
X165673500Y-75118500D02*
X166370000Y-74422000D01*
X128712500Y-79375000D02*
X129540000Y-79375000D01*
X155448000Y-74422000D02*
X156148500Y-75122500D01*
X183449500Y-77658500D02*
X182626000Y-76835000D01*
X146623500Y-75946000D02*
X146623500Y-75626500D01*
X146623500Y-75626500D02*
X147828000Y-74422000D01*
X153924000Y-78486000D02*
X153223500Y-78486000D01*
X157480000Y-77089000D02*
X157480000Y-76200000D01*
X144653000Y-78486000D02*
X145034000Y-78105000D01*
X164338000Y-76454000D02*
X164846000Y-75946000D01*
X155194000Y-75946000D02*
X154686000Y-76454000D01*
X157480000Y-76200000D02*
X157226000Y-75946000D01*
X164338000Y-77724000D02*
X164338000Y-76454000D01*
X117286500Y-80264000D02*
X118491000Y-80264000D01*
X134050500Y-74422000D02*
X145796000Y-74422000D01*
X164846000Y-75946000D02*
X165673500Y-75946000D01*
X129540000Y-79375000D02*
X130048000Y-78867000D01*
X156148500Y-75946000D02*
X156148500Y-75372500D01*
X124206000Y-74549000D02*
X129351500Y-74549000D01*
X116332000Y-80264000D02*
X117286500Y-80264000D01*
X165673500Y-75946000D02*
X165673500Y-75118500D01*
X164973000Y-74422000D02*
X165673500Y-75122500D01*
X145415000Y-75946000D02*
X146623500Y-75946000D01*
X156148500Y-75122500D02*
X156148500Y-75946000D01*
X186374500Y-83947000D02*
X185547000Y-83947000D01*
X114361500Y-82804000D02*
X115062000Y-82804000D01*
X185547000Y-83947000D02*
X185039000Y-83439000D01*
X179197000Y-78740000D02*
X179197000Y-77216000D01*
X179578000Y-76835000D02*
X180659500Y-76835000D01*
X156148500Y-75946000D02*
X155194000Y-75946000D01*
X130048000Y-78867000D02*
X130048000Y-77216000D01*
X180659500Y-76138500D02*
X180659500Y-76835000D01*
X115062000Y-82804000D02*
X115824000Y-82042000D01*
X130048000Y-77216000D02*
X130429000Y-76835000D01*
X115824000Y-82042000D02*
X115824000Y-80772000D01*
X115824000Y-80772000D02*
X116332000Y-80264000D01*
X157226000Y-75946000D02*
X156148500Y-75946000D01*
X147828000Y-74422000D02*
X155448000Y-74422000D01*
X179959000Y-75438000D02*
X180659500Y-76138500D01*
X166370000Y-74422000D02*
X177038000Y-74422000D01*
X146623500Y-75249500D02*
X146623500Y-75946000D01*
X145034000Y-78105000D02*
X145034000Y-76327000D01*
X182626000Y-76835000D02*
X180659500Y-76835000D01*
X162748500Y-78486000D02*
X163576000Y-78486000D01*
X163576000Y-78486000D02*
X164338000Y-77724000D01*
X177038000Y-74422000D02*
X178054000Y-75438000D01*
X129351500Y-74549000D02*
X131637500Y-76835000D01*
X130429000Y-76835000D02*
X131637500Y-76835000D01*
X143698500Y-78486000D02*
X144653000Y-78486000D01*
X177734500Y-79375000D02*
X178562000Y-79375000D01*
X154686000Y-76454000D02*
X154686000Y-77724000D01*
X131637500Y-76835000D02*
X134050500Y-74422000D01*
X118491000Y-80264000D02*
X124206000Y-74549000D01*
X178562000Y-79375000D02*
X179197000Y-78740000D01*
X179197000Y-77216000D02*
X179578000Y-76835000D01*
X154686000Y-77724000D02*
X153924000Y-78486000D01*
X145034000Y-76327000D02*
X145415000Y-75946000D01*
X185039000Y-83439000D02*
X185039000Y-81788000D01*
%TO.N,A0_C*%
X115697000Y-85725000D02*
X117286500Y-84135500D01*
X110606000Y-84169000D02*
X110606000Y-85079000D01*
X111252000Y-85725000D02*
X115697000Y-85725000D01*
X117286500Y-84135500D02*
X117286500Y-82804000D01*
X110606000Y-85079000D02*
X111252000Y-85725000D01*
%TO.N,A1_C*%
X125476000Y-82042000D02*
X128970500Y-82042000D01*
X124957000Y-81523000D02*
X125476000Y-82042000D01*
X124957000Y-80740000D02*
X124957000Y-81523000D01*
X128970500Y-82042000D02*
X131637500Y-79375000D01*
%TO.N,A2_C*%
X139943000Y-79851000D02*
X139943000Y-80761000D01*
X138113000Y-89535000D02*
X136525000Y-91123000D01*
X139943000Y-80761000D02*
X140462000Y-81280000D01*
X145415000Y-81280000D02*
X146619500Y-80075500D01*
X140462000Y-81280000D02*
X145415000Y-81280000D01*
X146623500Y-80075500D02*
X146623500Y-78486000D01*
X141224000Y-89535000D02*
X138113000Y-89535000D01*
X146619500Y-80075500D02*
X146623500Y-80075500D01*
%TO.N,A3_C*%
X154686000Y-81280000D02*
X156148500Y-79817500D01*
X149468000Y-79851000D02*
X149468000Y-80761000D01*
X156148500Y-79817500D02*
X156148500Y-78486000D01*
X132080000Y-93980000D02*
X132080000Y-91694000D01*
X148082000Y-91694000D02*
X148082000Y-93726000D01*
X132080000Y-91694000D02*
X132651000Y-91123000D01*
X149987000Y-81280000D02*
X154686000Y-81280000D01*
X148082000Y-93726000D02*
X146304000Y-95504000D01*
X146304000Y-95504000D02*
X133604000Y-95504000D01*
X146304000Y-89916000D02*
X148082000Y-91694000D01*
X149468000Y-80761000D02*
X149987000Y-81280000D01*
X133604000Y-95504000D02*
X132080000Y-93980000D01*
X132651000Y-91123000D02*
X133985000Y-91123000D01*
%TO.N,A4_C*%
X159385000Y-81280000D02*
X164211000Y-81280000D01*
X164211000Y-81280000D02*
X165673500Y-79817500D01*
X165673500Y-79817500D02*
X165673500Y-78486000D01*
X158993000Y-79851000D02*
X158993000Y-80888000D01*
X158993000Y-80888000D02*
X159385000Y-81280000D01*
%TO.N,A5_C*%
X173979000Y-81650000D02*
X174498000Y-82169000D01*
X180659500Y-81087500D02*
X180659500Y-79375000D01*
X173979000Y-80740000D02*
X173979000Y-81650000D01*
X174498000Y-82169000D02*
X179578000Y-82169000D01*
X179578000Y-82169000D02*
X180659500Y-81087500D01*
%TO.N,A6_C*%
X184023000Y-85598000D02*
X187833000Y-85598000D01*
X188330000Y-85101000D02*
X188330000Y-84169000D01*
X183449500Y-85024500D02*
X184023000Y-85598000D01*
X183449500Y-83947000D02*
X183449500Y-85024500D01*
X187833000Y-85598000D02*
X188330000Y-85101000D01*
%TO.N,LD0_C*%
X160528000Y-86298500D02*
X161355500Y-86298500D01*
X161355500Y-86298500D02*
X163195000Y-88138000D01*
X165354000Y-88138000D02*
X166680000Y-89464000D01*
X163195000Y-88138000D02*
X165354000Y-88138000D01*
X166680000Y-89464000D02*
X166680000Y-91120000D01*
%TO.N,LD1_C*%
X164140000Y-90353000D02*
X161417000Y-87630000D01*
X153924000Y-87630000D02*
X153416000Y-87122000D01*
X161417000Y-87630000D02*
X153924000Y-87630000D01*
X153416000Y-87122000D02*
X153416000Y-86298500D01*
X164140000Y-91120000D02*
X164140000Y-90353000D01*
%TO.N,LD2_C*%
X152654000Y-87757000D02*
X147762500Y-87757000D01*
X147762500Y-87757000D02*
X146304000Y-86298500D01*
X152654000Y-87757000D02*
X153227000Y-88330000D01*
X153227000Y-88330000D02*
X160593000Y-88330000D01*
X161600000Y-89337000D02*
X160593000Y-88330000D01*
X161600000Y-91120000D02*
X161600000Y-89337000D01*
%TO.N,LD3_C*%
X159060000Y-89718000D02*
X158372000Y-89030000D01*
X141158500Y-87757000D02*
X141127750Y-87726250D01*
X146558000Y-87757000D02*
X141158500Y-87757000D01*
X141127750Y-87726250D02*
X139700000Y-86298500D01*
X152273000Y-88646000D02*
X147447000Y-88646000D01*
X147447000Y-88646000D02*
X146558000Y-87757000D01*
X159060000Y-91120000D02*
X159060000Y-89718000D01*
X158372000Y-89030000D02*
X152657000Y-89030000D01*
X152657000Y-89030000D02*
X152273000Y-88646000D01*
%TO.N,LD4_C*%
X133096000Y-87630000D02*
X133096000Y-86298500D01*
X156520000Y-91120000D02*
X148778000Y-91120000D01*
X146177000Y-88519000D02*
X133985000Y-88519000D01*
X133985000Y-88519000D02*
X133096000Y-87630000D01*
X148778000Y-91120000D02*
X146177000Y-88519000D01*
%TO.N,LD5_C*%
X168783000Y-89916000D02*
X167132000Y-88265000D01*
X168783000Y-93218000D02*
X168783000Y-89916000D01*
X166680000Y-93660000D02*
X168341000Y-93660000D01*
X167132000Y-88265000D02*
X167132000Y-86298500D01*
X168341000Y-93660000D02*
X168783000Y-93218000D01*
%TO.N,LD6_C*%
X171704000Y-96266000D02*
X173736000Y-94234000D01*
X164140000Y-93660000D02*
X164140000Y-95179000D01*
X173736000Y-94234000D02*
X173736000Y-86298500D01*
X165227000Y-96266000D02*
X171704000Y-96266000D01*
X164140000Y-95179000D02*
X165227000Y-96266000D01*
%TO.N,Net-(U1-A)*%
X112501000Y-80264000D02*
X112406000Y-80169000D01*
X114361500Y-80264000D02*
X112501000Y-80264000D01*
%TO.N,Net-(U2-A)*%
X128712500Y-76835000D02*
X126852000Y-76835000D01*
X126852000Y-76835000D02*
X126757000Y-76740000D01*
%TO.N,Net-(U3-A)*%
X141838000Y-75946000D02*
X141743000Y-75851000D01*
X143698500Y-75946000D02*
X141838000Y-75946000D01*
%TO.N,Net-(U4-A)*%
X151363000Y-75946000D02*
X151268000Y-75851000D01*
X153223500Y-75946000D02*
X151363000Y-75946000D01*
%TO.N,Net-(U5-A)*%
X160888000Y-75946000D02*
X160793000Y-75851000D01*
X162748500Y-75946000D02*
X160888000Y-75946000D01*
%TO.N,Net-(U6-A)*%
X177734500Y-76835000D02*
X175874000Y-76835000D01*
X175874000Y-76835000D02*
X175779000Y-76740000D01*
%TO.N,Net-(U7-A)*%
X190130000Y-80169000D02*
X190130000Y-81142000D01*
X190130000Y-81142000D02*
X189611000Y-81661000D01*
X187325000Y-81153000D02*
X186374500Y-81153000D01*
X187833000Y-81661000D02*
X187325000Y-81153000D01*
X189611000Y-81661000D02*
X187833000Y-81661000D01*
%TD*%
%TA.AperFunction,Conductor*%
%TO.N,GND*%
G36*
X123493819Y-74031981D02*
G01*
X123524639Y-74094685D01*
X123516667Y-74164099D01*
X123490134Y-74203497D01*
X118429097Y-79264533D01*
X118367774Y-79298018D01*
X118298082Y-79293034D01*
X118242149Y-79251162D01*
X118235877Y-79241948D01*
X118191711Y-79170342D01*
X118067657Y-79046288D01*
X117918334Y-78954186D01*
X117751797Y-78899000D01*
X117652141Y-78888819D01*
X117652122Y-78888818D01*
X117649009Y-78888500D01*
X117645860Y-78888500D01*
X116927141Y-78888500D01*
X116927121Y-78888500D01*
X116923992Y-78888501D01*
X116920860Y-78888820D01*
X116920858Y-78888821D01*
X116821203Y-78899000D01*
X116654665Y-78954186D01*
X116505342Y-79046288D01*
X116381288Y-79170342D01*
X116302332Y-79298353D01*
X116289186Y-79319666D01*
X116285817Y-79329834D01*
X116247251Y-79446216D01*
X116207478Y-79503660D01*
X116169800Y-79519521D01*
X116171359Y-79523804D01*
X116087251Y-79554415D01*
X116083849Y-79555597D01*
X116011470Y-79579582D01*
X115993929Y-79588074D01*
X115930197Y-79629991D01*
X115927156Y-79631928D01*
X115862280Y-79671943D01*
X115847164Y-79684257D01*
X115794815Y-79739742D01*
X115792304Y-79742327D01*
X115636180Y-79898451D01*
X115574857Y-79931936D01*
X115505165Y-79926952D01*
X115449232Y-79885080D01*
X115424815Y-79819616D01*
X115424499Y-79810770D01*
X115424499Y-79592140D01*
X115424499Y-79592139D01*
X115424499Y-79588992D01*
X115413999Y-79486203D01*
X115358814Y-79319666D01*
X115298105Y-79221241D01*
X115266711Y-79170342D01*
X115142657Y-79046288D01*
X114993334Y-78954186D01*
X114826797Y-78899000D01*
X114727141Y-78888819D01*
X114727122Y-78888818D01*
X114724009Y-78888500D01*
X114720860Y-78888500D01*
X114002141Y-78888500D01*
X114002121Y-78888500D01*
X113998992Y-78888501D01*
X113995860Y-78888820D01*
X113995858Y-78888821D01*
X113896203Y-78899000D01*
X113729665Y-78954186D01*
X113580342Y-79046288D01*
X113456287Y-79170343D01*
X113398691Y-79263721D01*
X113346743Y-79310446D01*
X113277781Y-79321667D01*
X113213699Y-79293824D01*
X113197299Y-79277288D01*
X113152410Y-79222589D01*
X113050798Y-79139200D01*
X112992450Y-79091315D01*
X112838412Y-79008979D01*
X112809956Y-78993769D01*
X112809955Y-78993768D01*
X112809954Y-78993768D01*
X112710944Y-78963733D01*
X112611932Y-78933699D01*
X112406000Y-78913417D01*
X112200067Y-78933699D01*
X112002043Y-78993769D01*
X111819551Y-79091314D01*
X111659588Y-79222590D01*
X111601529Y-79293336D01*
X111543783Y-79332670D01*
X111473939Y-79334541D01*
X111414170Y-79298353D01*
X111409823Y-79293336D01*
X111352054Y-79222945D01*
X111192170Y-79091731D01*
X111009762Y-78994231D01*
X110856000Y-78947587D01*
X110856000Y-79920061D01*
X110774885Y-79856928D01*
X110664405Y-79819000D01*
X110576995Y-79819000D01*
X110490784Y-79833386D01*
X110388053Y-79888981D01*
X110308940Y-79974921D01*
X110262018Y-80081892D01*
X110252372Y-80198302D01*
X110281047Y-80311538D01*
X110344936Y-80409327D01*
X110437115Y-80481072D01*
X110547595Y-80519000D01*
X110635005Y-80519000D01*
X110721216Y-80504614D01*
X110823947Y-80449019D01*
X110856000Y-80414200D01*
X110856000Y-81390410D01*
X111009764Y-81343766D01*
X111192171Y-81246268D01*
X111352053Y-81115055D01*
X111409822Y-81044664D01*
X111467568Y-81005329D01*
X111537413Y-81003458D01*
X111597181Y-81039645D01*
X111601530Y-81044664D01*
X111659589Y-81115410D01*
X111719142Y-81164283D01*
X111819550Y-81246685D01*
X112002046Y-81344232D01*
X112200066Y-81404300D01*
X112406000Y-81424583D01*
X112611934Y-81404300D01*
X112809954Y-81344232D01*
X112992450Y-81246685D01*
X113152410Y-81115410D01*
X113152411Y-81115408D01*
X113155123Y-81113183D01*
X113219433Y-81085870D01*
X113288301Y-81097661D01*
X113339861Y-81144813D01*
X113351492Y-81170028D01*
X113364186Y-81208334D01*
X113410236Y-81282994D01*
X113456287Y-81357655D01*
X113544950Y-81446319D01*
X113578434Y-81507643D01*
X113573450Y-81577334D01*
X113544950Y-81621681D01*
X113456287Y-81710344D01*
X113364186Y-81859665D01*
X113309000Y-82026202D01*
X113298819Y-82125858D01*
X113298817Y-82125878D01*
X113298500Y-82128991D01*
X113298500Y-82132138D01*
X113298500Y-82132139D01*
X113298500Y-82930955D01*
X113278815Y-82997994D01*
X113226011Y-83043749D01*
X113156853Y-83053693D01*
X113109404Y-83036494D01*
X113025294Y-82984615D01*
X112858935Y-82929489D01*
X112759388Y-82919319D01*
X112753111Y-82919000D01*
X112656000Y-82919000D01*
X112656000Y-83919000D01*
X113426270Y-83919000D01*
X113493309Y-83938685D01*
X113513946Y-83955314D01*
X113557420Y-83998788D01*
X113580345Y-84021713D01*
X113610999Y-84040620D01*
X113729666Y-84113814D01*
X113840350Y-84150491D01*
X113896202Y-84168999D01*
X113995858Y-84179180D01*
X113995859Y-84179180D01*
X113998991Y-84179500D01*
X114724008Y-84179499D01*
X114826797Y-84168999D01*
X114993334Y-84113814D01*
X115142656Y-84021712D01*
X115266712Y-83897656D01*
X115358814Y-83748334D01*
X115413999Y-83581797D01*
X115420118Y-83521892D01*
X115446515Y-83457200D01*
X115478381Y-83428955D01*
X115512180Y-83408108D01*
X115530656Y-83396712D01*
X115530656Y-83396711D01*
X115531729Y-83396050D01*
X115546824Y-83383753D01*
X115547692Y-83382832D01*
X115547696Y-83382830D01*
X115599184Y-83328254D01*
X115601630Y-83325736D01*
X116011821Y-82915545D01*
X116073142Y-82882062D01*
X116142834Y-82887046D01*
X116198767Y-82928918D01*
X116223184Y-82994382D01*
X116223500Y-83003228D01*
X116223500Y-83475858D01*
X116223500Y-83475877D01*
X116223501Y-83479008D01*
X116223820Y-83482140D01*
X116223821Y-83482141D01*
X116234000Y-83581796D01*
X116289186Y-83748334D01*
X116360980Y-83864732D01*
X116379420Y-83932124D01*
X116358497Y-83998788D01*
X116343122Y-84017509D01*
X115422451Y-84938181D01*
X115361128Y-84971666D01*
X115334770Y-84974500D01*
X113566675Y-84974500D01*
X113499636Y-84954815D01*
X113453881Y-84902011D01*
X113444312Y-84835462D01*
X113444130Y-84835444D01*
X113444204Y-84834713D01*
X113443937Y-84832853D01*
X113444745Y-84829423D01*
X113455680Y-84722388D01*
X113456000Y-84716110D01*
X113456000Y-84419000D01*
X112651581Y-84419000D01*
X112703060Y-84363079D01*
X112749982Y-84256108D01*
X112759628Y-84139698D01*
X112730953Y-84026462D01*
X112667064Y-83928673D01*
X112574885Y-83856928D01*
X112464405Y-83819000D01*
X112376995Y-83819000D01*
X112290784Y-83833386D01*
X112188053Y-83888981D01*
X112156000Y-83923799D01*
X112156000Y-82919000D01*
X112058889Y-82919000D01*
X112052611Y-82919319D01*
X111953064Y-82929489D01*
X111786707Y-82984614D01*
X111637541Y-83076621D01*
X111508314Y-83205849D01*
X111446991Y-83239334D01*
X111377299Y-83234350D01*
X111341969Y-83214022D01*
X111192450Y-83091315D01*
X111192449Y-83091314D01*
X111009956Y-82993769D01*
X111009955Y-82993768D01*
X111009954Y-82993768D01*
X110910944Y-82963733D01*
X110811932Y-82933699D01*
X110606000Y-82913417D01*
X110400067Y-82933699D01*
X110202043Y-82993769D01*
X110019551Y-83091314D01*
X109859589Y-83222589D01*
X109728314Y-83382551D01*
X109630769Y-83565043D01*
X109570699Y-83763067D01*
X109555798Y-83914358D01*
X109555797Y-83914374D01*
X109555500Y-83917392D01*
X109555500Y-84420608D01*
X109555797Y-84423626D01*
X109555798Y-84423641D01*
X109570699Y-84574932D01*
X109596379Y-84659587D01*
X109630740Y-84772863D01*
X109630769Y-84772956D01*
X109727975Y-84954815D01*
X109728315Y-84955450D01*
X109830741Y-85080258D01*
X109858050Y-85144529D01*
X109859098Y-85153497D01*
X109859464Y-85157082D01*
X109866109Y-85233041D01*
X109870329Y-85252071D01*
X109870758Y-85253251D01*
X109870759Y-85253255D01*
X109896413Y-85323742D01*
X109897582Y-85327107D01*
X109921580Y-85399524D01*
X109930075Y-85417072D01*
X109971979Y-85480784D01*
X109973889Y-85483782D01*
X110013288Y-85547656D01*
X110013952Y-85548732D01*
X110026253Y-85563830D01*
X110027168Y-85564693D01*
X110027170Y-85564696D01*
X110069552Y-85604681D01*
X110081708Y-85616150D01*
X110084295Y-85618663D01*
X110676269Y-86210637D01*
X110688051Y-86224270D01*
X110702390Y-86243531D01*
X110740338Y-86275373D01*
X110748313Y-86282681D01*
X110752223Y-86286591D01*
X110776556Y-86305830D01*
X110779335Y-86308095D01*
X110837752Y-86357113D01*
X110854179Y-86367578D01*
X110923320Y-86399819D01*
X110926567Y-86401391D01*
X110994699Y-86435609D01*
X111013087Y-86442000D01*
X111014323Y-86442255D01*
X111014327Y-86442257D01*
X111087895Y-86457447D01*
X111091242Y-86458189D01*
X111164279Y-86475500D01*
X111164281Y-86475500D01*
X111165509Y-86475791D01*
X111184878Y-86477770D01*
X111186140Y-86477733D01*
X111186144Y-86477734D01*
X111258533Y-86475627D01*
X111261131Y-86475552D01*
X111264737Y-86475500D01*
X114616723Y-86475500D01*
X114683762Y-86495185D01*
X114729517Y-86547989D01*
X114739461Y-86617147D01*
X114710436Y-86680703D01*
X114653723Y-86717851D01*
X110796920Y-87923613D01*
X110770736Y-87928789D01*
X110398934Y-87961343D01*
X110369671Y-87963867D01*
X110358935Y-87964325D01*
X110084420Y-87964140D01*
X109941715Y-87963415D01*
X109931363Y-87962930D01*
X109681201Y-87940685D01*
X109515523Y-87924728D01*
X109505617Y-87923368D01*
X109268121Y-87880962D01*
X109094522Y-87848121D01*
X109085135Y-87845964D01*
X108857537Y-87784271D01*
X108682062Y-87734210D01*
X108673264Y-87731340D01*
X108455080Y-87651025D01*
X108281497Y-87583929D01*
X108273321Y-87580426D01*
X108064982Y-87482160D01*
X107958958Y-87429659D01*
X107895965Y-87398466D01*
X107888467Y-87394425D01*
X107692047Y-87279674D01*
X107689707Y-87278272D01*
X107528586Y-87179326D01*
X107521757Y-87174815D01*
X107337237Y-87043991D01*
X107334737Y-87042172D01*
X107182275Y-86928260D01*
X107176162Y-86923384D01*
X107004546Y-86777436D01*
X107001945Y-86775161D01*
X106895270Y-86679193D01*
X106859811Y-86647292D01*
X106854426Y-86642147D01*
X106853645Y-86641354D01*
X106696749Y-86482131D01*
X106694158Y-86479420D01*
X106563745Y-86338654D01*
X106559094Y-86333336D01*
X106416442Y-86160505D01*
X106413834Y-86157235D01*
X106296483Y-86004868D01*
X106292541Y-85999453D01*
X106165782Y-85814972D01*
X106163342Y-85811277D01*
X106060103Y-85648550D01*
X106056836Y-85643095D01*
X106032941Y-85600777D01*
X105946971Y-85448520D01*
X105944645Y-85444205D01*
X105930711Y-85417072D01*
X105856517Y-85272592D01*
X105853918Y-85267214D01*
X105761610Y-85063800D01*
X105759566Y-85059028D01*
X105710811Y-84938181D01*
X105687359Y-84880050D01*
X105685369Y-84874776D01*
X105611324Y-84664115D01*
X105609576Y-84658755D01*
X105601653Y-84632448D01*
X105553916Y-84473940D01*
X105552530Y-84468962D01*
X105497254Y-84252473D01*
X105495926Y-84246689D01*
X105457293Y-84057643D01*
X105456427Y-84052931D01*
X105420369Y-83832278D01*
X105419517Y-83826065D01*
X105398234Y-83634498D01*
X105397824Y-83630066D01*
X105381281Y-83406837D01*
X105380971Y-83400231D01*
X105377181Y-83207879D01*
X105377170Y-83203723D01*
X105380316Y-82979589D01*
X105380616Y-82972580D01*
X105394279Y-82781123D01*
X105394590Y-82777535D01*
X105417489Y-82553915D01*
X105418460Y-82546605D01*
X105449350Y-82357817D01*
X105449925Y-82354590D01*
X105492516Y-82133194D01*
X105494215Y-82125655D01*
X105541873Y-81941418D01*
X105542667Y-81938497D01*
X105604805Y-81720818D01*
X105607273Y-81713141D01*
X105671093Y-81535034D01*
X105671951Y-81532719D01*
X105753448Y-81320124D01*
X105756770Y-81312283D01*
X105775576Y-81271815D01*
X105836203Y-81141344D01*
X105937295Y-80934228D01*
X105941455Y-80926429D01*
X106034858Y-80765525D01*
X106154888Y-80566230D01*
X106159908Y-80558561D01*
X106258890Y-80419000D01*
X109556072Y-80419000D01*
X109556298Y-80423622D01*
X109571191Y-80574834D01*
X109631233Y-80772764D01*
X109728731Y-80955171D01*
X109859945Y-81115054D01*
X110019828Y-81246268D01*
X110202235Y-81343766D01*
X110356000Y-81390410D01*
X110356000Y-80419000D01*
X109556072Y-80419000D01*
X106258890Y-80419000D01*
X106265472Y-80409720D01*
X106272784Y-80399694D01*
X106404434Y-80219167D01*
X106410383Y-80211642D01*
X106525300Y-80077358D01*
X106663661Y-79919000D01*
X109556072Y-79919000D01*
X110356000Y-79919000D01*
X110355999Y-78947587D01*
X110202237Y-78994231D01*
X110019829Y-79091731D01*
X109859945Y-79222945D01*
X109728731Y-79382828D01*
X109631233Y-79565235D01*
X109571191Y-79763165D01*
X109556298Y-79914377D01*
X109556072Y-79919000D01*
X106663661Y-79919000D01*
X106684034Y-79895683D01*
X106690867Y-79888472D01*
X106776827Y-79804783D01*
X106810163Y-79772328D01*
X106856409Y-79727959D01*
X106991402Y-79598445D01*
X106999114Y-79591642D01*
X107109778Y-79501955D01*
X107324108Y-79329809D01*
X107332699Y-79323502D01*
X107351588Y-79310850D01*
X107664656Y-79101839D01*
X107695189Y-79087039D01*
X123364150Y-73997880D01*
X123433990Y-73995893D01*
X123493819Y-74031981D01*
G37*
%TD.AperFunction*%
%TA.AperFunction,Conductor*%
G36*
X123894750Y-76024130D02*
G01*
X123950683Y-76066002D01*
X123975100Y-76131466D01*
X123970077Y-76176307D01*
X123922191Y-76334165D01*
X123907298Y-76485377D01*
X123907072Y-76490000D01*
X124711419Y-76490000D01*
X124659940Y-76545921D01*
X124613018Y-76652892D01*
X124603372Y-76769302D01*
X124632047Y-76882538D01*
X124695936Y-76980327D01*
X124788115Y-77052072D01*
X124898595Y-77090000D01*
X124986005Y-77090000D01*
X125072216Y-77075614D01*
X125174947Y-77020019D01*
X125207000Y-76985200D01*
X125207000Y-77961410D01*
X125360764Y-77914766D01*
X125543171Y-77817268D01*
X125703053Y-77686055D01*
X125760822Y-77615664D01*
X125818568Y-77576329D01*
X125888413Y-77574458D01*
X125948181Y-77610645D01*
X125952530Y-77615664D01*
X126010589Y-77686410D01*
X126077146Y-77741031D01*
X126170550Y-77817685D01*
X126353046Y-77915232D01*
X126551066Y-77975300D01*
X126757000Y-77995583D01*
X126962934Y-77975300D01*
X127160954Y-77915232D01*
X127343450Y-77817685D01*
X127503410Y-77686410D01*
X127503411Y-77686408D01*
X127506123Y-77684183D01*
X127570433Y-77656870D01*
X127639301Y-77668661D01*
X127690861Y-77715813D01*
X127702492Y-77741028D01*
X127715186Y-77779334D01*
X127738584Y-77817268D01*
X127807288Y-77928657D01*
X127895950Y-78017319D01*
X127929435Y-78078642D01*
X127924451Y-78148334D01*
X127895950Y-78192681D01*
X127807288Y-78281342D01*
X127715186Y-78430665D01*
X127660000Y-78597202D01*
X127649819Y-78696858D01*
X127649817Y-78696878D01*
X127649500Y-78699991D01*
X127649500Y-78703138D01*
X127649500Y-78703139D01*
X127649500Y-79501955D01*
X127629815Y-79568994D01*
X127577011Y-79614749D01*
X127507853Y-79624693D01*
X127460404Y-79607494D01*
X127376294Y-79555615D01*
X127209935Y-79500489D01*
X127110388Y-79490319D01*
X127104111Y-79490000D01*
X127007000Y-79490000D01*
X127007000Y-80490000D01*
X127777270Y-80490000D01*
X127844309Y-80509685D01*
X127864946Y-80526314D01*
X127904917Y-80566285D01*
X127931345Y-80592713D01*
X127947425Y-80602631D01*
X128080666Y-80684814D01*
X128192016Y-80721712D01*
X128247202Y-80739999D01*
X128346858Y-80750180D01*
X128346859Y-80750180D01*
X128349991Y-80750500D01*
X128901270Y-80750499D01*
X128968309Y-80770183D01*
X129014064Y-80822987D01*
X129024008Y-80892146D01*
X128994983Y-80955702D01*
X128988951Y-80962180D01*
X128695951Y-81255181D01*
X128634628Y-81288666D01*
X128608270Y-81291500D01*
X127931000Y-81291500D01*
X127863961Y-81271815D01*
X127818206Y-81219011D01*
X127807000Y-81167500D01*
X127807000Y-80990000D01*
X127002581Y-80990000D01*
X127054060Y-80934079D01*
X127100982Y-80827108D01*
X127110628Y-80710698D01*
X127081953Y-80597462D01*
X127018064Y-80499673D01*
X126925885Y-80427928D01*
X126815405Y-80390000D01*
X126727995Y-80390000D01*
X126641784Y-80404386D01*
X126539053Y-80459981D01*
X126507000Y-80494799D01*
X126507000Y-79490000D01*
X126409889Y-79490000D01*
X126403611Y-79490319D01*
X126304064Y-79500489D01*
X126137707Y-79555614D01*
X125988541Y-79647621D01*
X125859314Y-79776849D01*
X125797991Y-79810334D01*
X125728299Y-79805350D01*
X125692969Y-79785022D01*
X125565960Y-79680788D01*
X125543449Y-79662314D01*
X125360956Y-79564769D01*
X125360955Y-79564768D01*
X125360954Y-79564768D01*
X125242247Y-79528759D01*
X125162932Y-79504699D01*
X124957000Y-79484417D01*
X124751067Y-79504699D01*
X124553043Y-79564769D01*
X124370551Y-79662314D01*
X124210589Y-79793589D01*
X124079314Y-79953551D01*
X123981769Y-80136043D01*
X123981768Y-80136045D01*
X123981768Y-80136046D01*
X123979183Y-80144569D01*
X123921699Y-80334067D01*
X123906798Y-80485358D01*
X123906797Y-80485374D01*
X123906500Y-80488392D01*
X123906500Y-80991608D01*
X123906797Y-80994626D01*
X123906798Y-80994641D01*
X123921699Y-81145932D01*
X123951734Y-81244943D01*
X123976447Y-81326414D01*
X123981769Y-81343956D01*
X123981917Y-81344232D01*
X124079315Y-81526450D01*
X124207598Y-81682764D01*
X124210138Y-81685859D01*
X124230807Y-81722114D01*
X124247400Y-81767705D01*
X124248582Y-81771107D01*
X124272581Y-81843525D01*
X124281075Y-81861072D01*
X124322979Y-81924784D01*
X124324889Y-81927782D01*
X124364288Y-81991656D01*
X124364952Y-81992732D01*
X124377253Y-82007830D01*
X124378168Y-82008693D01*
X124378170Y-82008696D01*
X124427065Y-82054826D01*
X124432708Y-82060150D01*
X124435295Y-82062663D01*
X124900269Y-82527637D01*
X124912051Y-82541270D01*
X124926390Y-82560531D01*
X124964338Y-82592373D01*
X124972313Y-82599681D01*
X124976223Y-82603591D01*
X125000556Y-82622830D01*
X125003335Y-82625095D01*
X125061752Y-82674113D01*
X125078179Y-82684578D01*
X125147320Y-82716819D01*
X125150567Y-82718391D01*
X125218699Y-82752609D01*
X125237087Y-82759000D01*
X125238323Y-82759255D01*
X125238327Y-82759257D01*
X125311895Y-82774447D01*
X125315242Y-82775189D01*
X125388279Y-82792500D01*
X125388281Y-82792500D01*
X125389509Y-82792791D01*
X125408878Y-82794770D01*
X125410140Y-82794733D01*
X125410144Y-82794734D01*
X125482533Y-82792627D01*
X125485131Y-82792552D01*
X125488737Y-82792500D01*
X128098500Y-82792500D01*
X128165539Y-82812185D01*
X128211294Y-82864989D01*
X128222500Y-82916500D01*
X128222500Y-83861008D01*
X128222818Y-83864121D01*
X128222819Y-83864140D01*
X128233000Y-83963797D01*
X128288186Y-84130336D01*
X128380288Y-84279655D01*
X128504344Y-84403711D01*
X128653663Y-84495813D01*
X128820202Y-84550999D01*
X128919859Y-84561180D01*
X128919860Y-84561180D01*
X128922992Y-84561500D01*
X129468084Y-84561500D01*
X129535123Y-84581185D01*
X129580878Y-84633989D01*
X129590822Y-84703147D01*
X129561797Y-84766703D01*
X129542132Y-84784963D01*
X129529468Y-84794390D01*
X129497635Y-84832328D01*
X129490338Y-84840292D01*
X129488972Y-84841657D01*
X129488950Y-84841681D01*
X129486409Y-84844223D01*
X129484173Y-84847050D01*
X129484171Y-84847053D01*
X129467176Y-84868546D01*
X129464902Y-84871337D01*
X129415894Y-84929744D01*
X129405418Y-84946187D01*
X129373192Y-85015294D01*
X129371623Y-85018535D01*
X129359765Y-85042148D01*
X129312089Y-85093223D01*
X129248953Y-85110500D01*
X128922992Y-85110500D01*
X128919879Y-85110817D01*
X128919859Y-85110819D01*
X128820202Y-85121000D01*
X128653663Y-85176186D01*
X128504344Y-85268288D01*
X128380288Y-85392344D01*
X128288186Y-85541663D01*
X128233000Y-85708202D01*
X128222819Y-85807859D01*
X128222817Y-85807879D01*
X128222500Y-85810992D01*
X128222500Y-86836008D01*
X128222818Y-86839121D01*
X128222819Y-86839140D01*
X128233000Y-86938797D01*
X128288186Y-87105336D01*
X128380288Y-87254655D01*
X128504344Y-87378711D01*
X128653663Y-87470813D01*
X128820202Y-87525999D01*
X128919859Y-87536180D01*
X128919860Y-87536180D01*
X128922992Y-87536500D01*
X128926141Y-87536500D01*
X131169859Y-87536500D01*
X131173008Y-87536500D01*
X131275797Y-87525999D01*
X131442334Y-87470814D01*
X131455937Y-87462424D01*
X131591655Y-87378711D01*
X131715709Y-87254657D01*
X131715709Y-87254656D01*
X131715711Y-87254655D01*
X131762167Y-87179337D01*
X131814114Y-87132615D01*
X131883077Y-87121392D01*
X131947159Y-87149236D01*
X131955386Y-87156755D01*
X132002342Y-87203711D01*
X132002344Y-87203712D01*
X132151666Y-87295814D01*
X132260504Y-87331879D01*
X132317947Y-87371650D01*
X132344771Y-87436166D01*
X132345499Y-87449584D01*
X132345499Y-87566294D01*
X132344190Y-87584261D01*
X132340710Y-87608019D01*
X132345028Y-87657368D01*
X132345500Y-87668175D01*
X132345500Y-87673709D01*
X132345916Y-87677272D01*
X132345917Y-87677282D01*
X132349098Y-87704496D01*
X132349464Y-87708082D01*
X132356109Y-87784041D01*
X132360329Y-87803071D01*
X132360758Y-87804251D01*
X132360759Y-87804255D01*
X132386413Y-87874742D01*
X132387582Y-87878107D01*
X132411580Y-87950524D01*
X132420075Y-87968072D01*
X132461979Y-88031784D01*
X132463889Y-88034782D01*
X132503288Y-88098656D01*
X132503952Y-88099732D01*
X132516253Y-88114830D01*
X132517168Y-88115693D01*
X132517170Y-88115696D01*
X132570254Y-88165778D01*
X132571708Y-88167150D01*
X132574295Y-88169663D01*
X133409269Y-89004637D01*
X133421051Y-89018270D01*
X133435390Y-89037531D01*
X133473338Y-89069373D01*
X133481313Y-89076681D01*
X133485223Y-89080591D01*
X133509556Y-89099830D01*
X133512335Y-89102095D01*
X133570752Y-89151113D01*
X133587179Y-89161578D01*
X133656320Y-89193819D01*
X133659567Y-89195391D01*
X133727699Y-89229609D01*
X133746087Y-89236000D01*
X133747323Y-89236255D01*
X133747327Y-89236257D01*
X133820895Y-89251447D01*
X133824242Y-89252189D01*
X133897279Y-89269500D01*
X133897281Y-89269500D01*
X133898509Y-89269791D01*
X133917878Y-89271770D01*
X133919140Y-89271733D01*
X133919144Y-89271734D01*
X133992618Y-89269596D01*
X133994131Y-89269552D01*
X133997737Y-89269500D01*
X137017770Y-89269500D01*
X137084809Y-89289185D01*
X137130564Y-89341989D01*
X137140508Y-89411147D01*
X137111483Y-89474703D01*
X137105469Y-89481161D01*
X136901396Y-89685235D01*
X136836500Y-89750131D01*
X136775177Y-89783615D01*
X136738011Y-89785977D01*
X136524999Y-89767340D01*
X136289592Y-89787936D01*
X136061336Y-89849097D01*
X135847170Y-89948965D01*
X135653598Y-90084505D01*
X135486505Y-90251598D01*
X135356575Y-90437159D01*
X135301998Y-90480784D01*
X135232500Y-90487978D01*
X135170145Y-90456455D01*
X135153425Y-90437159D01*
X135101672Y-90363248D01*
X135023495Y-90251599D01*
X134856401Y-90084505D01*
X134662830Y-89948965D01*
X134448663Y-89849097D01*
X134377742Y-89830094D01*
X134220407Y-89787936D01*
X133985000Y-89767340D01*
X133749592Y-89787936D01*
X133521336Y-89849097D01*
X133307170Y-89948965D01*
X133113597Y-90084506D01*
X132946505Y-90251598D01*
X132898874Y-90319623D01*
X132844298Y-90363248D01*
X132797299Y-90372500D01*
X132714706Y-90372500D01*
X132696736Y-90371191D01*
X132682853Y-90369157D01*
X132672977Y-90367711D01*
X132672976Y-90367711D01*
X132623631Y-90372028D01*
X132612824Y-90372500D01*
X132607291Y-90372500D01*
X132603730Y-90372916D01*
X132603715Y-90372917D01*
X132576501Y-90376098D01*
X132572916Y-90376464D01*
X132496961Y-90383109D01*
X132477921Y-90387330D01*
X132406232Y-90413421D01*
X132402831Y-90414603D01*
X132330474Y-90438580D01*
X132312927Y-90447075D01*
X132249221Y-90488975D01*
X132246181Y-90490912D01*
X132181280Y-90530944D01*
X132166164Y-90543257D01*
X132113815Y-90598742D01*
X132111304Y-90601327D01*
X131594359Y-91118271D01*
X131580728Y-91130051D01*
X131561470Y-91144388D01*
X131529635Y-91182328D01*
X131522338Y-91190292D01*
X131520972Y-91191657D01*
X131520950Y-91191681D01*
X131518409Y-91194223D01*
X131516173Y-91197050D01*
X131516171Y-91197053D01*
X131499176Y-91218546D01*
X131496902Y-91221337D01*
X131447894Y-91279744D01*
X131437418Y-91296187D01*
X131405192Y-91365294D01*
X131403622Y-91368536D01*
X131369393Y-91436692D01*
X131362996Y-91455098D01*
X131347574Y-91529787D01*
X131346794Y-91533306D01*
X131329210Y-91607499D01*
X131327229Y-91626889D01*
X131329448Y-91703129D01*
X131329500Y-91706735D01*
X131329500Y-93916294D01*
X131328191Y-93934264D01*
X131324711Y-93958023D01*
X131327021Y-93984433D01*
X131329028Y-94007368D01*
X131329500Y-94018175D01*
X131329500Y-94023709D01*
X131329916Y-94027272D01*
X131329917Y-94027282D01*
X131333098Y-94054496D01*
X131333464Y-94058082D01*
X131340109Y-94134041D01*
X131344329Y-94153071D01*
X131344758Y-94154251D01*
X131344759Y-94154255D01*
X131370413Y-94224742D01*
X131371582Y-94228107D01*
X131395580Y-94300524D01*
X131404075Y-94318072D01*
X131445979Y-94381784D01*
X131447889Y-94384782D01*
X131475895Y-94430185D01*
X131487952Y-94449732D01*
X131500253Y-94464830D01*
X131501168Y-94465693D01*
X131501170Y-94465696D01*
X131543855Y-94505967D01*
X131555709Y-94517151D01*
X131558296Y-94519664D01*
X132295714Y-95257082D01*
X133028267Y-95989634D01*
X133040048Y-96003266D01*
X133054390Y-96022530D01*
X133092339Y-96054373D01*
X133100314Y-96061681D01*
X133104223Y-96065590D01*
X133107055Y-96067829D01*
X133107065Y-96067838D01*
X133128537Y-96084815D01*
X133131337Y-96087096D01*
X133189754Y-96136115D01*
X133206165Y-96146569D01*
X133207319Y-96147107D01*
X133207323Y-96147110D01*
X133275328Y-96178821D01*
X133278451Y-96180333D01*
X133344667Y-96213588D01*
X133346704Y-96214611D01*
X133365084Y-96220998D01*
X133366321Y-96221253D01*
X133366327Y-96221256D01*
X133439862Y-96236439D01*
X133443209Y-96237181D01*
X133516279Y-96254500D01*
X133516281Y-96254500D01*
X133517505Y-96254790D01*
X133536876Y-96256769D01*
X133538140Y-96256732D01*
X133538144Y-96256733D01*
X133613110Y-96254552D01*
X133616716Y-96254500D01*
X146240294Y-96254500D01*
X146258264Y-96255809D01*
X146262320Y-96256402D01*
X146282023Y-96259289D01*
X146331368Y-96254972D01*
X146342176Y-96254500D01*
X146344100Y-96254500D01*
X146347709Y-96254500D01*
X146378550Y-96250894D01*
X146382031Y-96250539D01*
X146456797Y-96243999D01*
X146456797Y-96243998D01*
X146458052Y-96243889D01*
X146477062Y-96239674D01*
X146478250Y-96239241D01*
X146478255Y-96239241D01*
X146548820Y-96213557D01*
X146552095Y-96212419D01*
X146623334Y-96188814D01*
X146623336Y-96188812D01*
X146624536Y-96188415D01*
X146642063Y-96179929D01*
X146643112Y-96179238D01*
X146643117Y-96179237D01*
X146705806Y-96138005D01*
X146708798Y-96136099D01*
X146772656Y-96096712D01*
X146772656Y-96096711D01*
X146773729Y-96096050D01*
X146788824Y-96083753D01*
X146789692Y-96082832D01*
X146789696Y-96082830D01*
X146841184Y-96028254D01*
X146843630Y-96025736D01*
X148567642Y-94301724D01*
X148581260Y-94289954D01*
X148600530Y-94275610D01*
X148632366Y-94237667D01*
X148639680Y-94229688D01*
X148640264Y-94229103D01*
X148643591Y-94225777D01*
X148662833Y-94201439D01*
X148665090Y-94198670D01*
X148695021Y-94163000D01*
X148713302Y-94141214D01*
X148713303Y-94141211D01*
X148714115Y-94140244D01*
X148724573Y-94123827D01*
X148725106Y-94122682D01*
X148725111Y-94122677D01*
X148756833Y-94054646D01*
X148758362Y-94051488D01*
X148792040Y-93984433D01*
X148792040Y-93984432D01*
X148792612Y-93983294D01*
X148799000Y-93964915D01*
X148799255Y-93963675D01*
X148799257Y-93963673D01*
X148814435Y-93890157D01*
X148815200Y-93886708D01*
X148832500Y-93813721D01*
X148832500Y-93813718D01*
X148832791Y-93812491D01*
X148834770Y-93793120D01*
X148834733Y-93791858D01*
X148834734Y-93791855D01*
X148832552Y-93716868D01*
X148832500Y-93713262D01*
X148832500Y-91994500D01*
X148852185Y-91927461D01*
X148904989Y-91881706D01*
X148956500Y-91870500D01*
X155332299Y-91870500D01*
X155399338Y-91890185D01*
X155433871Y-91923373D01*
X155481505Y-91991401D01*
X155648599Y-92158495D01*
X155834160Y-92288426D01*
X155877783Y-92343002D01*
X155884976Y-92412501D01*
X155853454Y-92474855D01*
X155834160Y-92491574D01*
X155659555Y-92613834D01*
X155648595Y-92621508D01*
X155481505Y-92788598D01*
X155345965Y-92982170D01*
X155246097Y-93196336D01*
X155184936Y-93424592D01*
X155164340Y-93660000D01*
X155184936Y-93895407D01*
X155208791Y-93984433D01*
X155246097Y-94123663D01*
X155345965Y-94337830D01*
X155481505Y-94531401D01*
X155648599Y-94698495D01*
X155842170Y-94834035D01*
X156056337Y-94933903D01*
X156284592Y-94995063D01*
X156520000Y-95015659D01*
X156755408Y-94995063D01*
X156983663Y-94933903D01*
X157197830Y-94834035D01*
X157391401Y-94698495D01*
X157558495Y-94531401D01*
X157606127Y-94463374D01*
X157660703Y-94419751D01*
X157707701Y-94410500D01*
X157872299Y-94410500D01*
X157939338Y-94430185D01*
X157973871Y-94463373D01*
X158021505Y-94531401D01*
X158188599Y-94698495D01*
X158382170Y-94834035D01*
X158596337Y-94933903D01*
X158824592Y-94995063D01*
X159059999Y-95015659D01*
X159059999Y-95015658D01*
X159060000Y-95015659D01*
X159295408Y-94995063D01*
X159523663Y-94933903D01*
X159737830Y-94834035D01*
X159931401Y-94698495D01*
X160098495Y-94531401D01*
X160146127Y-94463374D01*
X160200703Y-94419751D01*
X160247701Y-94410500D01*
X160412299Y-94410500D01*
X160479338Y-94430185D01*
X160513871Y-94463373D01*
X160561505Y-94531401D01*
X160728599Y-94698495D01*
X160922170Y-94834035D01*
X161136337Y-94933903D01*
X161364592Y-94995063D01*
X161600000Y-95015659D01*
X161835408Y-94995063D01*
X162063663Y-94933903D01*
X162277830Y-94834035D01*
X162471401Y-94698495D01*
X162638495Y-94531401D01*
X162768426Y-94345839D01*
X162823002Y-94302216D01*
X162892500Y-94295022D01*
X162954855Y-94326545D01*
X162971571Y-94345837D01*
X163023327Y-94419751D01*
X163101505Y-94531402D01*
X163268596Y-94698493D01*
X163268599Y-94698495D01*
X163336623Y-94746125D01*
X163380248Y-94800700D01*
X163389500Y-94847700D01*
X163389500Y-95115294D01*
X163388191Y-95133264D01*
X163384711Y-95157023D01*
X163389028Y-95206368D01*
X163389500Y-95217175D01*
X163389500Y-95222709D01*
X163389916Y-95226272D01*
X163389917Y-95226282D01*
X163393098Y-95253496D01*
X163393464Y-95257082D01*
X163400109Y-95333041D01*
X163404329Y-95352071D01*
X163404758Y-95353251D01*
X163404759Y-95353255D01*
X163430413Y-95423742D01*
X163431582Y-95427107D01*
X163455580Y-95499524D01*
X163464075Y-95517072D01*
X163505979Y-95580784D01*
X163507889Y-95583782D01*
X163531907Y-95622719D01*
X163547952Y-95648732D01*
X163560253Y-95663830D01*
X163561168Y-95664693D01*
X163561170Y-95664696D01*
X163615709Y-95716151D01*
X163618296Y-95718664D01*
X164651269Y-96751637D01*
X164663049Y-96765268D01*
X164677390Y-96784530D01*
X164715339Y-96816373D01*
X164723314Y-96823681D01*
X164727223Y-96827590D01*
X164730055Y-96829829D01*
X164730065Y-96829838D01*
X164751542Y-96846819D01*
X164754298Y-96849063D01*
X164811786Y-96897302D01*
X164811788Y-96897303D01*
X164812757Y-96898116D01*
X164829177Y-96908576D01*
X164830321Y-96909109D01*
X164830323Y-96909111D01*
X164898357Y-96940835D01*
X164901456Y-96942335D01*
X164967667Y-96975588D01*
X164969704Y-96976611D01*
X164988084Y-96982998D01*
X164989321Y-96983253D01*
X164989327Y-96983256D01*
X165062862Y-96998439D01*
X165066209Y-96999181D01*
X165139279Y-97016500D01*
X165139281Y-97016500D01*
X165140505Y-97016790D01*
X165159876Y-97018769D01*
X165161140Y-97018732D01*
X165161144Y-97018733D01*
X165236110Y-97016552D01*
X165239716Y-97016500D01*
X171640294Y-97016500D01*
X171658264Y-97017809D01*
X171662320Y-97018402D01*
X171682023Y-97021289D01*
X171731368Y-97016972D01*
X171742176Y-97016500D01*
X171744100Y-97016500D01*
X171747709Y-97016500D01*
X171778550Y-97012894D01*
X171782031Y-97012539D01*
X171856797Y-97005999D01*
X171856797Y-97005998D01*
X171858052Y-97005889D01*
X171877062Y-97001674D01*
X171878250Y-97001241D01*
X171878255Y-97001241D01*
X171948820Y-96975557D01*
X171952095Y-96974419D01*
X172023334Y-96950814D01*
X172023336Y-96950812D01*
X172024536Y-96950415D01*
X172042063Y-96941929D01*
X172043112Y-96941238D01*
X172043117Y-96941237D01*
X172105806Y-96900005D01*
X172108798Y-96898099D01*
X172172656Y-96858712D01*
X172172656Y-96858711D01*
X172173729Y-96858050D01*
X172188824Y-96845753D01*
X172189692Y-96844832D01*
X172189696Y-96844830D01*
X172241184Y-96790254D01*
X172243630Y-96787736D01*
X174221642Y-94809724D01*
X174235260Y-94797954D01*
X174254530Y-94783610D01*
X174286366Y-94745667D01*
X174293680Y-94737688D01*
X174294264Y-94737103D01*
X174297591Y-94733777D01*
X174316833Y-94709439D01*
X174319090Y-94706670D01*
X174333853Y-94689075D01*
X174367302Y-94649214D01*
X174367303Y-94649211D01*
X174368115Y-94648244D01*
X174378573Y-94631827D01*
X174379106Y-94630682D01*
X174379111Y-94630677D01*
X174410833Y-94562646D01*
X174412362Y-94559488D01*
X174446040Y-94492433D01*
X174446040Y-94492432D01*
X174446612Y-94491294D01*
X174453000Y-94472914D01*
X174453255Y-94471675D01*
X174453257Y-94471673D01*
X174468447Y-94398103D01*
X174469186Y-94394770D01*
X174486500Y-94321721D01*
X174486500Y-94321716D01*
X174486791Y-94320489D01*
X174488770Y-94301121D01*
X174488733Y-94299859D01*
X174488734Y-94299856D01*
X174486552Y-94224869D01*
X174486500Y-94221263D01*
X174486500Y-87449585D01*
X174506185Y-87382546D01*
X174558989Y-87336791D01*
X174571489Y-87331881D01*
X174680334Y-87295814D01*
X174829656Y-87203712D01*
X174953712Y-87079656D01*
X175045814Y-86930334D01*
X175100999Y-86763797D01*
X175111500Y-86661009D01*
X175111499Y-85935992D01*
X175100999Y-85833203D01*
X175045814Y-85666666D01*
X174973072Y-85548732D01*
X174953711Y-85517342D01*
X174829657Y-85393288D01*
X174680334Y-85301186D01*
X174513797Y-85246000D01*
X174414141Y-85235819D01*
X174414122Y-85235818D01*
X174411009Y-85235500D01*
X174407860Y-85235500D01*
X173064140Y-85235500D01*
X173064120Y-85235500D01*
X173060992Y-85235501D01*
X173057860Y-85235820D01*
X173057858Y-85235821D01*
X172958203Y-85246000D01*
X172791665Y-85301186D01*
X172642344Y-85393287D01*
X172576311Y-85459320D01*
X172514987Y-85492804D01*
X172445296Y-85487819D01*
X172389362Y-85445948D01*
X172383091Y-85436735D01*
X172377569Y-85427783D01*
X172355711Y-85392345D01*
X172355710Y-85392344D01*
X172355709Y-85392342D01*
X172231655Y-85268288D01*
X172082336Y-85176186D01*
X171915797Y-85121000D01*
X171816140Y-85110819D01*
X171816121Y-85110818D01*
X171813008Y-85110500D01*
X171809859Y-85110500D01*
X170587730Y-85110500D01*
X170520691Y-85090815D01*
X170500049Y-85074181D01*
X170199049Y-84773181D01*
X170165564Y-84711858D01*
X170170548Y-84642166D01*
X170212420Y-84586233D01*
X170277884Y-84561816D01*
X170286730Y-84561500D01*
X171809859Y-84561500D01*
X171813008Y-84561500D01*
X171915797Y-84550999D01*
X172082334Y-84495814D01*
X172106235Y-84481072D01*
X172231655Y-84403711D01*
X172355710Y-84279656D01*
X172356293Y-84278712D01*
X172383091Y-84235264D01*
X172435038Y-84188540D01*
X172504001Y-84177317D01*
X172568083Y-84205160D01*
X172576311Y-84212680D01*
X172642342Y-84278711D01*
X172695564Y-84311538D01*
X172791666Y-84370814D01*
X172903016Y-84407712D01*
X172958202Y-84425999D01*
X173057858Y-84436180D01*
X173057859Y-84436180D01*
X173060991Y-84436500D01*
X174411008Y-84436499D01*
X174513797Y-84425999D01*
X174680334Y-84370814D01*
X174829656Y-84278712D01*
X174953712Y-84154656D01*
X175045814Y-84005334D01*
X175100999Y-83838797D01*
X175111500Y-83736009D01*
X175111499Y-83043499D01*
X175131183Y-82976461D01*
X175183987Y-82930706D01*
X175235499Y-82919500D01*
X179514294Y-82919500D01*
X179532264Y-82920809D01*
X179536320Y-82921402D01*
X179556023Y-82924289D01*
X179605368Y-82919972D01*
X179616176Y-82919500D01*
X179618100Y-82919500D01*
X179621709Y-82919500D01*
X179652550Y-82915894D01*
X179656031Y-82915539D01*
X179730797Y-82908999D01*
X179730797Y-82908998D01*
X179732052Y-82908889D01*
X179751062Y-82904674D01*
X179752250Y-82904241D01*
X179752255Y-82904241D01*
X179822820Y-82878557D01*
X179826095Y-82877419D01*
X179897334Y-82853814D01*
X179897336Y-82853812D01*
X179898536Y-82853415D01*
X179916063Y-82844929D01*
X179917112Y-82844238D01*
X179917117Y-82844237D01*
X179979806Y-82803005D01*
X179982798Y-82801099D01*
X180046656Y-82761712D01*
X180046656Y-82761711D01*
X180047729Y-82761050D01*
X180062824Y-82748753D01*
X180063692Y-82747832D01*
X180063696Y-82747830D01*
X180115184Y-82693254D01*
X180117630Y-82690736D01*
X181145142Y-81663224D01*
X181158760Y-81651454D01*
X181178030Y-81637110D01*
X181209866Y-81599167D01*
X181217180Y-81591188D01*
X181217764Y-81590603D01*
X181221091Y-81587277D01*
X181240333Y-81562939D01*
X181242590Y-81560170D01*
X181265726Y-81532598D01*
X181290802Y-81502714D01*
X181290803Y-81502711D01*
X181291615Y-81501744D01*
X181302073Y-81485327D01*
X181302606Y-81484182D01*
X181302611Y-81484177D01*
X181334333Y-81416146D01*
X181335862Y-81412988D01*
X181369540Y-81345933D01*
X181369540Y-81345932D01*
X181370112Y-81344794D01*
X181376500Y-81326414D01*
X181376755Y-81325175D01*
X181376757Y-81325173D01*
X181391947Y-81251603D01*
X181392686Y-81248270D01*
X181410000Y-81175221D01*
X181410000Y-81175216D01*
X181410291Y-81173989D01*
X181412270Y-81154621D01*
X181412233Y-81153359D01*
X181412234Y-81153356D01*
X181410052Y-81078369D01*
X181410000Y-81074763D01*
X181410000Y-80674730D01*
X181429685Y-80607691D01*
X181446314Y-80587053D01*
X181564712Y-80468656D01*
X181656814Y-80319334D01*
X181711999Y-80152797D01*
X181722500Y-80050009D01*
X181722499Y-78699992D01*
X181711999Y-78597203D01*
X181656814Y-78430666D01*
X181564712Y-78281344D01*
X181476047Y-78192679D01*
X181442564Y-78131359D01*
X181447548Y-78061667D01*
X181476047Y-78017320D01*
X181564712Y-77928656D01*
X181656814Y-77779334D01*
X181692879Y-77670494D01*
X181732652Y-77613051D01*
X181797167Y-77586228D01*
X181810585Y-77585500D01*
X182263770Y-77585500D01*
X182330809Y-77605185D01*
X182351451Y-77621819D01*
X182662681Y-77933049D01*
X182696166Y-77994372D01*
X182699000Y-78020730D01*
X182699000Y-79853268D01*
X182679315Y-79920307D01*
X182662682Y-79940949D01*
X182544287Y-80059344D01*
X182452186Y-80208665D01*
X182397000Y-80375202D01*
X182386819Y-80474858D01*
X182386817Y-80474878D01*
X182386500Y-80477991D01*
X182386500Y-80481138D01*
X182386500Y-80481139D01*
X182386500Y-81824859D01*
X182386500Y-81824878D01*
X182386501Y-81828008D01*
X182386820Y-81831140D01*
X182386821Y-81831141D01*
X182397000Y-81930796D01*
X182452186Y-82097334D01*
X182544288Y-82246657D01*
X182668341Y-82370710D01*
X182668343Y-82370711D01*
X182668344Y-82370712D01*
X182735238Y-82411972D01*
X182787911Y-82444461D01*
X182834635Y-82496409D01*
X182845858Y-82565371D01*
X182818014Y-82629454D01*
X182787911Y-82655539D01*
X182668341Y-82729289D01*
X182544288Y-82853342D01*
X182452186Y-83002665D01*
X182397000Y-83169202D01*
X182386819Y-83268858D01*
X182386817Y-83268878D01*
X182386500Y-83271991D01*
X182386500Y-83275138D01*
X182386500Y-83275139D01*
X182386500Y-84618859D01*
X182386500Y-84618878D01*
X182386501Y-84622008D01*
X182386820Y-84625140D01*
X182386821Y-84625141D01*
X182397000Y-84724796D01*
X182452186Y-84891334D01*
X182544286Y-85040654D01*
X182544287Y-85040655D01*
X182544288Y-85040656D01*
X182668344Y-85164712D01*
X182674888Y-85168748D01*
X182721613Y-85220695D01*
X182726312Y-85231873D01*
X182733664Y-85252071D01*
X182739900Y-85269206D01*
X182741082Y-85272607D01*
X182765081Y-85345025D01*
X182773575Y-85362572D01*
X182815479Y-85426284D01*
X182817408Y-85429313D01*
X182821987Y-85436735D01*
X182863416Y-85503903D01*
X182881856Y-85571295D01*
X182860933Y-85637959D01*
X182807291Y-85682728D01*
X182737960Y-85691389D01*
X182720807Y-85687328D01*
X180511927Y-84995330D01*
X180505923Y-84993279D01*
X180338481Y-84931252D01*
X180338469Y-84931248D01*
X180335707Y-84930225D01*
X180332849Y-84929466D01*
X180332846Y-84929465D01*
X180131122Y-84875891D01*
X180125729Y-84874327D01*
X180051134Y-84850852D01*
X180033931Y-84850079D01*
X179982787Y-84836496D01*
X179982781Y-84836494D01*
X179979928Y-84835737D01*
X179977003Y-84835251D01*
X179977000Y-84835251D01*
X179748037Y-84797259D01*
X179743109Y-84796339D01*
X179675954Y-84782385D01*
X179662559Y-84783076D01*
X179619686Y-84775962D01*
X179619682Y-84775961D01*
X179616780Y-84775480D01*
X179613862Y-84775277D01*
X179613849Y-84775276D01*
X179355284Y-84757336D01*
X179350876Y-84756951D01*
X179295842Y-84751153D01*
X179286410Y-84752557D01*
X179252492Y-84750203D01*
X179252469Y-84750202D01*
X179249551Y-84750000D01*
X179246606Y-84750076D01*
X179246596Y-84750076D01*
X178955060Y-84757624D01*
X178951226Y-84757664D01*
X178914413Y-84757478D01*
X178909045Y-84758815D01*
X178884515Y-84759450D01*
X178884504Y-84759450D01*
X178881561Y-84759527D01*
X178878655Y-84759880D01*
X178878634Y-84759882D01*
X178548684Y-84800016D01*
X178545464Y-84800365D01*
X178535387Y-84801324D01*
X178534056Y-84801795D01*
X178519068Y-84803618D01*
X178519045Y-84803621D01*
X178516142Y-84803975D01*
X178513279Y-84804603D01*
X178513266Y-84804606D01*
X178159493Y-84882306D01*
X178159485Y-84882308D01*
X178156599Y-84882942D01*
X178153788Y-84883846D01*
X178153783Y-84883848D01*
X177808985Y-84994813D01*
X177808981Y-84994814D01*
X177806186Y-84995714D01*
X177803509Y-84996866D01*
X177803486Y-84996875D01*
X177470775Y-85140105D01*
X177470768Y-85140108D01*
X177468072Y-85141269D01*
X177465501Y-85142678D01*
X177465491Y-85142684D01*
X177147897Y-85316877D01*
X177147880Y-85316886D01*
X177145319Y-85318292D01*
X177142895Y-85319938D01*
X177142882Y-85319947D01*
X176843289Y-85523518D01*
X176843270Y-85523531D01*
X176840845Y-85525180D01*
X176838579Y-85527057D01*
X176838568Y-85527066D01*
X176559673Y-85758182D01*
X176557406Y-85760061D01*
X176555339Y-85762134D01*
X176555326Y-85762147D01*
X176299656Y-86018712D01*
X176299649Y-86018719D01*
X176297566Y-86020810D01*
X176295693Y-86023085D01*
X176295686Y-86023094D01*
X176078879Y-86286591D01*
X176063676Y-86305068D01*
X176062030Y-86307507D01*
X176062026Y-86307514D01*
X175859502Y-86607818D01*
X175859493Y-86607831D01*
X175857854Y-86610263D01*
X175856452Y-86612840D01*
X175856445Y-86612852D01*
X175683371Y-86931038D01*
X175683366Y-86931046D01*
X175681960Y-86933633D01*
X175680808Y-86936332D01*
X175680803Y-86936345D01*
X175674881Y-86950234D01*
X175674173Y-86951093D01*
X175670343Y-86960772D01*
X175669110Y-86963771D01*
X175538738Y-87269549D01*
X175538732Y-87269564D01*
X175537586Y-87272253D01*
X175536703Y-87275029D01*
X175536697Y-87275046D01*
X175529258Y-87298444D01*
X175526806Y-87302078D01*
X175516408Y-87338659D01*
X175515303Y-87342329D01*
X175426936Y-87620237D01*
X175426930Y-87620256D01*
X175426040Y-87623058D01*
X175425417Y-87625938D01*
X175425418Y-87625938D01*
X175418238Y-87659182D01*
X175414628Y-87665814D01*
X175404515Y-87722347D01*
X175403660Y-87726679D01*
X175348329Y-87982875D01*
X175347984Y-87985791D01*
X175347982Y-87985807D01*
X175342886Y-88028963D01*
X175338721Y-88038727D01*
X175333214Y-88110010D01*
X175332726Y-88115000D01*
X175305503Y-88345518D01*
X175305501Y-88345536D01*
X175305158Y-88348447D01*
X175305092Y-88351387D01*
X175305092Y-88351390D01*
X175303907Y-88404312D01*
X175299786Y-88417264D01*
X175301655Y-88499191D01*
X175301656Y-88504793D01*
X175296983Y-88713512D01*
X175296917Y-88716467D01*
X175297130Y-88719397D01*
X175297131Y-88719411D01*
X175309980Y-88895632D01*
X175310308Y-88904403D01*
X175320694Y-94133210D01*
X175320562Y-94139183D01*
X175312712Y-94308961D01*
X175303034Y-94505967D01*
X175301994Y-94517013D01*
X175276537Y-94699509D01*
X175249252Y-94883442D01*
X175247301Y-94893633D01*
X175204517Y-95075544D01*
X175159805Y-95254045D01*
X175157095Y-95263313D01*
X175097687Y-95440564D01*
X175096866Y-95442933D01*
X175035511Y-95614407D01*
X175032194Y-95622719D01*
X174956486Y-95794180D01*
X174955147Y-95797109D01*
X174877491Y-95961302D01*
X174873725Y-95968625D01*
X174782371Y-96132635D01*
X174780400Y-96136045D01*
X174687199Y-96291542D01*
X174683140Y-96297870D01*
X174576942Y-96452899D01*
X174574241Y-96456689D01*
X174466335Y-96602184D01*
X174462135Y-96607534D01*
X174342051Y-96752147D01*
X174338531Y-96756204D01*
X174216917Y-96890383D01*
X174212720Y-96894790D01*
X174079790Y-97027720D01*
X174075383Y-97031917D01*
X173941204Y-97153531D01*
X173937147Y-97157051D01*
X173792534Y-97277135D01*
X173787184Y-97281335D01*
X173641689Y-97389241D01*
X173637899Y-97391942D01*
X173482870Y-97498140D01*
X173476542Y-97502199D01*
X173321045Y-97595400D01*
X173317635Y-97597371D01*
X173153625Y-97688725D01*
X173146302Y-97692491D01*
X172982109Y-97770147D01*
X172979180Y-97771486D01*
X172807719Y-97847194D01*
X172799407Y-97850511D01*
X172627933Y-97911866D01*
X172625564Y-97912687D01*
X172448317Y-97972094D01*
X172439041Y-97974806D01*
X172260546Y-98019517D01*
X172078631Y-98062302D01*
X172068445Y-98064252D01*
X171884510Y-98091537D01*
X171702011Y-98116994D01*
X171690968Y-98118034D01*
X171494137Y-98127704D01*
X171324094Y-98135565D01*
X171318291Y-98135697D01*
X166806500Y-98132900D01*
X166806000Y-98132900D01*
X166621046Y-98132900D01*
X166618187Y-98133164D01*
X166618185Y-98133165D01*
X166403550Y-98153054D01*
X166398193Y-98153434D01*
X166322178Y-98157168D01*
X166306926Y-98162007D01*
X166255574Y-98166766D01*
X166255572Y-98166766D01*
X166252715Y-98167031D01*
X166249904Y-98167556D01*
X166249893Y-98167558D01*
X166007718Y-98212829D01*
X166003128Y-98213598D01*
X165941297Y-98222769D01*
X165930867Y-98227194D01*
X165891927Y-98234473D01*
X165891896Y-98234480D01*
X165889105Y-98235002D01*
X165707834Y-98286578D01*
X165613198Y-98313504D01*
X165609396Y-98314520D01*
X165568398Y-98324790D01*
X165562676Y-98327878D01*
X165533318Y-98336232D01*
X165530661Y-98337261D01*
X165530650Y-98337265D01*
X165219954Y-98457629D01*
X165216937Y-98458752D01*
X165206914Y-98462338D01*
X165205694Y-98463153D01*
X165191052Y-98468825D01*
X165191034Y-98468832D01*
X165188388Y-98469858D01*
X165185843Y-98471125D01*
X165185830Y-98471131D01*
X165049532Y-98539000D01*
X164994260Y-98552000D01*
X135661740Y-98552000D01*
X135606468Y-98539000D01*
X135470169Y-98471131D01*
X135470164Y-98471129D01*
X135467612Y-98469858D01*
X135464961Y-98468831D01*
X135464952Y-98468827D01*
X135450307Y-98463154D01*
X135449385Y-98462445D01*
X135439063Y-98458752D01*
X135436046Y-98457629D01*
X135125349Y-98337265D01*
X135125345Y-98337263D01*
X135122682Y-98336232D01*
X135093323Y-98327878D01*
X135088974Y-98325134D01*
X135046606Y-98314522D01*
X135042802Y-98313504D01*
X134769647Y-98235785D01*
X134769646Y-98235784D01*
X134766895Y-98235002D01*
X134764103Y-98234480D01*
X134764073Y-98234473D01*
X134725132Y-98227194D01*
X134717143Y-98223131D01*
X134652872Y-98213598D01*
X134648282Y-98212829D01*
X134406106Y-98167558D01*
X134406098Y-98167557D01*
X134403285Y-98167031D01*
X134398848Y-98166619D01*
X134349074Y-98162007D01*
X134337321Y-98157339D01*
X134257805Y-98153433D01*
X134252449Y-98153053D01*
X134037814Y-98133165D01*
X134037813Y-98133164D01*
X134034954Y-98132900D01*
X133850000Y-98132900D01*
X133849500Y-98132900D01*
X129346969Y-98138868D01*
X129341082Y-98138736D01*
X129171212Y-98130888D01*
X128974245Y-98121217D01*
X128963197Y-98120177D01*
X128780750Y-98094731D01*
X128596785Y-98067448D01*
X128586592Y-98065497D01*
X128404642Y-98022707D01*
X128226169Y-97978005D01*
X128216902Y-97975296D01*
X128039645Y-97915890D01*
X128037276Y-97915069D01*
X127865791Y-97853714D01*
X127857478Y-97850397D01*
X127685990Y-97774680D01*
X127683060Y-97773340D01*
X127518921Y-97695711D01*
X127511598Y-97691946D01*
X127347572Y-97600587D01*
X127344162Y-97598616D01*
X127188635Y-97505398D01*
X127182307Y-97501340D01*
X127027278Y-97395144D01*
X127023524Y-97392467D01*
X126878018Y-97284553D01*
X126872668Y-97280353D01*
X126728033Y-97160251D01*
X126723976Y-97156731D01*
X126589803Y-97035124D01*
X126585395Y-97030927D01*
X126452471Y-96898003D01*
X126448274Y-96893595D01*
X126326667Y-96759422D01*
X126323147Y-96755365D01*
X126203045Y-96610730D01*
X126198845Y-96605380D01*
X126155647Y-96547134D01*
X126090916Y-96459853D01*
X126088269Y-96456142D01*
X125982047Y-96301074D01*
X125978000Y-96294763D01*
X125884782Y-96139236D01*
X125882811Y-96135826D01*
X125861025Y-96096712D01*
X125791452Y-95971800D01*
X125787687Y-95964477D01*
X125710058Y-95800338D01*
X125708718Y-95797408D01*
X125707293Y-95794180D01*
X125632994Y-95625904D01*
X125629684Y-95617607D01*
X125617597Y-95583825D01*
X125568318Y-95446092D01*
X125567539Y-95443845D01*
X125508098Y-95266484D01*
X125505391Y-95257224D01*
X125505355Y-95257082D01*
X125460690Y-95078750D01*
X125459936Y-95075544D01*
X125417892Y-94896767D01*
X125415955Y-94886638D01*
X125388668Y-94702649D01*
X125385650Y-94681011D01*
X125363215Y-94520154D01*
X125362184Y-94509185D01*
X125352518Y-94312352D01*
X125344663Y-94142320D01*
X125344532Y-94136427D01*
X125354914Y-88908851D01*
X125355240Y-88900132D01*
X125368400Y-88719645D01*
X125363659Y-88508000D01*
X125363661Y-88502393D01*
X125365462Y-88424232D01*
X125361406Y-88407444D01*
X125361336Y-88404312D01*
X125360156Y-88351622D01*
X125332579Y-88118121D01*
X125332095Y-88113161D01*
X125326813Y-88044799D01*
X125322423Y-88032125D01*
X125316982Y-87986046D01*
X125261643Y-87729827D01*
X125260788Y-87725493D01*
X125251042Y-87671015D01*
X125247068Y-87662343D01*
X125239268Y-87626227D01*
X125149984Y-87345443D01*
X125148890Y-87341808D01*
X125138825Y-87306398D01*
X125136049Y-87301615D01*
X125128613Y-87278230D01*
X125128604Y-87278208D01*
X125127718Y-87275419D01*
X124996169Y-86966885D01*
X124994938Y-86963889D01*
X124991234Y-86954530D01*
X124990416Y-86953389D01*
X124984504Y-86939524D01*
X124984497Y-86939511D01*
X124983341Y-86936798D01*
X124837276Y-86668271D01*
X124808851Y-86616014D01*
X124808848Y-86616009D01*
X124807443Y-86613426D01*
X124601616Y-86308230D01*
X124367721Y-86023972D01*
X124235354Y-85891144D01*
X124109960Y-85765313D01*
X124109957Y-85765310D01*
X124107877Y-85763223D01*
X124016290Y-85687328D01*
X123826710Y-85530230D01*
X123826701Y-85530223D01*
X123824432Y-85528343D01*
X123821996Y-85526688D01*
X123821991Y-85526684D01*
X123522400Y-85323118D01*
X123522399Y-85323117D01*
X123519954Y-85321456D01*
X123197195Y-85144436D01*
X123180985Y-85137458D01*
X122861794Y-85000052D01*
X122861782Y-85000047D01*
X122859077Y-84998883D01*
X122856259Y-84997976D01*
X122856256Y-84997975D01*
X122511465Y-84887017D01*
X122511464Y-84887016D01*
X122508659Y-84886114D01*
X122505797Y-84885485D01*
X122505788Y-84885483D01*
X122151983Y-84807781D01*
X122151972Y-84807779D01*
X122149112Y-84807151D01*
X122146205Y-84806797D01*
X122146179Y-84806793D01*
X122131197Y-84804971D01*
X122130175Y-84804530D01*
X122119819Y-84803545D01*
X122116600Y-84803196D01*
X121786607Y-84763061D01*
X121786588Y-84763059D01*
X121783689Y-84762707D01*
X121780764Y-84762631D01*
X121780733Y-84762629D01*
X121756199Y-84761994D01*
X121752029Y-84760651D01*
X121714011Y-84760843D01*
X121710180Y-84760804D01*
X121418649Y-84753261D01*
X121418640Y-84753261D01*
X121415696Y-84753185D01*
X121378829Y-84755743D01*
X121371459Y-84754123D01*
X121314362Y-84760139D01*
X121309955Y-84760523D01*
X121051423Y-84778464D01*
X121051409Y-84778465D01*
X121048464Y-84778670D01*
X121045561Y-84779151D01*
X121045533Y-84779155D01*
X121002677Y-84786267D01*
X120992144Y-84784984D01*
X120922159Y-84799527D01*
X120917231Y-84800447D01*
X120688222Y-84838450D01*
X120688213Y-84838451D01*
X120685314Y-84838933D01*
X120682467Y-84839689D01*
X120682463Y-84839690D01*
X120631310Y-84853276D01*
X120617720Y-84852922D01*
X120539537Y-84877519D01*
X120534156Y-84879079D01*
X120344450Y-84929465D01*
X120329533Y-84933427D01*
X120326776Y-84934448D01*
X120326758Y-84934454D01*
X120159954Y-84996246D01*
X120153880Y-84998319D01*
X116752319Y-86061759D01*
X116682460Y-86062975D01*
X116623034Y-86026230D01*
X116592907Y-85963189D01*
X116601645Y-85893868D01*
X116627634Y-85855732D01*
X117772138Y-84711227D01*
X117785756Y-84699457D01*
X117805030Y-84685110D01*
X117836872Y-84647161D01*
X117844186Y-84639181D01*
X117844767Y-84638599D01*
X117848090Y-84635277D01*
X117867332Y-84610938D01*
X117869554Y-84608211D01*
X117917802Y-84550714D01*
X117917802Y-84550712D01*
X117918617Y-84549742D01*
X117929066Y-84533340D01*
X117929605Y-84532182D01*
X117929610Y-84532177D01*
X117961332Y-84464147D01*
X117962848Y-84461016D01*
X117996540Y-84393933D01*
X117996540Y-84393929D01*
X117997110Y-84392796D01*
X118003499Y-84374417D01*
X118004243Y-84370813D01*
X118018931Y-84299671D01*
X118019686Y-84296267D01*
X118037000Y-84223221D01*
X118037000Y-84223217D01*
X118037290Y-84221994D01*
X118039269Y-84202623D01*
X118039232Y-84201359D01*
X118039233Y-84201356D01*
X118037052Y-84126388D01*
X118037000Y-84122783D01*
X118037000Y-84103731D01*
X118056685Y-84036692D01*
X118073319Y-84016050D01*
X118191711Y-83897657D01*
X118191712Y-83897656D01*
X118283814Y-83748334D01*
X118338999Y-83581797D01*
X118349500Y-83479009D01*
X118349499Y-82128992D01*
X118338999Y-82026203D01*
X118283814Y-81859666D01*
X118202653Y-81728082D01*
X118191713Y-81710345D01*
X118151455Y-81670087D01*
X118103047Y-81621679D01*
X118069564Y-81560359D01*
X118074548Y-81490667D01*
X118103047Y-81446320D01*
X118191712Y-81357656D01*
X118283814Y-81208334D01*
X118319403Y-81100931D01*
X118359174Y-81043489D01*
X118423690Y-81016665D01*
X118455075Y-81017245D01*
X118469023Y-81019289D01*
X118518368Y-81014972D01*
X118529176Y-81014500D01*
X118531100Y-81014500D01*
X118534709Y-81014500D01*
X118565550Y-81010894D01*
X118569031Y-81010539D01*
X118643797Y-81003999D01*
X118643797Y-81003998D01*
X118645052Y-81003889D01*
X118664062Y-80999674D01*
X118665250Y-80999241D01*
X118665255Y-80999241D01*
X118735820Y-80973557D01*
X118739095Y-80972419D01*
X118810334Y-80948814D01*
X118810336Y-80948812D01*
X118811536Y-80948415D01*
X118829063Y-80939929D01*
X118830112Y-80939238D01*
X118830117Y-80939237D01*
X118892806Y-80898005D01*
X118895798Y-80896099D01*
X118959656Y-80856712D01*
X118959656Y-80856711D01*
X118960729Y-80856050D01*
X118975824Y-80843753D01*
X118976692Y-80842832D01*
X118976696Y-80842830D01*
X119028185Y-80788253D01*
X119030631Y-80785735D01*
X122826366Y-76990000D01*
X123907072Y-76990000D01*
X123907298Y-76994622D01*
X123922191Y-77145834D01*
X123982233Y-77343764D01*
X124079731Y-77526171D01*
X124210945Y-77686054D01*
X124370828Y-77817268D01*
X124553235Y-77914766D01*
X124707000Y-77961410D01*
X124707000Y-76990000D01*
X123907072Y-76990000D01*
X122826366Y-76990000D01*
X123763737Y-76052629D01*
X123825058Y-76019146D01*
X123894750Y-76024130D01*
G37*
%TD.AperFunction*%
%TA.AperFunction,Conductor*%
G36*
X133035703Y-92084045D02*
G01*
X133042181Y-92090077D01*
X133113599Y-92161495D01*
X133299596Y-92291732D01*
X133343219Y-92346307D01*
X133350412Y-92415806D01*
X133318890Y-92478160D01*
X133299594Y-92494881D01*
X133223626Y-92548073D01*
X133852466Y-93176913D01*
X133842685Y-93178320D01*
X133711900Y-93238048D01*
X133603239Y-93332202D01*
X133525507Y-93453156D01*
X133501923Y-93533476D01*
X132866819Y-92898372D01*
X132833334Y-92837049D01*
X132830500Y-92810691D01*
X132830500Y-92177758D01*
X132850185Y-92110719D01*
X132902989Y-92064964D01*
X132972147Y-92055020D01*
X133035703Y-92084045D01*
G37*
%TD.AperFunction*%
%TA.AperFunction,Conductor*%
G36*
X135339855Y-91789545D02*
G01*
X135356571Y-91808837D01*
X135486505Y-91994401D01*
X135653599Y-92161495D01*
X135839596Y-92291732D01*
X135883219Y-92346307D01*
X135890412Y-92415806D01*
X135858890Y-92478160D01*
X135839594Y-92494881D01*
X135763626Y-92548073D01*
X136392466Y-93176913D01*
X136382685Y-93178320D01*
X136251900Y-93238048D01*
X136143239Y-93332202D01*
X136065507Y-93453156D01*
X136041923Y-93533476D01*
X135410072Y-92901625D01*
X135410072Y-92901626D01*
X135356574Y-92978030D01*
X135301998Y-93021655D01*
X135232499Y-93028849D01*
X135170144Y-92997326D01*
X135153424Y-92978030D01*
X135099925Y-92901626D01*
X135099925Y-92901625D01*
X134468076Y-93533474D01*
X134444493Y-93453156D01*
X134366761Y-93332202D01*
X134258100Y-93238048D01*
X134127315Y-93178320D01*
X134117533Y-93176913D01*
X134746373Y-92548073D01*
X134746373Y-92548072D01*
X134670405Y-92494880D01*
X134626780Y-92440304D01*
X134619586Y-92370805D01*
X134651108Y-92308451D01*
X134670399Y-92291734D01*
X134856401Y-92161495D01*
X135023495Y-91994401D01*
X135153426Y-91808839D01*
X135208002Y-91765216D01*
X135277500Y-91758022D01*
X135339855Y-91789545D01*
G37*
%TD.AperFunction*%
%TA.AperFunction,Conductor*%
G36*
X137879855Y-91789545D02*
G01*
X137896571Y-91808837D01*
X138026505Y-91994401D01*
X138193599Y-92161495D01*
X138379160Y-92291426D01*
X138422783Y-92346002D01*
X138429976Y-92415501D01*
X138398454Y-92477855D01*
X138379158Y-92494575D01*
X138197884Y-92621505D01*
X138193595Y-92624508D01*
X138026508Y-92791595D01*
X138026505Y-92791598D01*
X138026505Y-92791599D01*
X137949465Y-92901625D01*
X137896270Y-92977595D01*
X137841693Y-93021219D01*
X137772194Y-93028412D01*
X137709840Y-92996890D01*
X137693120Y-92977595D01*
X137639925Y-92901626D01*
X137639925Y-92901625D01*
X137008076Y-93533474D01*
X136984493Y-93453156D01*
X136906761Y-93332202D01*
X136798100Y-93238048D01*
X136667315Y-93178320D01*
X136657533Y-93176913D01*
X137286373Y-92548073D01*
X137286373Y-92548072D01*
X137210405Y-92494880D01*
X137166780Y-92440304D01*
X137159586Y-92370805D01*
X137191108Y-92308451D01*
X137210399Y-92291734D01*
X137396401Y-92161495D01*
X137563495Y-91994401D01*
X137693426Y-91808839D01*
X137748002Y-91765216D01*
X137817500Y-91758022D01*
X137879855Y-91789545D01*
G37*
%TD.AperFunction*%
%TA.AperFunction,Conductor*%
G36*
X138890748Y-75192185D02*
G01*
X138936503Y-75244989D01*
X138946447Y-75314147D01*
X138942370Y-75332495D01*
X138908191Y-75445165D01*
X138893298Y-75596377D01*
X138893072Y-75601000D01*
X139697419Y-75601000D01*
X139645940Y-75656921D01*
X139599018Y-75763892D01*
X139589372Y-75880302D01*
X139618047Y-75993538D01*
X139681936Y-76091327D01*
X139774115Y-76163072D01*
X139884595Y-76201000D01*
X139972005Y-76201000D01*
X140058216Y-76186614D01*
X140160947Y-76131019D01*
X140193000Y-76096200D01*
X140193000Y-77072410D01*
X140346764Y-77025766D01*
X140529171Y-76928268D01*
X140689053Y-76797055D01*
X140746822Y-76726664D01*
X140804568Y-76687329D01*
X140874413Y-76685458D01*
X140934181Y-76721645D01*
X140938530Y-76726664D01*
X140996589Y-76797410D01*
X141032777Y-76827108D01*
X141156550Y-76928685D01*
X141339046Y-77026232D01*
X141537066Y-77086300D01*
X141743000Y-77106583D01*
X141948934Y-77086300D01*
X142146954Y-77026232D01*
X142329450Y-76928685D01*
X142489410Y-76797410D01*
X142489411Y-76797408D01*
X142492123Y-76795183D01*
X142556433Y-76767870D01*
X142625301Y-76779661D01*
X142676861Y-76826813D01*
X142688492Y-76852028D01*
X142701186Y-76890334D01*
X142701187Y-76890335D01*
X142793287Y-77039655D01*
X142881950Y-77128319D01*
X142915434Y-77189643D01*
X142910450Y-77259334D01*
X142881950Y-77303681D01*
X142793287Y-77392344D01*
X142701186Y-77541665D01*
X142646000Y-77708202D01*
X142635819Y-77807858D01*
X142635817Y-77807878D01*
X142635500Y-77810991D01*
X142635500Y-77814138D01*
X142635500Y-77814139D01*
X142635500Y-78612955D01*
X142615815Y-78679994D01*
X142563011Y-78725749D01*
X142493853Y-78735693D01*
X142446404Y-78718494D01*
X142362294Y-78666615D01*
X142195935Y-78611489D01*
X142096388Y-78601319D01*
X142090111Y-78601000D01*
X141993000Y-78601000D01*
X141993000Y-79601000D01*
X142763270Y-79601000D01*
X142830309Y-79620685D01*
X142850946Y-79637314D01*
X142884921Y-79671289D01*
X142917345Y-79703713D01*
X142975758Y-79739742D01*
X143066666Y-79795814D01*
X143136637Y-79819000D01*
X143233202Y-79850999D01*
X143332858Y-79861180D01*
X143332859Y-79861180D01*
X143335991Y-79861500D01*
X144061008Y-79861499D01*
X144163797Y-79850999D01*
X144330334Y-79795814D01*
X144479656Y-79703712D01*
X144603712Y-79579656D01*
X144695814Y-79430334D01*
X144737748Y-79303784D01*
X144777521Y-79246340D01*
X144815201Y-79230505D01*
X144813634Y-79226198D01*
X144827251Y-79221241D01*
X144827255Y-79221241D01*
X144897820Y-79195557D01*
X144901095Y-79194419D01*
X144972334Y-79170814D01*
X144972336Y-79170812D01*
X144973536Y-79170415D01*
X144991063Y-79161929D01*
X144992112Y-79161238D01*
X144992117Y-79161237D01*
X145054806Y-79120005D01*
X145057798Y-79118099D01*
X145121656Y-79078712D01*
X145121656Y-79078711D01*
X145122729Y-79078050D01*
X145137824Y-79065753D01*
X145138692Y-79064832D01*
X145138696Y-79064830D01*
X145190187Y-79010251D01*
X145192599Y-79007767D01*
X145348823Y-78851542D01*
X145410142Y-78818061D01*
X145479833Y-78823045D01*
X145535767Y-78864916D01*
X145560184Y-78930381D01*
X145560500Y-78939226D01*
X145560500Y-79157858D01*
X145560500Y-79157877D01*
X145560501Y-79161008D01*
X145560820Y-79164140D01*
X145560821Y-79164141D01*
X145571000Y-79263796D01*
X145626186Y-79430334D01*
X145718288Y-79579657D01*
X145798450Y-79659819D01*
X145831935Y-79721142D01*
X145826951Y-79790834D01*
X145798450Y-79835181D01*
X145140451Y-80493181D01*
X145079128Y-80526666D01*
X145052770Y-80529500D01*
X142916784Y-80529500D01*
X142849745Y-80509815D01*
X142803990Y-80457011D01*
X142793039Y-80399694D01*
X142793000Y-80401258D01*
X142793000Y-80399487D01*
X142792944Y-80399194D01*
X142793000Y-80398094D01*
X142793000Y-80101000D01*
X141988581Y-80101000D01*
X142040060Y-80045079D01*
X142086982Y-79938108D01*
X142096628Y-79821698D01*
X142067953Y-79708462D01*
X142004064Y-79610673D01*
X141911885Y-79538928D01*
X141801405Y-79501000D01*
X141713995Y-79501000D01*
X141627784Y-79515386D01*
X141525053Y-79570981D01*
X141493000Y-79605799D01*
X141493000Y-78601000D01*
X141395889Y-78601000D01*
X141389611Y-78601319D01*
X141290064Y-78611489D01*
X141123707Y-78666614D01*
X140974541Y-78758621D01*
X140845314Y-78887849D01*
X140783991Y-78921334D01*
X140714299Y-78916350D01*
X140678969Y-78896022D01*
X140529450Y-78773315D01*
X140529449Y-78773314D01*
X140346956Y-78675769D01*
X140346955Y-78675768D01*
X140346954Y-78675768D01*
X140245890Y-78645111D01*
X140148932Y-78615699D01*
X139943000Y-78595417D01*
X139737067Y-78615699D01*
X139539043Y-78675769D01*
X139356551Y-78773314D01*
X139196589Y-78904589D01*
X139065314Y-79064551D01*
X138967769Y-79247043D01*
X138967768Y-79247045D01*
X138967768Y-79247046D01*
X138965788Y-79253573D01*
X138907699Y-79445067D01*
X138892798Y-79596358D01*
X138892797Y-79596374D01*
X138892500Y-79599392D01*
X138892500Y-80102608D01*
X138892797Y-80105626D01*
X138892798Y-80105641D01*
X138907699Y-80256932D01*
X138929612Y-80329169D01*
X138961940Y-80435743D01*
X138967769Y-80454956D01*
X139065314Y-80637449D01*
X139072477Y-80646177D01*
X139167741Y-80762258D01*
X139195050Y-80826529D01*
X139196098Y-80835497D01*
X139196464Y-80839082D01*
X139203109Y-80915041D01*
X139207329Y-80934071D01*
X139207758Y-80935251D01*
X139207759Y-80935255D01*
X139233413Y-81005742D01*
X139234582Y-81009107D01*
X139258580Y-81081524D01*
X139267075Y-81099072D01*
X139308979Y-81162784D01*
X139310889Y-81165782D01*
X139350288Y-81229656D01*
X139350952Y-81230732D01*
X139363253Y-81245830D01*
X139364168Y-81246693D01*
X139364170Y-81246696D01*
X139413064Y-81292825D01*
X139418708Y-81298150D01*
X139421295Y-81300663D01*
X139886269Y-81765637D01*
X139898051Y-81779270D01*
X139912390Y-81798531D01*
X139950338Y-81830373D01*
X139958313Y-81837681D01*
X139962223Y-81841591D01*
X139986556Y-81860830D01*
X139989335Y-81863095D01*
X140047752Y-81912113D01*
X140064179Y-81922578D01*
X140133320Y-81954819D01*
X140136567Y-81956391D01*
X140204699Y-81990609D01*
X140223087Y-81997000D01*
X140224323Y-81997255D01*
X140224327Y-81997257D01*
X140297895Y-82012447D01*
X140301242Y-82013189D01*
X140374279Y-82030500D01*
X140374281Y-82030500D01*
X140375509Y-82030791D01*
X140394878Y-82032770D01*
X140396140Y-82032733D01*
X140396144Y-82032734D01*
X140468533Y-82030627D01*
X140471131Y-82030552D01*
X140474737Y-82030500D01*
X141701154Y-82030500D01*
X141768193Y-82050185D01*
X141813948Y-82102989D01*
X141823892Y-82172147D01*
X141794867Y-82235703D01*
X141766251Y-82260038D01*
X141712345Y-82293287D01*
X141588288Y-82417344D01*
X141496186Y-82566663D01*
X141441000Y-82733202D01*
X141430819Y-82832859D01*
X141430817Y-82832879D01*
X141430500Y-82835992D01*
X141430500Y-83861008D01*
X141430818Y-83864121D01*
X141430819Y-83864140D01*
X141441000Y-83963797D01*
X141469399Y-84049496D01*
X141471801Y-84119324D01*
X141436069Y-84179366D01*
X141373549Y-84210559D01*
X141351693Y-84212500D01*
X141104207Y-84212500D01*
X141037168Y-84192815D01*
X140991413Y-84140011D01*
X140981469Y-84070853D01*
X140998666Y-84023407D01*
X141009814Y-84005334D01*
X141064999Y-83838797D01*
X141075500Y-83736009D01*
X141075499Y-83010992D01*
X141064999Y-82908203D01*
X141009814Y-82741666D01*
X140945371Y-82637186D01*
X140917711Y-82592342D01*
X140793657Y-82468288D01*
X140644334Y-82376186D01*
X140477797Y-82321000D01*
X140378141Y-82310819D01*
X140378122Y-82310818D01*
X140375009Y-82310500D01*
X140371860Y-82310500D01*
X139028140Y-82310500D01*
X139028120Y-82310500D01*
X139024992Y-82310501D01*
X139021860Y-82310820D01*
X139021858Y-82310821D01*
X138922203Y-82321000D01*
X138755665Y-82376186D01*
X138606342Y-82468288D01*
X138559385Y-82515245D01*
X138498062Y-82548729D01*
X138428370Y-82543744D01*
X138372437Y-82501873D01*
X138366167Y-82492660D01*
X138319711Y-82417344D01*
X138195655Y-82293288D01*
X138046336Y-82201186D01*
X137879797Y-82146000D01*
X137780140Y-82135819D01*
X137780121Y-82135818D01*
X137777008Y-82135500D01*
X135526992Y-82135500D01*
X135523879Y-82135817D01*
X135523859Y-82135819D01*
X135424202Y-82146000D01*
X135257663Y-82201186D01*
X135108344Y-82293288D01*
X134984288Y-82417344D01*
X134892186Y-82566663D01*
X134837000Y-82733202D01*
X134826819Y-82832859D01*
X134826817Y-82832879D01*
X134826500Y-82835992D01*
X134826500Y-83861008D01*
X134826818Y-83864121D01*
X134826819Y-83864140D01*
X134837000Y-83963797D01*
X134865399Y-84049496D01*
X134867801Y-84119324D01*
X134832069Y-84179366D01*
X134769549Y-84210559D01*
X134747693Y-84212500D01*
X134500207Y-84212500D01*
X134433168Y-84192815D01*
X134387413Y-84140011D01*
X134377469Y-84070853D01*
X134394666Y-84023407D01*
X134405814Y-84005334D01*
X134460999Y-83838797D01*
X134471500Y-83736009D01*
X134471499Y-83010992D01*
X134460999Y-82908203D01*
X134405814Y-82741666D01*
X134341371Y-82637186D01*
X134313711Y-82592342D01*
X134189657Y-82468288D01*
X134040334Y-82376186D01*
X133873797Y-82321000D01*
X133774141Y-82310819D01*
X133774122Y-82310818D01*
X133771009Y-82310500D01*
X133767860Y-82310500D01*
X132424140Y-82310500D01*
X132424120Y-82310500D01*
X132420992Y-82310501D01*
X132417860Y-82310820D01*
X132417858Y-82310821D01*
X132318203Y-82321000D01*
X132151665Y-82376186D01*
X132002342Y-82468288D01*
X131955385Y-82515245D01*
X131894062Y-82548729D01*
X131824370Y-82543744D01*
X131768437Y-82501873D01*
X131762167Y-82492660D01*
X131715711Y-82417344D01*
X131591655Y-82293288D01*
X131442336Y-82201186D01*
X131275797Y-82146000D01*
X131176140Y-82135819D01*
X131176121Y-82135818D01*
X131173008Y-82135500D01*
X131169859Y-82135500D01*
X130237730Y-82135500D01*
X130170691Y-82115815D01*
X130124936Y-82063011D01*
X130114992Y-81993853D01*
X130144017Y-81930297D01*
X130150049Y-81923819D01*
X131287048Y-80786818D01*
X131348371Y-80753333D01*
X131374729Y-80750499D01*
X131996859Y-80750499D01*
X132000008Y-80750499D01*
X132102797Y-80739999D01*
X132269334Y-80684814D01*
X132418656Y-80592712D01*
X132542712Y-80468656D01*
X132634814Y-80319334D01*
X132689999Y-80152797D01*
X132700500Y-80050009D01*
X132700499Y-78699992D01*
X132689999Y-78597203D01*
X132634814Y-78430666D01*
X132542712Y-78281344D01*
X132454047Y-78192679D01*
X132420564Y-78131359D01*
X132425548Y-78061667D01*
X132454047Y-78017320D01*
X132542712Y-77928656D01*
X132634814Y-77779334D01*
X132689999Y-77612797D01*
X132700500Y-77510009D01*
X132700499Y-76884728D01*
X132720183Y-76817690D01*
X132736813Y-76797053D01*
X133432866Y-76101000D01*
X138893072Y-76101000D01*
X138893298Y-76105622D01*
X138908191Y-76256834D01*
X138968233Y-76454764D01*
X139065731Y-76637171D01*
X139196945Y-76797054D01*
X139356828Y-76928268D01*
X139539235Y-77025766D01*
X139693000Y-77072410D01*
X139693000Y-76101000D01*
X138893072Y-76101000D01*
X133432866Y-76101000D01*
X134325048Y-75208819D01*
X134386371Y-75175334D01*
X134412729Y-75172500D01*
X138823709Y-75172500D01*
X138890748Y-75192185D01*
G37*
%TD.AperFunction*%
%TA.AperFunction,Conductor*%
G36*
X148415748Y-75192185D02*
G01*
X148461503Y-75244989D01*
X148471447Y-75314147D01*
X148467370Y-75332495D01*
X148433191Y-75445165D01*
X148418298Y-75596377D01*
X148418072Y-75601000D01*
X149222419Y-75601000D01*
X149170940Y-75656921D01*
X149124018Y-75763892D01*
X149114372Y-75880302D01*
X149143047Y-75993538D01*
X149206936Y-76091327D01*
X149299115Y-76163072D01*
X149409595Y-76201000D01*
X149497005Y-76201000D01*
X149583216Y-76186614D01*
X149685947Y-76131019D01*
X149718000Y-76096200D01*
X149718000Y-77072410D01*
X149871764Y-77025766D01*
X150054171Y-76928268D01*
X150214053Y-76797055D01*
X150271822Y-76726664D01*
X150329568Y-76687329D01*
X150399413Y-76685458D01*
X150459181Y-76721645D01*
X150463530Y-76726664D01*
X150521589Y-76797410D01*
X150557777Y-76827108D01*
X150681550Y-76928685D01*
X150864046Y-77026232D01*
X151062066Y-77086300D01*
X151268000Y-77106583D01*
X151473934Y-77086300D01*
X151671954Y-77026232D01*
X151854450Y-76928685D01*
X152014410Y-76797410D01*
X152014411Y-76797408D01*
X152017123Y-76795183D01*
X152081433Y-76767870D01*
X152150301Y-76779661D01*
X152201861Y-76826813D01*
X152213492Y-76852028D01*
X152226186Y-76890334D01*
X152226187Y-76890335D01*
X152318286Y-77039654D01*
X152318287Y-77039655D01*
X152318288Y-77039656D01*
X152406951Y-77128319D01*
X152440435Y-77189640D01*
X152435451Y-77259332D01*
X152406951Y-77303680D01*
X152318287Y-77392344D01*
X152226186Y-77541665D01*
X152171000Y-77708202D01*
X152160819Y-77807858D01*
X152160817Y-77807878D01*
X152160500Y-77810991D01*
X152160500Y-77814138D01*
X152160500Y-77814139D01*
X152160500Y-78612955D01*
X152140815Y-78679994D01*
X152088011Y-78725749D01*
X152018853Y-78735693D01*
X151971404Y-78718494D01*
X151887294Y-78666615D01*
X151720935Y-78611489D01*
X151621388Y-78601319D01*
X151615111Y-78601000D01*
X151518000Y-78601000D01*
X151518000Y-79601000D01*
X152288270Y-79601000D01*
X152355309Y-79620685D01*
X152375946Y-79637314D01*
X152409921Y-79671289D01*
X152442345Y-79703713D01*
X152500758Y-79739742D01*
X152591666Y-79795814D01*
X152661637Y-79819000D01*
X152758202Y-79850999D01*
X152857858Y-79861180D01*
X152857859Y-79861180D01*
X152860991Y-79861500D01*
X153586008Y-79861499D01*
X153688797Y-79850999D01*
X153855334Y-79795814D01*
X154004656Y-79703712D01*
X154128712Y-79579656D01*
X154220814Y-79430334D01*
X154275999Y-79263797D01*
X154282118Y-79203892D01*
X154308515Y-79139200D01*
X154340381Y-79110955D01*
X154355154Y-79101843D01*
X154392656Y-79078712D01*
X154392656Y-79078711D01*
X154393729Y-79078050D01*
X154408824Y-79065753D01*
X154409692Y-79064832D01*
X154409696Y-79064830D01*
X154461184Y-79010254D01*
X154463630Y-79007736D01*
X154873821Y-78597545D01*
X154935142Y-78564062D01*
X155004834Y-78569046D01*
X155060767Y-78610918D01*
X155085184Y-78676382D01*
X155085500Y-78685228D01*
X155085500Y-79157858D01*
X155085500Y-79157877D01*
X155085501Y-79161008D01*
X155085820Y-79164140D01*
X155085821Y-79164141D01*
X155096000Y-79263796D01*
X155151186Y-79430334D01*
X155222980Y-79546732D01*
X155241420Y-79614124D01*
X155220497Y-79680788D01*
X155205122Y-79699509D01*
X154411451Y-80493181D01*
X154350128Y-80526666D01*
X154323770Y-80529500D01*
X152441784Y-80529500D01*
X152374745Y-80509815D01*
X152328990Y-80457011D01*
X152318039Y-80399694D01*
X152318000Y-80401258D01*
X152318000Y-80399487D01*
X152317944Y-80399194D01*
X152318000Y-80398094D01*
X152318000Y-80101000D01*
X151513581Y-80101000D01*
X151565060Y-80045079D01*
X151611982Y-79938108D01*
X151621628Y-79821698D01*
X151592953Y-79708462D01*
X151529064Y-79610673D01*
X151436885Y-79538928D01*
X151326405Y-79501000D01*
X151238995Y-79501000D01*
X151152784Y-79515386D01*
X151050053Y-79570981D01*
X151018000Y-79605799D01*
X151018000Y-78601000D01*
X150920889Y-78601000D01*
X150914611Y-78601319D01*
X150815064Y-78611489D01*
X150648707Y-78666614D01*
X150499541Y-78758621D01*
X150370314Y-78887849D01*
X150308991Y-78921334D01*
X150239299Y-78916350D01*
X150203969Y-78896022D01*
X150054450Y-78773315D01*
X150054449Y-78773314D01*
X149871956Y-78675769D01*
X149871955Y-78675768D01*
X149871954Y-78675768D01*
X149770890Y-78645111D01*
X149673932Y-78615699D01*
X149486123Y-78597202D01*
X149468000Y-78595417D01*
X149467999Y-78595417D01*
X149262067Y-78615699D01*
X149064043Y-78675769D01*
X148881551Y-78773314D01*
X148721589Y-78904589D01*
X148590314Y-79064551D01*
X148492769Y-79247043D01*
X148492768Y-79247045D01*
X148492768Y-79247046D01*
X148490788Y-79253573D01*
X148432699Y-79445067D01*
X148417798Y-79596358D01*
X148417797Y-79596374D01*
X148417500Y-79599392D01*
X148417500Y-80102608D01*
X148417797Y-80105626D01*
X148417798Y-80105641D01*
X148432699Y-80256932D01*
X148454612Y-80329169D01*
X148486940Y-80435743D01*
X148492769Y-80454956D01*
X148590314Y-80637449D01*
X148597477Y-80646177D01*
X148692741Y-80762258D01*
X148720050Y-80826529D01*
X148721098Y-80835497D01*
X148721464Y-80839082D01*
X148728109Y-80915041D01*
X148732329Y-80934071D01*
X148732758Y-80935251D01*
X148732759Y-80935255D01*
X148758413Y-81005742D01*
X148759582Y-81009107D01*
X148783580Y-81081524D01*
X148792075Y-81099072D01*
X148833979Y-81162784D01*
X148835889Y-81165782D01*
X148875288Y-81229656D01*
X148875952Y-81230732D01*
X148888253Y-81245830D01*
X148889168Y-81246693D01*
X148889170Y-81246696D01*
X148938064Y-81292825D01*
X148943708Y-81298150D01*
X148946295Y-81300663D01*
X149411269Y-81765637D01*
X149423051Y-81779270D01*
X149437390Y-81798531D01*
X149475338Y-81830373D01*
X149483313Y-81837681D01*
X149487223Y-81841591D01*
X149511556Y-81860830D01*
X149514334Y-81863094D01*
X149525796Y-81872712D01*
X149552005Y-81894704D01*
X149577993Y-81916510D01*
X149616696Y-81974682D01*
X149617805Y-82044542D01*
X149580968Y-82103913D01*
X149517880Y-82133942D01*
X149498288Y-82135500D01*
X149242992Y-82135500D01*
X149239879Y-82135817D01*
X149239859Y-82135819D01*
X149140202Y-82146000D01*
X148973663Y-82201186D01*
X148824344Y-82293288D01*
X148700288Y-82417344D01*
X148608186Y-82566663D01*
X148553000Y-82733202D01*
X148542819Y-82832859D01*
X148542817Y-82832879D01*
X148542500Y-82835992D01*
X148542500Y-83861008D01*
X148542818Y-83864121D01*
X148542819Y-83864140D01*
X148553000Y-83963797D01*
X148581399Y-84049496D01*
X148583801Y-84119324D01*
X148548069Y-84179366D01*
X148485549Y-84210559D01*
X148463693Y-84212500D01*
X147708207Y-84212500D01*
X147641168Y-84192815D01*
X147595413Y-84140011D01*
X147585469Y-84070853D01*
X147602666Y-84023407D01*
X147613814Y-84005334D01*
X147668999Y-83838797D01*
X147679500Y-83736009D01*
X147679499Y-83010992D01*
X147668999Y-82908203D01*
X147613814Y-82741666D01*
X147549371Y-82637186D01*
X147521711Y-82592342D01*
X147397657Y-82468288D01*
X147248334Y-82376186D01*
X147081797Y-82321000D01*
X146982141Y-82310819D01*
X146982122Y-82310818D01*
X146979009Y-82310500D01*
X146975860Y-82310500D01*
X145632140Y-82310500D01*
X145632120Y-82310500D01*
X145628992Y-82310501D01*
X145625860Y-82310820D01*
X145625858Y-82310821D01*
X145526203Y-82321000D01*
X145359665Y-82376186D01*
X145210342Y-82468288D01*
X145163385Y-82515245D01*
X145102062Y-82548729D01*
X145032370Y-82543744D01*
X144976437Y-82501873D01*
X144970167Y-82492660D01*
X144923711Y-82417344D01*
X144799654Y-82293287D01*
X144745749Y-82260038D01*
X144699024Y-82208090D01*
X144687803Y-82139127D01*
X144715646Y-82075045D01*
X144773715Y-82036190D01*
X144810846Y-82030500D01*
X145351294Y-82030500D01*
X145369264Y-82031809D01*
X145373320Y-82032402D01*
X145393023Y-82035289D01*
X145442368Y-82030972D01*
X145453176Y-82030500D01*
X145455100Y-82030500D01*
X145458709Y-82030500D01*
X145489550Y-82026894D01*
X145493031Y-82026539D01*
X145567797Y-82019999D01*
X145567797Y-82019998D01*
X145569052Y-82019889D01*
X145588062Y-82015674D01*
X145589250Y-82015241D01*
X145589255Y-82015241D01*
X145659820Y-81989557D01*
X145663095Y-81988419D01*
X145734334Y-81964814D01*
X145734336Y-81964812D01*
X145735536Y-81964415D01*
X145753063Y-81955929D01*
X145754112Y-81955238D01*
X145754117Y-81955237D01*
X145816806Y-81914005D01*
X145819798Y-81912099D01*
X145883656Y-81872712D01*
X145883656Y-81872711D01*
X145884729Y-81872050D01*
X145899824Y-81859753D01*
X145900692Y-81858832D01*
X145900696Y-81858830D01*
X145952185Y-81804253D01*
X145954631Y-81801735D01*
X147079324Y-80677041D01*
X147098860Y-80661127D01*
X147109196Y-80654330D01*
X147116891Y-80646173D01*
X147133034Y-80631806D01*
X147142030Y-80625110D01*
X147182067Y-80577393D01*
X147186833Y-80572037D01*
X147229592Y-80526718D01*
X147235199Y-80517004D01*
X147247597Y-80499300D01*
X147254802Y-80490714D01*
X147282755Y-80435051D01*
X147286169Y-80428721D01*
X147291085Y-80420207D01*
X147317312Y-80374781D01*
X147320528Y-80364035D01*
X147328510Y-80343948D01*
X147333540Y-80333933D01*
X147347905Y-80273320D01*
X147349771Y-80266360D01*
X147352594Y-80256932D01*
X147367630Y-80206710D01*
X147368281Y-80195509D01*
X147371416Y-80174120D01*
X147374000Y-80163220D01*
X147374000Y-80100944D01*
X147374210Y-80093733D01*
X147375169Y-80077277D01*
X147377831Y-80031565D01*
X147375883Y-80020522D01*
X147374000Y-79998990D01*
X147374000Y-79785731D01*
X147393685Y-79718692D01*
X147410319Y-79698050D01*
X147528711Y-79579657D01*
X147528712Y-79579656D01*
X147620814Y-79430334D01*
X147675999Y-79263797D01*
X147686500Y-79161009D01*
X147686499Y-77810992D01*
X147675999Y-77708203D01*
X147620814Y-77541666D01*
X147528712Y-77392344D01*
X147528711Y-77392342D01*
X147440049Y-77303680D01*
X147406564Y-77242357D01*
X147411548Y-77172665D01*
X147440048Y-77128319D01*
X147528712Y-77039656D01*
X147620814Y-76890334D01*
X147675999Y-76723797D01*
X147686500Y-76621009D01*
X147686499Y-76101000D01*
X148418072Y-76101000D01*
X148418298Y-76105622D01*
X148433191Y-76256834D01*
X148493233Y-76454764D01*
X148590731Y-76637171D01*
X148721945Y-76797054D01*
X148881828Y-76928268D01*
X149064235Y-77025766D01*
X149218000Y-77072410D01*
X149218000Y-76101000D01*
X148418072Y-76101000D01*
X147686499Y-76101000D01*
X147686499Y-75676228D01*
X147706183Y-75609190D01*
X147722813Y-75588553D01*
X148102548Y-75208819D01*
X148163871Y-75175334D01*
X148190229Y-75172500D01*
X148348709Y-75172500D01*
X148415748Y-75192185D01*
G37*
%TD.AperFunction*%
%TA.AperFunction,Conductor*%
G36*
X176742809Y-75192185D02*
G01*
X176763451Y-75208819D01*
X176977642Y-75423010D01*
X177011127Y-75484333D01*
X177006143Y-75554025D01*
X176964271Y-75609958D01*
X176955063Y-75616227D01*
X176953342Y-75617288D01*
X176829287Y-75741343D01*
X176771691Y-75834721D01*
X176719743Y-75881446D01*
X176650781Y-75892667D01*
X176586699Y-75864824D01*
X176570299Y-75848288D01*
X176525410Y-75793589D01*
X176382404Y-75676229D01*
X176365450Y-75662315D01*
X176194578Y-75570981D01*
X176182956Y-75564769D01*
X176182955Y-75564768D01*
X176182954Y-75564768D01*
X176065170Y-75529039D01*
X175984932Y-75504699D01*
X175779000Y-75484417D01*
X175573067Y-75504699D01*
X175375043Y-75564769D01*
X175192551Y-75662314D01*
X175032588Y-75793590D01*
X174974529Y-75864336D01*
X174916783Y-75903670D01*
X174846939Y-75905541D01*
X174787170Y-75869353D01*
X174782823Y-75864336D01*
X174725054Y-75793945D01*
X174565170Y-75662731D01*
X174382762Y-75565231D01*
X174229000Y-75518587D01*
X174229000Y-76491061D01*
X174147885Y-76427928D01*
X174037405Y-76390000D01*
X173949995Y-76390000D01*
X173863784Y-76404386D01*
X173761053Y-76459981D01*
X173681940Y-76545921D01*
X173635018Y-76652892D01*
X173625372Y-76769302D01*
X173654047Y-76882538D01*
X173717936Y-76980327D01*
X173810115Y-77052072D01*
X173920595Y-77090000D01*
X174008005Y-77090000D01*
X174094216Y-77075614D01*
X174196947Y-77020019D01*
X174229000Y-76985200D01*
X174229000Y-77961410D01*
X174382764Y-77914766D01*
X174565171Y-77817268D01*
X174725053Y-77686055D01*
X174782822Y-77615664D01*
X174840568Y-77576329D01*
X174910413Y-77574458D01*
X174970181Y-77610645D01*
X174974530Y-77615664D01*
X175032589Y-77686410D01*
X175099146Y-77741031D01*
X175192550Y-77817685D01*
X175375046Y-77915232D01*
X175573066Y-77975300D01*
X175779000Y-77995583D01*
X175984934Y-77975300D01*
X176182954Y-77915232D01*
X176365450Y-77817685D01*
X176525410Y-77686410D01*
X176525411Y-77686408D01*
X176528123Y-77684183D01*
X176592433Y-77656870D01*
X176661301Y-77668661D01*
X176712861Y-77715813D01*
X176724492Y-77741028D01*
X176737186Y-77779334D01*
X176760584Y-77817268D01*
X176829288Y-77928657D01*
X176917950Y-78017319D01*
X176951435Y-78078642D01*
X176946451Y-78148334D01*
X176917950Y-78192681D01*
X176829288Y-78281342D01*
X176737186Y-78430665D01*
X176682000Y-78597202D01*
X176671819Y-78696858D01*
X176671817Y-78696878D01*
X176671500Y-78699991D01*
X176671500Y-78703138D01*
X176671500Y-78703139D01*
X176671500Y-79501955D01*
X176651815Y-79568994D01*
X176599011Y-79614749D01*
X176529853Y-79624693D01*
X176482404Y-79607494D01*
X176398294Y-79555615D01*
X176231935Y-79500489D01*
X176132388Y-79490319D01*
X176126111Y-79490000D01*
X176029000Y-79490000D01*
X176029000Y-80490000D01*
X176799270Y-80490000D01*
X176866309Y-80509685D01*
X176886946Y-80526314D01*
X176926917Y-80566285D01*
X176953345Y-80592713D01*
X176969425Y-80602631D01*
X177102666Y-80684814D01*
X177214016Y-80721712D01*
X177269202Y-80739999D01*
X177368858Y-80750180D01*
X177368859Y-80750180D01*
X177371991Y-80750500D01*
X178097008Y-80750499D01*
X178199797Y-80739999D01*
X178366334Y-80684814D01*
X178515656Y-80592712D01*
X178639712Y-80468656D01*
X178731814Y-80319334D01*
X178786999Y-80152797D01*
X178786999Y-80152796D01*
X178790387Y-80142573D01*
X178830160Y-80085128D01*
X178869089Y-80063871D01*
X178881334Y-80059814D01*
X178881336Y-80059812D01*
X178882536Y-80059415D01*
X178900063Y-80050929D01*
X178901112Y-80050238D01*
X178901117Y-80050237D01*
X178963806Y-80009005D01*
X178966798Y-80007099D01*
X179030656Y-79967712D01*
X179030656Y-79967711D01*
X179031729Y-79967050D01*
X179046824Y-79954753D01*
X179047692Y-79953832D01*
X179047696Y-79953830D01*
X179099186Y-79899252D01*
X179101632Y-79896734D01*
X179384822Y-79613544D01*
X179446142Y-79580061D01*
X179515833Y-79585045D01*
X179571767Y-79626916D01*
X179596184Y-79692381D01*
X179596500Y-79701227D01*
X179596500Y-80046858D01*
X179596500Y-80046877D01*
X179596501Y-80050008D01*
X179596820Y-80053140D01*
X179596821Y-80053141D01*
X179607000Y-80152796D01*
X179662186Y-80319334D01*
X179754288Y-80468657D01*
X179872681Y-80587050D01*
X179906166Y-80648373D01*
X179909000Y-80674731D01*
X179909000Y-80725270D01*
X179889315Y-80792309D01*
X179872681Y-80812951D01*
X179303451Y-81382181D01*
X179242128Y-81415666D01*
X179215770Y-81418500D01*
X176952784Y-81418500D01*
X176885745Y-81398815D01*
X176839990Y-81346011D01*
X176829039Y-81288694D01*
X176829000Y-81290258D01*
X176829000Y-81288487D01*
X176828944Y-81288194D01*
X176829000Y-81287094D01*
X176829000Y-80990000D01*
X176024581Y-80990000D01*
X176076060Y-80934079D01*
X176122982Y-80827108D01*
X176132628Y-80710698D01*
X176103953Y-80597462D01*
X176040064Y-80499673D01*
X175947885Y-80427928D01*
X175837405Y-80390000D01*
X175749995Y-80390000D01*
X175663784Y-80404386D01*
X175561053Y-80459981D01*
X175529000Y-80494799D01*
X175529000Y-79490000D01*
X175431889Y-79490000D01*
X175425611Y-79490319D01*
X175326064Y-79500489D01*
X175159707Y-79555614D01*
X175010541Y-79647621D01*
X174881314Y-79776849D01*
X174819991Y-79810334D01*
X174750299Y-79805350D01*
X174714969Y-79785022D01*
X174587960Y-79680788D01*
X174565449Y-79662314D01*
X174382956Y-79564769D01*
X174382955Y-79564768D01*
X174382954Y-79564768D01*
X174264247Y-79528759D01*
X174184932Y-79504699D01*
X173997133Y-79486203D01*
X173979000Y-79484417D01*
X173978999Y-79484417D01*
X173773067Y-79504699D01*
X173575043Y-79564769D01*
X173392551Y-79662314D01*
X173232589Y-79793589D01*
X173101314Y-79953551D01*
X173003769Y-80136043D01*
X173003768Y-80136045D01*
X173003768Y-80136046D01*
X173001183Y-80144569D01*
X172943699Y-80334067D01*
X172928798Y-80485358D01*
X172928797Y-80485374D01*
X172928500Y-80488392D01*
X172928500Y-80991608D01*
X172928797Y-80994626D01*
X172928798Y-80994641D01*
X172943699Y-81145932D01*
X172973734Y-81244944D01*
X172998447Y-81326414D01*
X173003769Y-81343956D01*
X173101314Y-81526449D01*
X173106360Y-81532598D01*
X173203741Y-81651258D01*
X173231050Y-81715529D01*
X173232098Y-81724497D01*
X173232464Y-81728082D01*
X173239109Y-81804041D01*
X173243329Y-81823071D01*
X173243758Y-81824251D01*
X173243759Y-81824255D01*
X173269413Y-81894742D01*
X173270582Y-81898107D01*
X173294580Y-81970524D01*
X173303075Y-81988072D01*
X173344979Y-82051784D01*
X173346908Y-82054813D01*
X173351751Y-82062663D01*
X173387982Y-82121404D01*
X173406422Y-82188796D01*
X173385499Y-82255460D01*
X173331857Y-82300229D01*
X173282444Y-82310500D01*
X173064141Y-82310500D01*
X173064121Y-82310500D01*
X173060992Y-82310501D01*
X173057860Y-82310820D01*
X173057858Y-82310821D01*
X172958203Y-82321000D01*
X172791665Y-82376186D01*
X172642342Y-82468288D01*
X172595385Y-82515245D01*
X172534062Y-82548729D01*
X172464370Y-82543744D01*
X172408437Y-82501873D01*
X172402167Y-82492660D01*
X172355711Y-82417344D01*
X172231655Y-82293288D01*
X172082336Y-82201186D01*
X171915797Y-82146000D01*
X171816140Y-82135819D01*
X171816121Y-82135818D01*
X171813008Y-82135500D01*
X169562992Y-82135500D01*
X169559879Y-82135817D01*
X169559859Y-82135819D01*
X169460202Y-82146000D01*
X169293663Y-82201186D01*
X169144344Y-82293288D01*
X169020288Y-82417344D01*
X168928186Y-82566663D01*
X168873000Y-82733202D01*
X168862819Y-82832859D01*
X168862817Y-82832879D01*
X168862500Y-82835992D01*
X168862500Y-83861008D01*
X168862818Y-83864121D01*
X168862819Y-83864140D01*
X168873000Y-83963797D01*
X168901399Y-84049496D01*
X168903801Y-84119324D01*
X168868069Y-84179366D01*
X168805549Y-84210559D01*
X168783693Y-84212500D01*
X168536207Y-84212500D01*
X168469168Y-84192815D01*
X168423413Y-84140011D01*
X168413469Y-84070853D01*
X168430666Y-84023407D01*
X168441814Y-84005334D01*
X168496999Y-83838797D01*
X168507500Y-83736009D01*
X168507499Y-83010992D01*
X168496999Y-82908203D01*
X168441814Y-82741666D01*
X168377371Y-82637186D01*
X168349711Y-82592342D01*
X168225657Y-82468288D01*
X168076334Y-82376186D01*
X167909797Y-82321000D01*
X167810141Y-82310819D01*
X167810122Y-82310818D01*
X167807009Y-82310500D01*
X167803860Y-82310500D01*
X166460140Y-82310500D01*
X166460120Y-82310500D01*
X166456992Y-82310501D01*
X166453860Y-82310820D01*
X166453858Y-82310821D01*
X166354203Y-82321000D01*
X166187665Y-82376186D01*
X166038342Y-82468288D01*
X165991385Y-82515245D01*
X165930062Y-82548729D01*
X165860370Y-82543744D01*
X165804437Y-82501873D01*
X165798167Y-82492660D01*
X165751711Y-82417344D01*
X165627655Y-82293288D01*
X165478336Y-82201186D01*
X165311797Y-82146000D01*
X165212140Y-82135819D01*
X165212121Y-82135818D01*
X165209008Y-82135500D01*
X164690846Y-82135500D01*
X164623807Y-82115815D01*
X164578052Y-82063011D01*
X164568108Y-81993853D01*
X164597133Y-81930297D01*
X164625750Y-81905961D01*
X164679656Y-81872712D01*
X164679656Y-81872711D01*
X164680729Y-81872050D01*
X164695824Y-81859753D01*
X164696692Y-81858832D01*
X164696696Y-81858830D01*
X164748185Y-81804253D01*
X164750631Y-81801735D01*
X166159138Y-80393227D01*
X166172756Y-80381457D01*
X166192030Y-80367110D01*
X166223872Y-80329161D01*
X166231186Y-80321181D01*
X166231767Y-80320599D01*
X166235090Y-80317277D01*
X166254337Y-80292933D01*
X166256531Y-80290238D01*
X166304802Y-80232714D01*
X166304803Y-80232710D01*
X166305619Y-80231739D01*
X166316075Y-80215325D01*
X166316609Y-80214179D01*
X166316611Y-80214177D01*
X166348316Y-80146182D01*
X166349869Y-80142975D01*
X166383540Y-80075933D01*
X166383540Y-80075929D01*
X166384110Y-80074796D01*
X166390499Y-80056417D01*
X166390995Y-80054016D01*
X166405931Y-79981671D01*
X166406686Y-79978267D01*
X166424000Y-79905221D01*
X166424000Y-79905217D01*
X166424290Y-79903994D01*
X166426269Y-79884623D01*
X166426232Y-79883359D01*
X166426233Y-79883356D01*
X166424109Y-79810334D01*
X166424052Y-79808388D01*
X166424000Y-79804783D01*
X166424000Y-79785731D01*
X166443685Y-79718692D01*
X166460319Y-79698050D01*
X166578711Y-79579657D01*
X166578712Y-79579656D01*
X166670814Y-79430334D01*
X166725999Y-79263797D01*
X166736500Y-79161009D01*
X166736499Y-77810992D01*
X166725999Y-77708203D01*
X166670814Y-77541666D01*
X166590883Y-77412076D01*
X166578713Y-77392345D01*
X166578710Y-77392342D01*
X166490047Y-77303679D01*
X166456564Y-77242359D01*
X166461548Y-77172667D01*
X166490047Y-77128320D01*
X166578712Y-77039656D01*
X166609340Y-76990000D01*
X172929072Y-76990000D01*
X172929298Y-76994622D01*
X172944191Y-77145834D01*
X173004233Y-77343764D01*
X173101731Y-77526171D01*
X173232945Y-77686054D01*
X173392828Y-77817268D01*
X173575235Y-77914766D01*
X173729000Y-77961410D01*
X173729000Y-76990000D01*
X172929072Y-76990000D01*
X166609340Y-76990000D01*
X166670814Y-76890334D01*
X166725999Y-76723797D01*
X166736500Y-76621009D01*
X166736500Y-76490000D01*
X172929072Y-76490000D01*
X173729000Y-76490000D01*
X173729000Y-75518587D01*
X173575237Y-75565231D01*
X173392829Y-75662731D01*
X173232945Y-75793945D01*
X173101731Y-75953828D01*
X173004233Y-76136235D01*
X172944191Y-76334165D01*
X172929298Y-76485377D01*
X172929072Y-76490000D01*
X166736500Y-76490000D01*
X166736499Y-75296499D01*
X166756184Y-75229461D01*
X166808987Y-75183706D01*
X166860499Y-75172500D01*
X176675770Y-75172500D01*
X176742809Y-75192185D01*
G37*
%TD.AperFunction*%
%TA.AperFunction,Conductor*%
G36*
X181493186Y-75362442D02*
G01*
X192961073Y-79087124D01*
X192991614Y-79101928D01*
X193264729Y-79284265D01*
X193323943Y-79323922D01*
X193332554Y-79330244D01*
X193534135Y-79492149D01*
X193649763Y-79585858D01*
X193657477Y-79592110D01*
X193665249Y-79598967D01*
X193839273Y-79765927D01*
X193965708Y-79889022D01*
X193972585Y-79896280D01*
X194126449Y-80072382D01*
X194246159Y-80212268D01*
X194252132Y-80219824D01*
X194387584Y-80405561D01*
X194496582Y-80559246D01*
X194501656Y-80567000D01*
X194619020Y-80761869D01*
X194654499Y-80822987D01*
X194714987Y-80927188D01*
X194719173Y-80935036D01*
X194733445Y-80964275D01*
X194818271Y-81138067D01*
X194899628Y-81313140D01*
X194902955Y-81320998D01*
X194982945Y-81529660D01*
X194983893Y-81532218D01*
X195049043Y-81714039D01*
X195051548Y-81721829D01*
X195112626Y-81935795D01*
X195113438Y-81938778D01*
X195162030Y-82126628D01*
X195163748Y-82134257D01*
X195205653Y-82352090D01*
X195206259Y-82355492D01*
X195237699Y-82547641D01*
X195238681Y-82555032D01*
X195261229Y-82775226D01*
X195261556Y-82778987D01*
X195271369Y-82916500D01*
X195275449Y-82973675D01*
X195275751Y-82980761D01*
X195278852Y-83201693D01*
X195278840Y-83205876D01*
X195274988Y-83401386D01*
X195274673Y-83408108D01*
X195258365Y-83628158D01*
X195257946Y-83632685D01*
X195236328Y-83827273D01*
X195235463Y-83833579D01*
X195199904Y-84051184D01*
X195199016Y-84056014D01*
X195159783Y-84247991D01*
X195158439Y-84253840D01*
X195103923Y-84467348D01*
X195102510Y-84472430D01*
X195045981Y-84660126D01*
X195044233Y-84665485D01*
X194971173Y-84873345D01*
X194969183Y-84878620D01*
X194895843Y-85060408D01*
X194893766Y-85065257D01*
X194802698Y-85265935D01*
X194800086Y-85271339D01*
X194710573Y-85445647D01*
X194708244Y-85449969D01*
X194599841Y-85641953D01*
X194596570Y-85647414D01*
X194491695Y-85812719D01*
X194489189Y-85816513D01*
X194364209Y-85998403D01*
X194360250Y-86003843D01*
X194240951Y-86158739D01*
X194238343Y-86162010D01*
X194097674Y-86332436D01*
X194093005Y-86337774D01*
X193960407Y-86480899D01*
X193957768Y-86483661D01*
X193802377Y-86641354D01*
X193796986Y-86646505D01*
X193652298Y-86776672D01*
X193649697Y-86778947D01*
X193480654Y-86922706D01*
X193474540Y-86927582D01*
X193319134Y-87043692D01*
X193316634Y-87045512D01*
X193135087Y-87174227D01*
X193128259Y-87178737D01*
X192963712Y-87279787D01*
X192961372Y-87281189D01*
X192768393Y-87393930D01*
X192760869Y-87397984D01*
X192587891Y-87483640D01*
X192383540Y-87580024D01*
X192375361Y-87583528D01*
X192197089Y-87652437D01*
X191983577Y-87731030D01*
X191974769Y-87733902D01*
X191793647Y-87785574D01*
X191571702Y-87845735D01*
X191562316Y-87847891D01*
X191381442Y-87882108D01*
X191151218Y-87923214D01*
X191141315Y-87924573D01*
X190965645Y-87941494D01*
X190725441Y-87962851D01*
X190715091Y-87963336D01*
X190556432Y-87964142D01*
X190297796Y-87964316D01*
X190287079Y-87963859D01*
X190217790Y-87957895D01*
X189885259Y-87928780D01*
X189859005Y-87923582D01*
X186815715Y-86970181D01*
X185604809Y-86590828D01*
X185546721Y-86552003D01*
X185518844Y-86487936D01*
X185530031Y-86418967D01*
X185576729Y-86366995D01*
X185641880Y-86348500D01*
X187769294Y-86348500D01*
X187787264Y-86349809D01*
X187791320Y-86350402D01*
X187811023Y-86353289D01*
X187860368Y-86348972D01*
X187871176Y-86348500D01*
X187873100Y-86348500D01*
X187876709Y-86348500D01*
X187907550Y-86344894D01*
X187911031Y-86344539D01*
X187985797Y-86337999D01*
X187985797Y-86337998D01*
X187987052Y-86337889D01*
X188006062Y-86333674D01*
X188007250Y-86333241D01*
X188007255Y-86333241D01*
X188077820Y-86307557D01*
X188081095Y-86306419D01*
X188152334Y-86282814D01*
X188152336Y-86282812D01*
X188153536Y-86282415D01*
X188171063Y-86273929D01*
X188172112Y-86273238D01*
X188172117Y-86273237D01*
X188234806Y-86232005D01*
X188237798Y-86230099D01*
X188301656Y-86190712D01*
X188301658Y-86190709D01*
X188302731Y-86190048D01*
X188317822Y-86177756D01*
X188334961Y-86159590D01*
X188370170Y-86122268D01*
X188372650Y-86119715D01*
X188815641Y-85676724D01*
X188829260Y-85664954D01*
X188848530Y-85650610D01*
X188880372Y-85612661D01*
X188887686Y-85604681D01*
X188888267Y-85604099D01*
X188891590Y-85600777D01*
X188910837Y-85576433D01*
X188913031Y-85573738D01*
X188961302Y-85516214D01*
X188961303Y-85516210D01*
X188962119Y-85515239D01*
X188972575Y-85498825D01*
X188973109Y-85497679D01*
X188973111Y-85497677D01*
X189004816Y-85429682D01*
X189006369Y-85426475D01*
X189040040Y-85359433D01*
X189040040Y-85359429D01*
X189040610Y-85358296D01*
X189046999Y-85339917D01*
X189049644Y-85327107D01*
X189062431Y-85265172D01*
X189063198Y-85261719D01*
X189065485Y-85252071D01*
X189069188Y-85236444D01*
X189103802Y-85175753D01*
X189165735Y-85143409D01*
X189235322Y-85149684D01*
X189277527Y-85177362D01*
X189361544Y-85261379D01*
X189510707Y-85353385D01*
X189677064Y-85408510D01*
X189776611Y-85418680D01*
X189782889Y-85419000D01*
X189880000Y-85419000D01*
X189880000Y-84417938D01*
X189961115Y-84481072D01*
X190071595Y-84519000D01*
X190159005Y-84519000D01*
X190245216Y-84504614D01*
X190347947Y-84449019D01*
X190375581Y-84419000D01*
X190380000Y-84419000D01*
X190380000Y-85419000D01*
X190477111Y-85419000D01*
X190483388Y-85418680D01*
X190582935Y-85408510D01*
X190749292Y-85353385D01*
X190898458Y-85261378D01*
X191022378Y-85137458D01*
X191114385Y-84988292D01*
X191169510Y-84821935D01*
X191179680Y-84722388D01*
X191180000Y-84716110D01*
X191180000Y-84419000D01*
X190380000Y-84419000D01*
X190375581Y-84419000D01*
X190427060Y-84363079D01*
X190473982Y-84256108D01*
X190483628Y-84139698D01*
X190454953Y-84026462D01*
X190391064Y-83928673D01*
X190298885Y-83856928D01*
X190188405Y-83819000D01*
X190100995Y-83819000D01*
X190014784Y-83833386D01*
X189912053Y-83888981D01*
X189880000Y-83923799D01*
X189880000Y-82919000D01*
X190380000Y-82919000D01*
X190380000Y-83919000D01*
X191180000Y-83919000D01*
X191180000Y-83621889D01*
X191179680Y-83615611D01*
X191169510Y-83516064D01*
X191114385Y-83349707D01*
X191022378Y-83200541D01*
X190898458Y-83076621D01*
X190749292Y-82984614D01*
X190582935Y-82929489D01*
X190483388Y-82919319D01*
X190477111Y-82919000D01*
X190380000Y-82919000D01*
X189880000Y-82919000D01*
X189782889Y-82919000D01*
X189776611Y-82919319D01*
X189677064Y-82929489D01*
X189510707Y-82984614D01*
X189361541Y-83076621D01*
X189232314Y-83205849D01*
X189170991Y-83239334D01*
X189101299Y-83234350D01*
X189065969Y-83214022D01*
X188916450Y-83091315D01*
X188916449Y-83091314D01*
X188733956Y-82993769D01*
X188733955Y-82993768D01*
X188733954Y-82993768D01*
X188634944Y-82963733D01*
X188535932Y-82933699D01*
X188351504Y-82915535D01*
X188330000Y-82913417D01*
X188329999Y-82913417D01*
X188124067Y-82933699D01*
X187926043Y-82993769D01*
X187743551Y-83091314D01*
X187613961Y-83197664D01*
X187549651Y-83224976D01*
X187480783Y-83213184D01*
X187429224Y-83166032D01*
X187417593Y-83140820D01*
X187371814Y-83002666D01*
X187311105Y-82904241D01*
X187279711Y-82853342D01*
X187155658Y-82729289D01*
X187036088Y-82655538D01*
X186989364Y-82603590D01*
X186978141Y-82534627D01*
X187005985Y-82470545D01*
X187036084Y-82444463D01*
X187155656Y-82370712D01*
X187237545Y-82288822D01*
X187298866Y-82255339D01*
X187368558Y-82260323D01*
X187404931Y-82281516D01*
X187418755Y-82293116D01*
X187435165Y-82303569D01*
X187436319Y-82304107D01*
X187436323Y-82304110D01*
X187504328Y-82335821D01*
X187507451Y-82337333D01*
X187573667Y-82370588D01*
X187575704Y-82371611D01*
X187594084Y-82377998D01*
X187595321Y-82378253D01*
X187595327Y-82378256D01*
X187668862Y-82393439D01*
X187672209Y-82394181D01*
X187745279Y-82411500D01*
X187745281Y-82411500D01*
X187746505Y-82411790D01*
X187765876Y-82413769D01*
X187767140Y-82413732D01*
X187767144Y-82413733D01*
X187842110Y-82411552D01*
X187845716Y-82411500D01*
X189547294Y-82411500D01*
X189565264Y-82412809D01*
X189569320Y-82413402D01*
X189589023Y-82416289D01*
X189638368Y-82411972D01*
X189649176Y-82411500D01*
X189651100Y-82411500D01*
X189654709Y-82411500D01*
X189685550Y-82407894D01*
X189689031Y-82407539D01*
X189763797Y-82400999D01*
X189763797Y-82400998D01*
X189765052Y-82400889D01*
X189784062Y-82396674D01*
X189785250Y-82396241D01*
X189785255Y-82396241D01*
X189855820Y-82370557D01*
X189859095Y-82369419D01*
X189930334Y-82345814D01*
X189930336Y-82345812D01*
X189931536Y-82345415D01*
X189949063Y-82336929D01*
X189950112Y-82336238D01*
X189950117Y-82336237D01*
X190012806Y-82295005D01*
X190015798Y-82293099D01*
X190079656Y-82253712D01*
X190079656Y-82253711D01*
X190080729Y-82253050D01*
X190095824Y-82240753D01*
X190096692Y-82239832D01*
X190096696Y-82239830D01*
X190148184Y-82185254D01*
X190150630Y-82182736D01*
X190615642Y-81717724D01*
X190629260Y-81705954D01*
X190648530Y-81691610D01*
X190680366Y-81653667D01*
X190687680Y-81645688D01*
X190688264Y-81645103D01*
X190691591Y-81641777D01*
X190710833Y-81617439D01*
X190713090Y-81614670D01*
X190733936Y-81589827D01*
X190761302Y-81557214D01*
X190761303Y-81557211D01*
X190762115Y-81556244D01*
X190772573Y-81539827D01*
X190773106Y-81538682D01*
X190773111Y-81538677D01*
X190804833Y-81470646D01*
X190806362Y-81467488D01*
X190840040Y-81400433D01*
X190840040Y-81400432D01*
X190840612Y-81399294D01*
X190847000Y-81380914D01*
X190847255Y-81379675D01*
X190847257Y-81379673D01*
X190862447Y-81306103D01*
X190863186Y-81302770D01*
X190880500Y-81229721D01*
X190880500Y-81229716D01*
X190880791Y-81228489D01*
X190882770Y-81209121D01*
X190882733Y-81207859D01*
X190882734Y-81207856D01*
X190881269Y-81157523D01*
X190898996Y-81089942D01*
X190909359Y-81075260D01*
X191007685Y-80955450D01*
X191105232Y-80772954D01*
X191165300Y-80574934D01*
X191180500Y-80420608D01*
X191180500Y-79917392D01*
X191165300Y-79763066D01*
X191105232Y-79565046D01*
X191007685Y-79382550D01*
X190910227Y-79263796D01*
X190876410Y-79222589D01*
X190774798Y-79139200D01*
X190716450Y-79091315D01*
X190562412Y-79008979D01*
X190533956Y-78993769D01*
X190533955Y-78993768D01*
X190533954Y-78993768D01*
X190434944Y-78963733D01*
X190335932Y-78933699D01*
X190152497Y-78915632D01*
X190130000Y-78913417D01*
X190129999Y-78913417D01*
X189924067Y-78933699D01*
X189726043Y-78993769D01*
X189543551Y-79091314D01*
X189383588Y-79222590D01*
X189325529Y-79293336D01*
X189267783Y-79332670D01*
X189197939Y-79334541D01*
X189138170Y-79298353D01*
X189133823Y-79293336D01*
X189076054Y-79222945D01*
X188916170Y-79091731D01*
X188733762Y-78994231D01*
X188580000Y-78947587D01*
X188580000Y-79920061D01*
X188498885Y-79856928D01*
X188388405Y-79819000D01*
X188300995Y-79819000D01*
X188214784Y-79833386D01*
X188112053Y-79888981D01*
X188080000Y-79923799D01*
X188080000Y-78947587D01*
X187926237Y-78994231D01*
X187743829Y-79091731D01*
X187583945Y-79222945D01*
X187452731Y-79382828D01*
X187355233Y-79565235D01*
X187295191Y-79763165D01*
X187290685Y-79808922D01*
X187264524Y-79873710D01*
X187207489Y-79914068D01*
X187137689Y-79917185D01*
X187102186Y-79902307D01*
X187006334Y-79843186D01*
X186839797Y-79788000D01*
X186740141Y-79777819D01*
X186740122Y-79777818D01*
X186737009Y-79777500D01*
X186733860Y-79777500D01*
X186015141Y-79777500D01*
X186015121Y-79777500D01*
X186011992Y-79777501D01*
X186008860Y-79777820D01*
X186008858Y-79777821D01*
X185909203Y-79788000D01*
X185742665Y-79843186D01*
X185593342Y-79935288D01*
X185469288Y-80059342D01*
X185377186Y-80208665D01*
X185322000Y-80375202D01*
X185311819Y-80474858D01*
X185311817Y-80474878D01*
X185311500Y-80477991D01*
X185311500Y-80481139D01*
X185311500Y-80699769D01*
X185291815Y-80766808D01*
X185239011Y-80812563D01*
X185169853Y-80822507D01*
X185106297Y-80793482D01*
X185099819Y-80787451D01*
X185052367Y-80739999D01*
X184979721Y-80667353D01*
X184967946Y-80653727D01*
X184967324Y-80652892D01*
X184953610Y-80634470D01*
X184915667Y-80602631D01*
X184907691Y-80595323D01*
X184906329Y-80593961D01*
X184903777Y-80591409D01*
X184879444Y-80572169D01*
X184876647Y-80569890D01*
X184818251Y-80520890D01*
X184801821Y-80510422D01*
X184732691Y-80478186D01*
X184729447Y-80476615D01*
X184661306Y-80442394D01*
X184642903Y-80435997D01*
X184583385Y-80423707D01*
X184521711Y-80390872D01*
X184490756Y-80341275D01*
X184446814Y-80208666D01*
X184354712Y-80059344D01*
X184302451Y-80007083D01*
X184236318Y-79940949D01*
X184202834Y-79879626D01*
X184200000Y-79853268D01*
X184200000Y-78803382D01*
X184200000Y-77722191D01*
X184201309Y-77704232D01*
X184204789Y-77680476D01*
X184200472Y-77631129D01*
X184200000Y-77620323D01*
X184200000Y-77618401D01*
X184200000Y-77614791D01*
X184196403Y-77584020D01*
X184196036Y-77580429D01*
X184191314Y-77526450D01*
X184189499Y-77505703D01*
X184189498Y-77505701D01*
X184189389Y-77504449D01*
X184185172Y-77485430D01*
X184159092Y-77413774D01*
X184157908Y-77410368D01*
X184151935Y-77392342D01*
X184134314Y-77339166D01*
X184134312Y-77339163D01*
X184133915Y-77337964D01*
X184125429Y-77320436D01*
X184124737Y-77319384D01*
X184124737Y-77319383D01*
X184083501Y-77256688D01*
X184081586Y-77253681D01*
X184041548Y-77188769D01*
X184029248Y-77173670D01*
X183973773Y-77121332D01*
X183971186Y-77118819D01*
X183201728Y-76349360D01*
X183189946Y-76335727D01*
X183188709Y-76334066D01*
X183175610Y-76316470D01*
X183137667Y-76284631D01*
X183129691Y-76277323D01*
X183128329Y-76275961D01*
X183125777Y-76273409D01*
X183101444Y-76254169D01*
X183098647Y-76251890D01*
X183040251Y-76202890D01*
X183023821Y-76192422D01*
X182954691Y-76160186D01*
X182951447Y-76158615D01*
X182883306Y-76124394D01*
X182864903Y-76117997D01*
X182790211Y-76102574D01*
X182786692Y-76101794D01*
X182712490Y-76084208D01*
X182693121Y-76082229D01*
X182616869Y-76084448D01*
X182613263Y-76084500D01*
X181810585Y-76084500D01*
X181743546Y-76064815D01*
X181697791Y-76012011D01*
X181692879Y-75999504D01*
X181690902Y-75993538D01*
X181656814Y-75890666D01*
X181564712Y-75741344D01*
X181564711Y-75741342D01*
X181440658Y-75617289D01*
X181389805Y-75585923D01*
X181343081Y-75533975D01*
X181331858Y-75465012D01*
X181359702Y-75400930D01*
X181417770Y-75362074D01*
X181487628Y-75360780D01*
X181493186Y-75362442D01*
G37*
%TD.AperFunction*%
%TA.AperFunction,Conductor*%
G36*
X159243000Y-77072410D02*
G01*
X159396764Y-77025766D01*
X159579171Y-76928268D01*
X159739053Y-76797055D01*
X159796822Y-76726664D01*
X159854568Y-76687329D01*
X159924413Y-76685458D01*
X159984181Y-76721645D01*
X159988530Y-76726664D01*
X160046589Y-76797410D01*
X160082777Y-76827108D01*
X160206550Y-76928685D01*
X160389046Y-77026232D01*
X160587066Y-77086300D01*
X160793000Y-77106583D01*
X160998934Y-77086300D01*
X161196954Y-77026232D01*
X161379450Y-76928685D01*
X161539410Y-76797410D01*
X161539411Y-76797408D01*
X161542123Y-76795183D01*
X161606433Y-76767870D01*
X161675301Y-76779661D01*
X161726861Y-76826813D01*
X161738492Y-76852028D01*
X161751186Y-76890334D01*
X161751187Y-76890335D01*
X161843288Y-77039657D01*
X161931950Y-77128319D01*
X161965435Y-77189642D01*
X161960451Y-77259334D01*
X161931950Y-77303681D01*
X161843288Y-77392342D01*
X161751186Y-77541665D01*
X161696000Y-77708202D01*
X161685819Y-77807858D01*
X161685817Y-77807878D01*
X161685500Y-77810991D01*
X161685500Y-77814138D01*
X161685500Y-77814139D01*
X161685500Y-78612955D01*
X161665815Y-78679994D01*
X161613011Y-78725749D01*
X161543853Y-78735693D01*
X161496404Y-78718494D01*
X161412294Y-78666615D01*
X161245935Y-78611489D01*
X161146388Y-78601319D01*
X161140111Y-78601000D01*
X161043000Y-78601000D01*
X161043000Y-79601000D01*
X161813270Y-79601000D01*
X161880309Y-79620685D01*
X161900946Y-79637314D01*
X161934921Y-79671289D01*
X161967345Y-79703713D01*
X162025758Y-79739742D01*
X162116666Y-79795814D01*
X162186637Y-79819000D01*
X162283202Y-79850999D01*
X162382858Y-79861180D01*
X162382859Y-79861180D01*
X162385991Y-79861500D01*
X163111008Y-79861499D01*
X163213797Y-79850999D01*
X163380334Y-79795814D01*
X163529656Y-79703712D01*
X163653712Y-79579656D01*
X163745814Y-79430334D01*
X163800999Y-79263797D01*
X163800999Y-79263796D01*
X163804387Y-79253573D01*
X163844160Y-79196128D01*
X163883089Y-79174871D01*
X163895334Y-79170814D01*
X163895336Y-79170812D01*
X163896536Y-79170415D01*
X163914063Y-79161929D01*
X163915112Y-79161238D01*
X163915117Y-79161237D01*
X163977806Y-79120005D01*
X163980798Y-79118099D01*
X164044656Y-79078712D01*
X164044656Y-79078711D01*
X164045729Y-79078050D01*
X164060824Y-79065753D01*
X164061692Y-79064832D01*
X164061696Y-79064830D01*
X164113184Y-79010254D01*
X164115630Y-79007736D01*
X164398821Y-78724545D01*
X164460142Y-78691062D01*
X164529834Y-78696046D01*
X164585767Y-78737918D01*
X164610184Y-78803382D01*
X164610500Y-78812228D01*
X164610500Y-79157858D01*
X164610500Y-79157877D01*
X164610501Y-79161008D01*
X164610820Y-79164140D01*
X164610821Y-79164141D01*
X164621000Y-79263796D01*
X164676186Y-79430334D01*
X164747980Y-79546732D01*
X164766420Y-79614124D01*
X164745497Y-79680788D01*
X164730122Y-79699509D01*
X163936451Y-80493181D01*
X163875128Y-80526666D01*
X163848770Y-80529500D01*
X161966784Y-80529500D01*
X161899745Y-80509815D01*
X161853990Y-80457011D01*
X161843039Y-80399694D01*
X161843000Y-80401258D01*
X161842999Y-80399487D01*
X161842944Y-80399194D01*
X161843000Y-80398094D01*
X161843000Y-80101000D01*
X161038581Y-80101000D01*
X161090060Y-80045079D01*
X161136982Y-79938108D01*
X161146628Y-79821698D01*
X161117953Y-79708462D01*
X161054064Y-79610673D01*
X160961885Y-79538928D01*
X160851405Y-79501000D01*
X160763995Y-79501000D01*
X160677784Y-79515386D01*
X160575053Y-79570981D01*
X160543000Y-79605799D01*
X160543000Y-78601000D01*
X160445889Y-78601000D01*
X160439611Y-78601319D01*
X160340064Y-78611489D01*
X160173707Y-78666614D01*
X160024541Y-78758621D01*
X159895314Y-78887849D01*
X159833991Y-78921334D01*
X159764299Y-78916350D01*
X159728969Y-78896022D01*
X159579450Y-78773315D01*
X159579449Y-78773314D01*
X159396956Y-78675769D01*
X159396955Y-78675768D01*
X159396954Y-78675768D01*
X159295890Y-78645111D01*
X159198932Y-78615699D01*
X158993000Y-78595417D01*
X158787067Y-78615699D01*
X158589043Y-78675769D01*
X158406551Y-78773314D01*
X158246589Y-78904589D01*
X158115314Y-79064551D01*
X158017769Y-79247043D01*
X158017768Y-79247045D01*
X158017768Y-79247046D01*
X158015788Y-79253573D01*
X157957699Y-79445067D01*
X157942798Y-79596358D01*
X157942797Y-79596374D01*
X157942500Y-79599392D01*
X157942500Y-80102608D01*
X157942797Y-80105626D01*
X157942798Y-80105641D01*
X157957699Y-80256932D01*
X157979612Y-80329169D01*
X158011940Y-80435743D01*
X158017769Y-80454956D01*
X158115314Y-80637449D01*
X158212799Y-80756235D01*
X158240112Y-80820545D01*
X158239637Y-80852867D01*
X158237710Y-80866020D01*
X158241602Y-80910500D01*
X158241890Y-80913797D01*
X158242028Y-80915368D01*
X158242500Y-80926175D01*
X158242500Y-80931709D01*
X158242916Y-80935272D01*
X158242917Y-80935282D01*
X158246098Y-80962496D01*
X158246464Y-80966082D01*
X158253109Y-81042041D01*
X158257329Y-81061071D01*
X158257758Y-81062251D01*
X158257759Y-81062255D01*
X158283413Y-81132742D01*
X158284582Y-81136107D01*
X158308580Y-81208524D01*
X158317075Y-81226072D01*
X158358979Y-81289784D01*
X158360889Y-81292782D01*
X158393674Y-81345933D01*
X158400952Y-81357732D01*
X158413253Y-81372830D01*
X158414168Y-81373693D01*
X158414170Y-81373696D01*
X158468106Y-81424582D01*
X158468708Y-81425150D01*
X158471295Y-81427663D01*
X158809269Y-81765637D01*
X158821051Y-81779270D01*
X158835390Y-81798531D01*
X158873338Y-81830373D01*
X158881313Y-81837681D01*
X158885223Y-81841591D01*
X158909556Y-81860830D01*
X158912335Y-81863095D01*
X158970752Y-81912113D01*
X158987179Y-81922578D01*
X159056320Y-81954819D01*
X159059567Y-81956391D01*
X159127699Y-81990609D01*
X159146087Y-81997000D01*
X159147323Y-81997255D01*
X159147327Y-81997257D01*
X159220856Y-82012438D01*
X159224290Y-82013200D01*
X159252510Y-82019889D01*
X159298506Y-82030791D01*
X159317879Y-82032770D01*
X159319141Y-82032733D01*
X159319145Y-82032734D01*
X159391534Y-82030627D01*
X159394132Y-82030552D01*
X159397738Y-82030500D01*
X162529154Y-82030500D01*
X162596193Y-82050185D01*
X162641948Y-82102989D01*
X162651892Y-82172147D01*
X162622867Y-82235703D01*
X162594251Y-82260038D01*
X162540345Y-82293287D01*
X162416288Y-82417344D01*
X162324186Y-82566663D01*
X162269000Y-82733202D01*
X162258819Y-82832859D01*
X162258817Y-82832879D01*
X162258500Y-82835992D01*
X162258500Y-83861008D01*
X162258818Y-83864121D01*
X162258819Y-83864140D01*
X162269000Y-83963797D01*
X162297399Y-84049496D01*
X162299801Y-84119324D01*
X162264069Y-84179366D01*
X162201549Y-84210559D01*
X162179693Y-84212500D01*
X161932207Y-84212500D01*
X161865168Y-84192815D01*
X161819413Y-84140011D01*
X161809469Y-84070853D01*
X161826666Y-84023407D01*
X161837814Y-84005334D01*
X161892999Y-83838797D01*
X161903500Y-83736009D01*
X161903499Y-83010992D01*
X161892999Y-82908203D01*
X161837814Y-82741666D01*
X161773371Y-82637186D01*
X161745711Y-82592342D01*
X161621657Y-82468288D01*
X161472334Y-82376186D01*
X161305797Y-82321000D01*
X161206141Y-82310819D01*
X161206122Y-82310818D01*
X161203009Y-82310500D01*
X161199860Y-82310500D01*
X159856140Y-82310500D01*
X159856120Y-82310500D01*
X159852992Y-82310501D01*
X159849860Y-82310820D01*
X159849858Y-82310821D01*
X159750203Y-82321000D01*
X159583665Y-82376186D01*
X159434344Y-82468287D01*
X159409960Y-82492671D01*
X159348636Y-82526155D01*
X159278945Y-82521169D01*
X159223012Y-82479297D01*
X159216748Y-82470095D01*
X159184211Y-82417345D01*
X159184210Y-82417344D01*
X159184209Y-82417342D01*
X159060155Y-82293288D01*
X158910836Y-82201186D01*
X158744297Y-82146000D01*
X158644640Y-82135819D01*
X158644621Y-82135818D01*
X158641508Y-82135500D01*
X156391492Y-82135500D01*
X156388379Y-82135817D01*
X156388359Y-82135819D01*
X156288702Y-82146000D01*
X156122163Y-82201186D01*
X155972844Y-82293288D01*
X155848788Y-82417344D01*
X155756686Y-82566663D01*
X155701500Y-82733202D01*
X155691319Y-82832859D01*
X155691317Y-82832879D01*
X155691000Y-82835992D01*
X155691000Y-83861008D01*
X155691318Y-83864121D01*
X155691319Y-83864140D01*
X155701500Y-83963797D01*
X155729899Y-84049496D01*
X155732301Y-84119324D01*
X155696569Y-84179366D01*
X155634049Y-84210559D01*
X155612193Y-84212500D01*
X154820207Y-84212500D01*
X154753168Y-84192815D01*
X154707413Y-84140011D01*
X154697469Y-84070853D01*
X154714666Y-84023407D01*
X154725814Y-84005334D01*
X154780999Y-83838797D01*
X154791500Y-83736009D01*
X154791499Y-83010992D01*
X154780999Y-82908203D01*
X154725814Y-82741666D01*
X154661371Y-82637186D01*
X154633711Y-82592342D01*
X154509657Y-82468288D01*
X154360334Y-82376186D01*
X154193797Y-82321000D01*
X154094141Y-82310819D01*
X154094122Y-82310818D01*
X154091009Y-82310500D01*
X154087860Y-82310500D01*
X152744140Y-82310500D01*
X152744120Y-82310500D01*
X152740992Y-82310501D01*
X152737860Y-82310820D01*
X152737858Y-82310821D01*
X152638203Y-82321000D01*
X152471665Y-82376186D01*
X152322342Y-82468288D01*
X152275385Y-82515245D01*
X152214062Y-82548729D01*
X152144370Y-82543744D01*
X152088437Y-82501873D01*
X152082167Y-82492660D01*
X152035711Y-82417344D01*
X151911654Y-82293287D01*
X151857749Y-82260038D01*
X151811024Y-82208090D01*
X151799803Y-82139127D01*
X151827646Y-82075045D01*
X151885715Y-82036190D01*
X151922846Y-82030500D01*
X154622294Y-82030500D01*
X154640264Y-82031809D01*
X154644320Y-82032402D01*
X154664023Y-82035289D01*
X154713368Y-82030972D01*
X154724176Y-82030500D01*
X154726100Y-82030500D01*
X154729709Y-82030500D01*
X154760550Y-82026894D01*
X154764031Y-82026539D01*
X154838797Y-82019999D01*
X154838797Y-82019998D01*
X154840052Y-82019889D01*
X154859062Y-82015674D01*
X154860250Y-82015241D01*
X154860255Y-82015241D01*
X154930820Y-81989557D01*
X154934095Y-81988419D01*
X155005334Y-81964814D01*
X155005336Y-81964812D01*
X155006536Y-81964415D01*
X155024063Y-81955929D01*
X155025112Y-81955238D01*
X155025117Y-81955237D01*
X155087806Y-81914005D01*
X155090798Y-81912099D01*
X155154656Y-81872712D01*
X155154656Y-81872711D01*
X155155729Y-81872050D01*
X155170824Y-81859753D01*
X155171692Y-81858832D01*
X155171696Y-81858830D01*
X155223185Y-81804253D01*
X155225631Y-81801735D01*
X156634138Y-80393227D01*
X156647756Y-80381457D01*
X156667030Y-80367110D01*
X156698872Y-80329161D01*
X156706186Y-80321181D01*
X156706767Y-80320599D01*
X156710090Y-80317277D01*
X156729337Y-80292933D01*
X156731531Y-80290238D01*
X156779802Y-80232714D01*
X156779803Y-80232710D01*
X156780619Y-80231739D01*
X156791075Y-80215325D01*
X156791609Y-80214179D01*
X156791611Y-80214177D01*
X156823316Y-80146182D01*
X156824869Y-80142975D01*
X156858540Y-80075933D01*
X156858540Y-80075929D01*
X156859110Y-80074796D01*
X156865499Y-80056417D01*
X156865995Y-80054016D01*
X156880931Y-79981671D01*
X156881686Y-79978267D01*
X156899000Y-79905221D01*
X156899000Y-79905217D01*
X156899290Y-79903994D01*
X156901269Y-79884623D01*
X156901232Y-79883359D01*
X156901233Y-79883356D01*
X156899109Y-79810334D01*
X156899052Y-79808388D01*
X156899000Y-79804783D01*
X156899000Y-79785731D01*
X156918685Y-79718692D01*
X156935319Y-79698050D01*
X157053711Y-79579657D01*
X157053712Y-79579656D01*
X157145814Y-79430334D01*
X157200999Y-79263797D01*
X157211500Y-79161009D01*
X157211499Y-78105672D01*
X157231183Y-78038634D01*
X157283987Y-77992879D01*
X157353146Y-77982935D01*
X157361277Y-77984382D01*
X157385354Y-77989500D01*
X157574648Y-77989500D01*
X157748502Y-77952546D01*
X157759803Y-77950144D01*
X157932730Y-77873151D01*
X158013952Y-77814140D01*
X158085870Y-77761889D01*
X158154152Y-77686055D01*
X158212533Y-77621216D01*
X158307179Y-77457284D01*
X158365674Y-77277256D01*
X158383330Y-77109260D01*
X158409913Y-77044649D01*
X158467210Y-77004664D01*
X158537029Y-77002004D01*
X158565104Y-77012867D01*
X158589238Y-77025767D01*
X158743000Y-77072410D01*
X158743000Y-76099938D01*
X158824115Y-76163072D01*
X158934595Y-76201000D01*
X159022005Y-76201000D01*
X159108216Y-76186614D01*
X159210947Y-76131019D01*
X159243000Y-76096200D01*
X159243000Y-77072410D01*
G37*
%TD.AperFunction*%
%TD*%
D20*
X170815000Y-89281000D03*
X157480000Y-77089000D03*
X141224000Y-89535000D03*
X146304000Y-89916000D03*
X144145000Y-91123000D03*
X144145000Y-93663000D03*
X141605000Y-91123000D03*
X141605000Y-93663000D03*
X139065000Y-91123000D03*
X139065000Y-93663000D03*
X136525000Y-91123000D03*
X136525000Y-93663000D03*
X133985000Y-91123000D03*
X133985000Y-93663000D03*
X156520000Y-93660000D03*
X156520000Y-91120000D03*
X159060000Y-93660000D03*
X159060000Y-91120000D03*
X161600000Y-93660000D03*
X161600000Y-91120000D03*
X164140000Y-93660000D03*
X164140000Y-91120000D03*
X166680000Y-93660000D03*
X166680000Y-91120000D03*
X151268000Y-79851000D03*
X151268000Y-75851000D03*
X149468000Y-79851000D03*
X149468000Y-75851000D03*
X126757000Y-80740000D03*
X126757000Y-76740000D03*
X124957000Y-80740000D03*
X124957000Y-76740000D03*
X190130000Y-84169000D03*
X190130000Y-80169000D03*
X188330000Y-84169000D03*
X188330000Y-80169000D03*
X175779000Y-80740000D03*
X175779000Y-76740000D03*
X173979000Y-80740000D03*
X173979000Y-76740000D03*
X112406000Y-84169000D03*
X112406000Y-80169000D03*
X110606000Y-84169000D03*
X110606000Y-80169000D03*
X160793000Y-79851000D03*
X160793000Y-75851000D03*
X158993000Y-79851000D03*
X158993000Y-75851000D03*
X141743000Y-79851000D03*
X141743000Y-75851000D03*
X139943000Y-79851000D03*
X139943000Y-75851000D03*
M02*
