%TF.GenerationSoftware,KiCad,Pcbnew,7.0.2*%
%TF.CreationDate,2023-11-09T20:15:28+01:00*%
%TF.ProjectId,Motherboard,4d6f7468-6572-4626-9f61-72642e6b6963,rev?*%
%TF.SameCoordinates,Original*%
%TF.FileFunction,Copper,L2,Bot*%
%TF.FilePolarity,Positive*%
%FSLAX46Y46*%
G04 Gerber Fmt 4.6, Leading zero omitted, Abs format (unit mm)*
G04 Created by KiCad (PCBNEW 7.0.2) date 2023-11-09 20:15:28*
%MOMM*%
%LPD*%
G01*
G04 APERTURE LIST*
G04 Aperture macros list*
%AMRoundRect*
0 Rectangle with rounded corners*
0 $1 Rounding radius*
0 $2 $3 $4 $5 $6 $7 $8 $9 X,Y pos of 4 corners*
0 Add a 4 corners polygon primitive as box body*
4,1,4,$2,$3,$4,$5,$6,$7,$8,$9,$2,$3,0*
0 Add four circle primitives for the rounded corners*
1,1,$1+$1,$2,$3*
1,1,$1+$1,$4,$5*
1,1,$1+$1,$6,$7*
1,1,$1+$1,$8,$9*
0 Add four rect primitives between the rounded corners*
20,1,$1+$1,$2,$3,$4,$5,0*
20,1,$1+$1,$4,$5,$6,$7,0*
20,1,$1+$1,$6,$7,$8,$9,0*
20,1,$1+$1,$8,$9,$2,$3,0*%
G04 Aperture macros list end*
%TA.AperFunction,ComponentPad*%
%ADD10C,3.500000*%
%TD*%
%TA.AperFunction,ComponentPad*%
%ADD11C,2.000000*%
%TD*%
%TA.AperFunction,ComponentPad*%
%ADD12O,1.600000X1.600000*%
%TD*%
%TA.AperFunction,ComponentPad*%
%ADD13R,1.600000X1.600000*%
%TD*%
%TA.AperFunction,ComponentPad*%
%ADD14C,1.700000*%
%TD*%
%TA.AperFunction,ComponentPad*%
%ADD15RoundRect,0.250000X-0.600000X0.600000X-0.600000X-0.600000X0.600000X-0.600000X0.600000X0.600000X0*%
%TD*%
%TA.AperFunction,ComponentPad*%
%ADD16O,1.700000X1.700000*%
%TD*%
%TA.AperFunction,ComponentPad*%
%ADD17R,1.700000X1.700000*%
%TD*%
%TA.AperFunction,ComponentPad*%
%ADD18C,6.000000*%
%TD*%
%TA.AperFunction,ComponentPad*%
%ADD19RoundRect,1.500000X-1.500000X1.500000X-1.500000X-1.500000X1.500000X-1.500000X1.500000X1.500000X0*%
%TD*%
%TA.AperFunction,ViaPad*%
%ADD20C,1.200000*%
%TD*%
%TA.AperFunction,ViaPad*%
%ADD21C,0.800000*%
%TD*%
%TA.AperFunction,Conductor*%
%ADD22C,1.000000*%
%TD*%
%TA.AperFunction,Conductor*%
%ADD23C,0.250000*%
%TD*%
%TA.AperFunction,Conductor*%
%ADD24C,0.500000*%
%TD*%
%TA.AperFunction,Conductor*%
%ADD25C,0.300000*%
%TD*%
%ADD26C,0.350000*%
G04 APERTURE END LIST*
D10*
%TO.P,SW2,3,C*%
%TO.N,VCC*%
X142296000Y-106617500D03*
%TO.P,SW2,2,B*%
%TO.N,Net-(J1-Pin_2)*%
X146996000Y-106617500D03*
%TO.P,SW2,1,A*%
X151696000Y-106617500D03*
%TO.P,SW2,*%
%TO.N,*%
X153601000Y-116147500D03*
X140391000Y-116147500D03*
%TD*%
D11*
%TO.P,SW1,2*%
%TO.N,GND*%
X168768000Y-80332000D03*
X168768000Y-86832000D03*
%TO.P,SW1,1*%
%TO.N,NRST*%
X164268000Y-80332000D03*
X164268000Y-86832000D03*
%TD*%
D12*
%TO.P,U4,16,VCC1*%
%TO.N,+5V*%
X135708000Y-92970000D03*
%TO.P,U4,15,4A*%
%TO.N,2B*%
X138248000Y-92970000D03*
%TO.P,U4,14,4Y*%
%TO.N,2B_M*%
X140788000Y-92970000D03*
%TO.P,U4,13,GND*%
%TO.N,GND*%
X143328000Y-92970000D03*
%TO.P,U4,12,GND*%
X145868000Y-92970000D03*
%TO.P,U4,11,3Y*%
%TO.N,2A_M*%
X148408000Y-92970000D03*
%TO.P,U4,10,3A*%
%TO.N,2A*%
X150948000Y-92970000D03*
%TO.P,U4,9,EN3\u002C4*%
%TO.N,EN*%
X153488000Y-92970000D03*
%TO.P,U4,8,VCC2*%
%TO.N,VCC*%
X153488000Y-100590000D03*
%TO.P,U4,7,2A*%
%TO.N,1B*%
X150948000Y-100590000D03*
%TO.P,U4,6,2Y*%
%TO.N,1B_M*%
X148408000Y-100590000D03*
%TO.P,U4,5,GND*%
%TO.N,GND*%
X145868000Y-100590000D03*
%TO.P,U4,4,GND*%
X143328000Y-100590000D03*
%TO.P,U4,3,1Y*%
%TO.N,1A_M*%
X140788000Y-100590000D03*
%TO.P,U4,2,1A*%
%TO.N,1A*%
X138248000Y-100590000D03*
D13*
%TO.P,U4,1,EN1\u002C2*%
%TO.N,EN*%
X135708000Y-100590000D03*
%TD*%
D11*
%TO.P,SW3,2*%
%TO.N,GND*%
X177821000Y-80332000D03*
X177821000Y-86832000D03*
%TO.P,SW3,1*%
%TO.N,CAL_INT*%
X173321000Y-80332000D03*
X173321000Y-86832000D03*
%TD*%
D14*
%TO.P,J5,10,Pin_10*%
%TO.N,GND*%
X150487802Y-72914000D03*
%TO.P,J5,9,Pin_9*%
%TO.N,LD4*%
X150487802Y-70374000D03*
%TO.P,J5,8,Pin_8*%
%TO.N,GND*%
X153027802Y-72914000D03*
%TO.P,J5,7,Pin_7*%
%TO.N,LD3*%
X153027802Y-70374000D03*
%TO.P,J5,6,Pin_6*%
%TO.N,GND*%
X155567802Y-72914000D03*
%TO.P,J5,5,Pin_5*%
%TO.N,LD2*%
X155567802Y-70374000D03*
%TO.P,J5,4,Pin_4*%
%TO.N,LD6*%
X158107802Y-72914000D03*
%TO.P,J5,3,Pin_3*%
%TO.N,LD1*%
X158107802Y-70374000D03*
%TO.P,J5,2,Pin_2*%
%TO.N,LD5*%
X160647802Y-72914000D03*
D15*
%TO.P,J5,1,Pin_1*%
%TO.N,LD0*%
X160647802Y-70374000D03*
%TD*%
D16*
%TO.P,J3,2,Pin_2*%
%TO.N,2A_M*%
X119564000Y-112014000D03*
%TO.P,J3,1,Pin_1*%
%TO.N,2B_M*%
X119564000Y-104614000D03*
%TD*%
%TO.P,J6,5,Pin_5*%
%TO.N,+3V3*%
X157918000Y-90191000D03*
%TO.P,J6,4,Pin_4*%
%TO.N,NRST*%
X157918000Y-87651000D03*
%TO.P,J6,3,Pin_3*%
%TO.N,SWDIO*%
X157918000Y-85111000D03*
%TO.P,J6,2,Pin_2*%
%TO.N,SWCLK*%
X157918000Y-82571000D03*
D17*
%TO.P,J6,1,Pin_1*%
%TO.N,GND*%
X157918000Y-80031000D03*
%TD*%
D14*
%TO.P,J4,10,Pin_10*%
%TO.N,GND*%
X128135802Y-72914000D03*
%TO.P,J4,9,Pin_9*%
%TO.N,A3*%
X128135802Y-70374000D03*
%TO.P,J4,8,Pin_8*%
%TO.N,GND*%
X130675802Y-72914000D03*
%TO.P,J4,7,Pin_7*%
%TO.N,A2*%
X130675802Y-70374000D03*
%TO.P,J4,6,Pin_6*%
%TO.N,A6*%
X133215802Y-72914000D03*
%TO.P,J4,5,Pin_5*%
%TO.N,A1*%
X133215802Y-70374000D03*
%TO.P,J4,4,Pin_4*%
%TO.N,A5*%
X135755802Y-72914000D03*
%TO.P,J4,3,Pin_3*%
%TO.N,A0*%
X135755802Y-70374000D03*
%TO.P,J4,2,Pin_2*%
%TO.N,A4*%
X138295802Y-72914000D03*
D15*
%TO.P,J4,1,Pin_1*%
%TO.N,+3V3*%
X138295802Y-70374000D03*
%TD*%
D18*
%TO.P,J1,2,Pin_2*%
%TO.N,Net-(J1-Pin_2)*%
X133026000Y-113598000D03*
D19*
%TO.P,J1,1,Pin_1*%
%TO.N,GND*%
X133026000Y-106398000D03*
%TD*%
D16*
%TO.P,J2,2,Pin_2*%
%TO.N,1B_M*%
X169475000Y-104614000D03*
%TO.P,J2,1,Pin_1*%
%TO.N,1A_M*%
X169475000Y-112014000D03*
%TD*%
D20*
%TO.N,GND*%
X105791000Y-84582000D03*
X102108000Y-84582000D03*
D21*
%TO.N,+3V3*%
X123910000Y-83432000D03*
X123910000Y-77432000D03*
X123910000Y-75432000D03*
X123910000Y-73432000D03*
X123910000Y-71432000D03*
X121910000Y-77432000D03*
X121910000Y-75432000D03*
X121910000Y-73432000D03*
X121910000Y-71432000D03*
X119910000Y-83432000D03*
X119910000Y-77432000D03*
%TO.N,+5V*%
X111910000Y-81432000D03*
X111910000Y-79432000D03*
X109910000Y-81432000D03*
X109910000Y-79432000D03*
X107910000Y-81432000D03*
X107910000Y-79432000D03*
X99910000Y-79432000D03*
X95910000Y-81432000D03*
%TO.N,GND*%
X134423000Y-88408000D03*
X116770000Y-89043000D03*
D20*
X134448400Y-77486000D03*
D21*
%TO.N,+3V3*%
X147545799Y-90948000D03*
X137598000Y-80280000D03*
D20*
%TO.N,VCC*%
X129470000Y-89932000D03*
D21*
X157664000Y-105426000D03*
D20*
X133026000Y-100600000D03*
D21*
%TO.N,NRST*%
X146234000Y-90694000D03*
%TO.N,A0*%
X137674200Y-89436500D03*
%TO.N,A1*%
X138791800Y-89398600D03*
%TO.N,A2*%
X140011000Y-89424000D03*
%TO.N,A3*%
X141154000Y-89424000D03*
%TO.N,A4*%
X142891165Y-90017988D03*
%TO.N,A5*%
X144053423Y-90037423D03*
%TO.N,A6*%
X145345000Y-90059000D03*
%TO.N,LD0*%
X148647000Y-89297000D03*
%TO.N,LD1*%
X150044000Y-89297000D03*
%TO.N,LD2*%
X151325451Y-89297000D03*
%TO.N,LD3*%
X148647000Y-79190500D03*
%TO.N,LD4*%
X149663000Y-79190500D03*
%TO.N,LD5*%
X152202285Y-80087136D03*
%TO.N,LD6*%
X152206082Y-79087640D03*
%TO.N,SWCLK*%
X154108000Y-82566000D03*
%TO.N,SWDIO*%
X154108000Y-85106000D03*
%TO.N,2A*%
X156643701Y-93737701D03*
%TO.N,2B*%
X157664000Y-93742000D03*
%TD*%
D22*
%TO.N,GND*%
X143328000Y-100639000D02*
X137569000Y-106398000D01*
X143328000Y-100590000D02*
X143328000Y-100639000D01*
X137569000Y-106398000D02*
X133026000Y-106398000D01*
%TO.N,VCC*%
X152146000Y-103378000D02*
X153488000Y-102036000D01*
X153488000Y-102036000D02*
X153488000Y-100590000D01*
X145234000Y-103378000D02*
X152146000Y-103378000D01*
X142296000Y-106617500D02*
X142296000Y-106316000D01*
X142296000Y-106316000D02*
X145234000Y-103378000D01*
D23*
%TO.N,A0*%
X136128000Y-68850000D02*
X135755802Y-69222198D01*
X139311802Y-68850000D02*
X136128000Y-68850000D01*
X140628802Y-76358802D02*
X140628802Y-70167000D01*
X138926000Y-78061604D02*
X140628802Y-76358802D01*
X140628802Y-70167000D02*
X139311802Y-68850000D01*
X138926000Y-88184700D02*
X138926000Y-78061604D01*
X135755802Y-69222198D02*
X135755802Y-70374000D01*
X137674200Y-89436500D02*
X138926000Y-88184700D01*
%TO.N,LD0*%
X161855000Y-75452604D02*
X161855000Y-71581198D01*
X159937604Y-77370000D02*
X161855000Y-75452604D01*
X161855000Y-71581198D02*
X160647802Y-70374000D01*
X150241000Y-87703000D02*
X150241000Y-83255208D01*
X150241000Y-83255208D02*
X156126208Y-77370000D01*
X148647000Y-89297000D02*
X150241000Y-87703000D01*
X156126208Y-77370000D02*
X159937604Y-77370000D01*
%TO.N,LD1*%
X159282802Y-69199000D02*
X158107802Y-70374000D01*
X162305000Y-69808000D02*
X161696000Y-69199000D01*
X162305000Y-75639000D02*
X162305000Y-69808000D01*
X161696000Y-69199000D02*
X159282802Y-69199000D01*
X156312604Y-77820000D02*
X160124000Y-77820000D01*
X150749000Y-88592000D02*
X150749000Y-83383604D01*
X150749000Y-83383604D02*
X156312604Y-77820000D01*
X150044000Y-89297000D02*
X150749000Y-88592000D01*
X160124000Y-77820000D02*
X162305000Y-75639000D01*
D24*
%TO.N,GND*%
X134448400Y-76686598D02*
X130675802Y-72914000D01*
D22*
X126777600Y-85156800D02*
X126777600Y-89043000D01*
X143328000Y-100590000D02*
X145868000Y-100590000D01*
D24*
X134423000Y-88408000D02*
X134423000Y-77511400D01*
X126716600Y-88982000D02*
X126777600Y-89043000D01*
X116831000Y-88982000D02*
X126716600Y-88982000D01*
D22*
X145868000Y-92970000D02*
X143328000Y-92970000D01*
X145868000Y-92970000D02*
X145868000Y-100590000D01*
D24*
X116770000Y-89043000D02*
X116831000Y-88982000D01*
X150487802Y-72914000D02*
X153027802Y-72914000D01*
X167951000Y-78375000D02*
X168768000Y-79192000D01*
X160580000Y-80031000D02*
X162236000Y-78375000D01*
X162236000Y-78375000D02*
X167951000Y-78375000D01*
X157918000Y-80031000D02*
X160580000Y-80031000D01*
X134423000Y-77511400D02*
X134448400Y-77486000D01*
X130675802Y-72914000D02*
X128135802Y-72914000D01*
X134448400Y-77486000D02*
X134448400Y-76686598D01*
X168768000Y-79192000D02*
X168768000Y-86780000D01*
D22*
X126777600Y-100193600D02*
X132982000Y-106398000D01*
D24*
X177821000Y-80332000D02*
X177821000Y-86832000D01*
D22*
X132982000Y-106398000D02*
X133026000Y-106398000D01*
X134448400Y-77486000D02*
X126777600Y-85156800D01*
X126777600Y-89043000D02*
X126777600Y-100193600D01*
D24*
X153027802Y-72914000D02*
X155567802Y-72914000D01*
D23*
%TO.N,+3V3*%
X157161000Y-90948000D02*
X157918000Y-90191000D01*
X147545799Y-90948000D02*
X157161000Y-90948000D01*
D24*
X139819802Y-71009000D02*
X139184802Y-70374000D01*
X137598000Y-80280000D02*
X137598000Y-78248000D01*
X137598000Y-78248000D02*
X139819802Y-76026198D01*
X139819802Y-76026198D02*
X139819802Y-74692000D01*
X139184802Y-70374000D02*
X138295802Y-70374000D01*
X139819802Y-74692000D02*
X139819802Y-71009000D01*
%TO.N,VCC*%
X157664000Y-102124000D02*
X157664000Y-105426000D01*
D22*
X129470000Y-97044000D02*
X133026000Y-100600000D01*
D24*
X156130000Y-100590000D02*
X157664000Y-102124000D01*
X153488000Y-100590000D02*
X156130000Y-100590000D01*
D22*
X129470000Y-89932000D02*
X129470000Y-97044000D01*
D24*
%TO.N,NRST*%
X164268000Y-80332000D02*
X164268000Y-86780000D01*
X157918000Y-87651000D02*
X163449000Y-87651000D01*
D23*
X146742000Y-90186000D02*
X152076000Y-90186000D01*
X146234000Y-90694000D02*
X146742000Y-90186000D01*
X154611000Y-87651000D02*
X157918000Y-87651000D01*
X152076000Y-90186000D02*
X154611000Y-87651000D01*
D24*
X163449000Y-87651000D02*
X164268000Y-86832000D01*
D22*
%TO.N,Net-(J1-Pin_2)*%
X144710000Y-111522000D02*
X139122000Y-111522000D01*
X139122000Y-111522000D02*
X137046000Y-113598000D01*
X137046000Y-113598000D02*
X133026000Y-113598000D01*
X146996000Y-109236000D02*
X144710000Y-111522000D01*
X146996000Y-106617500D02*
X146996000Y-109236000D01*
X151696000Y-106617500D02*
X146996000Y-106617500D01*
D23*
%TO.N,A1*%
X139376000Y-78248000D02*
X141078802Y-76545198D01*
X135189802Y-68400000D02*
X133215802Y-70374000D01*
X138791800Y-89398600D02*
X139376000Y-88814400D01*
X139498198Y-68400000D02*
X135189802Y-68400000D01*
X141078802Y-69980604D02*
X139498198Y-68400000D01*
X141078802Y-75211000D02*
X141078802Y-69980604D01*
X139376000Y-88814400D02*
X139376000Y-78248000D01*
X141078802Y-76545198D02*
X141078802Y-75211000D01*
%TO.N,A2*%
X139826000Y-89239000D02*
X139826000Y-78434396D01*
X139684594Y-67950000D02*
X133099802Y-67950000D01*
X141528802Y-76731594D02*
X141528802Y-69794208D01*
X133099802Y-67950000D02*
X130675802Y-70374000D01*
X139826000Y-78434396D02*
X141528802Y-76731594D01*
X141528802Y-69794208D02*
X139684594Y-67950000D01*
X140011000Y-89424000D02*
X139826000Y-89239000D01*
%TO.N,A3*%
X141154000Y-89424000D02*
X140276000Y-88546000D01*
X140276000Y-78620792D02*
X141978802Y-76917990D01*
X131009802Y-67500000D02*
X128135802Y-70374000D01*
X141978802Y-69607812D02*
X139870990Y-67500000D01*
X141978802Y-76917990D02*
X141978802Y-69607812D01*
X140276000Y-88546000D02*
X140276000Y-78620792D01*
X139870990Y-67500000D02*
X131009802Y-67500000D01*
D25*
%TO.N,A4*%
X137171488Y-90267488D02*
X136683600Y-89779600D01*
X136683600Y-89779600D02*
X136683600Y-75606400D01*
X138295802Y-73994198D02*
X138295802Y-72914000D01*
X136683600Y-75606400D02*
X138295802Y-73994198D01*
X142641665Y-90267488D02*
X137171488Y-90267488D01*
X142891165Y-90017988D02*
X142641665Y-90267488D01*
%TO.N,A5*%
X136964382Y-90767488D02*
X136183600Y-89986706D01*
X144053423Y-90037423D02*
X143323358Y-90767488D01*
X135769200Y-74984893D02*
X135769200Y-72927398D01*
X136183600Y-75399293D02*
X135769200Y-74984893D01*
X143323358Y-90767488D02*
X136964382Y-90767488D01*
X135769200Y-72927398D02*
X135755802Y-72914000D01*
X136183600Y-89986706D02*
X136183600Y-75399293D01*
%TO.N,A6*%
X136757276Y-91267488D02*
X135683600Y-90193812D01*
X144136512Y-91267488D02*
X136757276Y-91267488D01*
X135683600Y-90193812D02*
X135683600Y-76486000D01*
X133215802Y-74018202D02*
X133215802Y-72914000D01*
X145345000Y-90059000D02*
X144136512Y-91267488D01*
X135683600Y-76486000D02*
X133215802Y-74018202D01*
D23*
%TO.N,LD2*%
X157192802Y-68749000D02*
X155567802Y-70374000D01*
X162755000Y-69621604D02*
X161882396Y-68749000D01*
X156499000Y-78270000D02*
X160310396Y-78270000D01*
X151345500Y-89276951D02*
X151345500Y-83423500D01*
X162755000Y-75825396D02*
X162755000Y-73857594D01*
X151325451Y-89297000D02*
X151345500Y-89276951D01*
X151345500Y-83423500D02*
X156499000Y-78270000D01*
X162755000Y-73857594D02*
X162755000Y-69621604D01*
X161882396Y-68749000D02*
X157192802Y-68749000D01*
X160310396Y-78270000D02*
X162755000Y-75825396D01*
%TO.N,LD3*%
X144514000Y-77926396D02*
X144514000Y-74888000D01*
X144514000Y-74888000D02*
X144514000Y-73553802D01*
X148868802Y-69199000D02*
X151852802Y-69199000D01*
X145285604Y-78698000D02*
X144514000Y-77926396D01*
X148647000Y-79190500D02*
X148154500Y-78698000D01*
X148154500Y-78698000D02*
X145285604Y-78698000D01*
X151852802Y-69199000D02*
X153027802Y-70374000D01*
X144514000Y-73553802D02*
X148868802Y-69199000D01*
%TO.N,LD4*%
X149663000Y-79190500D02*
X149663000Y-79181195D01*
X145472000Y-78248000D02*
X144964000Y-77740000D01*
X144964000Y-77740000D02*
X144964000Y-75074396D01*
X148729805Y-78248000D02*
X145472000Y-78248000D01*
X148330198Y-70374000D02*
X150487802Y-70374000D01*
X144964000Y-75074396D02*
X144964000Y-73740198D01*
X144964000Y-73740198D02*
X148330198Y-70374000D01*
X149663000Y-79181195D02*
X148729805Y-78248000D01*
%TO.N,LD5*%
X155939812Y-76920000D02*
X158417010Y-76920000D01*
X158417010Y-76920000D02*
X160647802Y-74689208D01*
X152202285Y-80087136D02*
X152772676Y-80087136D01*
X152772676Y-80087136D02*
X155939812Y-76920000D01*
X160647802Y-74689208D02*
X160647802Y-72914000D01*
%TO.N,LD6*%
X156202802Y-76470000D02*
X158107802Y-74565000D01*
X158107802Y-74565000D02*
X158107802Y-72914000D01*
X152206082Y-79087640D02*
X153135776Y-79087640D01*
X153135776Y-79087640D02*
X155753416Y-76470000D01*
X155753416Y-76470000D02*
X156202802Y-76470000D01*
%TO.N,SWCLK*%
X154113000Y-82571000D02*
X157918000Y-82571000D01*
X154108000Y-82566000D02*
X154113000Y-82571000D01*
%TO.N,SWDIO*%
X154113000Y-85111000D02*
X157918000Y-85111000D01*
X154108000Y-85106000D02*
X154113000Y-85111000D01*
%TO.N,2A*%
X151568000Y-94504000D02*
X150948000Y-93884000D01*
X150948000Y-93884000D02*
X150948000Y-92970000D01*
X156643701Y-93737701D02*
X155877402Y-94504000D01*
X155877402Y-94504000D02*
X151568000Y-94504000D01*
%TO.N,2B*%
X155776305Y-91845000D02*
X139373000Y-91845000D01*
X157664000Y-93742000D02*
X157664000Y-93732695D01*
X157664000Y-93732695D02*
X155776305Y-91845000D01*
X139373000Y-91845000D02*
X138248000Y-92970000D01*
D24*
%TO.N,CAL_INT*%
X173321000Y-86832000D02*
X173321000Y-80332000D01*
%TD*%
%TA.AperFunction,Conductor*%
%TO.N,GND*%
G36*
X140462039Y-63281685D02*
G01*
X140507794Y-63334489D01*
X140519000Y-63386000D01*
X140519000Y-66963913D01*
X140499315Y-67030952D01*
X140446511Y-67076707D01*
X140377353Y-67086651D01*
X140313797Y-67057626D01*
X140310131Y-67054319D01*
X140307780Y-67052112D01*
X140304968Y-67049387D01*
X140288217Y-67032636D01*
X140285461Y-67029880D01*
X140282280Y-67027412D01*
X140273412Y-67019837D01*
X140241572Y-66989938D01*
X140224014Y-66980285D01*
X140207754Y-66969604D01*
X140191926Y-66957327D01*
X140151841Y-66939980D01*
X140141351Y-66934841D01*
X140103081Y-66913802D01*
X140083681Y-66908821D01*
X140065274Y-66902519D01*
X140046887Y-66894562D01*
X140003748Y-66887729D01*
X139992314Y-66885361D01*
X139950009Y-66874500D01*
X139929974Y-66874500D01*
X139910576Y-66872973D01*
X139903152Y-66871797D01*
X139890795Y-66869840D01*
X139890794Y-66869840D01*
X139865458Y-66872235D01*
X139847315Y-66873950D01*
X139835646Y-66874500D01*
X131092546Y-66874500D01*
X131072038Y-66872235D01*
X131001915Y-66874439D01*
X130998021Y-66874500D01*
X130970452Y-66874500D01*
X130966596Y-66874986D01*
X130966593Y-66874987D01*
X130966537Y-66874994D01*
X130966464Y-66875003D01*
X130954845Y-66875917D01*
X130911174Y-66877289D01*
X130891930Y-66882880D01*
X130872886Y-66886824D01*
X130853010Y-66889335D01*
X130812402Y-66905413D01*
X130801356Y-66909194D01*
X130759412Y-66921382D01*
X130759409Y-66921383D01*
X130742167Y-66931579D01*
X130724706Y-66940133D01*
X130706069Y-66947512D01*
X130670733Y-66973185D01*
X130660976Y-66979595D01*
X130623382Y-67001829D01*
X130609215Y-67015996D01*
X130594426Y-67028626D01*
X130578215Y-67040404D01*
X130550374Y-67074058D01*
X130542513Y-67082697D01*
X128591448Y-69033761D01*
X128530125Y-69067246D01*
X128471675Y-69065855D01*
X128371210Y-69038936D01*
X128135801Y-69018340D01*
X127900394Y-69038936D01*
X127672138Y-69100097D01*
X127457972Y-69199965D01*
X127264400Y-69335505D01*
X127097307Y-69502598D01*
X126961767Y-69696170D01*
X126861899Y-69910336D01*
X126800738Y-70138592D01*
X126780142Y-70374000D01*
X126800738Y-70609407D01*
X126811039Y-70647849D01*
X126861899Y-70837663D01*
X126961767Y-71051830D01*
X127097307Y-71245401D01*
X127264401Y-71412495D01*
X127450398Y-71542732D01*
X127494021Y-71597307D01*
X127501214Y-71666806D01*
X127469692Y-71729160D01*
X127450396Y-71745881D01*
X127374428Y-71799073D01*
X128003268Y-72427913D01*
X127993487Y-72429320D01*
X127862702Y-72489048D01*
X127754041Y-72583202D01*
X127676309Y-72704156D01*
X127652725Y-72784476D01*
X127020874Y-72152625D01*
X126962201Y-72236422D01*
X126862371Y-72450507D01*
X126801232Y-72678681D01*
X126780644Y-72914000D01*
X126801232Y-73149318D01*
X126862371Y-73377492D01*
X126962202Y-73591580D01*
X127020875Y-73675373D01*
X127652725Y-73043523D01*
X127676309Y-73123844D01*
X127754041Y-73244798D01*
X127862702Y-73338952D01*
X127993487Y-73398680D01*
X128003268Y-73400086D01*
X127374427Y-74028925D01*
X127458222Y-74087599D01*
X127672309Y-74187430D01*
X127900483Y-74248569D01*
X128135802Y-74269157D01*
X128371120Y-74248569D01*
X128599294Y-74187430D01*
X128813378Y-74087600D01*
X128897175Y-74028925D01*
X128268335Y-73400086D01*
X128278117Y-73398680D01*
X128408902Y-73338952D01*
X128517563Y-73244798D01*
X128595295Y-73123844D01*
X128618878Y-73043524D01*
X129250727Y-73675373D01*
X129304226Y-73598969D01*
X129358803Y-73555344D01*
X129428301Y-73548150D01*
X129490656Y-73579673D01*
X129507376Y-73598969D01*
X129560874Y-73675373D01*
X129560875Y-73675373D01*
X130192725Y-73043523D01*
X130216309Y-73123844D01*
X130294041Y-73244798D01*
X130402702Y-73338952D01*
X130533487Y-73398680D01*
X130543268Y-73400086D01*
X129914427Y-74028925D01*
X129998222Y-74087599D01*
X130212309Y-74187430D01*
X130440483Y-74248569D01*
X130675801Y-74269157D01*
X130911120Y-74248569D01*
X131139294Y-74187430D01*
X131353378Y-74087600D01*
X131437175Y-74028925D01*
X130808335Y-73400086D01*
X130818117Y-73398680D01*
X130948902Y-73338952D01*
X131057563Y-73244798D01*
X131135295Y-73123844D01*
X131158878Y-73043524D01*
X131790727Y-73675373D01*
X131843921Y-73599405D01*
X131898498Y-73555780D01*
X131967996Y-73548586D01*
X132030351Y-73580109D01*
X132047067Y-73599400D01*
X132177307Y-73785401D01*
X132344401Y-73952495D01*
X132526949Y-74080317D01*
X132570572Y-74134892D01*
X132578846Y-74166345D01*
X132580730Y-74181261D01*
X132597539Y-74223717D01*
X132601322Y-74234765D01*
X132614058Y-74278602D01*
X132624863Y-74296872D01*
X132633423Y-74314345D01*
X132638814Y-74327962D01*
X132641234Y-74334073D01*
X132648724Y-74344382D01*
X132668069Y-74371010D01*
X132674475Y-74380762D01*
X132697721Y-74420067D01*
X132697722Y-74420068D01*
X132697723Y-74420069D01*
X132712727Y-74435073D01*
X132725366Y-74449871D01*
X132737839Y-74467039D01*
X132773014Y-74496138D01*
X132781656Y-74504002D01*
X133897910Y-75620256D01*
X134996781Y-76719126D01*
X135030266Y-76780449D01*
X135033100Y-76806807D01*
X135033100Y-90108306D01*
X135030758Y-90129514D01*
X135033039Y-90202074D01*
X135033100Y-90205969D01*
X135033100Y-90234737D01*
X135033587Y-90238597D01*
X135033589Y-90238620D01*
X135033654Y-90239132D01*
X135034568Y-90250754D01*
X135036002Y-90296381D01*
X135041923Y-90316762D01*
X135045867Y-90335807D01*
X135048528Y-90356871D01*
X135065337Y-90399327D01*
X135069120Y-90410375D01*
X135081856Y-90454212D01*
X135092661Y-90472482D01*
X135101221Y-90489955D01*
X135109031Y-90509681D01*
X135135867Y-90546620D01*
X135142273Y-90556372D01*
X135165519Y-90595677D01*
X135165521Y-90595679D01*
X135180525Y-90610683D01*
X135193164Y-90625481D01*
X135205637Y-90642649D01*
X135240812Y-90671748D01*
X135249454Y-90679612D01*
X135687161Y-91117319D01*
X135720646Y-91178642D01*
X135715662Y-91248334D01*
X135673790Y-91304267D01*
X135608326Y-91328684D01*
X135599480Y-91329000D01*
X130594500Y-91329000D01*
X130527461Y-91309315D01*
X130481706Y-91256511D01*
X130470500Y-91205000D01*
X130470500Y-90420826D01*
X130483501Y-90365553D01*
X130500582Y-90331250D01*
X130556397Y-90135083D01*
X130556913Y-90129514D01*
X130575215Y-89932000D01*
X130556397Y-89728917D01*
X130500582Y-89532750D01*
X130500209Y-89532001D01*
X130409675Y-89350181D01*
X130286763Y-89187419D01*
X130136041Y-89050018D01*
X129962638Y-88942652D01*
X129772457Y-88868976D01*
X129705629Y-88856484D01*
X129571976Y-88831500D01*
X129368024Y-88831500D01*
X129267783Y-88850238D01*
X129167542Y-88868976D01*
X128977361Y-88942652D01*
X128803958Y-89050018D01*
X128653236Y-89187419D01*
X128530324Y-89350181D01*
X128439418Y-89532748D01*
X128383602Y-89728916D01*
X128364785Y-89932000D01*
X128383602Y-90135083D01*
X128439417Y-90331250D01*
X128456499Y-90365553D01*
X128469500Y-90420826D01*
X128469500Y-91205000D01*
X128449815Y-91272039D01*
X128397011Y-91317794D01*
X128345500Y-91329000D01*
X113338000Y-91329000D01*
X113270961Y-91309315D01*
X113225206Y-91256511D01*
X113214000Y-91205000D01*
X113214000Y-83925440D01*
X113233685Y-83858401D01*
X113270959Y-83821125D01*
X113288543Y-83809825D01*
X113341347Y-83764070D01*
X113435567Y-83655336D01*
X113495338Y-83524459D01*
X113515023Y-83457420D01*
X113515024Y-83457416D01*
X113535500Y-83315000D01*
X113535499Y-78513726D01*
X113535665Y-78519839D01*
X113551651Y-78451888D01*
X113601882Y-78403322D01*
X113659367Y-78389140D01*
X115513299Y-78387700D01*
X115698154Y-78387700D01*
X115915697Y-78367541D01*
X115921022Y-78367164D01*
X115997043Y-78363430D01*
X116012284Y-78358591D01*
X116066485Y-78353569D01*
X116311512Y-78307764D01*
X116316086Y-78306999D01*
X116377909Y-78297828D01*
X116388338Y-78293403D01*
X116430095Y-78285598D01*
X116706108Y-78207065D01*
X116709850Y-78206065D01*
X116750813Y-78195804D01*
X116756522Y-78192721D01*
X116785882Y-78184368D01*
X117099350Y-78062930D01*
X117102324Y-78061823D01*
X117112298Y-78058254D01*
X117113510Y-78057445D01*
X117128146Y-78051775D01*
X117128149Y-78051773D01*
X117130812Y-78050742D01*
X117461940Y-77885859D01*
X117723725Y-77723768D01*
X117791083Y-77705214D01*
X117857782Y-77726023D01*
X117902644Y-77779588D01*
X117913000Y-77829196D01*
X117913000Y-85487000D01*
X125025000Y-85487000D01*
X125025000Y-80912000D01*
X125044685Y-80844961D01*
X125097489Y-80799206D01*
X125149000Y-80788000D01*
X126295000Y-80788000D01*
X126295000Y-69612000D01*
X119624802Y-69612000D01*
X119557763Y-69592315D01*
X119512008Y-69539511D01*
X119500802Y-69488327D01*
X119500768Y-69475500D01*
X119495307Y-67401379D01*
X119495438Y-67395407D01*
X119503286Y-67225647D01*
X119512966Y-67028600D01*
X119514000Y-67017617D01*
X119539470Y-66835033D01*
X119566746Y-66651157D01*
X119568692Y-66640986D01*
X119611489Y-66459026D01*
X119656206Y-66280507D01*
X119658893Y-66271318D01*
X119718372Y-66093857D01*
X119719070Y-66091842D01*
X119780499Y-65920159D01*
X119783796Y-65911897D01*
X119859513Y-65740415D01*
X119860851Y-65737489D01*
X119938527Y-65573255D01*
X119942252Y-65566012D01*
X120033664Y-65401897D01*
X120035545Y-65398643D01*
X120128836Y-65242998D01*
X120132834Y-65236763D01*
X120239070Y-65081678D01*
X120241699Y-65077990D01*
X120349709Y-64932354D01*
X120353811Y-64927128D01*
X120474039Y-64782344D01*
X120477377Y-64778497D01*
X120599140Y-64644152D01*
X120603237Y-64639850D01*
X120736250Y-64506837D01*
X120740552Y-64502740D01*
X120874897Y-64380977D01*
X120878744Y-64377639D01*
X121023528Y-64257411D01*
X121028754Y-64253309D01*
X121174390Y-64145299D01*
X121178078Y-64142670D01*
X121333163Y-64036434D01*
X121339398Y-64032436D01*
X121495043Y-63939145D01*
X121498297Y-63937264D01*
X121662412Y-63845852D01*
X121669655Y-63842127D01*
X121833898Y-63764446D01*
X121836818Y-63763112D01*
X121900807Y-63734858D01*
X122008297Y-63687396D01*
X122016559Y-63684099D01*
X122188242Y-63622670D01*
X122190257Y-63621972D01*
X122367722Y-63562491D01*
X122376918Y-63559803D01*
X122555426Y-63515089D01*
X122737400Y-63472289D01*
X122747534Y-63470349D01*
X122931425Y-63443071D01*
X123114014Y-63417601D01*
X123124996Y-63416567D01*
X123321994Y-63406889D01*
X123491939Y-63399032D01*
X123497671Y-63398901D01*
X127984875Y-63401683D01*
X127984955Y-63401700D01*
X128009500Y-63401700D01*
X128192082Y-63401700D01*
X128194954Y-63401700D01*
X128412478Y-63381543D01*
X128417813Y-63381165D01*
X128493843Y-63377430D01*
X128509084Y-63372591D01*
X128563285Y-63367569D01*
X128808312Y-63321764D01*
X128812886Y-63320999D01*
X128874709Y-63311828D01*
X128885138Y-63307403D01*
X128926895Y-63299598D01*
X129042400Y-63266733D01*
X129076334Y-63262000D01*
X140395000Y-63262000D01*
X140462039Y-63281685D01*
G37*
%TD.AperFunction*%
%TA.AperFunction,Conductor*%
G36*
X129490657Y-71040546D02*
G01*
X129507373Y-71059837D01*
X129637307Y-71245401D01*
X129804401Y-71412495D01*
X129990398Y-71542732D01*
X130034021Y-71597307D01*
X130041214Y-71666806D01*
X130009692Y-71729160D01*
X129990396Y-71745881D01*
X129914428Y-71799073D01*
X130543268Y-72427913D01*
X130533487Y-72429320D01*
X130402702Y-72489048D01*
X130294041Y-72583202D01*
X130216309Y-72704156D01*
X130192725Y-72784476D01*
X129560874Y-72152625D01*
X129560874Y-72152626D01*
X129507376Y-72229030D01*
X129452800Y-72272655D01*
X129383301Y-72279849D01*
X129320946Y-72248326D01*
X129304226Y-72229030D01*
X129250727Y-72152626D01*
X129250727Y-72152625D01*
X128618878Y-72784475D01*
X128595295Y-72704156D01*
X128517563Y-72583202D01*
X128408902Y-72489048D01*
X128278117Y-72429320D01*
X128268335Y-72427913D01*
X128897175Y-71799073D01*
X128897175Y-71799072D01*
X128821207Y-71745880D01*
X128777582Y-71691304D01*
X128770388Y-71621805D01*
X128801910Y-71559451D01*
X128821201Y-71542734D01*
X129007203Y-71412495D01*
X129174297Y-71245401D01*
X129304228Y-71059839D01*
X129358804Y-71016217D01*
X129428303Y-71009024D01*
X129490657Y-71040546D01*
G37*
%TD.AperFunction*%
%TA.AperFunction,Conductor*%
G36*
X132030657Y-71040545D02*
G01*
X132047373Y-71059837D01*
X132177307Y-71245401D01*
X132344401Y-71412495D01*
X132529962Y-71542426D01*
X132573585Y-71597002D01*
X132580778Y-71666501D01*
X132549256Y-71728855D01*
X132529960Y-71745575D01*
X132355357Y-71867834D01*
X132344397Y-71875508D01*
X132177310Y-72042595D01*
X132177307Y-72042598D01*
X132177307Y-72042599D01*
X132100267Y-72152625D01*
X132047072Y-72228595D01*
X131992495Y-72272219D01*
X131922996Y-72279412D01*
X131860642Y-72247890D01*
X131843922Y-72228595D01*
X131790727Y-72152626D01*
X131790727Y-72152625D01*
X131158878Y-72784474D01*
X131135295Y-72704156D01*
X131057563Y-72583202D01*
X130948902Y-72489048D01*
X130818117Y-72429320D01*
X130808335Y-72427913D01*
X131437175Y-71799073D01*
X131437175Y-71799072D01*
X131361207Y-71745880D01*
X131317582Y-71691304D01*
X131310388Y-71621805D01*
X131341910Y-71559451D01*
X131361201Y-71542734D01*
X131547203Y-71412495D01*
X131714297Y-71245401D01*
X131844228Y-71059839D01*
X131898804Y-71016216D01*
X131968302Y-71009022D01*
X132030657Y-71040545D01*
G37*
%TD.AperFunction*%
%TD*%
%TA.AperFunction,Conductor*%
%TO.N,+3V3*%
G36*
X125732539Y-70137185D02*
G01*
X125778294Y-70189989D01*
X125789500Y-70241500D01*
X125789500Y-80158500D01*
X125769815Y-80225539D01*
X125717011Y-80271294D01*
X125665500Y-80282500D01*
X125149000Y-80282500D01*
X125145706Y-80282854D01*
X125145690Y-80282855D01*
X125044854Y-80293697D01*
X125044851Y-80293697D01*
X125041544Y-80294053D01*
X125038309Y-80294756D01*
X125038295Y-80294759D01*
X124993277Y-80304553D01*
X124993272Y-80304554D01*
X124990033Y-80305259D01*
X124986893Y-80306303D01*
X124986875Y-80306309D01*
X124887496Y-80339385D01*
X124766458Y-80417173D01*
X124713652Y-80462931D01*
X124689153Y-80491204D01*
X124679829Y-80497195D01*
X124680318Y-80497685D01*
X124628646Y-80549351D01*
X124624310Y-80564112D01*
X124620650Y-80569000D01*
X124619433Y-80571663D01*
X124619433Y-80571664D01*
X124559662Y-80702541D01*
X124539977Y-80769580D01*
X124539976Y-80769584D01*
X124539527Y-80772706D01*
X124539524Y-80772722D01*
X124519500Y-80912000D01*
X124519500Y-84857500D01*
X124499815Y-84924539D01*
X124447011Y-84970294D01*
X124395500Y-84981500D01*
X118545000Y-84981500D01*
X118477961Y-84961815D01*
X118432206Y-84909011D01*
X118421000Y-84857500D01*
X118421000Y-84857499D01*
X118420999Y-77183669D01*
X118440684Y-77116634D01*
X118453348Y-77100151D01*
X118594208Y-76945636D01*
X118817128Y-76650443D01*
X119011859Y-76335940D01*
X119176742Y-76004812D01*
X119183444Y-75987510D01*
X119184148Y-75986594D01*
X119187823Y-75976324D01*
X119188930Y-75973350D01*
X119310368Y-75659882D01*
X119318720Y-75630525D01*
X119321463Y-75626177D01*
X119332065Y-75583850D01*
X119333065Y-75580108D01*
X119411598Y-75304095D01*
X119419403Y-75262338D01*
X119423467Y-75254346D01*
X119432999Y-75190086D01*
X119433768Y-75185495D01*
X119444146Y-75129978D01*
X119479569Y-74940485D01*
X119484591Y-74886285D01*
X119489258Y-74874530D01*
X119493164Y-74795022D01*
X119493541Y-74789697D01*
X119513700Y-74572154D01*
X119513700Y-74387200D01*
X119513700Y-74386700D01*
X119513700Y-74336785D01*
X119513563Y-74335527D01*
X119513284Y-74229694D01*
X119507105Y-71882588D01*
X119502786Y-70241826D01*
X119522294Y-70174735D01*
X119574978Y-70128842D01*
X119626786Y-70117500D01*
X125665500Y-70117500D01*
X125732539Y-70137185D01*
G37*
%TD.AperFunction*%
%TD*%
%TA.AperFunction,Conductor*%
%TO.N,GND*%
G36*
X159933599Y-63266733D02*
G01*
X160049105Y-63299598D01*
X160090861Y-63307403D01*
X160098853Y-63311467D01*
X160163114Y-63320999D01*
X160167687Y-63321764D01*
X160412715Y-63367569D01*
X160466914Y-63372591D01*
X160478669Y-63377258D01*
X160558186Y-63381165D01*
X160563528Y-63381543D01*
X160781046Y-63401700D01*
X160783918Y-63401700D01*
X161017149Y-63401700D01*
X161017765Y-63401631D01*
X165469063Y-63395730D01*
X165474875Y-63395861D01*
X165644832Y-63403717D01*
X165841759Y-63413391D01*
X165852778Y-63414428D01*
X166000600Y-63435048D01*
X166035303Y-63439889D01*
X166055085Y-63442823D01*
X166219235Y-63467171D01*
X166229388Y-63469115D01*
X166411370Y-63511916D01*
X166589842Y-63556621D01*
X166599067Y-63559318D01*
X166776333Y-63618730D01*
X166778670Y-63619540D01*
X166950202Y-63680914D01*
X166958500Y-63684225D01*
X167130047Y-63759970D01*
X167132816Y-63761236D01*
X167297090Y-63838931D01*
X167304399Y-63842691D01*
X167468387Y-63934031D01*
X167471796Y-63936001D01*
X167627327Y-64029222D01*
X167633656Y-64033281D01*
X167788667Y-64139466D01*
X167792457Y-64142168D01*
X167937960Y-64250080D01*
X167943310Y-64254281D01*
X168087943Y-64374383D01*
X168091999Y-64377902D01*
X168226156Y-64499494D01*
X168230564Y-64503691D01*
X168363507Y-64636634D01*
X168367704Y-64641042D01*
X168489296Y-64775199D01*
X168492815Y-64779255D01*
X168612917Y-64923888D01*
X168617118Y-64929238D01*
X168725030Y-65074741D01*
X168727732Y-65078531D01*
X168833917Y-65233542D01*
X168837976Y-65239871D01*
X168931197Y-65395402D01*
X168933167Y-65398811D01*
X169024507Y-65562799D01*
X169028273Y-65570121D01*
X169105918Y-65734287D01*
X169107258Y-65737218D01*
X169182970Y-65908692D01*
X169186287Y-65917004D01*
X169247653Y-66088513D01*
X169248473Y-66090881D01*
X169307875Y-66268113D01*
X169310587Y-66277390D01*
X169355282Y-66455825D01*
X169398081Y-66637800D01*
X169400031Y-66647987D01*
X169427310Y-66831895D01*
X169452768Y-67014408D01*
X169453808Y-67025452D01*
X169463480Y-67222334D01*
X169471336Y-67392284D01*
X169471468Y-67398173D01*
X169462369Y-74335431D01*
X169462301Y-74335661D01*
X169462301Y-74386699D01*
X169462301Y-74387199D01*
X169462301Y-74572153D01*
X169462565Y-74575012D01*
X169462566Y-74575013D01*
X169482455Y-74789649D01*
X169482835Y-74795006D01*
X169486569Y-74871027D01*
X169491408Y-74886272D01*
X169492843Y-74901757D01*
X169496432Y-74940484D01*
X169496959Y-74943307D01*
X169496960Y-74943309D01*
X169542232Y-75185499D01*
X169543001Y-75190087D01*
X169552171Y-75251906D01*
X169556594Y-75262332D01*
X169563873Y-75301271D01*
X169563879Y-75301297D01*
X169564402Y-75304094D01*
X169565184Y-75306845D01*
X169565185Y-75306846D01*
X169642905Y-75580004D01*
X169643923Y-75583808D01*
X169654191Y-75624799D01*
X169657276Y-75630512D01*
X169665633Y-75659882D01*
X169666664Y-75662545D01*
X169666666Y-75662549D01*
X169787027Y-75973237D01*
X169788151Y-75976255D01*
X169791742Y-75986291D01*
X169792553Y-75987503D01*
X169798217Y-76002123D01*
X169798222Y-76002135D01*
X169799259Y-76004811D01*
X169800540Y-76007384D01*
X169800542Y-76007388D01*
X169959291Y-76326201D01*
X169964141Y-76335940D01*
X169965642Y-76338365D01*
X169965647Y-76338373D01*
X170157369Y-76648014D01*
X170157375Y-76648023D01*
X170158873Y-76650442D01*
X170381793Y-76945636D01*
X170630999Y-77219001D01*
X170904364Y-77468207D01*
X171199558Y-77691127D01*
X171201981Y-77692627D01*
X171201985Y-77692630D01*
X171511626Y-77884352D01*
X171514060Y-77885859D01*
X171845189Y-78050741D01*
X171847860Y-78051776D01*
X171847872Y-78051781D01*
X171862489Y-78057443D01*
X171863409Y-78058150D01*
X171873728Y-78061842D01*
X171876715Y-78062954D01*
X172190118Y-78184367D01*
X172219483Y-78192722D01*
X172223829Y-78195464D01*
X172266152Y-78206065D01*
X172269924Y-78207074D01*
X172545906Y-78285598D01*
X172587660Y-78293403D01*
X172595650Y-78297465D01*
X172659896Y-78306995D01*
X172664454Y-78307758D01*
X172909516Y-78353568D01*
X172963715Y-78358590D01*
X172975470Y-78363257D01*
X173054978Y-78367163D01*
X173060306Y-78367540D01*
X173277847Y-78387699D01*
X173280719Y-78387699D01*
X173462701Y-78387699D01*
X190442250Y-78414019D01*
X190442523Y-78414100D01*
X190491128Y-78414100D01*
X190496855Y-78414232D01*
X190666951Y-78422095D01*
X190863795Y-78431766D01*
X190874787Y-78432801D01*
X191057357Y-78458268D01*
X191241242Y-78485546D01*
X191251422Y-78487494D01*
X191433341Y-78530281D01*
X191611878Y-78575002D01*
X191621095Y-78577697D01*
X191798478Y-78637150D01*
X191800618Y-78637892D01*
X191972220Y-78699292D01*
X191980519Y-78702604D01*
X192151980Y-78778312D01*
X192154909Y-78779651D01*
X192241263Y-78820492D01*
X192319119Y-78857315D01*
X192326411Y-78861065D01*
X192490435Y-78952427D01*
X192493810Y-78954377D01*
X192649371Y-79047617D01*
X192655670Y-79051658D01*
X192810699Y-79157856D01*
X192814459Y-79160535D01*
X192960009Y-79268482D01*
X192965305Y-79272640D01*
X193110009Y-79392800D01*
X193113947Y-79396217D01*
X193248206Y-79517903D01*
X193252590Y-79522078D01*
X193385520Y-79655008D01*
X193389698Y-79659395D01*
X193511375Y-79793645D01*
X193514805Y-79797598D01*
X193634951Y-79942284D01*
X193639124Y-79947600D01*
X193740421Y-80084183D01*
X193747041Y-80093109D01*
X193749742Y-80096899D01*
X193855940Y-80251928D01*
X193859999Y-80258256D01*
X193953200Y-80413753D01*
X193955171Y-80417163D01*
X194046525Y-80581173D01*
X194050291Y-80588496D01*
X194127947Y-80752689D01*
X194129286Y-80755618D01*
X194204994Y-80927079D01*
X194208311Y-80935391D01*
X194269666Y-81106865D01*
X194270487Y-81109234D01*
X194329894Y-81286481D01*
X194332606Y-81295757D01*
X194377317Y-81474253D01*
X194420102Y-81656167D01*
X194422052Y-81666353D01*
X194449337Y-81850289D01*
X194474794Y-82032786D01*
X194475834Y-82043830D01*
X194485512Y-82240838D01*
X194493368Y-82410744D01*
X194493500Y-82416471D01*
X194493500Y-82464812D01*
X194493561Y-82465377D01*
X194505461Y-92599000D01*
X157414895Y-92599000D01*
X157247092Y-92431197D01*
X156601077Y-91785181D01*
X156567592Y-91723858D01*
X156572576Y-91654166D01*
X156614448Y-91598233D01*
X156679912Y-91573816D01*
X156688758Y-91573500D01*
X157078256Y-91573500D01*
X157098762Y-91575764D01*
X157101665Y-91575672D01*
X157101667Y-91575673D01*
X157168872Y-91573561D01*
X157172768Y-91573500D01*
X157196448Y-91573500D01*
X157200350Y-91573500D01*
X157204313Y-91572999D01*
X157215962Y-91572080D01*
X157259627Y-91570709D01*
X157278859Y-91565120D01*
X157297918Y-91561174D01*
X157304196Y-91560381D01*
X157317792Y-91558664D01*
X157358407Y-91542582D01*
X157369444Y-91538803D01*
X157411390Y-91526618D01*
X157428644Y-91516413D01*
X157446086Y-91507868D01*
X157464732Y-91500486D01*
X157464736Y-91500482D01*
X157476006Y-91496021D01*
X157545584Y-91489645D01*
X157553730Y-91491535D01*
X157682592Y-91526063D01*
X157828185Y-91538801D01*
X157917999Y-91546659D01*
X157917999Y-91546658D01*
X157918000Y-91546659D01*
X158153408Y-91526063D01*
X158381663Y-91464903D01*
X158595830Y-91365035D01*
X158789401Y-91229495D01*
X158956495Y-91062401D01*
X159092035Y-90868830D01*
X159191903Y-90654663D01*
X159253063Y-90426408D01*
X159273659Y-90191000D01*
X159253063Y-89955592D01*
X159191903Y-89727337D01*
X159092035Y-89513171D01*
X158956495Y-89319599D01*
X158789401Y-89152505D01*
X158603839Y-89022573D01*
X158560216Y-88967998D01*
X158553022Y-88898500D01*
X158584545Y-88836145D01*
X158603837Y-88819428D01*
X158789401Y-88689495D01*
X158956495Y-88522401D01*
X159004127Y-88454374D01*
X159058703Y-88410751D01*
X159105701Y-88401500D01*
X163385294Y-88401500D01*
X163403264Y-88402809D01*
X163407320Y-88403402D01*
X163427023Y-88406289D01*
X163476368Y-88401972D01*
X163487176Y-88401500D01*
X163489100Y-88401500D01*
X163492709Y-88401500D01*
X163523550Y-88397894D01*
X163527031Y-88397539D01*
X163601797Y-88390999D01*
X163601797Y-88390998D01*
X163603052Y-88390889D01*
X163622062Y-88386674D01*
X163623250Y-88386241D01*
X163623255Y-88386241D01*
X163693820Y-88360557D01*
X163697095Y-88359419D01*
X163768334Y-88335814D01*
X163768336Y-88335812D01*
X163769536Y-88335415D01*
X163787064Y-88326929D01*
X163788115Y-88326237D01*
X163788117Y-88326237D01*
X163811863Y-88310618D01*
X163878689Y-88290225D01*
X163900411Y-88291908D01*
X164143665Y-88332500D01*
X164392335Y-88332500D01*
X164637614Y-88291571D01*
X164872810Y-88210828D01*
X165091509Y-88092474D01*
X165287744Y-87939738D01*
X165456164Y-87756785D01*
X165592173Y-87548607D01*
X165692063Y-87320881D01*
X165753108Y-87079821D01*
X165773643Y-86832000D01*
X167262858Y-86832000D01*
X167283386Y-87079732D01*
X167344413Y-87320721D01*
X167444268Y-87548370D01*
X167544563Y-87701882D01*
X167544564Y-87701882D01*
X168242070Y-87004376D01*
X168244884Y-87017915D01*
X168314442Y-87152156D01*
X168417638Y-87262652D01*
X168546819Y-87341209D01*
X168598002Y-87355549D01*
X167897942Y-88055609D01*
X167897942Y-88055610D01*
X167944766Y-88092055D01*
X168163393Y-88210368D01*
X168398506Y-88291083D01*
X168643707Y-88332000D01*
X168892293Y-88332000D01*
X169137493Y-88291083D01*
X169372606Y-88210368D01*
X169591233Y-88092053D01*
X169638056Y-88055609D01*
X168939568Y-87357121D01*
X169056458Y-87306349D01*
X169173739Y-87210934D01*
X169260928Y-87087415D01*
X169291354Y-87001802D01*
X169991434Y-87701882D01*
X170091730Y-87548369D01*
X170191586Y-87320721D01*
X170252613Y-87079732D01*
X170273141Y-86832000D01*
X171815356Y-86832000D01*
X171835891Y-87079816D01*
X171835891Y-87079819D01*
X171835892Y-87079821D01*
X171896937Y-87320881D01*
X171928373Y-87392547D01*
X171996825Y-87548604D01*
X171996827Y-87548607D01*
X172132836Y-87756785D01*
X172301256Y-87939738D01*
X172301259Y-87939740D01*
X172497485Y-88092470D01*
X172497487Y-88092471D01*
X172497491Y-88092474D01*
X172716190Y-88210828D01*
X172951386Y-88291571D01*
X173196665Y-88332500D01*
X173445335Y-88332500D01*
X173690614Y-88291571D01*
X173925810Y-88210828D01*
X174144509Y-88092474D01*
X174340744Y-87939738D01*
X174509164Y-87756785D01*
X174645173Y-87548607D01*
X174745063Y-87320881D01*
X174806108Y-87079821D01*
X174826643Y-86832000D01*
X174826643Y-86831999D01*
X176315858Y-86831999D01*
X176336386Y-87079732D01*
X176397413Y-87320721D01*
X176497268Y-87548370D01*
X176597563Y-87701882D01*
X176597564Y-87701882D01*
X177295070Y-87004376D01*
X177297884Y-87017915D01*
X177367442Y-87152156D01*
X177470638Y-87262652D01*
X177599819Y-87341209D01*
X177651002Y-87355549D01*
X176950942Y-88055609D01*
X176950942Y-88055610D01*
X176997766Y-88092055D01*
X177216393Y-88210368D01*
X177451506Y-88291083D01*
X177696707Y-88332000D01*
X177945293Y-88332000D01*
X178190493Y-88291083D01*
X178425606Y-88210368D01*
X178644233Y-88092053D01*
X178691056Y-88055609D01*
X177992568Y-87357121D01*
X178109458Y-87306349D01*
X178226739Y-87210934D01*
X178313928Y-87087415D01*
X178344354Y-87001802D01*
X179044434Y-87701882D01*
X179144730Y-87548369D01*
X179244586Y-87320721D01*
X179305613Y-87079732D01*
X179326141Y-86832000D01*
X179305613Y-86584267D01*
X179244586Y-86343278D01*
X179144730Y-86115630D01*
X179044434Y-85962116D01*
X178346929Y-86659622D01*
X178344116Y-86646085D01*
X178274558Y-86511844D01*
X178171362Y-86401348D01*
X178042181Y-86322791D01*
X177990997Y-86308450D01*
X178691057Y-85608390D01*
X178691056Y-85608388D01*
X178644235Y-85571947D01*
X178425606Y-85453631D01*
X178190493Y-85372916D01*
X177945293Y-85332000D01*
X177696707Y-85332000D01*
X177451506Y-85372916D01*
X177216393Y-85453631D01*
X176997764Y-85571946D01*
X176950942Y-85608388D01*
X176950942Y-85608390D01*
X177649431Y-86306878D01*
X177532542Y-86357651D01*
X177415261Y-86453066D01*
X177328072Y-86576585D01*
X177297645Y-86662196D01*
X176597564Y-85962117D01*
X176497266Y-86115634D01*
X176397413Y-86343278D01*
X176336386Y-86584267D01*
X176315858Y-86831999D01*
X174826643Y-86831999D01*
X174806108Y-86584179D01*
X174745063Y-86343119D01*
X174645173Y-86115393D01*
X174509164Y-85907215D01*
X174340744Y-85724262D01*
X174191869Y-85608388D01*
X174144508Y-85571525D01*
X174136478Y-85567179D01*
X174086889Y-85517958D01*
X174071500Y-85458127D01*
X174071500Y-81705872D01*
X174091185Y-81638833D01*
X174136486Y-81596815D01*
X174144509Y-81592474D01*
X174145048Y-81592055D01*
X174221557Y-81532505D01*
X174340744Y-81439738D01*
X174509164Y-81256785D01*
X174645173Y-81048607D01*
X174745063Y-80820881D01*
X174806108Y-80579821D01*
X174826643Y-80332000D01*
X176315858Y-80332000D01*
X176336386Y-80579732D01*
X176397413Y-80820721D01*
X176497268Y-81048370D01*
X176597563Y-81201882D01*
X176597564Y-81201882D01*
X177295070Y-80504376D01*
X177297884Y-80517915D01*
X177367442Y-80652156D01*
X177470638Y-80762652D01*
X177599819Y-80841209D01*
X177651002Y-80855549D01*
X176950942Y-81555609D01*
X176950942Y-81555610D01*
X176997766Y-81592055D01*
X177216393Y-81710368D01*
X177451506Y-81791083D01*
X177696707Y-81832000D01*
X177945293Y-81832000D01*
X178190493Y-81791083D01*
X178425606Y-81710368D01*
X178644233Y-81592053D01*
X178691056Y-81555609D01*
X177992568Y-80857121D01*
X178109458Y-80806349D01*
X178226739Y-80710934D01*
X178313928Y-80587415D01*
X178344354Y-80501802D01*
X179044434Y-81201882D01*
X179144730Y-81048369D01*
X179244586Y-80820721D01*
X179305613Y-80579732D01*
X179326141Y-80331999D01*
X179305613Y-80084267D01*
X179244586Y-79843278D01*
X179144730Y-79615630D01*
X179044434Y-79462116D01*
X178346929Y-80159622D01*
X178344116Y-80146085D01*
X178274558Y-80011844D01*
X178171362Y-79901348D01*
X178042181Y-79822791D01*
X177990997Y-79808450D01*
X178691057Y-79108390D01*
X178691056Y-79108388D01*
X178644235Y-79071947D01*
X178425606Y-78953631D01*
X178190493Y-78872916D01*
X177945293Y-78832000D01*
X177696707Y-78832000D01*
X177451506Y-78872916D01*
X177216393Y-78953631D01*
X176997764Y-79071946D01*
X176950942Y-79108388D01*
X176950942Y-79108390D01*
X177649431Y-79806878D01*
X177532542Y-79857651D01*
X177415261Y-79953066D01*
X177328072Y-80076585D01*
X177297645Y-80162197D01*
X176597564Y-79462116D01*
X176497266Y-79615634D01*
X176397413Y-79843278D01*
X176336386Y-80084267D01*
X176315858Y-80332000D01*
X174826643Y-80332000D01*
X174824665Y-80308135D01*
X174817283Y-80219047D01*
X174806108Y-80084179D01*
X174745063Y-79843119D01*
X174645173Y-79615393D01*
X174509164Y-79407215D01*
X174340744Y-79224262D01*
X174297365Y-79190499D01*
X174144514Y-79071529D01*
X174144510Y-79071526D01*
X174144509Y-79071526D01*
X173925810Y-78953172D01*
X173925806Y-78953170D01*
X173925805Y-78953170D01*
X173690615Y-78872429D01*
X173445335Y-78831500D01*
X173196665Y-78831500D01*
X172951384Y-78872429D01*
X172716194Y-78953170D01*
X172716190Y-78953171D01*
X172716190Y-78953172D01*
X172711249Y-78955846D01*
X172497485Y-79071529D01*
X172301259Y-79224259D01*
X172301256Y-79224261D01*
X172301256Y-79224262D01*
X172146155Y-79392747D01*
X172132837Y-79407214D01*
X171996825Y-79615395D01*
X171924185Y-79781000D01*
X171896937Y-79843119D01*
X171854210Y-80011844D01*
X171835891Y-80084183D01*
X171815356Y-80331999D01*
X171835891Y-80579816D01*
X171835891Y-80579819D01*
X171835892Y-80579821D01*
X171896937Y-80820881D01*
X171934716Y-80907008D01*
X171996825Y-81048604D01*
X171996827Y-81048607D01*
X172132836Y-81256785D01*
X172195036Y-81324352D01*
X172301256Y-81439738D01*
X172497487Y-81592472D01*
X172497491Y-81592474D01*
X172505513Y-81596815D01*
X172555105Y-81646031D01*
X172570500Y-81705872D01*
X172570500Y-85458127D01*
X172550815Y-85525166D01*
X172505522Y-85567179D01*
X172497491Y-85571525D01*
X172301259Y-85724259D01*
X172301256Y-85724261D01*
X172301256Y-85724262D01*
X172148545Y-85890151D01*
X172132837Y-85907214D01*
X171996825Y-86115395D01*
X171981868Y-86149495D01*
X171896937Y-86343119D01*
X171862667Y-86478447D01*
X171835891Y-86584183D01*
X171815356Y-86832000D01*
X170273141Y-86832000D01*
X170252613Y-86584267D01*
X170191586Y-86343278D01*
X170091730Y-86115630D01*
X169991434Y-85962116D01*
X169293929Y-86659622D01*
X169291116Y-86646085D01*
X169221558Y-86511844D01*
X169118362Y-86401348D01*
X168989181Y-86322791D01*
X168937997Y-86308450D01*
X169638057Y-85608390D01*
X169638056Y-85608388D01*
X169591235Y-85571947D01*
X169372606Y-85453631D01*
X169137493Y-85372916D01*
X168892293Y-85332000D01*
X168643707Y-85332000D01*
X168398506Y-85372916D01*
X168163393Y-85453631D01*
X167944764Y-85571946D01*
X167897942Y-85608388D01*
X167897942Y-85608390D01*
X168596431Y-86306878D01*
X168479542Y-86357651D01*
X168362261Y-86453066D01*
X168275072Y-86576585D01*
X168244645Y-86662197D01*
X167544564Y-85962116D01*
X167444266Y-86115634D01*
X167344413Y-86343278D01*
X167283386Y-86584267D01*
X167262858Y-86832000D01*
X165773643Y-86832000D01*
X165753108Y-86584179D01*
X165692063Y-86343119D01*
X165592173Y-86115393D01*
X165456164Y-85907215D01*
X165287744Y-85724262D01*
X165138869Y-85608388D01*
X165091508Y-85571525D01*
X165083478Y-85567179D01*
X165033889Y-85517958D01*
X165018500Y-85458127D01*
X165018500Y-81705872D01*
X165038185Y-81638833D01*
X165083486Y-81596815D01*
X165091509Y-81592474D01*
X165092048Y-81592055D01*
X165168557Y-81532505D01*
X165287744Y-81439738D01*
X165456164Y-81256785D01*
X165592173Y-81048607D01*
X165692063Y-80820881D01*
X165753108Y-80579821D01*
X165773643Y-80332000D01*
X167262858Y-80332000D01*
X167283386Y-80579732D01*
X167344413Y-80820721D01*
X167444268Y-81048370D01*
X167544563Y-81201882D01*
X167544564Y-81201882D01*
X168242070Y-80504376D01*
X168244884Y-80517915D01*
X168314442Y-80652156D01*
X168417638Y-80762652D01*
X168546819Y-80841209D01*
X168598002Y-80855549D01*
X167897942Y-81555609D01*
X167897942Y-81555610D01*
X167944766Y-81592055D01*
X168163393Y-81710368D01*
X168398506Y-81791083D01*
X168643707Y-81832000D01*
X168892293Y-81832000D01*
X169137493Y-81791083D01*
X169372606Y-81710368D01*
X169591233Y-81592053D01*
X169638056Y-81555609D01*
X168939568Y-80857121D01*
X169056458Y-80806349D01*
X169173739Y-80710934D01*
X169260928Y-80587415D01*
X169291354Y-80501802D01*
X169991434Y-81201882D01*
X170091730Y-81048369D01*
X170191586Y-80820721D01*
X170252613Y-80579732D01*
X170273141Y-80332000D01*
X170252613Y-80084267D01*
X170191586Y-79843278D01*
X170091730Y-79615630D01*
X169991434Y-79462116D01*
X169293928Y-80159621D01*
X169291116Y-80146085D01*
X169221558Y-80011844D01*
X169118362Y-79901348D01*
X168989181Y-79822791D01*
X168937997Y-79808450D01*
X169638057Y-79108390D01*
X169638056Y-79108388D01*
X169591235Y-79071947D01*
X169372606Y-78953631D01*
X169137493Y-78872916D01*
X168892293Y-78832000D01*
X168643707Y-78832000D01*
X168398506Y-78872916D01*
X168163393Y-78953631D01*
X167944764Y-79071946D01*
X167897942Y-79108388D01*
X167897942Y-79108390D01*
X168596431Y-79806878D01*
X168479542Y-79857651D01*
X168362261Y-79953066D01*
X168275072Y-80076585D01*
X168244645Y-80162197D01*
X167544564Y-79462116D01*
X167444266Y-79615634D01*
X167344413Y-79843278D01*
X167283386Y-80084267D01*
X167262858Y-80332000D01*
X165773643Y-80332000D01*
X165771665Y-80308135D01*
X165764283Y-80219047D01*
X165753108Y-80084179D01*
X165692063Y-79843119D01*
X165592173Y-79615393D01*
X165456164Y-79407215D01*
X165287744Y-79224262D01*
X165244365Y-79190499D01*
X165091514Y-79071529D01*
X165091510Y-79071526D01*
X165091509Y-79071526D01*
X164872810Y-78953172D01*
X164872806Y-78953170D01*
X164872805Y-78953170D01*
X164637615Y-78872429D01*
X164392335Y-78831500D01*
X164143665Y-78831500D01*
X163898384Y-78872429D01*
X163663194Y-78953170D01*
X163663190Y-78953171D01*
X163663190Y-78953172D01*
X163658249Y-78955846D01*
X163444485Y-79071529D01*
X163248259Y-79224259D01*
X163248256Y-79224261D01*
X163248256Y-79224262D01*
X163093155Y-79392747D01*
X163079837Y-79407214D01*
X162943825Y-79615395D01*
X162871185Y-79781000D01*
X162843937Y-79843119D01*
X162801210Y-80011844D01*
X162782891Y-80084183D01*
X162762356Y-80331999D01*
X162782891Y-80579816D01*
X162782891Y-80579819D01*
X162782892Y-80579821D01*
X162843937Y-80820881D01*
X162881716Y-80907008D01*
X162943825Y-81048604D01*
X162943827Y-81048607D01*
X163079836Y-81256785D01*
X163142036Y-81324352D01*
X163248256Y-81439738D01*
X163444487Y-81592472D01*
X163444491Y-81592474D01*
X163452513Y-81596815D01*
X163502105Y-81646031D01*
X163517500Y-81705872D01*
X163517500Y-85458127D01*
X163497815Y-85525166D01*
X163452522Y-85567179D01*
X163444491Y-85571525D01*
X163248259Y-85724259D01*
X163248256Y-85724261D01*
X163248256Y-85724262D01*
X163095545Y-85890151D01*
X163079837Y-85907214D01*
X162943825Y-86115395D01*
X162928868Y-86149495D01*
X162843937Y-86343119D01*
X162809667Y-86478447D01*
X162782891Y-86584183D01*
X162766107Y-86786740D01*
X162740954Y-86851925D01*
X162684552Y-86893163D01*
X162642531Y-86900500D01*
X159105701Y-86900500D01*
X159038662Y-86880815D01*
X159004126Y-86847623D01*
X158956494Y-86779598D01*
X158789402Y-86612505D01*
X158645642Y-86511844D01*
X158603839Y-86482573D01*
X158560216Y-86427998D01*
X158553022Y-86358500D01*
X158584545Y-86296145D01*
X158603837Y-86279428D01*
X158789401Y-86149495D01*
X158956495Y-85982401D01*
X159092035Y-85788830D01*
X159191903Y-85574663D01*
X159253063Y-85346408D01*
X159273659Y-85111000D01*
X159253063Y-84875592D01*
X159191903Y-84647337D01*
X159092035Y-84433171D01*
X158956495Y-84239599D01*
X158789401Y-84072505D01*
X158603839Y-83942573D01*
X158560216Y-83887998D01*
X158553022Y-83818500D01*
X158584545Y-83756145D01*
X158603837Y-83739428D01*
X158789401Y-83609495D01*
X158956495Y-83442401D01*
X159092035Y-83248830D01*
X159191903Y-83034663D01*
X159253063Y-82806408D01*
X159273659Y-82571000D01*
X159253063Y-82335592D01*
X159191903Y-82107337D01*
X159092035Y-81893171D01*
X158956495Y-81699599D01*
X158834181Y-81577285D01*
X158800696Y-81515962D01*
X158805680Y-81446270D01*
X158847552Y-81390337D01*
X158878528Y-81373422D01*
X159010089Y-81324352D01*
X159125188Y-81238188D01*
X159211352Y-81123089D01*
X159261599Y-80988371D01*
X159267645Y-80932132D01*
X159268000Y-80925518D01*
X159268000Y-80281000D01*
X158351686Y-80281000D01*
X158377493Y-80240844D01*
X158418000Y-80102889D01*
X158418000Y-79959111D01*
X158377493Y-79821156D01*
X158351686Y-79781000D01*
X159268000Y-79781000D01*
X159268000Y-79136481D01*
X159267645Y-79129867D01*
X159261599Y-79073626D01*
X159257574Y-79062835D01*
X159252589Y-78993143D01*
X159286073Y-78931820D01*
X159347396Y-78898334D01*
X159373755Y-78895500D01*
X160227652Y-78895500D01*
X160248158Y-78897764D01*
X160251061Y-78897672D01*
X160251063Y-78897673D01*
X160318268Y-78895561D01*
X160322164Y-78895500D01*
X160345844Y-78895500D01*
X160349746Y-78895500D01*
X160353709Y-78894999D01*
X160365358Y-78894080D01*
X160409023Y-78892709D01*
X160428255Y-78887120D01*
X160447314Y-78883174D01*
X160453592Y-78882381D01*
X160467188Y-78880664D01*
X160507803Y-78864582D01*
X160518840Y-78860803D01*
X160560786Y-78848618D01*
X160578025Y-78838422D01*
X160595498Y-78829862D01*
X160614128Y-78822486D01*
X160649460Y-78796814D01*
X160659226Y-78790400D01*
X160679666Y-78778312D01*
X160696816Y-78768170D01*
X160710981Y-78754004D01*
X160725769Y-78741373D01*
X160741983Y-78729594D01*
X160769834Y-78695926D01*
X160777675Y-78687309D01*
X163138789Y-76326196D01*
X163154885Y-76313302D01*
X163156873Y-76311183D01*
X163156877Y-76311182D01*
X163202949Y-76262119D01*
X163205534Y-76259451D01*
X163225120Y-76239867D01*
X163227585Y-76236688D01*
X163235167Y-76227812D01*
X163265062Y-76195978D01*
X163274717Y-76178414D01*
X163285394Y-76162160D01*
X163297673Y-76146332D01*
X163315018Y-76106248D01*
X163320160Y-76095752D01*
X163323709Y-76089297D01*
X163341197Y-76057488D01*
X163346179Y-76038080D01*
X163352481Y-76019676D01*
X163360437Y-76001292D01*
X163367269Y-75958148D01*
X163369633Y-75946734D01*
X163380500Y-75904415D01*
X163380500Y-75884378D01*
X163382027Y-75864980D01*
X163382921Y-75859335D01*
X163385160Y-75845200D01*
X163381050Y-75801720D01*
X163380500Y-75790051D01*
X163380500Y-69704343D01*
X163382763Y-69683842D01*
X163382238Y-69667144D01*
X163380561Y-69613747D01*
X163380500Y-69609853D01*
X163380500Y-69586148D01*
X163380500Y-69582254D01*
X163379998Y-69578285D01*
X163379080Y-69566628D01*
X163377709Y-69522976D01*
X163372119Y-69503738D01*
X163368174Y-69484686D01*
X163365664Y-69464812D01*
X163360203Y-69451020D01*
X163349578Y-69424185D01*
X163345805Y-69413164D01*
X163333617Y-69371214D01*
X163329886Y-69364906D01*
X163323421Y-69353973D01*
X163314863Y-69336506D01*
X163307486Y-69317872D01*
X163281798Y-69282516D01*
X163275409Y-69272788D01*
X163253170Y-69235183D01*
X163239006Y-69221019D01*
X163226369Y-69206224D01*
X163214595Y-69190018D01*
X163214594Y-69190017D01*
X163180935Y-69162172D01*
X163172305Y-69154318D01*
X162383198Y-68365211D01*
X162370302Y-68349113D01*
X162319171Y-68301098D01*
X162316374Y-68298387D01*
X162299623Y-68281636D01*
X162296867Y-68278880D01*
X162293686Y-68276412D01*
X162284818Y-68268837D01*
X162252978Y-68238938D01*
X162235420Y-68229285D01*
X162219160Y-68218604D01*
X162203332Y-68206327D01*
X162163247Y-68188980D01*
X162152757Y-68183841D01*
X162114487Y-68162802D01*
X162095087Y-68157821D01*
X162076680Y-68151519D01*
X162058293Y-68143562D01*
X162015154Y-68136729D01*
X162003720Y-68134361D01*
X161961415Y-68123500D01*
X161941380Y-68123500D01*
X161921982Y-68121973D01*
X161914558Y-68120797D01*
X161902201Y-68118840D01*
X161902200Y-68118840D01*
X161875880Y-68121328D01*
X161858721Y-68122950D01*
X161847052Y-68123500D01*
X157275543Y-68123500D01*
X157255039Y-68121236D01*
X157184947Y-68123439D01*
X157181053Y-68123500D01*
X157153452Y-68123500D01*
X157149601Y-68123986D01*
X157149570Y-68123988D01*
X157149442Y-68124005D01*
X157137830Y-68124918D01*
X157094170Y-68126290D01*
X157074930Y-68131880D01*
X157055883Y-68135825D01*
X157036011Y-68138335D01*
X156995401Y-68154413D01*
X156984356Y-68158194D01*
X156942412Y-68170381D01*
X156925167Y-68180579D01*
X156907706Y-68189133D01*
X156889069Y-68196512D01*
X156853733Y-68222185D01*
X156843976Y-68228595D01*
X156806382Y-68250829D01*
X156792215Y-68264996D01*
X156777426Y-68277626D01*
X156761215Y-68289404D01*
X156733374Y-68323058D01*
X156725513Y-68331697D01*
X156023448Y-69033762D01*
X155962125Y-69067247D01*
X155903674Y-69065856D01*
X155843023Y-69049604D01*
X155803207Y-69038936D01*
X155567801Y-69018340D01*
X155332394Y-69038936D01*
X155104138Y-69100097D01*
X154889972Y-69199965D01*
X154696400Y-69335505D01*
X154529307Y-69502598D01*
X154399377Y-69688159D01*
X154344800Y-69731784D01*
X154275302Y-69738978D01*
X154212947Y-69707455D01*
X154196227Y-69688159D01*
X154115141Y-69572356D01*
X154066297Y-69502599D01*
X153899203Y-69335505D01*
X153705632Y-69199965D01*
X153491465Y-69100097D01*
X153430304Y-69083709D01*
X153263209Y-69038936D01*
X153027802Y-69018340D01*
X152792393Y-69038936D01*
X152691927Y-69065855D01*
X152622077Y-69064192D01*
X152572154Y-69033761D01*
X152353604Y-68815211D01*
X152340708Y-68799113D01*
X152289577Y-68751098D01*
X152286780Y-68748387D01*
X152270029Y-68731636D01*
X152270028Y-68731636D01*
X152267273Y-68728880D01*
X152264092Y-68726412D01*
X152255224Y-68718837D01*
X152223384Y-68688938D01*
X152205826Y-68679285D01*
X152189566Y-68668604D01*
X152173738Y-68656327D01*
X152133653Y-68638980D01*
X152123163Y-68633841D01*
X152084893Y-68612802D01*
X152065493Y-68607821D01*
X152047086Y-68601519D01*
X152028699Y-68593562D01*
X151985560Y-68586729D01*
X151974126Y-68584361D01*
X151931821Y-68573500D01*
X151911786Y-68573500D01*
X151892388Y-68571973D01*
X151884964Y-68570797D01*
X151872607Y-68568840D01*
X151872606Y-68568840D01*
X151846286Y-68571328D01*
X151829127Y-68572950D01*
X151817458Y-68573500D01*
X148951543Y-68573500D01*
X148931039Y-68571236D01*
X148860947Y-68573439D01*
X148857053Y-68573500D01*
X148829452Y-68573500D01*
X148825601Y-68573986D01*
X148825570Y-68573988D01*
X148825442Y-68574005D01*
X148813830Y-68574918D01*
X148770170Y-68576290D01*
X148750930Y-68581880D01*
X148731883Y-68585825D01*
X148712011Y-68588335D01*
X148671401Y-68604413D01*
X148660356Y-68608194D01*
X148618412Y-68620381D01*
X148601167Y-68630579D01*
X148583706Y-68639133D01*
X148565069Y-68646512D01*
X148529733Y-68672185D01*
X148519976Y-68678595D01*
X148482382Y-68700829D01*
X148468215Y-68714996D01*
X148453426Y-68727626D01*
X148437215Y-68739404D01*
X148409374Y-68773058D01*
X148401513Y-68781697D01*
X144130208Y-73053001D01*
X144114110Y-73065898D01*
X144066096Y-73117027D01*
X144063392Y-73119818D01*
X144046628Y-73136582D01*
X144046621Y-73136589D01*
X144043880Y-73139331D01*
X144041499Y-73142399D01*
X144041490Y-73142410D01*
X144041411Y-73142513D01*
X144033842Y-73151374D01*
X144003935Y-73183222D01*
X143994285Y-73200776D01*
X143983609Y-73217030D01*
X143971326Y-73232865D01*
X143953975Y-73272960D01*
X143948838Y-73283446D01*
X143927802Y-73321709D01*
X143922821Y-73341111D01*
X143916520Y-73359513D01*
X143908561Y-73377904D01*
X143901728Y-73421044D01*
X143899360Y-73432476D01*
X143888500Y-73474779D01*
X143888500Y-73494818D01*
X143886973Y-73514216D01*
X143883840Y-73533996D01*
X143887950Y-73577475D01*
X143888500Y-73589145D01*
X143888500Y-77843652D01*
X143886235Y-77864162D01*
X143888439Y-77934268D01*
X143888500Y-77938163D01*
X143888500Y-77965746D01*
X143888988Y-77969615D01*
X143888989Y-77969621D01*
X143889004Y-77969739D01*
X143889918Y-77981363D01*
X143891290Y-78025022D01*
X143896879Y-78044256D01*
X143900825Y-78063312D01*
X143903335Y-78083188D01*
X143919414Y-78123800D01*
X143923197Y-78134847D01*
X143935382Y-78176787D01*
X143945580Y-78194031D01*
X143954136Y-78211496D01*
X143961514Y-78230128D01*
X143972066Y-78244652D01*
X143987180Y-78265455D01*
X143993593Y-78275218D01*
X144015826Y-78312812D01*
X144015829Y-78312815D01*
X144015830Y-78312816D01*
X144029995Y-78326981D01*
X144042627Y-78341771D01*
X144054406Y-78357983D01*
X144088058Y-78385822D01*
X144096699Y-78393685D01*
X144784800Y-79081787D01*
X144797700Y-79097888D01*
X144799817Y-79099876D01*
X144799818Y-79099877D01*
X144820141Y-79118962D01*
X144848827Y-79145900D01*
X144851624Y-79148611D01*
X144871133Y-79168120D01*
X144874313Y-79170587D01*
X144883175Y-79178155D01*
X144915022Y-79208062D01*
X144932576Y-79217712D01*
X144948840Y-79228396D01*
X144960576Y-79237499D01*
X144964668Y-79240673D01*
X144989513Y-79251424D01*
X145004756Y-79258021D01*
X145015235Y-79263154D01*
X145053512Y-79284197D01*
X145072910Y-79289177D01*
X145091312Y-79295477D01*
X145109708Y-79303438D01*
X145152865Y-79310273D01*
X145164268Y-79312634D01*
X145206585Y-79323500D01*
X145226620Y-79323500D01*
X145246017Y-79325026D01*
X145265800Y-79328160D01*
X145309278Y-79324050D01*
X145320948Y-79323500D01*
X147653281Y-79323500D01*
X147720320Y-79343185D01*
X147766075Y-79395989D01*
X147771212Y-79409182D01*
X147819820Y-79558784D01*
X147914466Y-79722716D01*
X148041129Y-79863389D01*
X148194269Y-79974651D01*
X148367197Y-80051644D01*
X148552352Y-80091000D01*
X148552354Y-80091000D01*
X148741648Y-80091000D01*
X148865083Y-80064762D01*
X148926803Y-80051644D01*
X149038755Y-80001798D01*
X149104564Y-79972499D01*
X149173814Y-79963214D01*
X149205436Y-79972499D01*
X149383197Y-80051644D01*
X149568352Y-80091000D01*
X149568354Y-80091000D01*
X149757648Y-80091000D01*
X149881083Y-80064762D01*
X149942803Y-80051644D01*
X150115730Y-79974651D01*
X150171000Y-79934495D01*
X150268870Y-79863389D01*
X150395533Y-79722716D01*
X150490179Y-79558784D01*
X150502099Y-79522099D01*
X150548674Y-79378756D01*
X150568460Y-79190500D01*
X150548674Y-79002244D01*
X150503946Y-78864586D01*
X150490179Y-78822215D01*
X150395533Y-78658283D01*
X150268870Y-78517610D01*
X150115730Y-78406348D01*
X149942802Y-78329355D01*
X149757648Y-78290000D01*
X149757646Y-78290000D01*
X149707757Y-78290000D01*
X149640718Y-78270315D01*
X149620076Y-78253681D01*
X149429707Y-78063312D01*
X149230607Y-77864211D01*
X149217711Y-77848113D01*
X149166580Y-77800098D01*
X149163783Y-77797387D01*
X149147032Y-77780636D01*
X149144276Y-77777880D01*
X149141095Y-77775412D01*
X149132227Y-77767837D01*
X149100387Y-77737938D01*
X149082829Y-77728285D01*
X149066569Y-77717604D01*
X149050741Y-77705327D01*
X149010656Y-77687980D01*
X149000166Y-77682841D01*
X148961896Y-77661802D01*
X148942496Y-77656821D01*
X148924089Y-77650519D01*
X148905702Y-77642562D01*
X148862563Y-77635729D01*
X148851129Y-77633361D01*
X148808824Y-77622500D01*
X148788789Y-77622500D01*
X148769391Y-77620973D01*
X148761967Y-77619797D01*
X148749610Y-77617840D01*
X148749609Y-77617840D01*
X148716556Y-77620964D01*
X148706130Y-77621950D01*
X148694461Y-77622500D01*
X145782453Y-77622500D01*
X145715414Y-77602815D01*
X145694772Y-77586181D01*
X145625819Y-77517228D01*
X145592334Y-77455905D01*
X145589500Y-77429547D01*
X145589500Y-74050650D01*
X145609185Y-73983611D01*
X145625819Y-73962969D01*
X148552970Y-71035819D01*
X148614293Y-71002334D01*
X148640651Y-70999500D01*
X149212575Y-70999500D01*
X149279614Y-71019185D01*
X149314147Y-71052373D01*
X149449307Y-71245401D01*
X149616401Y-71412495D01*
X149802398Y-71542732D01*
X149846021Y-71597307D01*
X149853214Y-71666806D01*
X149821692Y-71729160D01*
X149802396Y-71745881D01*
X149726428Y-71799073D01*
X150355268Y-72427913D01*
X150345487Y-72429320D01*
X150214702Y-72489048D01*
X150106041Y-72583202D01*
X150028309Y-72704156D01*
X150004725Y-72784475D01*
X149372875Y-72152625D01*
X149372874Y-72152626D01*
X149314201Y-72236422D01*
X149214371Y-72450507D01*
X149153232Y-72678681D01*
X149132644Y-72914000D01*
X149153232Y-73149318D01*
X149214371Y-73377492D01*
X149314202Y-73591580D01*
X149372875Y-73675373D01*
X150004724Y-73043523D01*
X150028309Y-73123844D01*
X150106041Y-73244798D01*
X150214702Y-73338952D01*
X150345487Y-73398680D01*
X150355268Y-73400086D01*
X149726427Y-74028925D01*
X149810222Y-74087599D01*
X150024309Y-74187430D01*
X150252483Y-74248569D01*
X150487802Y-74269157D01*
X150723120Y-74248569D01*
X150951294Y-74187430D01*
X151165378Y-74087600D01*
X151249175Y-74028925D01*
X150620335Y-73400086D01*
X150630117Y-73398680D01*
X150760902Y-73338952D01*
X150869563Y-73244798D01*
X150947295Y-73123844D01*
X150970878Y-73043524D01*
X151602727Y-73675373D01*
X151656226Y-73598969D01*
X151710803Y-73555344D01*
X151780301Y-73548150D01*
X151842656Y-73579673D01*
X151859376Y-73598969D01*
X151912874Y-73675373D01*
X151912875Y-73675373D01*
X152544725Y-73043523D01*
X152568309Y-73123844D01*
X152646041Y-73244798D01*
X152754702Y-73338952D01*
X152885487Y-73398680D01*
X152895268Y-73400086D01*
X152266427Y-74028925D01*
X152350222Y-74087599D01*
X152564309Y-74187430D01*
X152792483Y-74248569D01*
X153027801Y-74269157D01*
X153263120Y-74248569D01*
X153491294Y-74187430D01*
X153705378Y-74087600D01*
X153789175Y-74028925D01*
X153160335Y-73400086D01*
X153170117Y-73398680D01*
X153300902Y-73338952D01*
X153409563Y-73244798D01*
X153487295Y-73123844D01*
X153510878Y-73043524D01*
X154142727Y-73675373D01*
X154196226Y-73598969D01*
X154250803Y-73555344D01*
X154320301Y-73548150D01*
X154382656Y-73579673D01*
X154399376Y-73598969D01*
X154452874Y-73675373D01*
X154452875Y-73675373D01*
X155084725Y-73043523D01*
X155108309Y-73123844D01*
X155186041Y-73244798D01*
X155294702Y-73338952D01*
X155425487Y-73398680D01*
X155435268Y-73400086D01*
X154806427Y-74028925D01*
X154890222Y-74087599D01*
X155104309Y-74187430D01*
X155332483Y-74248569D01*
X155567802Y-74269157D01*
X155803120Y-74248569D01*
X156031294Y-74187430D01*
X156245378Y-74087600D01*
X156329175Y-74028925D01*
X155700335Y-73400086D01*
X155710117Y-73398680D01*
X155840902Y-73338952D01*
X155949563Y-73244798D01*
X156027295Y-73123844D01*
X156050879Y-73043523D01*
X156682727Y-73675372D01*
X156735921Y-73599405D01*
X156790498Y-73555780D01*
X156859996Y-73548586D01*
X156922351Y-73580109D01*
X156939067Y-73599400D01*
X157069307Y-73785401D01*
X157236401Y-73952495D01*
X157429427Y-74087653D01*
X157473050Y-74142229D01*
X157482302Y-74189227D01*
X157482302Y-74254547D01*
X157462617Y-74321586D01*
X157445983Y-74342228D01*
X155980030Y-75808181D01*
X155918707Y-75841666D01*
X155892349Y-75844500D01*
X155836160Y-75844500D01*
X155815653Y-75842235D01*
X155745543Y-75844439D01*
X155741648Y-75844500D01*
X155714066Y-75844500D01*
X155710221Y-75844985D01*
X155710196Y-75844987D01*
X155710069Y-75845004D01*
X155698449Y-75845918D01*
X155654785Y-75847290D01*
X155635545Y-75852880D01*
X155616497Y-75856825D01*
X155596625Y-75859335D01*
X155556015Y-75875413D01*
X155544970Y-75879194D01*
X155503026Y-75891381D01*
X155485781Y-75901579D01*
X155468320Y-75910133D01*
X155449683Y-75917512D01*
X155414347Y-75943185D01*
X155404590Y-75949595D01*
X155366996Y-75971829D01*
X155352829Y-75985996D01*
X155338040Y-75998626D01*
X155321829Y-76010404D01*
X155293988Y-76044058D01*
X155286127Y-76052697D01*
X152951778Y-78387046D01*
X152890455Y-78420531D01*
X152820763Y-78415547D01*
X152791215Y-78399685D01*
X152658812Y-78303489D01*
X152658811Y-78303488D01*
X152658809Y-78303487D01*
X152485884Y-78226495D01*
X152300730Y-78187140D01*
X152300728Y-78187140D01*
X152111436Y-78187140D01*
X152111434Y-78187140D01*
X151926279Y-78226495D01*
X151753351Y-78303488D01*
X151600211Y-78414750D01*
X151473548Y-78555423D01*
X151378902Y-78719355D01*
X151320408Y-78899382D01*
X151302315Y-79071529D01*
X151300622Y-79087640D01*
X151301699Y-79097888D01*
X151320408Y-79275897D01*
X151378902Y-79455924D01*
X151417109Y-79522099D01*
X151433582Y-79589999D01*
X151417109Y-79646099D01*
X151375105Y-79718851D01*
X151316611Y-79898878D01*
X151296825Y-80087136D01*
X151316611Y-80275393D01*
X151375105Y-80455420D01*
X151469751Y-80619352D01*
X151592447Y-80755618D01*
X151596414Y-80760024D01*
X151626753Y-80782067D01*
X151669419Y-80837395D01*
X151675400Y-80907008D01*
X151642795Y-80968804D01*
X151641550Y-80970066D01*
X149857208Y-82754407D01*
X149841110Y-82767304D01*
X149793096Y-82818433D01*
X149790392Y-82821224D01*
X149773628Y-82837988D01*
X149773621Y-82837995D01*
X149770880Y-82840737D01*
X149768499Y-82843805D01*
X149768490Y-82843816D01*
X149768411Y-82843919D01*
X149760842Y-82852780D01*
X149730935Y-82884628D01*
X149721285Y-82902182D01*
X149710609Y-82918436D01*
X149698326Y-82934271D01*
X149680975Y-82974366D01*
X149675838Y-82984852D01*
X149654802Y-83023115D01*
X149649821Y-83042517D01*
X149643520Y-83060919D01*
X149635561Y-83079310D01*
X149628728Y-83122450D01*
X149626360Y-83133882D01*
X149615500Y-83176185D01*
X149615500Y-83196224D01*
X149613973Y-83215622D01*
X149610919Y-83234908D01*
X149610840Y-83235404D01*
X149612109Y-83248827D01*
X149614950Y-83278881D01*
X149615500Y-83290551D01*
X149615500Y-87392547D01*
X149595815Y-87459586D01*
X149579181Y-87480228D01*
X148699228Y-88360181D01*
X148637905Y-88393666D01*
X148611547Y-88396500D01*
X148552352Y-88396500D01*
X148367197Y-88435855D01*
X148194269Y-88512848D01*
X148041129Y-88624110D01*
X147914466Y-88764783D01*
X147819820Y-88928715D01*
X147761326Y-89108742D01*
X147747978Y-89235742D01*
X147741540Y-89297000D01*
X147754839Y-89423540D01*
X147742271Y-89492268D01*
X147694538Y-89543292D01*
X147631519Y-89560500D01*
X146824740Y-89560500D01*
X146804236Y-89558236D01*
X146734144Y-89560439D01*
X146730250Y-89560500D01*
X146702650Y-89560500D01*
X146698789Y-89560987D01*
X146698778Y-89560988D01*
X146698645Y-89561005D01*
X146687029Y-89561918D01*
X146643368Y-89563290D01*
X146624129Y-89568880D01*
X146605080Y-89572825D01*
X146585208Y-89575335D01*
X146544593Y-89591415D01*
X146533549Y-89595196D01*
X146491611Y-89607382D01*
X146474364Y-89617581D01*
X146456900Y-89626136D01*
X146438267Y-89633514D01*
X146402926Y-89659189D01*
X146393168Y-89665599D01*
X146355577Y-89687831D01*
X146352517Y-89690891D01*
X146291193Y-89724374D01*
X146221501Y-89719387D01*
X146165569Y-89677514D01*
X146157452Y-89665207D01*
X146077533Y-89526783D01*
X145950870Y-89386110D01*
X145797730Y-89274848D01*
X145624802Y-89197855D01*
X145439648Y-89158500D01*
X145439646Y-89158500D01*
X145250354Y-89158500D01*
X145250352Y-89158500D01*
X145065197Y-89197855D01*
X144892272Y-89274846D01*
X144786945Y-89351371D01*
X144721138Y-89374850D01*
X144653084Y-89359024D01*
X144641175Y-89351370D01*
X144506153Y-89253271D01*
X144333225Y-89176278D01*
X144148071Y-89136923D01*
X144148069Y-89136923D01*
X143958777Y-89136923D01*
X143958775Y-89136923D01*
X143773620Y-89176278D01*
X143600696Y-89253269D01*
X143575049Y-89271903D01*
X143558552Y-89283888D01*
X143492747Y-89307367D01*
X143424694Y-89291541D01*
X143412783Y-89283887D01*
X143400343Y-89274849D01*
X143343895Y-89233837D01*
X143343894Y-89233836D01*
X143343892Y-89233835D01*
X143170967Y-89156843D01*
X142985813Y-89117488D01*
X142985811Y-89117488D01*
X142796519Y-89117488D01*
X142796517Y-89117488D01*
X142611362Y-89156843D01*
X142438434Y-89233836D01*
X142285293Y-89345099D01*
X142261996Y-89370973D01*
X142202509Y-89407620D01*
X142132652Y-89406289D01*
X142074604Y-89367401D01*
X142046796Y-89303304D01*
X142046541Y-89301083D01*
X142039674Y-89235744D01*
X141981179Y-89055716D01*
X141981179Y-89055715D01*
X141886533Y-88891783D01*
X141759870Y-88751110D01*
X141606730Y-88639848D01*
X141433802Y-88562855D01*
X141252219Y-88524259D01*
X141190737Y-88491067D01*
X141156961Y-88429904D01*
X141154000Y-88402969D01*
X141154000Y-78678743D01*
X141173685Y-78611704D01*
X141190316Y-78591065D01*
X142362588Y-77418792D01*
X142378688Y-77405895D01*
X142380676Y-77403777D01*
X142380679Y-77403776D01*
X142426766Y-77354697D01*
X142429351Y-77352029D01*
X142448922Y-77332460D01*
X142451367Y-77329306D01*
X142458956Y-77320419D01*
X142488864Y-77288572D01*
X142498515Y-77271016D01*
X142509195Y-77254757D01*
X142521476Y-77238926D01*
X142538820Y-77198841D01*
X142543962Y-77188346D01*
X142564999Y-77150082D01*
X142569980Y-77130678D01*
X142576282Y-77112273D01*
X142584240Y-77093885D01*
X142591072Y-77050738D01*
X142593441Y-77039306D01*
X142604302Y-76997010D01*
X142604302Y-76976973D01*
X142605829Y-76957574D01*
X142607384Y-76947756D01*
X142608962Y-76937794D01*
X142604852Y-76894314D01*
X142604302Y-76882645D01*
X142604302Y-69690551D01*
X142606565Y-69670050D01*
X142604363Y-69599956D01*
X142604302Y-69596062D01*
X142604302Y-69572356D01*
X142604302Y-69568462D01*
X142603800Y-69564493D01*
X142602882Y-69552836D01*
X142601944Y-69522976D01*
X142601511Y-69509185D01*
X142595922Y-69489949D01*
X142591978Y-69470905D01*
X142589466Y-69451020D01*
X142573384Y-69410403D01*
X142569600Y-69399352D01*
X142557419Y-69357422D01*
X142547223Y-69340181D01*
X142538665Y-69322714D01*
X142531288Y-69304080D01*
X142505600Y-69268724D01*
X142499211Y-69258996D01*
X142476972Y-69221391D01*
X142462808Y-69207227D01*
X142450171Y-69192432D01*
X142438397Y-69176226D01*
X142438396Y-69176225D01*
X142404737Y-69148380D01*
X142396107Y-69140526D01*
X141190319Y-67934737D01*
X141156834Y-67873414D01*
X141154000Y-67847056D01*
X141154000Y-63386000D01*
X141173685Y-63318961D01*
X141226489Y-63273206D01*
X141278000Y-63262000D01*
X159899666Y-63262000D01*
X159933599Y-63266733D01*
G37*
%TD.AperFunction*%
%TA.AperFunction,Conductor*%
G36*
X156487334Y-79268769D02*
G01*
X156543267Y-79310641D01*
X156567684Y-79376105D01*
X156568000Y-79384951D01*
X156568000Y-79781000D01*
X157484314Y-79781000D01*
X157458507Y-79821156D01*
X157418000Y-79959111D01*
X157418000Y-80102889D01*
X157458507Y-80240844D01*
X157484314Y-80281000D01*
X156568000Y-80281000D01*
X156568000Y-80925518D01*
X156568354Y-80932132D01*
X156574400Y-80988371D01*
X156624647Y-81123089D01*
X156710811Y-81238188D01*
X156825911Y-81324352D01*
X156957471Y-81373422D01*
X157013404Y-81415294D01*
X157037821Y-81480758D01*
X157022969Y-81549031D01*
X157001819Y-81577285D01*
X156879503Y-81699601D01*
X156744349Y-81892623D01*
X156689772Y-81936248D01*
X156642774Y-81945500D01*
X154816250Y-81945500D01*
X154749211Y-81925815D01*
X154724100Y-81904472D01*
X154713870Y-81893110D01*
X154560730Y-81781848D01*
X154387802Y-81704855D01*
X154249088Y-81675371D01*
X154187606Y-81642179D01*
X154153830Y-81581016D01*
X154158482Y-81511301D01*
X154187186Y-81466402D01*
X156356320Y-79297268D01*
X156417642Y-79263785D01*
X156487334Y-79268769D01*
G37*
%TD.AperFunction*%
%TA.AperFunction,Conductor*%
G36*
X151842657Y-71040545D02*
G01*
X151859373Y-71059837D01*
X151989307Y-71245401D01*
X152156401Y-71412495D01*
X152342398Y-71542732D01*
X152386021Y-71597307D01*
X152393214Y-71666806D01*
X152361692Y-71729160D01*
X152342396Y-71745881D01*
X152266428Y-71799073D01*
X152895268Y-72427913D01*
X152885487Y-72429320D01*
X152754702Y-72489048D01*
X152646041Y-72583202D01*
X152568309Y-72704156D01*
X152544725Y-72784476D01*
X151912874Y-72152625D01*
X151912874Y-72152626D01*
X151859376Y-72229030D01*
X151804800Y-72272655D01*
X151735301Y-72279849D01*
X151672946Y-72248326D01*
X151656226Y-72229030D01*
X151602727Y-72152626D01*
X151602727Y-72152625D01*
X150970878Y-72784475D01*
X150947295Y-72704156D01*
X150869563Y-72583202D01*
X150760902Y-72489048D01*
X150630117Y-72429320D01*
X150620335Y-72427913D01*
X151249175Y-71799073D01*
X151249175Y-71799072D01*
X151173207Y-71745880D01*
X151129582Y-71691304D01*
X151122388Y-71621805D01*
X151153910Y-71559451D01*
X151173201Y-71542734D01*
X151359203Y-71412495D01*
X151526297Y-71245401D01*
X151656228Y-71059839D01*
X151710804Y-71016216D01*
X151780302Y-71009022D01*
X151842657Y-71040545D01*
G37*
%TD.AperFunction*%
%TA.AperFunction,Conductor*%
G36*
X154382657Y-71040545D02*
G01*
X154399373Y-71059837D01*
X154529307Y-71245401D01*
X154696401Y-71412495D01*
X154882398Y-71542732D01*
X154926021Y-71597307D01*
X154933214Y-71666806D01*
X154901692Y-71729160D01*
X154882396Y-71745881D01*
X154806428Y-71799073D01*
X155435268Y-72427913D01*
X155425487Y-72429320D01*
X155294702Y-72489048D01*
X155186041Y-72583202D01*
X155108309Y-72704156D01*
X155084725Y-72784475D01*
X154452875Y-72152625D01*
X154452874Y-72152626D01*
X154399376Y-72229030D01*
X154344800Y-72272655D01*
X154275301Y-72279849D01*
X154212946Y-72248326D01*
X154196226Y-72229030D01*
X154142727Y-72152626D01*
X154142727Y-72152625D01*
X153510878Y-72784475D01*
X153487295Y-72704156D01*
X153409563Y-72583202D01*
X153300902Y-72489048D01*
X153170117Y-72429320D01*
X153160335Y-72427913D01*
X153789175Y-71799073D01*
X153789175Y-71799072D01*
X153713207Y-71745880D01*
X153669582Y-71691304D01*
X153662388Y-71621805D01*
X153693910Y-71559451D01*
X153713201Y-71542734D01*
X153899203Y-71412495D01*
X154066297Y-71245401D01*
X154196228Y-71059839D01*
X154250804Y-71016216D01*
X154320302Y-71009022D01*
X154382657Y-71040545D01*
G37*
%TD.AperFunction*%
%TA.AperFunction,Conductor*%
G36*
X156922657Y-71040545D02*
G01*
X156939373Y-71059837D01*
X157069307Y-71245401D01*
X157236401Y-71412495D01*
X157421962Y-71542426D01*
X157465585Y-71597002D01*
X157472778Y-71666501D01*
X157441256Y-71728855D01*
X157421962Y-71745574D01*
X157247357Y-71867834D01*
X157236397Y-71875508D01*
X157069310Y-72042595D01*
X157069307Y-72042598D01*
X157069307Y-72042599D01*
X156992267Y-72152625D01*
X156939072Y-72228595D01*
X156884495Y-72272219D01*
X156814996Y-72279412D01*
X156752642Y-72247890D01*
X156735922Y-72228595D01*
X156682727Y-72152626D01*
X156682727Y-72152625D01*
X156050878Y-72784474D01*
X156027295Y-72704156D01*
X155949563Y-72583202D01*
X155840902Y-72489048D01*
X155710117Y-72429320D01*
X155700335Y-72427913D01*
X156329175Y-71799073D01*
X156329175Y-71799072D01*
X156253207Y-71745880D01*
X156209582Y-71691304D01*
X156202388Y-71621805D01*
X156233910Y-71559451D01*
X156253201Y-71542734D01*
X156439203Y-71412495D01*
X156606297Y-71245401D01*
X156736228Y-71059839D01*
X156790804Y-71016216D01*
X156860302Y-71009022D01*
X156922657Y-71040545D01*
G37*
%TD.AperFunction*%
%TD*%
%TA.AperFunction,Conductor*%
%TO.N,GND*%
G36*
X112649039Y-83964185D02*
G01*
X112694794Y-84016989D01*
X112706000Y-84068500D01*
X112706000Y-91837000D01*
X125733000Y-91837000D01*
X125800039Y-91856685D01*
X125845794Y-91909489D01*
X125856999Y-91961000D01*
X125857000Y-100838000D01*
X129529945Y-104388514D01*
X129564464Y-104449260D01*
X129564928Y-104504026D01*
X129541300Y-104612641D01*
X129526158Y-104824355D01*
X129526000Y-104828781D01*
X129526000Y-106148000D01*
X132265917Y-106148000D01*
X132241123Y-106218857D01*
X132220938Y-106398000D01*
X132241123Y-106577143D01*
X132265917Y-106648000D01*
X129526000Y-106648000D01*
X129526000Y-107967218D01*
X129526158Y-107971644D01*
X129541300Y-108183357D01*
X129602111Y-108462902D01*
X129702088Y-108730952D01*
X129839193Y-108982041D01*
X130010642Y-109211069D01*
X130212930Y-109413357D01*
X130441958Y-109584806D01*
X130693047Y-109721911D01*
X130961097Y-109821888D01*
X131240642Y-109882699D01*
X131452355Y-109897841D01*
X131456781Y-109898000D01*
X132434528Y-109898000D01*
X132501567Y-109917685D01*
X132547322Y-109970489D01*
X132557266Y-110039647D01*
X132528241Y-110103203D01*
X132469463Y-110140977D01*
X132453926Y-110144473D01*
X132300423Y-110168785D01*
X132300414Y-110168786D01*
X132297206Y-110169295D01*
X132294080Y-110170132D01*
X132294064Y-110170136D01*
X131945943Y-110263415D01*
X131945923Y-110263421D01*
X131942801Y-110264258D01*
X131939776Y-110265418D01*
X131939758Y-110265425D01*
X131603287Y-110394584D01*
X131603277Y-110394588D01*
X131600264Y-110395745D01*
X131597389Y-110397209D01*
X131597382Y-110397213D01*
X131276241Y-110560843D01*
X131276227Y-110560850D01*
X131273348Y-110562318D01*
X131270628Y-110564084D01*
X131270620Y-110564089D01*
X130968362Y-110760377D01*
X130968356Y-110760380D01*
X130965634Y-110762149D01*
X130963114Y-110764189D01*
X130963108Y-110764194D01*
X130683012Y-110991011D01*
X130683001Y-110991020D01*
X130680494Y-110993051D01*
X130678209Y-110995335D01*
X130678199Y-110995345D01*
X130423345Y-111250199D01*
X130423335Y-111250209D01*
X130421051Y-111252494D01*
X130419020Y-111255001D01*
X130419011Y-111255012D01*
X130192194Y-111535108D01*
X130192189Y-111535114D01*
X130190149Y-111537634D01*
X130188380Y-111540356D01*
X130188377Y-111540362D01*
X129992089Y-111842620D01*
X129992084Y-111842628D01*
X129990318Y-111845348D01*
X129988850Y-111848227D01*
X129988843Y-111848241D01*
X129825213Y-112169382D01*
X129823745Y-112172264D01*
X129822588Y-112175277D01*
X129822584Y-112175287D01*
X129693425Y-112511758D01*
X129693420Y-112511774D01*
X129692258Y-112514801D01*
X129691421Y-112517923D01*
X129691415Y-112517943D01*
X129598136Y-112866064D01*
X129598132Y-112866080D01*
X129597295Y-112869206D01*
X129596786Y-112872414D01*
X129596785Y-112872423D01*
X129540405Y-113228390D01*
X129540403Y-113228404D01*
X129539898Y-113231596D01*
X129539728Y-113234826D01*
X129539728Y-113234833D01*
X129520866Y-113594756D01*
X129520696Y-113598000D01*
X129520866Y-113601243D01*
X129537123Y-113911466D01*
X129539898Y-113964404D01*
X129540403Y-113967597D01*
X129540405Y-113967609D01*
X129592596Y-114297126D01*
X129597295Y-114326794D01*
X129598133Y-114329923D01*
X129598136Y-114329935D01*
X129691415Y-114678056D01*
X129691419Y-114678070D01*
X129692258Y-114681199D01*
X129693420Y-114684225D01*
X129693425Y-114684241D01*
X129808524Y-114984085D01*
X129823745Y-115023736D01*
X129825213Y-115026617D01*
X129982085Y-115334495D01*
X129990318Y-115350652D01*
X130190149Y-115658366D01*
X130421051Y-115943506D01*
X130680494Y-116202949D01*
X130965634Y-116433851D01*
X131273348Y-116633682D01*
X131600264Y-116800255D01*
X131942801Y-116931742D01*
X132297206Y-117026705D01*
X132659596Y-117084102D01*
X133026000Y-117103304D01*
X133392404Y-117084102D01*
X133754794Y-117026705D01*
X134109199Y-116931742D01*
X134451736Y-116800255D01*
X134778652Y-116633682D01*
X135086366Y-116433851D01*
X135371506Y-116202949D01*
X135630949Y-115943506D01*
X135861851Y-115658366D01*
X136061682Y-115350652D01*
X136228255Y-115023736D01*
X136359742Y-114681199D01*
X136358784Y-114683902D01*
X136398033Y-114626505D01*
X136462392Y-114599308D01*
X136476525Y-114598500D01*
X137031721Y-114598500D01*
X137034862Y-114598539D01*
X137122363Y-114600757D01*
X137180432Y-114590348D01*
X137189736Y-114589043D01*
X137248438Y-114583074D01*
X137277467Y-114573965D01*
X137292700Y-114570226D01*
X137322653Y-114564858D01*
X137377426Y-114542978D01*
X137386301Y-114539819D01*
X137403675Y-114534367D01*
X137442588Y-114522159D01*
X137469194Y-114507390D01*
X137483362Y-114500662D01*
X137511617Y-114489377D01*
X137560879Y-114456909D01*
X137568910Y-114452043D01*
X137620502Y-114423409D01*
X137643587Y-114403589D01*
X137656114Y-114394144D01*
X137681519Y-114377402D01*
X137723251Y-114335668D01*
X137730123Y-114329300D01*
X137774895Y-114290866D01*
X137793519Y-114266803D01*
X137803880Y-114255039D01*
X139500101Y-112558819D01*
X139561425Y-112525334D01*
X139587783Y-112522500D01*
X144695721Y-112522500D01*
X144698862Y-112522539D01*
X144786363Y-112524757D01*
X144844432Y-112514348D01*
X144853736Y-112513043D01*
X144912438Y-112507074D01*
X144941467Y-112497965D01*
X144956700Y-112494226D01*
X144986653Y-112488858D01*
X145041426Y-112466978D01*
X145050301Y-112463819D01*
X145067675Y-112458367D01*
X145106588Y-112446159D01*
X145133194Y-112431390D01*
X145147362Y-112424662D01*
X145175617Y-112413377D01*
X145224879Y-112380909D01*
X145232910Y-112376043D01*
X145284502Y-112347409D01*
X145307587Y-112327589D01*
X145320114Y-112318144D01*
X145345519Y-112301402D01*
X145387251Y-112259668D01*
X145394123Y-112253300D01*
X145438895Y-112214866D01*
X145457524Y-112190798D01*
X145467883Y-112179036D01*
X145632920Y-112013999D01*
X168119340Y-112013999D01*
X168139936Y-112249407D01*
X168183872Y-112413376D01*
X168201097Y-112477663D01*
X168300965Y-112691830D01*
X168436505Y-112885401D01*
X168603599Y-113052495D01*
X168797170Y-113188035D01*
X169011337Y-113287903D01*
X169239592Y-113349062D01*
X169239592Y-113349063D01*
X169474999Y-113369659D01*
X169474999Y-113369658D01*
X169475000Y-113369659D01*
X169710408Y-113349063D01*
X169938663Y-113287903D01*
X170152830Y-113188035D01*
X170346401Y-113052495D01*
X170513495Y-112885401D01*
X170649035Y-112691830D01*
X170748903Y-112477663D01*
X170810063Y-112249408D01*
X170830659Y-112014000D01*
X170810063Y-111778592D01*
X170748903Y-111550337D01*
X170649035Y-111336171D01*
X170513495Y-111142599D01*
X170346401Y-110975505D01*
X170152830Y-110839965D01*
X169938663Y-110740097D01*
X169850250Y-110716407D01*
X169710407Y-110678936D01*
X169475000Y-110658340D01*
X169239592Y-110678936D01*
X169011336Y-110740097D01*
X168797170Y-110839965D01*
X168603598Y-110975505D01*
X168436505Y-111142598D01*
X168300965Y-111336170D01*
X168201097Y-111550336D01*
X168139936Y-111778592D01*
X168119340Y-112013999D01*
X145632920Y-112013999D01*
X147693390Y-109953528D01*
X147695560Y-109951412D01*
X147759053Y-109891059D01*
X147792759Y-109842630D01*
X147798428Y-109835113D01*
X147809212Y-109821888D01*
X147835698Y-109789407D01*
X147849783Y-109762439D01*
X147857918Y-109749015D01*
X147864373Y-109739740D01*
X147875295Y-109724049D01*
X147898568Y-109669815D01*
X147902588Y-109661350D01*
X147929909Y-109609049D01*
X147938275Y-109579808D01*
X147943539Y-109565019D01*
X147955540Y-109537058D01*
X147967417Y-109479256D01*
X147969652Y-109470148D01*
X147985886Y-109413418D01*
X147988196Y-109383078D01*
X147990376Y-109367540D01*
X147996500Y-109337742D01*
X147996500Y-109278754D01*
X147996858Y-109269339D01*
X148001295Y-109211069D01*
X148001337Y-109210524D01*
X147997493Y-109180339D01*
X147996500Y-109164676D01*
X147996500Y-108710490D01*
X148016185Y-108643451D01*
X148065656Y-108599278D01*
X148123665Y-108570672D01*
X148368957Y-108406773D01*
X148590758Y-108212258D01*
X148785273Y-107990457D01*
X148949172Y-107745165D01*
X148977778Y-107687156D01*
X149025084Y-107635736D01*
X149088991Y-107618000D01*
X149603009Y-107618000D01*
X149670048Y-107637685D01*
X149714221Y-107687156D01*
X149742828Y-107745165D01*
X149745079Y-107748534D01*
X149745082Y-107748539D01*
X149904467Y-107987075D01*
X149906727Y-107990457D01*
X150101242Y-108212258D01*
X150323043Y-108406773D01*
X150568335Y-108570672D01*
X150571968Y-108572463D01*
X150571974Y-108572467D01*
X150829279Y-108699355D01*
X150832923Y-108701152D01*
X151032992Y-108769066D01*
X151108433Y-108794676D01*
X151108435Y-108794676D01*
X151112278Y-108795981D01*
X151401620Y-108853534D01*
X151696000Y-108872829D01*
X151990380Y-108853534D01*
X152279722Y-108795981D01*
X152559077Y-108701152D01*
X152823665Y-108570672D01*
X153068957Y-108406773D01*
X153290758Y-108212258D01*
X153485273Y-107990457D01*
X153649172Y-107745165D01*
X153779652Y-107480577D01*
X153874481Y-107201222D01*
X153932034Y-106911880D01*
X153951329Y-106617500D01*
X153932034Y-106323120D01*
X153874481Y-106033778D01*
X153779652Y-105754423D01*
X153649172Y-105489836D01*
X153485273Y-105244543D01*
X153290758Y-105022742D01*
X153068957Y-104828227D01*
X153063162Y-104824355D01*
X152827039Y-104666582D01*
X152827034Y-104666579D01*
X152823665Y-104664328D01*
X152820036Y-104662538D01*
X152820025Y-104662532D01*
X152562720Y-104535644D01*
X152562713Y-104535641D01*
X152559077Y-104533848D01*
X152554907Y-104532432D01*
X152554823Y-104532373D01*
X152551483Y-104530990D01*
X152554437Y-104532102D01*
X152497755Y-104492242D01*
X152471404Y-104427532D01*
X152484221Y-104358848D01*
X152532137Y-104307996D01*
X152534591Y-104306598D01*
X152569186Y-104287395D01*
X152583362Y-104280662D01*
X152611617Y-104269377D01*
X152660879Y-104236909D01*
X152668910Y-104232043D01*
X152720502Y-104203409D01*
X152743587Y-104183589D01*
X152756114Y-104174144D01*
X152781519Y-104157402D01*
X152823251Y-104115668D01*
X152830123Y-104109300D01*
X152874895Y-104070866D01*
X152893519Y-104046803D01*
X152903880Y-104035039D01*
X154185409Y-102753510D01*
X154187579Y-102751394D01*
X154251053Y-102691059D01*
X154284765Y-102642622D01*
X154290408Y-102635138D01*
X154327698Y-102589407D01*
X154341786Y-102562435D01*
X154349911Y-102549024D01*
X154367295Y-102524049D01*
X154390568Y-102469815D01*
X154394598Y-102461331D01*
X154421908Y-102409051D01*
X154421909Y-102409049D01*
X154430278Y-102379797D01*
X154435534Y-102365032D01*
X154447540Y-102337058D01*
X154459418Y-102279256D01*
X154461651Y-102270156D01*
X154477887Y-102213418D01*
X154480197Y-102183077D01*
X154482376Y-102167535D01*
X154488500Y-102137741D01*
X154488500Y-102078757D01*
X154488858Y-102069342D01*
X154490504Y-102047724D01*
X154493337Y-102010523D01*
X154489493Y-101980338D01*
X154488500Y-101964675D01*
X154488500Y-101467588D01*
X154508185Y-101400549D01*
X154510937Y-101396448D01*
X154513100Y-101393360D01*
X154567684Y-101349744D01*
X154614663Y-101340500D01*
X155767770Y-101340500D01*
X155834809Y-101360185D01*
X155855451Y-101376819D01*
X156877181Y-102398548D01*
X156910666Y-102459871D01*
X156913500Y-102486229D01*
X156913500Y-104891677D01*
X156896887Y-104953677D01*
X156836820Y-105057715D01*
X156778326Y-105237742D01*
X156758540Y-105426000D01*
X156778326Y-105614257D01*
X156836820Y-105794284D01*
X156931466Y-105958216D01*
X157058129Y-106098889D01*
X157211269Y-106210151D01*
X157384197Y-106287144D01*
X157569352Y-106326500D01*
X157569354Y-106326500D01*
X157758648Y-106326500D01*
X157882083Y-106300262D01*
X157943803Y-106287144D01*
X158116730Y-106210151D01*
X158269871Y-106098888D01*
X158396533Y-105958216D01*
X158491179Y-105794284D01*
X158549674Y-105614256D01*
X158569460Y-105426000D01*
X158549674Y-105237744D01*
X158491179Y-105057716D01*
X158491179Y-105057715D01*
X158431113Y-104953677D01*
X158414500Y-104891677D01*
X158414500Y-104614000D01*
X168119340Y-104614000D01*
X168139936Y-104849407D01*
X168167875Y-104953677D01*
X168201097Y-105077663D01*
X168300965Y-105291830D01*
X168436505Y-105485401D01*
X168603599Y-105652495D01*
X168797170Y-105788035D01*
X169011337Y-105887903D01*
X169239592Y-105949063D01*
X169474999Y-105969659D01*
X169474999Y-105969658D01*
X169475000Y-105969659D01*
X169710408Y-105949063D01*
X169938663Y-105887903D01*
X170152830Y-105788035D01*
X170346401Y-105652495D01*
X170513495Y-105485401D01*
X170649035Y-105291830D01*
X170748903Y-105077663D01*
X170810063Y-104849408D01*
X170830659Y-104614000D01*
X170810063Y-104378592D01*
X170748903Y-104150337D01*
X170649035Y-103936171D01*
X170513495Y-103742599D01*
X170346401Y-103575505D01*
X170152830Y-103439965D01*
X169938663Y-103340097D01*
X169877502Y-103323709D01*
X169710407Y-103278936D01*
X169474999Y-103258340D01*
X169239592Y-103278936D01*
X169011336Y-103340097D01*
X168797170Y-103439965D01*
X168603598Y-103575505D01*
X168436505Y-103742598D01*
X168300965Y-103936170D01*
X168201097Y-104150336D01*
X168139936Y-104378592D01*
X168119340Y-104614000D01*
X158414500Y-104614000D01*
X158414500Y-102187705D01*
X158415809Y-102169735D01*
X158416132Y-102167527D01*
X158419289Y-102145977D01*
X158414972Y-102096629D01*
X158414500Y-102085823D01*
X158414500Y-102083901D01*
X158414500Y-102080291D01*
X158410903Y-102049520D01*
X158410536Y-102045929D01*
X158403889Y-101969949D01*
X158399672Y-101950930D01*
X158377677Y-101890499D01*
X158373591Y-101879273D01*
X158372408Y-101875868D01*
X158370089Y-101868871D01*
X158348814Y-101804666D01*
X158348812Y-101804663D01*
X158348415Y-101803464D01*
X158339929Y-101785936D01*
X158339237Y-101784884D01*
X158339237Y-101784883D01*
X158298001Y-101722188D01*
X158296086Y-101719181D01*
X158256712Y-101655345D01*
X158256711Y-101655344D01*
X158256048Y-101654269D01*
X158243748Y-101639170D01*
X158188273Y-101586832D01*
X158185686Y-101584319D01*
X156705728Y-100104360D01*
X156693946Y-100090727D01*
X156679609Y-100071469D01*
X156641666Y-100039631D01*
X156633691Y-100032323D01*
X156632329Y-100030961D01*
X156629777Y-100028409D01*
X156605444Y-100009169D01*
X156602647Y-100006890D01*
X156544251Y-99957890D01*
X156527821Y-99947422D01*
X156458691Y-99915186D01*
X156455447Y-99913615D01*
X156387306Y-99879394D01*
X156368903Y-99872997D01*
X156294211Y-99857574D01*
X156290692Y-99856794D01*
X156216490Y-99839208D01*
X156197121Y-99837229D01*
X156120869Y-99839448D01*
X156117263Y-99839500D01*
X154614663Y-99839500D01*
X154547624Y-99819815D01*
X154513088Y-99786623D01*
X154488046Y-99750859D01*
X154327140Y-99589953D01*
X154140735Y-99459432D01*
X153934497Y-99363261D01*
X153714689Y-99304364D01*
X153488000Y-99284531D01*
X153261310Y-99304364D01*
X153041502Y-99363261D01*
X152835264Y-99459432D01*
X152648859Y-99589953D01*
X152487953Y-99750859D01*
X152357433Y-99937263D01*
X152330382Y-99995275D01*
X152284209Y-100047714D01*
X152217015Y-100066865D01*
X152150134Y-100046649D01*
X152105618Y-99995275D01*
X152088185Y-99957890D01*
X152078568Y-99937266D01*
X152022511Y-99857207D01*
X151948046Y-99750859D01*
X151787140Y-99589953D01*
X151600735Y-99459432D01*
X151394497Y-99363261D01*
X151174689Y-99304364D01*
X150947999Y-99284531D01*
X150721310Y-99304364D01*
X150501502Y-99363261D01*
X150295264Y-99459432D01*
X150108859Y-99589953D01*
X149947953Y-99750859D01*
X149817433Y-99937263D01*
X149790382Y-99995275D01*
X149744209Y-100047714D01*
X149677015Y-100066865D01*
X149610134Y-100046649D01*
X149565618Y-99995275D01*
X149548185Y-99957890D01*
X149538568Y-99937266D01*
X149482511Y-99857207D01*
X149408046Y-99750859D01*
X149247140Y-99589953D01*
X149060735Y-99459432D01*
X148854497Y-99363261D01*
X148634689Y-99304364D01*
X148407999Y-99284531D01*
X148181310Y-99304364D01*
X147961502Y-99363261D01*
X147755264Y-99459432D01*
X147568859Y-99589953D01*
X147407953Y-99750859D01*
X147277430Y-99937267D01*
X147250105Y-99995866D01*
X147203932Y-100048305D01*
X147136739Y-100067456D01*
X147069858Y-100047239D01*
X147025342Y-99995865D01*
X146998134Y-99937519D01*
X146867658Y-99751180D01*
X146706819Y-99590341D01*
X146520480Y-99459865D01*
X146314326Y-99363733D01*
X146118000Y-99311126D01*
X146118000Y-100274313D01*
X146106045Y-100262359D01*
X145993148Y-100204835D01*
X145899481Y-100190000D01*
X145836519Y-100190000D01*
X145742852Y-100204835D01*
X145629955Y-100262359D01*
X145618000Y-100274313D01*
X145618000Y-99311127D01*
X145617999Y-99311126D01*
X145421673Y-99363733D01*
X145215519Y-99459865D01*
X145029180Y-99590341D01*
X144868341Y-99751180D01*
X144737865Y-99937519D01*
X144710382Y-99996456D01*
X144664209Y-100048895D01*
X144597015Y-100068047D01*
X144530134Y-100047831D01*
X144485618Y-99996456D01*
X144458134Y-99937519D01*
X144327658Y-99751180D01*
X144166819Y-99590341D01*
X143980480Y-99459865D01*
X143774326Y-99363733D01*
X143578000Y-99311126D01*
X143578000Y-100274314D01*
X143566045Y-100262359D01*
X143453148Y-100204835D01*
X143359481Y-100190000D01*
X143296519Y-100190000D01*
X143202852Y-100204835D01*
X143089955Y-100262359D01*
X143078000Y-100274313D01*
X143078000Y-99311127D01*
X143077999Y-99311126D01*
X142881673Y-99363733D01*
X142675519Y-99459865D01*
X142489180Y-99590341D01*
X142328341Y-99751180D01*
X142197863Y-99937522D01*
X142170656Y-99995866D01*
X142124483Y-100048305D01*
X142057290Y-100067456D01*
X141990409Y-100047239D01*
X141945893Y-99995865D01*
X141926249Y-99953739D01*
X141918568Y-99937266D01*
X141878443Y-99879960D01*
X141788046Y-99750859D01*
X141627140Y-99589953D01*
X141440735Y-99459432D01*
X141234497Y-99363261D01*
X141014689Y-99304364D01*
X140787999Y-99284531D01*
X140561310Y-99304364D01*
X140341502Y-99363261D01*
X140135264Y-99459432D01*
X139948859Y-99589953D01*
X139787953Y-99750859D01*
X139657433Y-99937263D01*
X139630382Y-99995275D01*
X139584209Y-100047714D01*
X139517015Y-100066865D01*
X139450134Y-100046649D01*
X139405618Y-99995275D01*
X139388185Y-99957890D01*
X139378568Y-99937266D01*
X139322511Y-99857207D01*
X139248046Y-99750859D01*
X139087140Y-99589953D01*
X138900735Y-99459432D01*
X138694497Y-99363261D01*
X138474689Y-99304364D01*
X138248000Y-99284531D01*
X138021310Y-99304364D01*
X137801502Y-99363261D01*
X137595264Y-99459432D01*
X137408859Y-99589953D01*
X137247951Y-99750861D01*
X137230725Y-99775463D01*
X137176148Y-99819088D01*
X137106649Y-99826280D01*
X137044295Y-99794757D01*
X137008882Y-99734527D01*
X137005861Y-99717592D01*
X137002091Y-99682517D01*
X136951796Y-99547669D01*
X136865546Y-99432454D01*
X136750331Y-99346204D01*
X136615483Y-99295909D01*
X136555873Y-99289500D01*
X136552550Y-99289500D01*
X134863439Y-99289500D01*
X134863420Y-99289500D01*
X134860128Y-99289501D01*
X134856848Y-99289853D01*
X134856840Y-99289854D01*
X134800515Y-99295909D01*
X134665669Y-99346204D01*
X134550454Y-99432454D01*
X134464204Y-99547668D01*
X134413910Y-99682515D01*
X134413909Y-99682517D01*
X134407500Y-99742127D01*
X134407500Y-99745448D01*
X134407500Y-99745449D01*
X134407500Y-101434560D01*
X134407500Y-101434578D01*
X134407501Y-101437872D01*
X134407853Y-101441152D01*
X134407854Y-101441159D01*
X134413909Y-101497483D01*
X134464204Y-101632331D01*
X134550454Y-101747546D01*
X134665669Y-101833796D01*
X134800517Y-101884091D01*
X134860127Y-101890500D01*
X136555872Y-101890499D01*
X136615483Y-101884091D01*
X136750331Y-101833796D01*
X136865546Y-101747546D01*
X136951796Y-101632331D01*
X137002091Y-101497483D01*
X137005862Y-101462404D01*
X137032598Y-101397856D01*
X137089989Y-101358006D01*
X137159814Y-101355511D01*
X137219904Y-101391162D01*
X137230726Y-101404537D01*
X137247953Y-101429140D01*
X137408859Y-101590046D01*
X137595264Y-101720567D01*
X137595265Y-101720567D01*
X137595266Y-101720568D01*
X137801504Y-101816739D01*
X138021308Y-101875635D01*
X138248000Y-101895468D01*
X138474692Y-101875635D01*
X138694496Y-101816739D01*
X138900734Y-101720568D01*
X139087139Y-101590047D01*
X139248047Y-101429139D01*
X139378568Y-101242734D01*
X139405618Y-101184724D01*
X139451790Y-101132285D01*
X139518983Y-101113133D01*
X139585865Y-101133348D01*
X139630382Y-101184725D01*
X139657431Y-101242733D01*
X139787953Y-101429140D01*
X139948859Y-101590046D01*
X140135264Y-101720567D01*
X140135265Y-101720567D01*
X140135266Y-101720568D01*
X140341504Y-101816739D01*
X140561308Y-101875635D01*
X140712435Y-101888857D01*
X140787999Y-101895468D01*
X140787999Y-101895467D01*
X140788000Y-101895468D01*
X141014692Y-101875635D01*
X141234496Y-101816739D01*
X141440734Y-101720568D01*
X141627139Y-101590047D01*
X141788047Y-101429139D01*
X141918568Y-101242734D01*
X141945893Y-101184134D01*
X141992065Y-101131695D01*
X142059258Y-101112543D01*
X142126139Y-101132758D01*
X142170657Y-101184133D01*
X142197866Y-101242482D01*
X142328341Y-101428819D01*
X142489180Y-101589658D01*
X142675519Y-101720134D01*
X142881673Y-101816266D01*
X143077999Y-101868871D01*
X143078000Y-101868871D01*
X143078000Y-100905686D01*
X143089955Y-100917641D01*
X143202852Y-100975165D01*
X143296519Y-100990000D01*
X143359481Y-100990000D01*
X143453148Y-100975165D01*
X143566045Y-100917641D01*
X143578000Y-100905685D01*
X143578000Y-101868871D01*
X143774326Y-101816266D01*
X143980480Y-101720134D01*
X144166819Y-101589658D01*
X144327658Y-101428819D01*
X144458135Y-101242479D01*
X144485618Y-101183543D01*
X144531790Y-101131103D01*
X144598983Y-101111951D01*
X144665864Y-101132166D01*
X144710382Y-101183543D01*
X144737864Y-101242479D01*
X144868341Y-101428819D01*
X145029180Y-101589658D01*
X145215519Y-101720134D01*
X145421673Y-101816266D01*
X145617999Y-101868871D01*
X145618000Y-101868871D01*
X145618000Y-100905686D01*
X145629955Y-100917641D01*
X145742852Y-100975165D01*
X145836519Y-100990000D01*
X145899481Y-100990000D01*
X145993148Y-100975165D01*
X146106045Y-100917641D01*
X146118000Y-100905686D01*
X146118000Y-101868871D01*
X146314326Y-101816266D01*
X146520480Y-101720134D01*
X146706819Y-101589658D01*
X146867658Y-101428819D01*
X146998135Y-101242479D01*
X147025342Y-101184135D01*
X147071514Y-101131695D01*
X147138707Y-101112543D01*
X147205589Y-101132758D01*
X147250105Y-101184132D01*
X147277432Y-101242733D01*
X147277433Y-101242736D01*
X147407953Y-101429140D01*
X147568859Y-101590046D01*
X147755264Y-101720567D01*
X147755265Y-101720567D01*
X147755266Y-101720568D01*
X147961504Y-101816739D01*
X148181308Y-101875635D01*
X148332435Y-101888857D01*
X148407999Y-101895468D01*
X148407999Y-101895467D01*
X148408000Y-101895468D01*
X148634692Y-101875635D01*
X148854496Y-101816739D01*
X149060734Y-101720568D01*
X149247139Y-101590047D01*
X149408047Y-101429139D01*
X149538568Y-101242734D01*
X149565618Y-101184724D01*
X149611790Y-101132285D01*
X149678983Y-101113133D01*
X149745865Y-101133348D01*
X149790382Y-101184725D01*
X149817431Y-101242733D01*
X149947953Y-101429140D01*
X150108859Y-101590046D01*
X150295264Y-101720567D01*
X150295265Y-101720567D01*
X150295266Y-101720568D01*
X150501504Y-101816739D01*
X150721308Y-101875635D01*
X150872436Y-101888857D01*
X150947999Y-101895468D01*
X150947999Y-101895467D01*
X150948000Y-101895468D01*
X151174692Y-101875635D01*
X151394496Y-101816739D01*
X151600734Y-101720568D01*
X151787139Y-101590047D01*
X151948047Y-101429139D01*
X152078568Y-101242734D01*
X152105618Y-101184724D01*
X152151790Y-101132285D01*
X152218983Y-101113133D01*
X152285865Y-101133348D01*
X152330382Y-101184725D01*
X152357431Y-101242733D01*
X152357432Y-101242734D01*
X152461361Y-101391162D01*
X152465075Y-101396465D01*
X152487402Y-101462671D01*
X152487500Y-101467588D01*
X152487500Y-101570218D01*
X152467815Y-101637257D01*
X152451181Y-101657899D01*
X151767899Y-102341181D01*
X151706576Y-102374666D01*
X151680218Y-102377500D01*
X145248238Y-102377500D01*
X145245096Y-102377460D01*
X145157635Y-102375243D01*
X145099581Y-102385648D01*
X145090253Y-102386957D01*
X145031561Y-102392926D01*
X145002527Y-102402035D01*
X144987288Y-102405775D01*
X144957345Y-102411142D01*
X144902568Y-102433021D01*
X144893698Y-102436179D01*
X144837410Y-102453841D01*
X144810809Y-102468605D01*
X144796639Y-102475335D01*
X144768385Y-102486622D01*
X144719121Y-102519087D01*
X144711070Y-102523964D01*
X144659498Y-102552590D01*
X144636414Y-102572407D01*
X144623887Y-102581853D01*
X144598481Y-102598598D01*
X144556775Y-102640303D01*
X144549868Y-102646704D01*
X144505103Y-102685135D01*
X144486480Y-102709193D01*
X144476108Y-102720969D01*
X142825111Y-104371967D01*
X142763788Y-104405452D01*
X142713240Y-104405904D01*
X142590380Y-104381466D01*
X142586330Y-104381200D01*
X142586326Y-104381200D01*
X142300058Y-104362437D01*
X142296000Y-104362171D01*
X142291942Y-104362437D01*
X142005673Y-104381200D01*
X142005667Y-104381200D01*
X142001620Y-104381466D01*
X141997640Y-104382257D01*
X141997637Y-104382258D01*
X141716261Y-104438226D01*
X141716250Y-104438228D01*
X141712278Y-104439019D01*
X141708449Y-104440318D01*
X141708433Y-104440323D01*
X141436769Y-104532542D01*
X141436767Y-104532543D01*
X141432923Y-104533848D01*
X141429286Y-104535641D01*
X141429280Y-104535644D01*
X141171976Y-104662532D01*
X141171964Y-104662538D01*
X141168336Y-104664328D01*
X141164973Y-104666575D01*
X141164961Y-104666582D01*
X140926424Y-104825967D01*
X140926414Y-104825973D01*
X140923043Y-104828227D01*
X140919992Y-104830902D01*
X140919985Y-104830908D01*
X140704290Y-105020068D01*
X140704282Y-105020075D01*
X140701242Y-105022742D01*
X140698575Y-105025782D01*
X140698568Y-105025790D01*
X140509408Y-105241485D01*
X140509402Y-105241492D01*
X140506727Y-105244543D01*
X140504473Y-105247914D01*
X140504467Y-105247924D01*
X140345082Y-105486461D01*
X140345075Y-105486473D01*
X140342828Y-105489836D01*
X140341038Y-105493464D01*
X140341032Y-105493476D01*
X140214144Y-105750780D01*
X140214141Y-105750786D01*
X140212348Y-105754423D01*
X140211044Y-105758262D01*
X140211042Y-105758269D01*
X140118823Y-106029933D01*
X140118818Y-106029949D01*
X140117519Y-106033778D01*
X140116728Y-106037750D01*
X140116726Y-106037761D01*
X140080705Y-106218857D01*
X140059966Y-106323120D01*
X140059700Y-106327167D01*
X140059700Y-106327173D01*
X140058429Y-106346566D01*
X140040671Y-106617500D01*
X140040937Y-106621558D01*
X140059086Y-106898464D01*
X140059966Y-106911880D01*
X140060757Y-106915861D01*
X140060758Y-106915862D01*
X140116726Y-107197238D01*
X140116728Y-107197245D01*
X140117519Y-107201222D01*
X140118819Y-107205053D01*
X140118823Y-107205066D01*
X140211042Y-107476730D01*
X140212348Y-107480577D01*
X140214141Y-107484213D01*
X140214144Y-107484220D01*
X140341032Y-107741525D01*
X140341038Y-107741536D01*
X140342828Y-107745165D01*
X140345079Y-107748534D01*
X140345082Y-107748539D01*
X140504467Y-107987075D01*
X140506727Y-107990457D01*
X140701242Y-108212258D01*
X140923043Y-108406773D01*
X141168335Y-108570672D01*
X141171968Y-108572463D01*
X141171974Y-108572467D01*
X141429279Y-108699355D01*
X141432923Y-108701152D01*
X141632992Y-108769066D01*
X141708433Y-108794676D01*
X141708435Y-108794676D01*
X141712278Y-108795981D01*
X142001620Y-108853534D01*
X142296000Y-108872829D01*
X142590380Y-108853534D01*
X142879722Y-108795981D01*
X143159077Y-108701152D01*
X143423665Y-108570672D01*
X143668957Y-108406773D01*
X143890758Y-108212258D01*
X144085273Y-107990457D01*
X144249172Y-107745165D01*
X144379652Y-107480577D01*
X144474481Y-107201222D01*
X144524383Y-106950343D01*
X144556767Y-106888433D01*
X144617483Y-106853859D01*
X144687253Y-106857598D01*
X144743925Y-106898464D01*
X144767617Y-106950344D01*
X144816726Y-107197238D01*
X144816728Y-107197245D01*
X144817519Y-107201222D01*
X144818819Y-107205053D01*
X144818823Y-107205066D01*
X144911042Y-107476730D01*
X144912348Y-107480577D01*
X144914141Y-107484213D01*
X144914144Y-107484220D01*
X145041032Y-107741525D01*
X145041038Y-107741536D01*
X145042828Y-107745165D01*
X145045079Y-107748534D01*
X145045082Y-107748539D01*
X145204467Y-107987075D01*
X145206727Y-107990457D01*
X145401242Y-108212258D01*
X145623043Y-108406773D01*
X145868335Y-108570672D01*
X145926343Y-108599278D01*
X145977762Y-108646581D01*
X145995500Y-108710490D01*
X145995500Y-108770217D01*
X145975815Y-108837256D01*
X145959181Y-108857898D01*
X144331899Y-110485181D01*
X144270576Y-110518666D01*
X144244218Y-110521500D01*
X139136238Y-110521500D01*
X139133096Y-110521460D01*
X139045635Y-110519243D01*
X138987581Y-110529648D01*
X138978253Y-110530957D01*
X138919561Y-110536926D01*
X138890527Y-110546035D01*
X138875288Y-110549775D01*
X138845345Y-110555142D01*
X138790568Y-110577021D01*
X138781698Y-110580179D01*
X138725410Y-110597841D01*
X138698809Y-110612605D01*
X138684639Y-110619335D01*
X138656385Y-110630622D01*
X138607121Y-110663087D01*
X138599070Y-110667964D01*
X138547498Y-110696590D01*
X138524414Y-110716407D01*
X138511887Y-110725853D01*
X138486481Y-110742598D01*
X138444775Y-110784303D01*
X138437868Y-110790704D01*
X138393103Y-110829135D01*
X138374480Y-110853193D01*
X138364108Y-110864969D01*
X136667899Y-112561181D01*
X136606576Y-112594666D01*
X136580218Y-112597500D01*
X136476525Y-112597500D01*
X136409486Y-112577815D01*
X136363731Y-112525011D01*
X136359604Y-112514413D01*
X136359742Y-112514801D01*
X136228255Y-112172264D01*
X136061682Y-111845348D01*
X135861851Y-111537634D01*
X135630949Y-111252494D01*
X135371506Y-110993051D01*
X135086366Y-110762149D01*
X134778652Y-110562318D01*
X134775764Y-110560846D01*
X134775758Y-110560843D01*
X134454617Y-110397213D01*
X134451736Y-110395745D01*
X134448715Y-110394585D01*
X134448712Y-110394584D01*
X134112241Y-110265425D01*
X134112228Y-110265421D01*
X134109199Y-110264258D01*
X134106070Y-110263419D01*
X134106056Y-110263415D01*
X133757935Y-110170136D01*
X133757923Y-110170133D01*
X133754794Y-110169295D01*
X133751581Y-110168786D01*
X133751576Y-110168785D01*
X133598074Y-110144473D01*
X133534939Y-110114544D01*
X133498008Y-110055232D01*
X133499006Y-109985370D01*
X133537616Y-109927137D01*
X133601579Y-109899023D01*
X133617472Y-109898000D01*
X134595219Y-109898000D01*
X134599644Y-109897841D01*
X134811357Y-109882699D01*
X135090902Y-109821888D01*
X135358952Y-109721911D01*
X135610041Y-109584806D01*
X135839069Y-109413357D01*
X136041357Y-109211069D01*
X136212806Y-108982041D01*
X136349911Y-108730952D01*
X136449888Y-108462902D01*
X136510699Y-108183357D01*
X136525841Y-107971644D01*
X136526000Y-107967218D01*
X136526000Y-106648000D01*
X133786083Y-106648000D01*
X133810877Y-106577143D01*
X133831062Y-106398000D01*
X133810877Y-106218857D01*
X133786083Y-106148000D01*
X136526000Y-106148000D01*
X136526000Y-104828781D01*
X136525841Y-104824355D01*
X136510699Y-104612642D01*
X136449888Y-104333097D01*
X136349911Y-104065047D01*
X136212806Y-103813958D01*
X136041357Y-103584930D01*
X135839069Y-103382642D01*
X135610041Y-103211193D01*
X135358952Y-103074088D01*
X135090902Y-102974111D01*
X134811357Y-102913300D01*
X134599644Y-102898158D01*
X134595219Y-102898000D01*
X133276000Y-102898000D01*
X133276000Y-105637916D01*
X133205143Y-105613123D01*
X133070926Y-105598000D01*
X132981074Y-105598000D01*
X132846857Y-105613123D01*
X132776000Y-105637916D01*
X132776000Y-102898000D01*
X131456781Y-102898000D01*
X131452355Y-102898158D01*
X131240644Y-102913300D01*
X131197283Y-102922732D01*
X131127591Y-102917746D01*
X131083246Y-102889246D01*
X127798319Y-99604319D01*
X127764834Y-99542996D01*
X127762000Y-99516638D01*
X127762000Y-91961000D01*
X127781685Y-91893961D01*
X127834489Y-91848206D01*
X127886000Y-91837000D01*
X128345500Y-91837000D01*
X128412539Y-91856685D01*
X128458294Y-91909489D01*
X128469500Y-91961000D01*
X128469500Y-97029721D01*
X128469460Y-97032863D01*
X128467242Y-97120362D01*
X128477648Y-97178420D01*
X128478957Y-97187749D01*
X128484926Y-97246438D01*
X128494033Y-97275467D01*
X128497772Y-97290702D01*
X128503141Y-97320652D01*
X128525020Y-97375425D01*
X128528180Y-97384300D01*
X128545841Y-97440588D01*
X128560607Y-97467191D01*
X128567337Y-97481364D01*
X128578622Y-97509617D01*
X128611080Y-97558867D01*
X128615961Y-97566923D01*
X128644590Y-97618501D01*
X128664404Y-97641581D01*
X128673856Y-97654116D01*
X128690599Y-97679520D01*
X128732300Y-97721221D01*
X128738705Y-97728132D01*
X128777130Y-97772891D01*
X128777131Y-97772892D01*
X128777134Y-97772895D01*
X128801198Y-97791522D01*
X128812968Y-97801889D01*
X131966715Y-100955636D01*
X131987215Y-100990498D01*
X131990296Y-100988965D01*
X132086324Y-101181818D01*
X132209236Y-101344580D01*
X132359958Y-101481981D01*
X132533361Y-101589347D01*
X132533363Y-101589348D01*
X132723544Y-101663024D01*
X132924024Y-101700500D01*
X132924026Y-101700500D01*
X133127974Y-101700500D01*
X133127976Y-101700500D01*
X133328456Y-101663024D01*
X133518637Y-101589348D01*
X133692041Y-101481981D01*
X133842764Y-101344579D01*
X133965673Y-101181821D01*
X133965673Y-101181819D01*
X133965675Y-101181818D01*
X134038036Y-101036496D01*
X134056582Y-100999250D01*
X134112397Y-100803083D01*
X134131215Y-100600000D01*
X134112397Y-100396917D01*
X134056582Y-100200750D01*
X134008586Y-100104360D01*
X133965675Y-100018181D01*
X133842763Y-99855419D01*
X133692041Y-99718018D01*
X133518640Y-99610653D01*
X133502290Y-99604319D01*
X133433549Y-99577688D01*
X133390666Y-99549745D01*
X131300922Y-97460000D01*
X166388551Y-97460000D01*
X166408317Y-97711149D01*
X166467126Y-97956110D01*
X166509813Y-98059165D01*
X166563534Y-98188859D01*
X166695164Y-98403659D01*
X166858776Y-98595224D01*
X167050341Y-98758836D01*
X167265141Y-98890466D01*
X167497889Y-98986873D01*
X167742852Y-99045683D01*
X167994000Y-99065449D01*
X168245148Y-99045683D01*
X168490111Y-98986873D01*
X168722859Y-98890466D01*
X168937659Y-98758836D01*
X169129224Y-98595224D01*
X169292836Y-98403659D01*
X169424466Y-98188859D01*
X169520873Y-97956111D01*
X169579683Y-97711148D01*
X169599449Y-97460000D01*
X169579683Y-97208852D01*
X169520873Y-96963889D01*
X169424466Y-96731141D01*
X169364937Y-96633999D01*
X183396151Y-96633999D01*
X183415917Y-96885149D01*
X183474726Y-97130110D01*
X183507342Y-97208852D01*
X183571134Y-97362859D01*
X183702764Y-97577659D01*
X183866376Y-97769224D01*
X184057941Y-97932836D01*
X184272741Y-98064466D01*
X184505489Y-98160873D01*
X184750452Y-98219683D01*
X185001600Y-98239449D01*
X185252748Y-98219683D01*
X185497711Y-98160873D01*
X185730459Y-98064466D01*
X185945259Y-97932836D01*
X186136824Y-97769224D01*
X186300436Y-97577659D01*
X186432066Y-97362859D01*
X186528473Y-97130111D01*
X186587283Y-96885148D01*
X186607049Y-96634000D01*
X186587283Y-96382852D01*
X186528473Y-96137889D01*
X186432066Y-95905141D01*
X186300436Y-95690341D01*
X186136824Y-95498776D01*
X185945259Y-95335164D01*
X185730459Y-95203534D01*
X185562975Y-95134160D01*
X185497710Y-95107126D01*
X185252749Y-95048317D01*
X185077188Y-95034500D01*
X185001600Y-95028551D01*
X185001599Y-95028551D01*
X184750450Y-95048317D01*
X184505489Y-95107126D01*
X184272739Y-95203535D01*
X184057942Y-95335163D01*
X183866376Y-95498776D01*
X183702763Y-95690342D01*
X183571135Y-95905139D01*
X183474726Y-96137889D01*
X183415917Y-96382850D01*
X183396151Y-96633999D01*
X169364937Y-96633999D01*
X169292836Y-96516341D01*
X169129224Y-96324776D01*
X168937659Y-96161164D01*
X168722859Y-96029534D01*
X168606484Y-95981330D01*
X168490110Y-95933126D01*
X168245149Y-95874317D01*
X167994000Y-95854551D01*
X167742850Y-95874317D01*
X167497889Y-95933126D01*
X167265139Y-96029535D01*
X167050342Y-96161163D01*
X166858776Y-96324776D01*
X166695163Y-96516342D01*
X166563535Y-96731139D01*
X166467126Y-96963889D01*
X166408317Y-97208850D01*
X166388551Y-97460000D01*
X131300922Y-97460000D01*
X130506819Y-96665897D01*
X130473334Y-96604574D01*
X130470500Y-96578216D01*
X130470500Y-91961000D01*
X130490185Y-91893961D01*
X130542989Y-91848206D01*
X130594500Y-91837000D01*
X134702451Y-91837000D01*
X134769490Y-91856685D01*
X134815245Y-91909489D01*
X134825189Y-91978647D01*
X134796164Y-92042203D01*
X134790132Y-92048681D01*
X134707953Y-92130859D01*
X134577432Y-92317264D01*
X134481261Y-92523502D01*
X134422364Y-92743310D01*
X134402531Y-92969999D01*
X134422364Y-93196689D01*
X134481261Y-93416497D01*
X134577432Y-93622735D01*
X134707953Y-93809140D01*
X134868859Y-93970046D01*
X135055264Y-94100567D01*
X135055265Y-94100567D01*
X135055266Y-94100568D01*
X135261504Y-94196739D01*
X135481308Y-94255635D01*
X135632436Y-94268856D01*
X135707999Y-94275468D01*
X135707999Y-94275467D01*
X135708000Y-94275468D01*
X135934692Y-94255635D01*
X136154496Y-94196739D01*
X136360734Y-94100568D01*
X136547139Y-93970047D01*
X136708047Y-93809139D01*
X136838568Y-93622734D01*
X136865618Y-93564724D01*
X136911790Y-93512285D01*
X136978983Y-93493133D01*
X137045865Y-93513348D01*
X137090382Y-93564725D01*
X137117431Y-93622733D01*
X137247953Y-93809140D01*
X137408859Y-93970046D01*
X137595264Y-94100567D01*
X137595265Y-94100567D01*
X137595266Y-94100568D01*
X137801504Y-94196739D01*
X138021308Y-94255635D01*
X138248000Y-94275468D01*
X138474692Y-94255635D01*
X138694496Y-94196739D01*
X138900734Y-94100568D01*
X139087139Y-93970047D01*
X139248047Y-93809139D01*
X139378568Y-93622734D01*
X139405618Y-93564724D01*
X139451790Y-93512285D01*
X139518983Y-93493133D01*
X139585865Y-93513348D01*
X139630382Y-93564725D01*
X139657431Y-93622733D01*
X139787953Y-93809140D01*
X139948859Y-93970046D01*
X140135264Y-94100567D01*
X140135265Y-94100567D01*
X140135266Y-94100568D01*
X140341504Y-94196739D01*
X140561308Y-94255635D01*
X140712435Y-94268856D01*
X140787999Y-94275468D01*
X140787999Y-94275467D01*
X140788000Y-94275468D01*
X141014692Y-94255635D01*
X141234496Y-94196739D01*
X141440734Y-94100568D01*
X141627139Y-93970047D01*
X141788047Y-93809139D01*
X141918568Y-93622734D01*
X141945893Y-93564134D01*
X141992065Y-93511695D01*
X142059258Y-93492543D01*
X142126139Y-93512758D01*
X142170657Y-93564133D01*
X142197866Y-93622482D01*
X142328341Y-93808819D01*
X142489180Y-93969658D01*
X142675519Y-94100134D01*
X142881673Y-94196266D01*
X143077999Y-94248871D01*
X143078000Y-94248871D01*
X143078000Y-93285686D01*
X143089955Y-93297641D01*
X143202852Y-93355165D01*
X143296519Y-93370000D01*
X143359481Y-93370000D01*
X143453148Y-93355165D01*
X143566045Y-93297641D01*
X143578000Y-93285686D01*
X143578000Y-94248871D01*
X143774326Y-94196266D01*
X143980480Y-94100134D01*
X144166819Y-93969658D01*
X144327658Y-93808819D01*
X144458135Y-93622479D01*
X144485618Y-93563543D01*
X144531790Y-93511103D01*
X144598983Y-93491951D01*
X144665864Y-93512166D01*
X144710382Y-93563543D01*
X144737864Y-93622479D01*
X144868341Y-93808819D01*
X145029180Y-93969658D01*
X145215519Y-94100134D01*
X145421673Y-94196266D01*
X145617999Y-94248871D01*
X145618000Y-94248871D01*
X145618000Y-93285686D01*
X145629955Y-93297641D01*
X145742852Y-93355165D01*
X145836519Y-93370000D01*
X145899481Y-93370000D01*
X145993148Y-93355165D01*
X146106045Y-93297641D01*
X146118000Y-93285685D01*
X146118000Y-94248871D01*
X146314326Y-94196266D01*
X146520480Y-94100134D01*
X146706819Y-93969658D01*
X146867658Y-93808819D01*
X146998135Y-93622479D01*
X147025342Y-93564135D01*
X147071514Y-93511695D01*
X147138707Y-93492543D01*
X147205589Y-93512758D01*
X147250105Y-93564132D01*
X147277432Y-93622733D01*
X147277433Y-93622736D01*
X147407953Y-93809140D01*
X147568859Y-93970046D01*
X147755264Y-94100567D01*
X147755265Y-94100567D01*
X147755266Y-94100568D01*
X147961504Y-94196739D01*
X148181308Y-94255635D01*
X148332436Y-94268857D01*
X148407999Y-94275468D01*
X148407999Y-94275467D01*
X148408000Y-94275468D01*
X148634692Y-94255635D01*
X148854496Y-94196739D01*
X149060734Y-94100568D01*
X149247139Y-93970047D01*
X149408047Y-93809139D01*
X149538568Y-93622734D01*
X149565618Y-93564724D01*
X149611790Y-93512285D01*
X149678983Y-93493133D01*
X149745865Y-93513348D01*
X149790382Y-93564725D01*
X149817431Y-93622733D01*
X149947953Y-93809140D01*
X150108859Y-93970046D01*
X150295266Y-94100568D01*
X150331165Y-94117308D01*
X150383605Y-94163480D01*
X150394053Y-94184041D01*
X150395515Y-94187734D01*
X150421180Y-94223059D01*
X150427593Y-94232822D01*
X150449826Y-94270416D01*
X150449829Y-94270419D01*
X150449830Y-94270420D01*
X150463995Y-94284585D01*
X150476627Y-94299375D01*
X150488406Y-94315587D01*
X150522058Y-94343426D01*
X150530699Y-94351289D01*
X151067196Y-94887787D01*
X151080096Y-94903888D01*
X151131223Y-94951900D01*
X151134020Y-94954611D01*
X151153529Y-94974120D01*
X151156709Y-94976587D01*
X151165571Y-94984155D01*
X151197418Y-95014062D01*
X151214970Y-95023711D01*
X151231238Y-95034397D01*
X151247064Y-95046673D01*
X151287146Y-95064017D01*
X151297633Y-95069155D01*
X151335907Y-95090197D01*
X151344410Y-95092379D01*
X151355308Y-95095178D01*
X151373713Y-95101478D01*
X151392104Y-95109437D01*
X151435250Y-95116270D01*
X151446668Y-95118635D01*
X151488981Y-95129500D01*
X151509016Y-95129500D01*
X151528415Y-95131027D01*
X151548196Y-95134160D01*
X151591674Y-95130050D01*
X151603344Y-95129500D01*
X155794658Y-95129500D01*
X155815164Y-95131764D01*
X155818067Y-95131672D01*
X155818069Y-95131673D01*
X155885274Y-95129561D01*
X155889170Y-95129500D01*
X155912850Y-95129500D01*
X155916752Y-95129500D01*
X155920715Y-95128999D01*
X155932364Y-95128080D01*
X155976029Y-95126709D01*
X155995261Y-95121120D01*
X156014320Y-95117174D01*
X156021501Y-95116267D01*
X156034194Y-95114664D01*
X156074809Y-95098582D01*
X156085846Y-95094803D01*
X156127792Y-95082618D01*
X156145031Y-95072422D01*
X156162504Y-95063862D01*
X156181134Y-95056486D01*
X156216466Y-95030814D01*
X156226232Y-95024400D01*
X156263820Y-95002171D01*
X156263819Y-95002171D01*
X156263822Y-95002170D01*
X156277987Y-94988004D01*
X156292775Y-94975373D01*
X156308989Y-94963594D01*
X156336840Y-94929926D01*
X156344671Y-94921319D01*
X156591473Y-94674517D01*
X156652795Y-94641035D01*
X156679153Y-94638201D01*
X156738349Y-94638201D01*
X156861784Y-94611963D01*
X156923504Y-94598845D01*
X157096431Y-94521852D01*
X157096431Y-94521851D01*
X157098587Y-94520892D01*
X157167837Y-94511607D01*
X157199459Y-94520892D01*
X157211268Y-94526150D01*
X157211270Y-94526151D01*
X157374541Y-94598845D01*
X157384197Y-94603144D01*
X157569352Y-94642500D01*
X157569354Y-94642500D01*
X157758648Y-94642500D01*
X157882084Y-94616262D01*
X157943803Y-94603144D01*
X158116730Y-94526151D01*
X158136748Y-94511607D01*
X158269870Y-94414889D01*
X158396533Y-94274216D01*
X158491179Y-94110284D01*
X158536871Y-93969658D01*
X158549674Y-93930256D01*
X158569460Y-93742000D01*
X158549674Y-93553744D01*
X158519332Y-93460363D01*
X158491179Y-93373715D01*
X158396533Y-93209783D01*
X158269870Y-93069110D01*
X158116730Y-92957848D01*
X157943802Y-92880855D01*
X157758648Y-92841500D01*
X157758646Y-92841500D01*
X157708757Y-92841500D01*
X157641718Y-92821815D01*
X157621076Y-92805181D01*
X157414895Y-92599000D01*
X194505461Y-92599000D01*
X194531096Y-114427856D01*
X194530964Y-114433729D01*
X194523112Y-114603561D01*
X194513434Y-114800567D01*
X194512394Y-114811613D01*
X194486937Y-114994109D01*
X194459652Y-115178042D01*
X194457701Y-115188233D01*
X194414917Y-115370144D01*
X194370205Y-115548645D01*
X194367495Y-115557913D01*
X194308087Y-115735164D01*
X194307266Y-115737533D01*
X194245911Y-115909007D01*
X194242594Y-115917319D01*
X194166886Y-116088780D01*
X194165547Y-116091709D01*
X194087891Y-116255902D01*
X194084125Y-116263225D01*
X193992771Y-116427235D01*
X193990800Y-116430645D01*
X193897599Y-116586142D01*
X193893540Y-116592470D01*
X193787342Y-116747499D01*
X193784641Y-116751289D01*
X193676735Y-116896784D01*
X193672535Y-116902134D01*
X193625129Y-116959224D01*
X193560091Y-117037547D01*
X193552451Y-117046747D01*
X193548931Y-117050804D01*
X193427317Y-117184983D01*
X193423120Y-117189390D01*
X193290190Y-117322320D01*
X193285783Y-117326517D01*
X193151604Y-117448131D01*
X193147547Y-117451651D01*
X193002934Y-117571735D01*
X192997584Y-117575935D01*
X192852089Y-117683841D01*
X192848299Y-117686542D01*
X192693270Y-117792740D01*
X192686942Y-117796799D01*
X192531445Y-117890000D01*
X192528035Y-117891971D01*
X192364025Y-117983325D01*
X192356702Y-117987091D01*
X192192509Y-118064747D01*
X192189580Y-118066086D01*
X192018119Y-118141794D01*
X192009807Y-118145111D01*
X191838333Y-118206466D01*
X191835964Y-118207287D01*
X191658717Y-118266694D01*
X191649441Y-118269406D01*
X191470946Y-118314117D01*
X191289031Y-118356902D01*
X191278845Y-118358852D01*
X191094910Y-118386137D01*
X190912412Y-118411594D01*
X190901368Y-118412634D01*
X190704544Y-118422303D01*
X190534463Y-118430166D01*
X190528719Y-118430298D01*
X154602481Y-118425147D01*
X154535445Y-118405453D01*
X154489697Y-118352642D01*
X154479764Y-118283482D01*
X154508798Y-118219931D01*
X154547650Y-118189938D01*
X154728665Y-118100672D01*
X154973957Y-117936773D01*
X155195758Y-117742258D01*
X155390273Y-117520457D01*
X155554172Y-117275165D01*
X155684652Y-117010577D01*
X155779481Y-116731222D01*
X155837034Y-116441880D01*
X155856329Y-116147500D01*
X155837034Y-115853120D01*
X155831242Y-115824000D01*
X164388551Y-115824000D01*
X164408317Y-116075149D01*
X164467126Y-116320110D01*
X164513392Y-116431805D01*
X164563534Y-116552859D01*
X164695164Y-116767659D01*
X164858776Y-116959224D01*
X165050341Y-117122836D01*
X165265141Y-117254466D01*
X165497889Y-117350873D01*
X165742852Y-117409683D01*
X165994000Y-117429449D01*
X166245148Y-117409683D01*
X166490111Y-117350873D01*
X166722859Y-117254466D01*
X166937659Y-117122836D01*
X167129224Y-116959224D01*
X167292836Y-116767659D01*
X167424466Y-116552859D01*
X167520873Y-116320111D01*
X167579683Y-116075148D01*
X167599449Y-115824000D01*
X167579683Y-115572852D01*
X167520873Y-115327889D01*
X167424466Y-115095141D01*
X167292836Y-114880341D01*
X167129224Y-114688776D01*
X166937659Y-114525164D01*
X166722859Y-114393534D01*
X166569317Y-114329935D01*
X166490110Y-114297126D01*
X166245149Y-114238317D01*
X166069588Y-114224500D01*
X165994000Y-114218551D01*
X165993999Y-114218551D01*
X165742850Y-114238317D01*
X165497889Y-114297126D01*
X165265139Y-114393535D01*
X165050342Y-114525163D01*
X164858776Y-114688776D01*
X164695163Y-114880342D01*
X164563535Y-115095139D01*
X164467126Y-115327889D01*
X164408317Y-115572850D01*
X164388551Y-115824000D01*
X155831242Y-115824000D01*
X155779481Y-115563778D01*
X155766424Y-115525315D01*
X155752566Y-115484492D01*
X155684652Y-115284423D01*
X155554172Y-115019836D01*
X155390273Y-114774543D01*
X155195758Y-114552742D01*
X155164311Y-114525164D01*
X154977014Y-114360908D01*
X154973957Y-114358227D01*
X154931615Y-114329935D01*
X154732039Y-114196582D01*
X154732034Y-114196579D01*
X154728665Y-114194328D01*
X154725036Y-114192538D01*
X154725025Y-114192532D01*
X154467720Y-114065644D01*
X154467713Y-114065641D01*
X154464077Y-114063848D01*
X154460230Y-114062542D01*
X154188566Y-113970323D01*
X154188553Y-113970319D01*
X154184722Y-113969019D01*
X154180745Y-113968228D01*
X154180738Y-113968226D01*
X153899362Y-113912258D01*
X153899361Y-113912257D01*
X153895380Y-113911466D01*
X153891330Y-113911200D01*
X153891326Y-113911200D01*
X153605058Y-113892437D01*
X153601000Y-113892171D01*
X153596942Y-113892437D01*
X153310673Y-113911200D01*
X153310667Y-113911200D01*
X153306620Y-113911466D01*
X153302640Y-113912257D01*
X153302637Y-113912258D01*
X153021261Y-113968226D01*
X153021250Y-113968228D01*
X153017278Y-113969019D01*
X153013449Y-113970318D01*
X153013433Y-113970323D01*
X152741769Y-114062542D01*
X152741762Y-114062544D01*
X152737923Y-114063848D01*
X152734286Y-114065641D01*
X152734280Y-114065644D01*
X152476976Y-114192532D01*
X152476964Y-114192538D01*
X152473336Y-114194328D01*
X152469973Y-114196575D01*
X152469961Y-114196582D01*
X152231424Y-114355967D01*
X152231414Y-114355973D01*
X152228043Y-114358227D01*
X152224992Y-114360902D01*
X152224985Y-114360908D01*
X152009290Y-114550068D01*
X152009282Y-114550075D01*
X152006242Y-114552742D01*
X152003575Y-114555782D01*
X152003568Y-114555790D01*
X151814408Y-114771485D01*
X151814402Y-114771492D01*
X151811727Y-114774543D01*
X151809473Y-114777914D01*
X151809467Y-114777924D01*
X151650082Y-115016461D01*
X151650075Y-115016473D01*
X151647828Y-115019836D01*
X151646038Y-115023464D01*
X151646032Y-115023476D01*
X151519144Y-115280780D01*
X151519141Y-115280786D01*
X151517348Y-115284423D01*
X151516044Y-115288262D01*
X151516042Y-115288269D01*
X151423823Y-115559933D01*
X151423818Y-115559949D01*
X151422519Y-115563778D01*
X151421728Y-115567750D01*
X151421726Y-115567761D01*
X151387957Y-115737533D01*
X151364966Y-115853120D01*
X151364700Y-115857167D01*
X151364700Y-115857173D01*
X151358891Y-115945800D01*
X151345671Y-116147500D01*
X151345937Y-116151558D01*
X151364439Y-116433851D01*
X151364966Y-116441880D01*
X151365757Y-116445861D01*
X151365758Y-116445862D01*
X151421726Y-116727238D01*
X151421728Y-116727245D01*
X151422519Y-116731222D01*
X151423819Y-116735053D01*
X151423823Y-116735066D01*
X151516042Y-117006730D01*
X151517348Y-117010577D01*
X151519141Y-117014213D01*
X151519144Y-117014220D01*
X151646032Y-117271525D01*
X151646038Y-117271536D01*
X151647828Y-117275165D01*
X151650079Y-117278534D01*
X151650082Y-117278539D01*
X151756932Y-117438451D01*
X151811727Y-117520457D01*
X152006242Y-117742258D01*
X152228043Y-117936773D01*
X152473335Y-118100672D01*
X152476974Y-118102466D01*
X152476980Y-118102470D01*
X152653761Y-118189648D01*
X152705181Y-118236953D01*
X152722863Y-118304548D01*
X152701193Y-118370972D01*
X152647052Y-118415137D01*
X152598900Y-118424860D01*
X141396320Y-118423254D01*
X141329284Y-118403560D01*
X141283536Y-118350749D01*
X141273603Y-118281589D01*
X141302637Y-118218038D01*
X141341493Y-118188042D01*
X141518665Y-118100672D01*
X141763957Y-117936773D01*
X141985758Y-117742258D01*
X142180273Y-117520457D01*
X142344172Y-117275165D01*
X142474652Y-117010577D01*
X142569481Y-116731222D01*
X142627034Y-116441880D01*
X142646329Y-116147500D01*
X142627034Y-115853120D01*
X142569481Y-115563778D01*
X142556424Y-115525315D01*
X142542566Y-115484492D01*
X142474652Y-115284423D01*
X142344172Y-115019836D01*
X142180273Y-114774543D01*
X141985758Y-114552742D01*
X141954311Y-114525164D01*
X141767014Y-114360908D01*
X141763957Y-114358227D01*
X141721615Y-114329935D01*
X141522039Y-114196582D01*
X141522034Y-114196579D01*
X141518665Y-114194328D01*
X141515036Y-114192538D01*
X141515025Y-114192532D01*
X141257720Y-114065644D01*
X141257713Y-114065641D01*
X141254077Y-114063848D01*
X141250230Y-114062542D01*
X140978566Y-113970323D01*
X140978553Y-113970319D01*
X140974722Y-113969019D01*
X140970745Y-113968228D01*
X140970738Y-113968226D01*
X140689362Y-113912258D01*
X140689361Y-113912257D01*
X140685380Y-113911466D01*
X140681330Y-113911200D01*
X140681326Y-113911200D01*
X140395058Y-113892437D01*
X140391000Y-113892171D01*
X140386942Y-113892437D01*
X140100673Y-113911200D01*
X140100667Y-113911200D01*
X140096620Y-113911466D01*
X140092640Y-113912257D01*
X140092637Y-113912258D01*
X139811261Y-113968226D01*
X139811250Y-113968228D01*
X139807278Y-113969019D01*
X139803449Y-113970318D01*
X139803433Y-113970323D01*
X139531769Y-114062542D01*
X139531762Y-114062544D01*
X139527923Y-114063848D01*
X139524286Y-114065641D01*
X139524280Y-114065644D01*
X139266976Y-114192532D01*
X139266964Y-114192538D01*
X139263336Y-114194328D01*
X139259973Y-114196575D01*
X139259961Y-114196582D01*
X139021424Y-114355967D01*
X139021414Y-114355973D01*
X139018043Y-114358227D01*
X139014992Y-114360902D01*
X139014985Y-114360908D01*
X138799290Y-114550068D01*
X138799282Y-114550075D01*
X138796242Y-114552742D01*
X138793575Y-114555782D01*
X138793568Y-114555790D01*
X138604408Y-114771485D01*
X138604402Y-114771492D01*
X138601727Y-114774543D01*
X138599473Y-114777914D01*
X138599467Y-114777924D01*
X138440082Y-115016461D01*
X138440075Y-115016473D01*
X138437828Y-115019836D01*
X138436038Y-115023464D01*
X138436032Y-115023476D01*
X138309144Y-115280780D01*
X138309141Y-115280786D01*
X138307348Y-115284423D01*
X138306044Y-115288262D01*
X138306042Y-115288269D01*
X138213823Y-115559933D01*
X138213818Y-115559949D01*
X138212519Y-115563778D01*
X138211728Y-115567750D01*
X138211726Y-115567761D01*
X138177957Y-115737533D01*
X138154966Y-115853120D01*
X138154700Y-115857167D01*
X138154700Y-115857173D01*
X138148891Y-115945800D01*
X138135671Y-116147500D01*
X138135937Y-116151558D01*
X138154439Y-116433851D01*
X138154966Y-116441880D01*
X138155757Y-116445861D01*
X138155758Y-116445862D01*
X138211726Y-116727238D01*
X138211728Y-116727245D01*
X138212519Y-116731222D01*
X138213819Y-116735053D01*
X138213823Y-116735066D01*
X138306042Y-117006730D01*
X138307348Y-117010577D01*
X138309141Y-117014213D01*
X138309144Y-117014220D01*
X138436032Y-117271525D01*
X138436038Y-117271536D01*
X138437828Y-117275165D01*
X138440079Y-117278534D01*
X138440082Y-117278539D01*
X138546932Y-117438451D01*
X138601727Y-117520457D01*
X138796242Y-117742258D01*
X139018043Y-117936773D01*
X139263335Y-118100672D01*
X139266975Y-118102467D01*
X139439920Y-118187754D01*
X139491339Y-118235059D01*
X139509021Y-118302654D01*
X139487351Y-118369079D01*
X139433210Y-118413243D01*
X139385058Y-118422966D01*
X98471661Y-118417100D01*
X98465952Y-118416968D01*
X98296038Y-118409112D01*
X98099031Y-118399434D01*
X98087985Y-118398394D01*
X97905490Y-118372937D01*
X97721556Y-118345652D01*
X97711365Y-118343701D01*
X97529455Y-118300917D01*
X97350953Y-118256205D01*
X97341685Y-118253495D01*
X97164434Y-118194087D01*
X97162065Y-118193266D01*
X96990591Y-118131911D01*
X96982279Y-118128594D01*
X96810818Y-118052886D01*
X96807889Y-118051547D01*
X96643696Y-117973891D01*
X96636373Y-117970125D01*
X96472363Y-117878771D01*
X96468953Y-117876800D01*
X96449448Y-117865109D01*
X96313445Y-117783592D01*
X96307128Y-117779540D01*
X96152099Y-117673342D01*
X96148309Y-117670641D01*
X96002800Y-117562724D01*
X95997484Y-117558551D01*
X95852798Y-117438405D01*
X95848845Y-117434975D01*
X95714595Y-117313298D01*
X95710208Y-117309120D01*
X95577278Y-117176190D01*
X95573103Y-117171806D01*
X95451417Y-117037547D01*
X95448000Y-117033609D01*
X95327840Y-116888905D01*
X95323682Y-116883609D01*
X95215735Y-116738059D01*
X95213056Y-116734299D01*
X95115900Y-116592470D01*
X95106855Y-116579265D01*
X95102817Y-116572971D01*
X95009577Y-116417410D01*
X95007627Y-116414035D01*
X94916265Y-116250011D01*
X94912515Y-116242719D01*
X94865561Y-116143441D01*
X94834851Y-116078509D01*
X94833512Y-116075580D01*
X94757804Y-115904119D01*
X94754492Y-115895820D01*
X94728794Y-115823999D01*
X121388551Y-115823999D01*
X121408317Y-116075149D01*
X121467126Y-116320110D01*
X121513392Y-116431805D01*
X121563534Y-116552859D01*
X121695164Y-116767659D01*
X121858776Y-116959224D01*
X122050341Y-117122836D01*
X122265141Y-117254466D01*
X122497889Y-117350873D01*
X122742852Y-117409683D01*
X122994000Y-117429449D01*
X123245148Y-117409683D01*
X123490111Y-117350873D01*
X123722859Y-117254466D01*
X123937659Y-117122836D01*
X124129224Y-116959224D01*
X124292836Y-116767659D01*
X124424466Y-116552859D01*
X124520873Y-116320111D01*
X124579683Y-116075148D01*
X124599449Y-115824000D01*
X124579683Y-115572852D01*
X124520873Y-115327889D01*
X124424466Y-115095141D01*
X124292836Y-114880341D01*
X124129224Y-114688776D01*
X123937659Y-114525164D01*
X123722859Y-114393534D01*
X123569317Y-114329935D01*
X123490110Y-114297126D01*
X123245149Y-114238317D01*
X122994000Y-114218551D01*
X122742850Y-114238317D01*
X122497889Y-114297126D01*
X122265139Y-114393535D01*
X122050342Y-114525163D01*
X121858776Y-114688776D01*
X121695163Y-114880342D01*
X121563535Y-115095139D01*
X121467126Y-115327889D01*
X121408317Y-115572850D01*
X121388551Y-115823999D01*
X94728794Y-115823999D01*
X94693092Y-115724218D01*
X94692350Y-115722078D01*
X94632896Y-115544691D01*
X94630200Y-115535467D01*
X94585475Y-115356915D01*
X94542691Y-115175008D01*
X94540748Y-115164856D01*
X94513474Y-114980999D01*
X94488001Y-114798389D01*
X94486966Y-114787399D01*
X94477295Y-114590551D01*
X94469435Y-114420527D01*
X94469304Y-114414662D01*
X94473114Y-112013999D01*
X118208340Y-112013999D01*
X118228936Y-112249407D01*
X118272872Y-112413376D01*
X118290097Y-112477663D01*
X118389965Y-112691830D01*
X118525505Y-112885401D01*
X118692599Y-113052495D01*
X118886170Y-113188035D01*
X119100337Y-113287903D01*
X119328592Y-113349063D01*
X119564000Y-113369659D01*
X119799408Y-113349063D01*
X120027663Y-113287903D01*
X120241830Y-113188035D01*
X120435401Y-113052495D01*
X120602495Y-112885401D01*
X120738035Y-112691830D01*
X120837903Y-112477663D01*
X120899063Y-112249408D01*
X120919659Y-112014000D01*
X120899063Y-111778592D01*
X120837903Y-111550337D01*
X120738035Y-111336171D01*
X120602495Y-111142599D01*
X120435401Y-110975505D01*
X120241830Y-110839965D01*
X120027663Y-110740097D01*
X119939250Y-110716407D01*
X119799407Y-110678936D01*
X119564000Y-110658340D01*
X119328592Y-110678936D01*
X119100336Y-110740097D01*
X118886170Y-110839965D01*
X118692598Y-110975505D01*
X118525505Y-111142598D01*
X118389965Y-111336170D01*
X118290097Y-111550336D01*
X118228936Y-111778592D01*
X118208340Y-112013999D01*
X94473114Y-112013999D01*
X94484860Y-104614000D01*
X118208340Y-104614000D01*
X118228936Y-104849407D01*
X118256875Y-104953677D01*
X118290097Y-105077663D01*
X118389965Y-105291830D01*
X118525505Y-105485401D01*
X118692599Y-105652495D01*
X118886170Y-105788035D01*
X119100337Y-105887903D01*
X119328592Y-105949063D01*
X119564000Y-105969659D01*
X119799408Y-105949063D01*
X120027663Y-105887903D01*
X120241830Y-105788035D01*
X120435401Y-105652495D01*
X120602495Y-105485401D01*
X120738035Y-105291830D01*
X120837903Y-105077663D01*
X120899063Y-104849408D01*
X120919659Y-104614000D01*
X120899063Y-104378592D01*
X120837903Y-104150337D01*
X120738035Y-103936171D01*
X120602495Y-103742599D01*
X120435401Y-103575505D01*
X120241830Y-103439965D01*
X120027663Y-103340097D01*
X119966502Y-103323709D01*
X119799407Y-103278936D01*
X119564000Y-103258340D01*
X119328592Y-103278936D01*
X119100336Y-103340097D01*
X118886170Y-103439965D01*
X118692598Y-103575505D01*
X118525505Y-103742598D01*
X118389965Y-103936170D01*
X118290097Y-104150336D01*
X118228936Y-104378592D01*
X118208340Y-104614000D01*
X94484860Y-104614000D01*
X94497527Y-96633999D01*
X102304951Y-96633999D01*
X102324717Y-96885149D01*
X102383526Y-97130110D01*
X102416142Y-97208852D01*
X102479934Y-97362859D01*
X102611564Y-97577659D01*
X102775176Y-97769224D01*
X102966741Y-97932836D01*
X103181541Y-98064466D01*
X103414289Y-98160873D01*
X103659252Y-98219683D01*
X103910400Y-98239449D01*
X104161548Y-98219683D01*
X104406511Y-98160873D01*
X104639259Y-98064466D01*
X104854059Y-97932836D01*
X105045624Y-97769224D01*
X105209236Y-97577659D01*
X105281338Y-97459999D01*
X119388551Y-97459999D01*
X119408317Y-97711149D01*
X119467126Y-97956110D01*
X119509813Y-98059165D01*
X119563534Y-98188859D01*
X119695164Y-98403659D01*
X119858776Y-98595224D01*
X120050341Y-98758836D01*
X120265141Y-98890466D01*
X120497889Y-98986873D01*
X120742852Y-99045683D01*
X120994000Y-99065449D01*
X121245148Y-99045683D01*
X121490111Y-98986873D01*
X121722859Y-98890466D01*
X121937659Y-98758836D01*
X122129224Y-98595224D01*
X122292836Y-98403659D01*
X122424466Y-98188859D01*
X122520873Y-97956111D01*
X122579683Y-97711148D01*
X122599449Y-97460000D01*
X122579683Y-97208852D01*
X122520873Y-96963889D01*
X122424466Y-96731141D01*
X122292836Y-96516341D01*
X122129224Y-96324776D01*
X121937659Y-96161164D01*
X121722859Y-96029534D01*
X121606484Y-95981330D01*
X121490110Y-95933126D01*
X121245149Y-95874317D01*
X121069588Y-95860500D01*
X120994000Y-95854551D01*
X120993999Y-95854551D01*
X120742850Y-95874317D01*
X120497889Y-95933126D01*
X120265139Y-96029535D01*
X120050342Y-96161163D01*
X119858776Y-96324776D01*
X119695163Y-96516342D01*
X119563535Y-96731139D01*
X119467126Y-96963889D01*
X119408317Y-97208850D01*
X119388551Y-97459999D01*
X105281338Y-97459999D01*
X105340866Y-97362859D01*
X105437273Y-97130111D01*
X105496083Y-96885148D01*
X105515849Y-96634000D01*
X105496083Y-96382852D01*
X105437273Y-96137889D01*
X105340866Y-95905141D01*
X105209236Y-95690341D01*
X105045624Y-95498776D01*
X104854059Y-95335164D01*
X104639259Y-95203534D01*
X104471775Y-95134160D01*
X104406510Y-95107126D01*
X104161549Y-95048317D01*
X103910400Y-95028551D01*
X103659250Y-95048317D01*
X103414289Y-95107126D01*
X103181539Y-95203535D01*
X102966742Y-95335163D01*
X102775176Y-95498776D01*
X102611563Y-95690342D01*
X102479935Y-95905139D01*
X102383526Y-96137889D01*
X102324717Y-96382850D01*
X102304951Y-96633999D01*
X94497527Y-96633999D01*
X94517472Y-84068303D01*
X94537264Y-84001295D01*
X94590141Y-83955624D01*
X94641473Y-83944500D01*
X112582000Y-83944500D01*
X112649039Y-83964185D01*
G37*
%TD.AperFunction*%
%TA.AperFunction,Conductor*%
G36*
X145540359Y-100351955D02*
G01*
X145482835Y-100464852D01*
X145463014Y-100590000D01*
X145482835Y-100715148D01*
X145540359Y-100828045D01*
X145552314Y-100840000D01*
X143643686Y-100840000D01*
X143655641Y-100828045D01*
X143713165Y-100715148D01*
X143732986Y-100590000D01*
X143713165Y-100464852D01*
X143655641Y-100351955D01*
X143643686Y-100340000D01*
X145552314Y-100340000D01*
X145540359Y-100351955D01*
G37*
%TD.AperFunction*%
%TA.AperFunction,Conductor*%
G36*
X145540359Y-92731955D02*
G01*
X145482835Y-92844852D01*
X145463014Y-92970000D01*
X145482835Y-93095148D01*
X145540359Y-93208045D01*
X145552314Y-93220000D01*
X143643686Y-93220000D01*
X143655641Y-93208045D01*
X143713165Y-93095148D01*
X143732986Y-92970000D01*
X143713165Y-92844852D01*
X143655641Y-92731955D01*
X143643686Y-92720000D01*
X145552314Y-92720000D01*
X145540359Y-92731955D01*
G37*
%TD.AperFunction*%
%TD*%
%TA.AperFunction,Conductor*%
%TO.N,+5V*%
G36*
X112972957Y-78409358D02*
G01*
X113018753Y-78462127D01*
X113029999Y-78513726D01*
X113030000Y-83315000D01*
X113010315Y-83382039D01*
X112957511Y-83427794D01*
X112906000Y-83439000D01*
X94642669Y-83439000D01*
X94575630Y-83419315D01*
X94529875Y-83366511D01*
X94518669Y-83314803D01*
X94520017Y-82465344D01*
X94520100Y-82465065D01*
X94520100Y-82416470D01*
X94520232Y-82410744D01*
X94528081Y-82240961D01*
X94537829Y-82042542D01*
X94538864Y-82031544D01*
X94564380Y-81848629D01*
X94591790Y-81663851D01*
X94593737Y-81653676D01*
X94636642Y-81471255D01*
X94681542Y-81292004D01*
X94684239Y-81282780D01*
X94743886Y-81104818D01*
X94744594Y-81102775D01*
X94806251Y-80930457D01*
X94809558Y-80922172D01*
X94885493Y-80750196D01*
X94886814Y-80747303D01*
X94964803Y-80582409D01*
X94968547Y-80575130D01*
X95060220Y-80410545D01*
X95062080Y-80407327D01*
X95155758Y-80251034D01*
X95159743Y-80244822D01*
X95266300Y-80089268D01*
X95268935Y-80085570D01*
X95377335Y-79939409D01*
X95381497Y-79934109D01*
X95501985Y-79789011D01*
X95505453Y-79785013D01*
X95627594Y-79650252D01*
X95631711Y-79645928D01*
X95765128Y-79512511D01*
X95769452Y-79508394D01*
X95904213Y-79386253D01*
X95908211Y-79382785D01*
X96053309Y-79262297D01*
X96058609Y-79258135D01*
X96204770Y-79149735D01*
X96208468Y-79147100D01*
X96364022Y-79040543D01*
X96370234Y-79036558D01*
X96526527Y-78942880D01*
X96529745Y-78941020D01*
X96694330Y-78849347D01*
X96701609Y-78845603D01*
X96866503Y-78767614D01*
X96869396Y-78766293D01*
X97041372Y-78690358D01*
X97049657Y-78687051D01*
X97221975Y-78625394D01*
X97224018Y-78624686D01*
X97401984Y-78565038D01*
X97411215Y-78562339D01*
X97590406Y-78517453D01*
X97772890Y-78474534D01*
X97783033Y-78472592D01*
X97967834Y-78445179D01*
X98150740Y-78419665D01*
X98161740Y-78418629D01*
X98360116Y-78408883D01*
X98529944Y-78401032D01*
X98535671Y-78400900D01*
X98584247Y-78400900D01*
X98584604Y-78400859D01*
X112905905Y-78389726D01*
X112972957Y-78409358D01*
G37*
%TD.AperFunction*%
%TD*%
D26*
X105791000Y-84582000D03*
X102108000Y-84582000D03*
X123910000Y-83432000D03*
X123910000Y-77432000D03*
X123910000Y-75432000D03*
X123910000Y-73432000D03*
X123910000Y-71432000D03*
X121910000Y-77432000D03*
X121910000Y-75432000D03*
X121910000Y-73432000D03*
X121910000Y-71432000D03*
X119910000Y-83432000D03*
X119910000Y-77432000D03*
X111910000Y-81432000D03*
X111910000Y-79432000D03*
X109910000Y-81432000D03*
X109910000Y-79432000D03*
X107910000Y-81432000D03*
X107910000Y-79432000D03*
X99910000Y-79432000D03*
X95910000Y-81432000D03*
X134423000Y-88408000D03*
X116770000Y-89043000D03*
X134448400Y-77486000D03*
X147545799Y-90948000D03*
X137598000Y-80280000D03*
X129470000Y-89932000D03*
X157664000Y-105426000D03*
X133026000Y-100600000D03*
X146234000Y-90694000D03*
X137674200Y-89436500D03*
X138791800Y-89398600D03*
X140011000Y-89424000D03*
X141154000Y-89424000D03*
X142891165Y-90017988D03*
X144053423Y-90037423D03*
X145345000Y-90059000D03*
X148647000Y-89297000D03*
X150044000Y-89297000D03*
X151325451Y-89297000D03*
X148647000Y-79190500D03*
X149663000Y-79190500D03*
X152202285Y-80087136D03*
X152206082Y-79087640D03*
X154108000Y-82566000D03*
X154108000Y-85106000D03*
X156643701Y-93737701D03*
X157664000Y-93742000D03*
X142296000Y-106617500D03*
X146996000Y-106617500D03*
X151696000Y-106617500D03*
X153601000Y-116147500D03*
X140391000Y-116147500D03*
X168768000Y-80332000D03*
X168768000Y-86832000D03*
X164268000Y-80332000D03*
X164268000Y-86832000D03*
X135708000Y-92970000D03*
X138248000Y-92970000D03*
X140788000Y-92970000D03*
X143328000Y-92970000D03*
X145868000Y-92970000D03*
X148408000Y-92970000D03*
X150948000Y-92970000D03*
X153488000Y-92970000D03*
X153488000Y-100590000D03*
X150948000Y-100590000D03*
X148408000Y-100590000D03*
X145868000Y-100590000D03*
X143328000Y-100590000D03*
X140788000Y-100590000D03*
X138248000Y-100590000D03*
X135708000Y-100590000D03*
X177821000Y-80332000D03*
X177821000Y-86832000D03*
X173321000Y-80332000D03*
X173321000Y-86832000D03*
X150487802Y-72914000D03*
X150487802Y-70374000D03*
X153027802Y-72914000D03*
X153027802Y-70374000D03*
X155567802Y-72914000D03*
X155567802Y-70374000D03*
X158107802Y-72914000D03*
X158107802Y-70374000D03*
X160647802Y-72914000D03*
X160647802Y-70374000D03*
X119564000Y-112014000D03*
X119564000Y-104614000D03*
X157918000Y-90191000D03*
X157918000Y-87651000D03*
X157918000Y-85111000D03*
X157918000Y-82571000D03*
X157918000Y-80031000D03*
X128135802Y-72914000D03*
X128135802Y-70374000D03*
X130675802Y-72914000D03*
X130675802Y-70374000D03*
X133215802Y-72914000D03*
X133215802Y-70374000D03*
X135755802Y-72914000D03*
X135755802Y-70374000D03*
X138295802Y-72914000D03*
X138295802Y-70374000D03*
X133026000Y-113598000D03*
X133026000Y-106398000D03*
X169475000Y-104614000D03*
X169475000Y-112014000D03*
M02*
