%TF.GenerationSoftware,KiCad,Pcbnew,7.0.2*%
%TF.CreationDate,2023-11-09T20:28:48+01:00*%
%TF.ProjectId,Sensors,53656e73-6f72-4732-9e6b-696361645f70,rev?*%
%TF.SameCoordinates,Original*%
%TF.FileFunction,Profile,NP*%
%FSLAX46Y46*%
G04 Gerber Fmt 4.6, Leading zero omitted, Abs format (unit mm)*
G04 Created by KiCad (PCBNEW 7.0.2) date 2023-11-09 20:28:48*
%MOMM*%
%LPD*%
G01*
G04 APERTURE LIST*
%TA.AperFunction,Profile*%
%ADD10C,0.100000*%
%TD*%
G04 APERTURE END LIST*
D10*
X189871790Y-87928102D02*
G75*
G03*
X192977589Y-79091963I626630J4743642D01*
G01*
X145672000Y-102844600D02*
G75*
G03*
X145672000Y-102844600I-1600000J0D01*
G01*
X180508115Y-84994661D02*
X189871789Y-87928112D01*
X151922000Y-113154600D02*
G75*
G03*
X151922000Y-113154600I-1600000J0D01*
G01*
X125354427Y-88903173D02*
X125344027Y-94139373D01*
X129344027Y-98139373D02*
X133850000Y-98133400D01*
X107678450Y-79092029D02*
G75*
G03*
X110784210Y-87928113I2479150J-4092471D01*
G01*
X137850000Y-102133400D02*
X137822000Y-116052600D01*
X125354517Y-88903180D02*
G75*
G03*
X120157111Y-84997835I-3854817J280980D01*
G01*
X158172000Y-102844600D02*
G75*
G03*
X158172000Y-102844600I-1600000J0D01*
G01*
X180508128Y-84994630D02*
G75*
G03*
X175310800Y-88900000I-1342528J-3624370D01*
G01*
X162822000Y-116052600D02*
X137822000Y-116052600D01*
X166806000Y-98133400D02*
X171321200Y-98136200D01*
X124514979Y-73623576D02*
X176141020Y-73623575D01*
X120157111Y-84997835D02*
X110784210Y-87928113D01*
X166806000Y-98133400D02*
G75*
G03*
X162806000Y-102133400I0J-4000000D01*
G01*
X125344027Y-94139373D02*
G75*
G03*
X129344027Y-98139373I3999873J-127D01*
G01*
X137850000Y-102133400D02*
G75*
G03*
X133850000Y-98133400I-4000000J0D01*
G01*
X175310800Y-88900000D02*
X175321200Y-94136200D01*
X162806000Y-102133400D02*
X162822000Y-116052600D01*
X171321200Y-98136200D02*
G75*
G03*
X175321200Y-94136200I0J4000000D01*
G01*
X192977589Y-79091963D02*
X176141020Y-73623575D01*
X107678410Y-79091964D02*
X124514979Y-73623576D01*
M02*
