M48
METRIC,TZ
T1C0.400
T2C0.700
T3C1.000
%
G90
G05
T1
X141224Y-89535
X146304Y-89916
X157480Y-77089
X170815Y-89281
T2
X110606Y-80169
X110606Y-84169
X112406Y-80169
X112406Y-84169
X124957Y-76740
X124957Y-80740
X126757Y-76740
X126757Y-80740
X139943Y-75851
X139943Y-79851
X141743Y-75851
X141743Y-79851
X149468Y-75851
X149468Y-79851
X151268Y-75851
X151268Y-79851
X158993Y-75851
X158993Y-79851
X160793Y-75851
X160793Y-79851
X173979Y-76740
X173979Y-80740
X175779Y-76740
X175779Y-80740
X188330Y-80169
X188330Y-84169
X190130Y-80169
X190130Y-84169
T3
X133985Y-91123
X133985Y-93663
X136525Y-91123
X136525Y-93663
X139065Y-91123
X139065Y-93663
X141605Y-91123
X141605Y-93663
X144145Y-91123
X144145Y-93663
X156520Y-91120
X156520Y-93660
X159060Y-91120
X159060Y-93660
X161600Y-91120
X161600Y-93660
X164140Y-91120
X164140Y-93660
X166680Y-91120
X166680Y-93660
T0
M30
