M48
; DRILL file {KiCad 7.0.2} date Thu Nov  9 20:28:48 2023
; FORMAT={-:-/ absolute / metric / decimal}
; #@! TF.CreationDate,2023-11-09T20:28:48+01:00
; #@! TF.GenerationSoftware,Kicad,Pcbnew,7.0.2
; #@! TF.FileFunction,MixedPlating,1,2
FMAT,2
METRIC
; #@! TA.AperFunction,Plated,PTH,ViaDrill
T1C0.400
; #@! TA.AperFunction,Plated,PTH,ComponentDrill
T2C0.700
; #@! TA.AperFunction,Plated,PTH,ComponentDrill
T3C1.000
%
G90
G05
T1
X141.224Y-89.535
X146.304Y-89.916
X157.48Y-77.089
X170.815Y-89.281
T2
X110.606Y-80.169
X110.606Y-84.169
X112.406Y-80.169
X112.406Y-84.169
X124.957Y-76.74
X124.957Y-80.74
X126.757Y-76.74
X126.757Y-80.74
X139.943Y-75.851
X139.943Y-79.851
X141.743Y-75.851
X141.743Y-79.851
X149.468Y-75.851
X149.468Y-79.851
X151.268Y-75.851
X151.268Y-79.851
X158.993Y-75.851
X158.993Y-79.851
X160.793Y-75.851
X160.793Y-79.851
X173.979Y-76.74
X173.979Y-80.74
X175.779Y-76.74
X175.779Y-80.74
X188.33Y-80.169
X188.33Y-84.169
X190.13Y-80.169
X190.13Y-84.169
T3
X133.985Y-91.123
X133.985Y-93.663
X136.525Y-91.123
X136.525Y-93.663
X139.065Y-91.123
X139.065Y-93.663
X141.605Y-91.123
X141.605Y-93.663
X144.145Y-91.123
X144.145Y-93.663
X156.52Y-91.12
X156.52Y-93.66
X159.06Y-91.12
X159.06Y-93.66
X161.6Y-91.12
X161.6Y-93.66
X164.14Y-91.12
X164.14Y-93.66
X166.68Y-91.12
X166.68Y-93.66
T0
M30
